<svg xmlns="http://www.w3.org/2000/svg" xml:space="preserve" viewBox="0 0 512 512" enable-background="new 0 0 512 512" id="11331553">
  <g id="_x31_3_x2C__agile_x2C__work_process_x2C__implementation_x2C__business_x2C__planning_x2C__business_and_finance" fill="#000000" class="color000000 svgShape">
    <g fill="#000000" class="color000000 svgShape">
      <path d="M506,416.648l-55-60v31.31c-3.067,0-49.609,0-52.75,0L256,445.348h195v31.3L506,416.648z" fill="#cb911f" class="colorcb1f1f svgShape"></path>
      <path d="M331.325,109.854C230.94,51.751,105.35,124.716,105.35,240.348c0,83.2,67.45,150.65,150.65,150.65
			c83.193,0,150.65-67.437,150.65-150.65C406.65,184.587,376.354,135.901,331.325,109.854z" fill="#e6b85e" class="colorbde65e svgShape"></path>
      <circle cx="256" cy="240.348" r="92.317" fill="#ffffff" class="colordfe8eb svgShape"></circle>
      <path d="m256 125.348 11.667 16.317L256 155.348c-46.94 0-85 38.05-85 85l-17.5 8.65-12.5-8.65C141 176.828 192.49 125.348 256 125.348zM341 240.348l14.667-10.35L371 240.348c0 63.51-51.49 115-115 115l-8.667-13.683L256 325.348C302.94 325.348 341 287.288 341 240.348z" fill="#f6c25b" class="colorf6df5b svgShape"></path>
      <path d="m175 85.998 8.48 28.76c-43.33 25.07-72.48 71.92-72.48 125.59l-29.75 31.65L51 240.348c0-75.88 41.22-142.12 102.49-177.56l.01.02L175 85.998zM461 240.348l-33 20-27-20c0-53.67-29.16-100.53-72.5-125.6l-13.25-40.75 43.25-11.19.01-.02C419.78 98.228 461 164.468 461 240.348z" fill="#e1b359" class="colore17559 svgShape"></path>
      <path d="M371 240.348h-30c0-46.95-38.06-85-85-85v-30C319.51 125.348 371 176.828 371 240.348zM256 325.348v30c-63.51 0-115-51.49-115-115h30C171 287.288 209.06 325.348 256 325.348z" fill="#ffb729" class="coloreec158 svgShape"></path>
      <path d="m358.51 62.788-.01.02-32.32 15.98 2.32 35.96c-43.747-25.321-99.33-26.423-145.02.01l-32.3-15.97 2.32-35.98-.01-.02C216.67 26.221 295.191 26.141 358.51 62.788zM431 220.348l30 20c0 57.97-24.06 110.32-62.74 147.61h-.01c-11.94 11.52-25.28 21.59-39.73 29.95l-.02-.03-24.5-21.38-5.47-30.57c43.33-25.07 72.47-71.92 72.47-125.58L431 220.348z" fill="#dca53a" class="colordc483a svgShape"></path>
      <path d="M111,240.348l-30,20l-30-20c0,56.63,22.96,107.89,60.08,145l74.67,15.9l70.25-15.9
			C175.92,385.348,111,320.428,111,240.348z" fill="#cb911f" class="colorcb1f1f svgShape"></path>
      <path d="M211,385.348l33,30l-33,30H81l20-30l-20-30C97.955,385.348,199.273,385.348,211,385.348z" fill="#dca53a" class="colordc483a svgShape"></path>
      <path d="M360.82,381.898l-2.32,35.98l0.02,0.03c-30.16,17.45-65.17,27.44-102.52,27.44h-45l20-30l-20-30h45
			c26.42,0,51.2-7.07,72.53-19.42L360.82,381.898z" fill="#e1b359" class="colore17559 svgShape"></path>
      <polygon points="81 385.348 101 415.348 81 445.348 6 445.348 6 385.348" fill="#e1b359" class="colore17559 svgShape"></polygon>
      <g fill="#000000" class="color000000 svgShape">
        <path d="M509.685,413.273l-55-60c-3.067-3.347-8.686-1.177-8.686,3.379v26.305h-36.004C444.73,345.478,466,295.351,466,240.344
				c0-0.006,0-0.011,0-0.017c0-0.007,0-0.013,0-0.02c-0.02-115.411-93.91-209.963-210-209.963
				c-115.082,0-210.402,93.341-209.999,211.221c0.168,49.136,17.49,98.638,53.475,138.779c-11.241,0-81.438,0-93.476,0
				c-2.762,0-5,2.238-5,5v60c0,2.762,2.238,5,5,5c23.493,0,414.782,0.005,440,0.005v26.304c0,4.55,5.612,6.732,8.686,3.379l55-60
				C511.438,418.119,511.438,415.185,509.685,413.273z M256,440.344h-35.657l14.818-22.227c1.12-1.68,1.12-3.867,0-5.547
				l-14.818-22.227H256c26.328,0,51.088-6.827,72.618-18.79l26.998,13.35l-1.928,29.903
				C324.781,431.057,291.457,440.344,256,440.344z M90.342,440.344l14.818-22.227c1.12-1.68,1.12-3.867,0-5.547l-14.818-22.227
				h117.982l16.667,25l-16.667,25H90.342z M116,240.344c0-77.196,62.804-140,140-140c77.187,0,139.984,62.788,140,139.971
				c0,0.002,0,0.004,0,0.006c0,0.008,0,0.015,0,0.023c0,77.196-62.804,140-140,140C178.87,380.344,116.013,317.619,116,240.344z
				 M363.036,377.416l-24.303-12.017c39.805-26.422,66.326-71.317,67.232-122.357L431,226.352l24.966,16.645
				c-0.908,69.381-37.31,130.353-91.854,165.536l1.697-26.312C365.939,380.206,364.846,378.311,363.036,377.416z M455.769,230.847
				l-21.996-14.664c-1.68-1.119-3.867-1.119-5.547,0l-22.514,15.009c-3.062-50.614-31.329-94.536-72.391-119.339l-1.938-30.06
				l26.854-13.278C414.182,101.93,452.528,161.87,455.769,230.847z M347.631,62.604l-23.667,11.702
				c-1.81,0.895-2.903,2.79-2.773,4.805l1.743,27.022c-43.876-21.971-96.222-21.075-139.55,3l-26.999-13.349l1.928-29.903
				C217.57,32.568,288.921,32.214,347.631,62.604z M147.887,72.155l-1.697,26.312c-0.13,2.015,0.964,3.91,2.773,4.805l24.303,12.017
				c-39.805,26.422-66.327,71.317-67.233,122.357L81,254.335L56.034,237.69C56.942,168.309,93.344,107.337,147.887,72.155z
				 M56.225,249.836l22.001,14.668c1.687,1.124,3.872,1.116,5.547,0l22.514-15.009c3.616,59.776,42.392,110.212,95.872,130.849
				h-88.973C78.521,344.991,58.509,299.029,56.225,249.836z M11,390.344h67.324l16.667,25l-16.667,25H11V390.344z M456,463.798
				v-18.449c0-2.762-2.238-5-5-5H320.032c30.889-9.913,57.935-26.485,80.066-47.392H451c2.762,0,5-2.238,5-5v-18.45l43.217,47.146
				L456,463.798z" fill="#000000" class="color000000 svgShape"></path>
        <path d="M256,360.344c66.168,0,120-53.832,120-120s-53.832-120-120-120s-120,53.832-120,120S189.832,360.344,256,360.344z
				 M146.119,245.344h20.022c2.513,45.653,39.206,82.346,84.859,84.859v20.022C194.316,347.676,148.667,302.028,146.119,245.344z
				 M256,160.344c44.112,0,80,35.888,80,80s-35.888,80-80,80s-80-35.888-80-80S211.888,160.344,256,160.344z M261,350.225v-20.022
				c45.653-2.513,82.346-39.205,84.859-84.859h20.022C363.332,302.028,317.684,347.676,261,350.225z M365.881,235.344h-20.022
				c-2.513-45.653-39.206-82.346-84.859-84.859v-20.022C317.684,133.011,363.332,178.659,365.881,235.344z M251,130.462v20.022
				c-45.653,2.513-82.346,39.205-84.859,84.859h-20.022C148.667,178.659,194.316,133.011,251,130.462z" fill="#000000" class="color000000 svgShape"></path>
      </g>
    </g>
  </g>
</svg>
