<svg xmlns="http://www.w3.org/2000/svg" viewBox="0 0 520 520" id="2881914">
  <path fill="#ffffff" d="M470 110v230H50V110h420z" class="colore3f5ff svgShape"></path>
  <path fill="#ffd480" d="M340 150v150h-40V150z" class="color8095ff svgShape"></path>
  <path fill="#ffd278" d="M300 170v130h-40V170z" class="colorffe278 svgShape"></path>
  <path fill="#ffb729" d="M260 190v110h-40V190z" class="colorff884d svgShape"></path>
  <path fill="#eab44b" d="M180 210h40v90h-40z" class="colorc6ea4b svgShape"></path>
  <path fill="#737373" d="M290 40v20h-60V40c0-16.56 13.43-30 30-30 8.28 0 15.78 3.36 21.21 8.79C286.64 24.22 290 31.72 290 40zM310 390l50 120h-50l-50-120zM260 390l-50 120h-50l50-120z" class="color3b6bab svgShape"></path>
  <path fill="#ffdd99" d="M485 60c13.81 0 25 11.2 25 25 0 13.798-11.178 25-25 25H35c-13.81 0-25-11.19-25-25 0-13.802 11.199-25 25-25h450zm0 280c13.81 0 25 11.2 25 25 0 13.798-11.178 25-25 25H35c-13.81 0-25-11.19-25-25 0-13.802 11.199-25 25-25h450z" class="color99ccff svgShape"></path>
  <path d="M50 115H35c-16.542 0-30-13.458-30-30 0-8.011 3.12-15.541 8.785-21.206C19.441 58.125 26.977 55 35 55h195a5 5 0 1 1 0 10H35a19.846 19.846 0 0 0-14.141 5.861A19.868 19.868 0 0 0 15 85c0 11.028 8.972 20 20 20h15a5 5 0 1 1 0 10zm435 0h-15a5 5 0 1 1 0-10h15a19.87 19.87 0 0 0 14.145-5.855C502.919 95.361 505 90.337 505 85c0-11.028-8.972-20-20-20H290a5 5 0 1 1 0-10h195c16.542 0 30 13.458 30 30 0 8.005-3.118 15.538-8.781 21.212C500.551 111.88 493.017 115 485 115zM210 395H35c-16.542 0-30-13.458-30-30 0-8.011 3.12-15.541 8.785-21.206C19.441 338.125 26.977 335 35 335h15a5 5 0 1 1 0 10H35a19.846 19.846 0 0 0-14.141 5.861A19.868 19.868 0 0 0 15 365c0 11.028 8.972 20 20 20h175a5 5 0 1 1 0 10zm275 0H310a5 5 0 1 1 0-10h175a19.87 19.87 0 0 0 14.145-5.855C502.919 375.361 505 370.337 505 365c0-11.028-8.972-20-20-20h-15a5 5 0 1 1 0-10h15c16.542 0 30 13.458 30 30 0 8.005-3.118 15.538-8.781 21.212C500.551 391.88 493.017 395 485 395z" fill="#000000" class="color000000 svgShape"></path>
  <path d="M470 345H50a5 5 0 0 1-5-5V110a5 5 0 0 1 5-5h420a5 5 0 0 1 5 5v230a5 5 0 0 1-5 5zM55 335h410V115H55v220z" fill="#000000" class="color000000 svgShape"></path>
  <path d="M180 305a5 5 0 0 1-5-5v-90a5 5 0 0 1 5-5h40a5 5 0 1 1 0 10h-35v85a5 5 0 0 1-5 5z" fill="#000000" class="color000000 svgShape"></path>
  <path d="M220 305a5 5 0 0 1-5-5V190a5 5 0 0 1 5-5h40a5 5 0 1 1 0 10h-35v105a5 5 0 0 1-5 5z" fill="#000000" class="color000000 svgShape"></path>
  <path d="M260 305a5 5 0 0 1-5-5V170a5 5 0 0 1 5-5h40a5 5 0 1 1 0 10h-35v125a5 5 0 0 1-5 5z" fill="#000000" class="color000000 svgShape"></path>
  <path d="M340 305a5 5 0 0 1-5-5V155h-30v145a5 5 0 1 1-10 0V150a5 5 0 0 1 5-5h40a5 5 0 0 1 5 5v150a5 5 0 0 1-5 5z" fill="#000000" class="color000000 svgShape"></path>
  <path d="M370 305H150a5 5 0 1 1 0-10h220a5 5 0 1 1 0 10zM290 65h-60a5 5 0 0 1-5-5V40c0-19.299 15.701-35 35-35 9.344 0 18.132 3.642 24.745 10.254C291.358 21.866 295 30.654 295 40v20a5 5 0 0 1-5 5zm-55-10h50V40c0-6.674-2.602-12.951-7.325-17.674C272.95 17.602 266.673 15 260 15c-13.785 0-25 11.215-25 25v15zm-25 460h-50a5 5 0 0 1-4.615-6.923l50-120A5 5 0 0 1 210 385h50a5 5 0 0 1 4.615 6.923l-50 120A4.999 4.999 0 0 1 210 515zm-42.5-10h39.167L252.5 395h-39.167L167.5 505z" fill="#000000" class="color000000 svgShape"></path>
  <path d="M360 515h-50a4.999 4.999 0 0 1-4.615-3.077l-50-120A5 5 0 0 1 260 385h50a4.999 4.999 0 0 1 4.615 3.077l50 120A5 5 0 0 1 360 515zm-46.667-10H352.5l-45.833-110H267.5l45.833 110z" fill="#000000" class="color000000 svgShape"></path>
</svg>
