<svg xmlns="http://www.w3.org/2000/svg" xml:space="preserve" viewBox="0 0 512 512" enable-background="new 0 0 512 512" id="11331558">
  <g id="_x31_8_x2C__analytics_x2C__data_x2C__laptop_x2C__data_analytics_x2C__business_x2C__seo_and_web" fill="#000000" class="color000000 svgShape">
    <g fill="#000000" class="color000000 svgShape">
      <g fill="#000000" class="color000000 svgShape">
        <path d="M435.441,6h-358.8c-22.42,0-40.6,18.18-40.6,40.6v208.8c0,22.42,18.18,40.6,40.6,40.6h14.67
				l156.73,22l172.73-22h14.67c22.42,0,40.6-18.18,40.6-40.6V46.6C476.041,24.18,457.861,6,435.441,6z" fill="#575757" class="color495f66 svgShape"></path>
        <rect width="370" height="220" x="71.041" y="41" fill="#ffffff" class="colordfe8eb svgShape"></rect>
        <path d="M477.021,339.92c-6.45-25.81-29.65-43.92-56.25-43.92H91.311c-26.6,0-49.8,18.11-56.25,43.92
				L6.041,456l246.5,17.5l253.5-17.5L477.021,339.92z" fill="#464646" class="color3b4a51 svgShape"></path>
        <path d="M310.251,437.03l3.79,18.97l-58,11.25l-58-11.25l3.79-18.97c2.45-12.23,13.19-21.03,25.66-21.03
				h57.1C297.061,416,307.801,424.8,310.251,437.03z" fill="#373737" class="color283646 svgShape"></path>
        <path d="M506.041,456v20c0,16.57-13.43,30-30,30h-440c-16.57,0-30-13.43-30-30v-20
				C30.045,456,489.816,456,506.041,456z" fill="#575757" class="color495f66 svgShape"></path>
      </g>
      <polygon points="292.291 186 286.041 236 256.041 236 256.041 186" fill="#e6b85e" class="colorbde65e svgShape"></polygon>
      <path d="M161.041,196c-35.9,0-65-29.1-65-65l50.5-13.333L161.041,66c35.9,0,65,29.1,65,65
			C226.041,166.874,196.964,196,161.041,196z" fill="#e1b359" class="colore17559 svgShape"></path>
      <path d="M161.041,66v65h-65C96.041,95.1,125.141,66,161.041,66z" fill="#ffb729" class="colorf6df5b svgShape"></path>
      <path d="M321.791,171l-5.75,65h-30c0-14.065,0-48.61,0-65H321.791z" fill="#e1b359" class="colore17559 svgShape"></path>
      <path d="M350.291,156l-4.25,80h-30c0-8.394,0-70.026,0-80H350.291z" fill="#ffb729" class="colorf6df5b svgShape"></path>
      <path d="M381.041,141l-5,95h-30c0-11.923,0-80.73,0-95H381.041z" fill="#f5cd7e" class="color7ed7f5 svgShape"></path>
      <path d="M406.041,126v110h-30c0-23.08,0-86.816,0-110H406.041z" fill="#d4b371" class="color717ed4 svgShape"></path>
      <g fill="#000000" class="color000000 svgShape">
        <path d="M510.95,455.095c-0.011-0.06-0.021-0.119-0.033-0.178c-0.01-0.044-0.014-0.087-0.025-0.13l-29.021-116.08
				c-4.435-17.742-16.097-32.097-31.381-40.271c17.77-6.232,30.551-23.165,30.551-43.036V46.6c0-25.144-20.456-45.6-45.6-45.6
				H76.641c-25.144,0-45.6,20.456-45.6,45.6V255.4c0,19.871,12.781,36.804,30.551,43.036c-15.283,8.174-26.946,22.529-31.381,40.271
				C17.097,391.303-0.39,460.564,1.041,456v20c0,19.299,15.701,35,35,35h440c19.299,0,35-15.701,35-35v-19.993
				C511.041,455.707,511.007,455.402,510.95,455.095z M76.641,291c-19.63,0-35.6-15.97-35.6-35.6V46.6c0-19.63,15.97-35.6,35.6-35.6
				h358.801c19.63,0,35.6,15.97,35.6,35.6V255.4c0,19.63-15.97,35.6-35.6,35.6C395.405,291,119.679,291,76.641,291z M39.912,341.133
				C45.819,317.503,66.955,301,91.313,301H420.77c24.357,0,45.494,16.503,51.4,40.133L499.637,451H318.141l-2.99-14.951
				C312.247,421.534,299.398,411,284.596,411h-57.109c-14.802,0-27.651,10.534-30.555,25.049L193.942,451H12.446L39.912,341.133z
				 M204.14,451l2.599-12.99c1.971-9.856,10.696-17.01,20.748-17.01h57.109c10.052,0,18.777,7.153,20.748,17.01l2.599,12.99H204.14z
				 M501.041,476c0,13.785-11.215,25-25,25h-440c-13.785,0-25-11.215-25-25v-15c163.945,0,394.756,0,490,0V476z" fill="#000000" class="color000000 svgShape"></path>
        <path d="M120.719 341c0-2.762-2.238-5-5-5h-9.678c-2.762 0-5 2.238-5 5s2.238 5 5 5h9.678C118.481 346 120.719 343.762 120.719 341zM164.106 336h-9.678c-2.762 0-5 2.238-5 5s2.238 5 5 5h9.678c2.762 0 5-2.238 5-5S166.867 336 164.106 336zM202.816 346h9.677c2.762 0 5-2.238 5-5s-2.238-5-5-5h-9.677c-2.762 0-5 2.238-5 5S200.054 346 202.816 346zM251.202 346h9.678c2.762 0 5-2.238 5-5s-2.238-5-5-5h-9.678c-2.762 0-5 2.238-5 5S248.441 346 251.202 346zM299.59 346h9.677c2.762 0 5-2.238 5-5s-2.238-5-5-5h-9.677c-2.762 0-5 2.238-5 5S296.828 346 299.59 346zM347.977 346h9.678c2.762 0 5-2.238 5-5s-2.238-5-5-5h-9.678c-2.762 0-5 2.238-5 5S345.215 346 347.977 346zM396.364 346h9.678c2.762 0 5-2.238 5-5s-2.238-5-5-5h-9.678c-2.762 0-5 2.238-5 5S393.602 346 396.364 346zM97.009 371H86.041c-2.762 0-5 2.238-5 5s2.238 5 5 5h10.968c2.762 0 5-2.238 5-5S99.771 371 97.009 371zM151.848 371H140.88c-2.762 0-5 2.238-5 5s2.238 5 5 5h10.968c2.762 0 5-2.238 5-5S154.61 371 151.848 371zM195.719 381h10.968c2.762 0 5-2.238 5-5s-2.238-5-5-5h-10.968c-2.762 0-5 2.238-5 5S192.957 381 195.719 381zM250.558 381h10.967c2.762 0 5-2.238 5-5s-2.238-5-5-5h-10.967c-2.762 0-5 2.238-5 5S247.796 381 250.558 381zM300.396 376c0 2.762 2.238 5 5 5h10.968c2.762 0 5-2.238 5-5s-2.238-5-5-5h-10.968C302.634 371 300.396 373.238 300.396 376zM355.235 376c0 2.762 2.238 5 5 5h10.968c2.762 0 5-2.238 5-5s-2.238-5-5-5h-10.968C357.473 371 355.235 373.238 355.235 376zM415.073 381h10.968c2.762 0 5-2.238 5-5s-2.238-5-5-5h-10.968c-2.762 0-5 2.238-5 5S412.312 381 415.073 381zM73.622 406H61.041c-2.762 0-5 2.238-5 5s2.238 5 5 5h12.581c2.762 0 5-2.238 5-5S76.384 406 73.622 406zM136.525 406h-12.58c-2.762 0-5 2.238-5 5s2.238 5 5 5h12.58c2.762 0 5-2.238 5-5S139.286 406 136.525 406zM370.558 411c0 2.762 2.238 5 5 5h12.58c2.762 0 5-2.238 5-5s-2.238-5-5-5h-12.58C372.796 406 370.558 408.238 370.558 411zM438.46 416h12.581c2.762 0 5-2.238 5-5s-2.238-5-5-5H438.46c-2.762 0-5 2.238-5 5S435.698 416 438.46 416zM446.041 261V41c0-2.762-2.238-5-5-5h-370c-2.762 0-5 2.238-5 5v220c0 2.762 2.238 5 5 5h370C443.803 266 446.041 263.762 446.041 261zM436.041 256h-360V46h360V256z" fill="#000000" class="color000000 svgShape"></path>
        <path d="M246.041 241c73.106 0 95.962 0 170 0 2.762 0 5-2.238 5-5s-2.238-5-5-5h-5V126c0-2.762-2.238-5-5-5h-30c-2.762 0-5 2.238-5 5v10h-25c-2.762 0-5 2.238-5 5v10h-25c-2.762 0-5 2.238-5 5v10h-25c-2.762 0-5 2.238-5 5v10h-25c-2.762 0-5 2.238-5 5v45h-5c-2.762 0-5 2.238-5 5S243.28 241 246.041 241zM381.041 131h20v100h-20C381.041 216.141 381.041 135.471 381.041 131zM351.041 146h20v85h-20C351.041 222.819 351.041 158.813 351.041 146zM321.041 161h20v70h-20C321.041 216.401 321.041 176.015 321.041 161zM291.041 176h20v55h-20C291.041 224.853 291.041 182.737 291.041 176zM261.041 191h20v40h-20V191zM258.278 165.472l112.764-56.382V111c0 2.762 2.238 5 5 5s5-2.238 5-5c-.052-10.504.374-11.133-.997-12.977-.975-1.314-.915-1.037-11.767-6.494-2.47-1.237-5.474-.235-6.708 2.235-1.235 2.47-.234 5.474 2.235 6.708l1.057.528-111.057 55.528c-2.47 1.234-3.471 4.238-2.235 6.708C252.807 165.71 255.814 166.705 258.278 165.472zM96.041 211c-2.762 0-5 2.238-5 5s2.238 5 5 5h55c1.724 0 3.326-.888 4.24-2.35l11.175-17.88c36.074-2.776 64.584-32.996 64.584-69.77 0-38.598-31.402-70-70-70s-70 31.402-70 70c0 36.461 28.027 66.486 63.666 69.7L148.27 211H96.041zM156.041 71.224V126h-54.776C103.68 96.899 126.94 73.639 156.041 71.224zM101.266 136h59.776c2.762 0 5-2.238 5-5V71.224c30.751 2.551 55 28.377 55 59.776 0 28.862-20.486 53.024-47.68 58.723l6.92-11.072c1.463-2.342.751-5.427-1.59-6.891-2.342-1.463-5.428-.752-6.891 1.59l-11.027 17.644C129.497 190.855 103.81 166.664 101.266 136zM96.041 241h50c2.762 0 5-2.238 5-5s-2.238-5-5-5h-50c-2.762 0-5 2.238-5 5S93.28 241 96.041 241z" fill="#000000" class="color000000 svgShape"></path>
      </g>
    </g>
  </g>
</svg>
