<svg xmlns="http://www.w3.org/2000/svg" viewBox="0 0 520 520" id="2881889">
  <path fill="#ffffff" d="M470 105v240H50V105h420z" class="colore3f5ff svgShape"></path>
  <path fill="#eab44b" d="m220 210 10 45-10 45h-40v-90h40z" class="colorc6ea4b svgShape"></path>
  <path fill="#000000" d="M290 40v20l-30 8.997L230 60V40c0-16.562 13.432-30 30-30 16.625 0 30 13.491 30 30zm20 350 50 120h-50l-50-120 25-7.668L310 390zm-50 0-50 120h-50l50-120 32.668-7.668L260 390z" class="color3b6bab svgShape"></path>
  <path fill="#ffdd99" d="M485 60c13.81 0 25 11.2 25 25 0 13.798-11.178 25-25 25H35c-13.81 0-25-11.19-25-25 0-13.802 11.199-25 25-25h450zm0 280c13.81 0 25 11.2 25 25 0 13.798-11.178 25-25 25H35c-13.81 0-25-11.19-25-25 0-13.802 11.199-25 25-25h450z" class="color99ccff svgShape"></path>
  <path fill="#ffb729" d="m260 190 8.333 55L260 300h-40V190h40z" class="colorff884d svgShape"></path>
  <path fill="#ffd278" d="m300 170 10 65-10 65h-40V170h40z" class="colorffe278 svgShape"></path>
  <path fill="#ffd480" d="M340 150v150h-40V150h40z" class="color8095ff svgShape"></path>
  <path fill="#f0e2c5" d="M370 305H150a5 5 0 1 1 0-10h220a5 5 0 1 1 0 10z" class="colorc5e6f0 svgShape"></path>
</svg>
