<svg xmlns="http://www.w3.org/2000/svg" viewBox="0 0 520 520" id="2881873">
  <path fill="#ffffff" d="M190 370c5.524 0 10.524 2.24 14.142 5.859 5.827 5.828 7.377 14.475 4.341 21.798C205.485 404.887 198.337 410 190 410h-30l-17-20 17-20h30z" class="colorff4d4d svgShape"></path>
  <path fill="#000000" d="M160 490H90V310c1.879 0 18.424-16.337 35.001-16.337C141.125 293.663 157.279 310 160 310v180z" class="color3b6bab svgShape"></path>
  <path fill="#ffb729" d="M160 310H95c-46.938 0-85-38.044-85-85 0-46.939 38.059-85 85-85h65c43.682 114.961 33 109.899 33 110.001 0 23.609-33 47.087-33 59.999z" class="colorffb454 svgShape"></path>
  <path fill="#ffc34d" d="M160 195H80a5 5 0 1 1 0-10h80a5 5 0 1 1 0 10zm0 70H80a5 5 0 1 1 0-10h80a5 5 0 1 1 0 10zm315-75c19.329 0 35 15.669 35 35 0 19.325-15.665 35-35 35h-25l-19-35 19-35h25z" class="colorff884d svgShape"></path>
  <path fill="#ffd278" d="m390 60 23.667 165L390 390l-115-40-115-40V140l115-40 115-40z" class="colorffe278 svgShape"></path>
  <path fill="#ffb729" d="M340 335a5 5 0 0 1-5-5V120a5 5 0 1 1 10 0v210a5 5 0 0 1-5 5zm-40-30a5 5 0 0 1-5-5V150a5 5 0 1 1 10 0v150a5 5 0 0 1-5 5zm-40-30a5 5 0 0 1-5-5v-90a5 5 0 1 1 10 0v90a5 5 0 0 1-5 5zm190 115c0 16.57-13.43 30-30 30s-30-13.43-30-30V60c0-16.56 13.43-30 30-30 16.56 0 30 13.439 30 30v330z" class="colorffb454 svgShape"></path>
</svg>
