<svg xmlns="http://www.w3.org/2000/svg" viewBox="0 0 520 520" id="2881898">
  <path fill="#ffffff" d="M475 190c19.33 0 35 15.67 35 35 0 9.67-3.92 18.41-10.25 24.75C493.42 256.08 484.66 260 475 260h-25v-70h25z" class="colorff884d svgShape"></path>
  <path fill="#ffb729" d="M450 390c0 16.57-13.43 30-30 30s-30-13.43-30-30V60c0-16.56 13.43-30 30-30 16.56 0 30 13.44 30 30v330z" class="colorffb454 svgShape"></path>
  <path fill="#737373" d="M160 490H90V310h70v180z" class="color3b6bab svgShape"></path>
  <path fill="#ffc34d" d="M190 370c11.05 0 20 8.96 20 20 0 5.53-2.24 10.53-5.86 14.14A19.938 19.938 0 0 1 190 410h-30v-40h30z" class="colorff4d4d svgShape"></path>
  <path fill="#ffb729" d="M160 310H95c-46.959 0-85-38.065-85-85 0-46.94 38.06-85 85-85h65v170z" class="colorffb454 svgShape"></path>
  <path fill="#ffd278" d="M390 60v330l-230-80V140l230-80z" class="colorffe278 svgShape"></path>
  <path d="M450 195a5 5 0 0 1-5-5V60c0-6.674-2.602-12.951-7.325-17.674C432.95 37.602 426.673 35 420 35c-13.785 0-25 11.215-25 25a5 5 0 1 1-10 0c0-19.299 15.701-35 35-35 9.344 0 18.132 3.642 24.745 10.254C451.358 41.866 455 50.654 455 60v130a5 5 0 0 1-5 5zm-30 230c-19.299 0-35-15.701-35-35a5 5 0 1 1 10 0c0 13.785 11.215 25 25 25s25-11.215 25-25V260a5 5 0 1 1 10 0v130c0 19.299-15.701 35-35 35z" fill="#000000" class="color000000 svgShape"></path>
  <path d="M475 265h-25a5 5 0 0 1-5-5v-70a5 5 0 0 1 5-5h25c22.056 0 40 17.944 40 40 0 10.675-4.159 20.719-11.712 28.283C495.731 260.84 485.686 265 475 265zm-20-10h20c8.015 0 15.549-3.12 21.214-8.785C501.879 240.541 505 233.006 505 225c0-16.542-13.458-30-30-30h-20v60zm-65 140a5.024 5.024 0 0 1-1.642-.277l-230-80a5 5 0 0 1 3.285-9.445L385 382.967V67.033l-223.357 77.689a5 5 0 0 1-3.285-9.445l230-80a5.009 5.009 0 0 1 4.54.647A5.004 5.004 0 0 1 395 60v330a4.999 4.999 0 0 1-5 5z" fill="#000000" class="color000000 svgShape"></path>
  <path d="M160 315a5 5 0 0 1-5-5V145H95c-44.112 0-80 35.888-80 80 0 21.37 8.323 41.462 23.436 56.575C53.542 296.681 73.63 305 95 305a5 5 0 1 1 0 10c-24.041 0-46.641-9.359-63.636-26.354C14.363 271.645 5 249.041 5 225c0-49.626 40.374-90 90-90h65a5 5 0 0 1 5 5v170a5 5 0 0 1-5 5z" fill="#000000" class="color000000 svgShape"></path>
  <path d="M160 495H90a5 5 0 0 1-5-5V310a5 5 0 0 1 5-5h70a5 5 0 0 1 5 5v60a5 5 0 1 1-10 0v-55H95v170h60v-75a5 5 0 1 1 10 0v80a5 5 0 0 1-5 5zm0-300H80a5 5 0 1 1 0-10h80a5 5 0 1 1 0 10zm0 70H80a5 5 0 1 1 0-10h80a5 5 0 1 1 0 10z" fill="#000000" class="color000000 svgShape"></path>
  <path d="M190 415h-30a5 5 0 0 1-5-5v-40a5 5 0 0 1 5-5h30c13.785 0 25 11.215 25 25 0 6.689-2.603 12.967-7.329 17.681C202.952 412.398 196.675 415 190 415zm-25-10h25a14.9 14.9 0 0 0 10.605-4.396A14.868 14.868 0 0 0 205 390c0-8.272-6.729-15-15-15h-25v30zm175-70a5 5 0 0 1-5-5V120a5 5 0 1 1 10 0v210a5 5 0 0 1-5 5zm-40-30a5 5 0 0 1-5-5V150a5 5 0 1 1 10 0v150a5 5 0 0 1-5 5zm-40-30a5 5 0 0 1-5-5v-90a5 5 0 1 1 10 0v90a5 5 0 0 1-5 5z" fill="#000000" class="color000000 svgShape"></path>
</svg>
