<svg xmlns="http://www.w3.org/2000/svg" xml:space="preserve" viewBox="0 0 512 512" enable-background="new 0 0 512 512" id="11331567">
  <g id="_x32_7_x2C__automation_x2C__production_x2C__industrial_process_x2C__automatic_x2C__industry_x2C__manipulator" fill="#000000" class="color000000 svgShape">
    <g fill="#000000" class="color000000 svgShape">
      <g fill="#000000" class="color000000 svgShape">
        <path d="m341 476.001-82.5 12.5-87.5-12.5 3.58-1.43c28.03-11.22 46.42-38.37 46.42-68.57l32.667-15.833L291 406.001c0 30.2 18.39 57.35 46.42 68.57L341 476.001zM462.4 86.001H49.6c-24.08 0-43.6 19.52-43.6 43.6v221.4l250 25.5 250-25.5v-221.4C506 105.521 486.48 86.001 462.4 86.001z" fill="#575757" class="color495f66 svgShape"></path>
        <rect width="430" height="238.5" x="41" y="121.001" fill="#ffffff" class="colordfe8eb svgShape"></rect>
        <path d="M506 351.001v11.4c0 24.08-19.52 43.6-43.6 43.6-20.751 0-396.847 0-412.8 0-24.08 0-43.6-19.52-43.6-43.6v-11.4C26.27 351.001 473.623 351.001 506 351.001zM431 501.001H86c0-13.824 11.2-25 25-25 7.176 0 293.942 0 295 0C419.81 476.001 431 487.191 431 501.001z" fill="#464646" class="color3b4a51 svgShape"></path>
      </g>
      <rect width="50" height="100.167" x="161" y="135.501" fill="#f5cd7e" class="color7ed7f5 svgShape"></rect>
      <path d="M231,231.001v26.667h-90v-26.667C166.065,231.001,202.789,231.001,231,231.001z" fill="#464646" class="color3b4a51 svgShape"></path>
      <path d="M351,51.834c0,9.542,0,43.969,0,58.333h30c0-14.289,0-48.809,0-58.333H351z" fill="#f5cd7e" class="color7ed7f5 svgShape"></path>
      <rect width="73" height="30" x="277" y="21.001" fill="#f5cd7e" class="color7ed7f5 svgShape"></rect>
      <path d="M236.25,39.531l-38.49,38.49l21.22,21.22c7.294-7.294,31.091-31.091,38.49-38.49L236.25,39.531z" fill="#f5cd7e" class="color7ed7f5 svgShape"></path>
      <path d="M366 151.001c-15.776 0-27.664-14.468-24.5-30 3.644-17.926 24.846-26.008 39.5-15 4.8 3.6 8.26 8.9 9.5 15C393.661 136.519 381.788 151.001 366 151.001zM391 33.295c0 15.379-11.264 27.706-25 27.706-20.595 0-32.327-26.144-20-44.33C350.56 9.944 391 6.872 391 33.295zM281 51.001c-14.364 19.121-45 9.043-45-15 0-13.81 11.19-25 25-25C281.78 11.001 293.187 34.777 281 51.001zM211 135.501c-18.631 18.983-50.918 11.079-58.55-14.5-8.152-27.49 18.42-52.552 45.31-42.98C221.994 86.688 228.738 117.401 211 135.501z" fill="#ffb729" class="colorf6df5b svgShape"></path>
      <path d="M256 251.001c16.57 0 30 13.43 30 30s-13.43 30-30 30-30-13.43-30-30S239.43 251.001 256 251.001zM126 251.001c16.57 0 30 13.43 30 30s-13.43 30-30 30-30-13.43-30-30S109.43 251.001 126 251.001zM386 251.001c16.57 0 30 13.43 30 30s-13.43 30-30 30-30-13.43-30-30S369.43 251.001 386 251.001z" fill="#464646" class="color3b4a51 svgShape"></path>
      <g fill="#000000" class="color000000 svgShape">
        <path d="M226 281.001c0-16.57 13.43-30 30-30-43.364 0-86.677 0-130 0 16.57 0 30 13.43 30 30s-13.43 30-30 30h130C239.43 311.001 226 297.571 226 281.001zM356 281.001c0-16.57 13.43-30 30-30H256c16.57 0 30 13.43 30 30s-13.43 30-30 30h130C369.43 311.001 356 297.571 356 281.001z" fill="#575757" class="color495f66 svgShape"></path>
      </g>
      <path d="M351,86.001v20c-4.8,3.6-8.26,8.9-9.5,15H219.55c2.116-7.137,1.909-14.797-0.57-21.76l13.24-13.24
			H351z" fill="#575757" class="color495f66 svgShape"></path>
      <circle cx="126" cy="281.001" r="10" fill="#f2dcb1" class="colorb1c7f2 svgShape"></circle>
      <circle cx="256" cy="281.001" r="10" fill="#f2dcb1" class="colorb1c7f2 svgShape"></circle>
      <circle cx="386" cy="281.001" r="10" fill="#f2dcb1" class="colorb1c7f2 svgShape"></circle>
      <g fill="#000000" class="color000000 svgShape">
        <path d="M462.4,81.001H386V58.337c20.376-18.263,7.571-52.336-20-52.336c-8.864,0-16.84,3.867-22.337,10h-60.327
				c-18.816-20.993-53.844-6.628-52.288,21.662l-34.703,34.702c-12.673-3.397-26.476-0.43-36.76,8.636H49.6
				c-26.798,0-48.6,21.802-48.6,48.6v232.801c0,26.798,21.802,48.6,48.6,48.6h166.218c-1.87,26.241-18.365,49.034-43.099,58.927
				l-2.683,1.073H111c-16.542,0-30,13.458-30,30c0,2.762,2.238,5,5,5h345c2.762,0,5-2.238,5-5c0-16.542-13.458-30-30-30h-64.036
				l-2.683-1.073c-24.733-9.893-41.228-32.686-43.098-58.927H462.4c26.798,0,48.6-21.802,48.6-48.6V129.6
				C511,102.803,489.198,81.001,462.4,81.001z M462.4,91.001c21.284,0,38.6,17.315,38.6,38.6v216.4h-25v-225c0-2.762-2.238-5-5-5
				h-76.72c-1.697-4.784-4.573-9.014-8.28-12.336V91.001H462.4z M283.337,56.001h60.327c0.736,0.821,1.516,1.601,2.337,2.336v22.664
				H244.291l15.048-15.048C268.558,66.46,277.292,62.744,283.337,56.001z M386,126.001c0,11.028-8.972,20-20,20s-20-8.972-20-20
				s8.972-20,20-20S386,114.973,386,126.001z M234.291,91.001H346v12.664c-3.707,3.323-6.583,7.552-8.28,12.336H225.676
				c0.673-5.366,0.268-10.464-1.04-15.345L234.291,91.001z M361,281.001c0-13.785,11.215-25,25-25s25,11.215,25,25s-11.215,25-25,25
				S361,294.786,361,281.001z M351,281.001c0,9.786,4.042,18.642,10.539,25h-81.077c14.044-13.744,14.061-36.238,0-50h81.077
				C355.042,262.359,351,271.215,351,281.001z M281,281.001c0,13.785-11.215,25-25,25s-25-11.215-25-25s11.215-25,25-25
				S281,267.216,281,281.001z M151,281.001c0,13.785-11.215,25-25,25s-25-11.215-25-25s11.215-25,25-25S151,267.216,151,281.001z
				 M150.461,256.001c8.647,0,72.087,0,81.077,0c-14.044,13.744-14.061,36.238,0,50h-81.077
				C164.505,292.257,164.523,269.762,150.461,256.001z M226,246.001h-80v-10c23.948,0,56.038,0,80,0V246.001z M206,226.001h-40
				v-80.382c12.1,7.018,27.36,7.331,40,0V226.001z M156,137.416v88.585h-15c-2.762,0-5,2.238-5,5v15h-10c-19.299,0-35,15.701-35,35
				s15.701,35,35,35h260c19.299,0,35-15.701,35-35s-15.701-35-35-35H236v-15c0-2.762-2.238-5-5-5h-15v-88.585
				c2.958-3.355,5.362-7.207,7.071-11.415h111.421L312.159,152.8c-1.456,1.747-1.55,4.257-0.228,6.107l25,35
				c1.597,2.236,4.719,2.775,6.975,1.162c2.247-1.604,2.768-4.728,1.162-6.975l-22.756-31.858l15.864-19.037
				c10.112,25.032,45.546,25.005,55.647,0l15.864,19.037l-22.756,31.858c-1.605,2.247-1.085,5.37,1.162,6.975
				c2.251,1.609,5.375,1.078,6.975-1.162l25-35c1.322-1.851,1.229-4.36-0.228-6.107l-22.332-26.799H466v220H46v-220h102.929
				C150.638,130.209,153.042,134.06,156,137.416z M376,97.721c-6.288-2.23-13.354-2.357-20,0v-33.44c6.288,2.23,13.354,2.357,20,0
				V97.721z M366,16.001c11.028,0,20,8.972,20,20s-8.972,20-20,20s-20-8.972-20-20S354.972,16.001,366,16.001z M337.72,26.001
				c-2.23,6.288-2.357,13.354,0,20h-48.44c2.23-6.288,2.357-13.354,0-20H337.72z M261,16.001c11.028,0,20,8.972,20,20
				s-8.972,20-20,20s-20-8.972-20-20S249.972,16.001,261,16.001z M233.929,48.922c2.96,6.177,7.973,11.189,14.15,14.15
				c-7.067,7.067-21.176,21.177-27.632,27.632c-3.446-5.826-8.324-10.704-14.15-14.15L233.929,48.922z M216,111.001
				c0,16.542-13.458,30-30,30s-30-13.458-30-30s13.458-30,30-30S216,94.459,216,111.001z M49.6,91.001h101.782
				c-4.323,7.453-6.171,16.122-5.058,25H41c-2.762,0-5,2.238-5,5v225H11V129.6C11,108.316,28.315,91.001,49.6,91.001z
				 M425.367,496.001H91.633c2.226-8.616,10.065-15,19.367-15c5.835,0,286.423,0,295,0
				C415.302,481.001,423.142,487.385,425.367,496.001z M320.169,471.001H191.831c19.835-13.559,32.479-35.5,34.002-60h60.335
				C287.69,435.501,300.334,457.442,320.169,471.001z M462.4,401.001H49.6c-21.284,0-38.6-17.315-38.6-38.6v-6.4
				c17.349,0,472.641,0,490,0v6.4C501,383.685,483.685,401.001,462.4,401.001z" fill="#000000" class="color000000 svgShape"></path>
        <path d="M256 296.001c8.271 0 15-6.729 15-15s-6.729-15-15-15-15 6.729-15 15S247.729 296.001 256 296.001zM256 276.001c2.757 0 5 2.243 5 5s-2.243 5-5 5-5-2.243-5-5S253.243 276.001 256 276.001zM386 266.001c-8.271 0-15 6.729-15 15s6.729 15 15 15 15-6.729 15-15S394.271 266.001 386 266.001zM386 286.001c-2.757 0-5-2.243-5-5s2.243-5 5-5 5 2.243 5 5S388.757 286.001 386 286.001zM126 296.001c8.271 0 15-6.729 15-15s-6.729-15-15-15-15 6.729-15 15S117.729 296.001 126 296.001zM126 276.001c2.757 0 5 2.243 5 5s-2.243 5-5 5-5-2.243-5-5S123.243 276.001 126 276.001zM311 286.001h20c2.762 0 5-2.238 5-5s-2.238-5-5-5h-20c-2.762 0-5 2.238-5 5S308.238 286.001 311 286.001zM201 276.001h-20c-2.762 0-5 2.238-5 5s2.238 5 5 5h20c2.762 0 5-2.238 5-5S203.762 276.001 201 276.001zM246 450.501h20c2.762 0 5-2.238 5-5s-2.238-5-5-5h-20c-2.762 0-5 2.238-5 5S243.238 450.501 246 450.501z" fill="#000000" class="color000000 svgShape"></path>
      </g>
    </g>
  </g>
</svg>
