<svg xmlns="http://www.w3.org/2000/svg" xml:space="preserve" viewBox="0 0 512 512" enable-background="new 0 0 512 512" id="11331556">
  <g id="_x31_6_x2C__bank_x2C__money_x2C__building_x2C__online_banking_x2C__business_x2C__savings" fill="#000000" class="color000000 svgShape">
    <g fill="#000000" class="color000000 svgShape">
      <path d="M435.394,6h-358.8c-22.42,0-40.6,18.18-40.6,40.6v208.8c0,22.42,18.18,40.6,40.6,40.6h14.67
			l156.73,22l172.73-22h14.67c22.42,0,40.6-18.18,40.6-40.6V46.6C475.994,24.18,457.815,6,435.394,6z" fill="#ffb729" class="color495f66 svgShape"></path>
      <polygon points="70.994 41 70.994 261 137.594 261 253.494 249.5 374.394 261 440.994 261 440.994 41" fill="#ffffff" class="colordfe8eb svgShape"></polygon>
      <rect width="70.5" height="104" x="265.744" y="145.5" fill="#e9b44c" class="color4c86e9 svgShape"></rect>
      <rect width="30" height="77" x="330.994" y="166" fill="#f5cd7e" class="color7ed7f5 svgShape"></rect>
      <rect width="70.5" height="104" x="175.744" y="145.5" fill="#e9b44c" class="color4c86e9 svgShape"></rect>
      <rect width="30" height="73" x="240.994" y="168" fill="#f5cd7e" class="color7ed7f5 svgShape"></rect>
      <rect width="30" height="77" x="150.994" y="166" fill="#f5cd7e" class="color7ed7f5 svgShape"></rect>
      <path d="M476.974,339.92c-6.45-25.81-29.65-43.92-56.25-43.92H91.264c-26.6,0-49.8,18.11-56.25,43.92
			L5.994,456l246.5,17.5l253.5-17.5L476.974,339.92z" fill="#464646" class="color3b4a51 svgShape"></path>
      <path d="M310.204,437.03l3.79,18.97l-58,11.25l-58-11.25l3.79-18.97c2.45-12.23,13.19-21.03,25.66-21.03
			h57.1C297.014,416,307.754,424.8,310.204,437.03z" fill="#373737" class="color283646 svgShape"></path>
      <path d="M505.994,456v20c0,16.57-13.43,30-30,30h-440c-16.57,0-30-13.43-30-30v-20
			C21.533,456,482.125,456,505.994,456z" fill="#ffb729" class="color495f66 svgShape"></path>
      <path d="M370.994 147.25V171c-17.661 0-32.336 0-50 0v-23.75C344.284 147.25 349.395 147.25 370.994 147.25zM280.994 145.5V171c-17.661 0-32.336 0-50 0v-25.5H280.994zM374.394 238v23h-236.8v-23C252.218 238 279.546 238 374.394 238zM190.994 145.5V171c-11.461 0-38.497 0-50 0v-25.5C162.443 145.5 167.557 145.5 190.994 145.5z" fill="#fbca6a" class="color6aa8fb svgShape"></path>
      <path d="M350.994,116.4l12,19.933l-12,14.667c-67.153,0-74.614,0-190,0l-13-17.3l13-19l95-38.7
			L350.994,116.4z" fill="#f5cd7e" class="color7ed7f5 svgShape"></path>
      <path d="M390.994 133.41V151c-13.99 0-26.01 0-40 0v-34.6L390.994 133.41zM160.994 114.7V151c-13.99 0-26.01 0-40 0v-20L160.994 114.7z" fill="#e9b44c" class="color4c86e9 svgShape"></path>
      <g fill="#000000" class="color000000 svgShape">
        <path d="M481.825,338.707c-4.435-17.742-16.097-32.097-31.381-40.271c17.769-6.232,30.551-23.165,30.551-43.036V46.6
				c0-25.144-20.456-45.6-45.6-45.6H76.594c-25.144,0-45.6,20.456-45.6,45.6V255.4c0,19.871,12.781,36.804,30.551,43.036
				c-15.283,8.174-26.946,22.529-31.381,40.271C-1.008,463.423,1.081,454.565,0.994,456v20c0,19.299,15.701,35,35,35h440
				c19.299,0,35-15.701,35-35v-19.993C510.994,454.92,512.624,461.932,481.825,338.707z M76.594,291c-19.63,0-35.6-15.97-35.6-35.6
				V46.6c0-19.63,15.97-35.6,35.6-35.6h358.801c19.63,0,35.6,15.97,35.6,35.6V255.4c0,19.63-15.97,35.6-35.6,35.6
				C395.358,291,119.633,291,76.594,291z M39.866,341.133C45.772,317.503,66.909,301,91.266,301h329.457
				c24.357,0,45.494,16.503,51.4,40.133L499.59,451H318.094l-2.99-14.951C312.201,421.534,299.351,411,284.549,411H227.44
				c-14.802,0-27.651,10.534-30.555,25.049L193.895,451H12.399L39.866,341.133z M204.093,451l2.599-12.99
				c1.971-9.856,10.696-17.01,20.748-17.01h57.109c10.052,0,18.777,7.153,20.748,17.01l2.599,12.99H204.093z M500.994,476
				c0,13.785-11.215,25-25,25h-440c-13.785,0-25-11.215-25-25v-15c464.504,0,487.882,0,490,0V476z" fill="#000000" class="color000000 svgShape"></path>
        <path d="M120.672 341c0-2.762-2.238-5-5-5h-9.678c-2.762 0-5 2.238-5 5s2.238 5 5 5h9.678C118.434 346 120.672 343.762 120.672 341zM164.059 336h-9.678c-2.762 0-5 2.238-5 5s2.238 5 5 5h9.678c2.762 0 5-2.238 5-5S166.821 336 164.059 336zM202.769 346h9.677c2.762 0 5-2.238 5-5s-2.238-5-5-5h-9.677c-2.762 0-5 2.238-5 5S200.007 346 202.769 346zM251.156 346h9.678c2.762 0 5-2.238 5-5s-2.238-5-5-5h-9.678c-2.762 0-5 2.238-5 5S248.394 346 251.156 346zM299.543 346h9.677c2.762 0 5-2.238 5-5s-2.238-5-5-5h-9.677c-2.762 0-5 2.238-5 5S296.782 346 299.543 346zM347.93 346h9.678c2.762 0 5-2.238 5-5s-2.238-5-5-5h-9.678c-2.762 0-5 2.238-5 5S345.168 346 347.93 346zM396.317 346h9.678c2.762 0 5-2.238 5-5s-2.238-5-5-5h-9.678c-2.762 0-5 2.238-5 5S393.555 346 396.317 346zM96.962 371H85.994c-2.762 0-5 2.238-5 5s2.238 5 5 5h10.968c2.762 0 5-2.238 5-5S99.724 371 96.962 371zM151.801 371h-10.968c-2.762 0-5 2.238-5 5s2.238 5 5 5h10.968c2.762 0 5-2.238 5-5S154.563 371 151.801 371zM195.672 381h10.968c2.762 0 5-2.238 5-5s-2.238-5-5-5h-10.968c-2.762 0-5 2.238-5 5S192.91 381 195.672 381zM250.511 381h10.967c2.762 0 5-2.238 5-5s-2.238-5-5-5h-10.967c-2.762 0-5 2.238-5 5S247.749 381 250.511 381zM300.349 376c0 2.762 2.238 5 5 5h10.968c2.762 0 5-2.238 5-5s-2.238-5-5-5h-10.968C302.587 371 300.349 373.238 300.349 376zM355.188 376c0 2.762 2.238 5 5 5h10.968c2.762 0 5-2.238 5-5s-2.238-5-5-5h-10.968C357.426 371 355.188 373.238 355.188 376zM415.027 381h10.968c2.762 0 5-2.238 5-5s-2.238-5-5-5h-10.968c-2.762 0-5 2.238-5 5S412.265 381 415.027 381zM73.575 406H60.994c-2.762 0-5 2.238-5 5s2.238 5 5 5h12.581c2.762 0 5-2.238 5-5S76.337 406 73.575 406zM136.478 406h-12.58c-2.762 0-5 2.238-5 5s2.238 5 5 5h12.58c2.762 0 5-2.238 5-5S139.24 406 136.478 406zM370.511 411c0 2.762 2.238 5 5 5h12.58c2.762 0 5-2.238 5-5s-2.238-5-5-5h-12.58C372.749 406 370.511 408.238 370.511 411zM438.413 416h12.581c2.762 0 5-2.238 5-5s-2.238-5-5-5h-12.581c-2.762 0-5 2.238-5 5S435.652 416 438.413 416zM445.994 261V41c0-2.762-2.238-5-5-5h-370c-2.762 0-5 2.238-5 5v220c0 2.762 2.238 5 5 5 11.21 0 352.093 0 370 0C443.756 266 445.994 263.762 445.994 261zM142.594 256v-13c24.682 0 211.251 0 226.801 0v13H142.594zM255.953 81.416l90.041 38.289V146c-63.38 0-116.989 0-180 0v-27.934L255.953 81.416zM355.994 233h-20v-57h20V233zM275.994 233v-57h5c2.762 0 5-2.238 5-5v-15h30v15c0 2.762 2.238 5 5 5h5v57H275.994zM185.994 233v-57h5c2.762 0 5-2.238 5-5v-15h30v15c0 2.762 2.238 5 5 5h5v57H185.994zM235.994 166v-10h40v10C265.923 166 246.064 166 235.994 166zM245.994 176h20v57h-20V176zM325.994 166v-10c13.843 0 26.111 0 40 0v10C355.923 166 336.064 166 325.994 166zM355.994 146v-22.043l30 12.757V146C375.502 146 366.487 146 355.994 146zM155.994 146c-10.492 0-19.508 0-30 0v-11.638l30-12.222V146zM185.994 156v10c-10.072 0-29.93 0-40 0v-10C159.861 156 172.138 156 185.994 156zM155.994 176h20v57h-20V176zM435.994 256h-56.6v-18c0-2.762-2.238-5-5-5h-8.4v-57h5c2.762 0 5-2.238 5-5v-15h15c2.762 0 5-2.238 5-5v-17.593c0-2.005-1.198-3.816-3.043-4.602l-135-57.407c-3.645-1.548 2.785-2.138-138.844 54.971-1.883.768-3.113 2.598-3.113 4.631v20c0 2.762 2.238 5 5 5h15v15c0 2.762 2.238 5 5 5h5v57h-8.4c-2.762 0-5 2.238-5 5v18h-56.6V46h360V256z" fill="#000000" class="color000000 svgShape"></path>
      </g>
    </g>
  </g>
</svg>
