<svg xmlns="http://www.w3.org/2000/svg" xml:space="preserve" viewBox="0 0 512 512" enable-background="new 0 0 512 512" id="11331544">
  <g id="_x30_4_x2C__bar_chart_x2C__graph_x2C__stats_x2C__economy_x2C__statistics_x2C__growth" fill="#000000" class="color000000 svgShape">
    <g fill="#000000" class="color000000 svgShape">
      <path d="M200.2,423.5c-10.6,0-19.2-8.6-19.2-19.2v-21.6c0-10.6,8.6-19.2,19.2-19.2h5.8
			c15.913,0,33.254-15.5,49.167-15.5c11.661,0,45.36,15.5,56.633,15.5c10.6,0,19.2,8.6,19.2,19.2v21.6c0,10.6-8.6,19.2-19.2,19.2
			c-11.274,0-44.805,10.167-56.467,10.167S211.474,423.5,200.2,423.5z" fill="#ffffff" class="colore17559 svgShape"></path>
      <path d="M161,48.5v100v10l-22.5,57.24L161,268.5c60.75,0,110-49.25,110-110S221.75,48.5,161,48.5z" fill="#ffb729" class="colorf6df5b svgShape"></path>
      <path d="M31,423.5h-5.8c-10.6,0-19.2-8.6-19.2-19.2v-21.6c0-10.6,8.6-19.2,19.2-19.2h111.6
			c10.6,0,19.2,8.6,19.2,19.2v21.6c0,10.6-8.6,19.2-19.2,19.2c-11.274,0-44.139,15.333-55.8,15.333
			C65.087,438.833,46.913,423.5,31,423.5z" fill="#e6b85e" class="colorbde65e svgShape"></path>
      <path d="M200.2 483.5c-10.6 0-19.2-8.6-19.2-19.2v-21.6c0-10.6 8.6-19.2 19.2-19.2 12.207 0 96.564 0 111.6 0 10.6 0 19.2 8.6 19.2 19.2v21.6c0 10.6-8.6 19.2-19.2 19.2C299.453 483.5 212.316 483.5 200.2 483.5zM200.2 363.5c-10.6 0-19.2-8.6-19.2-19.2v-21.6c0-10.6 8.6-19.2 19.2-19.2h111.6c10.6 0 19.2 8.6 19.2 19.2v21.6c0 10.6-8.6 19.2-19.2 19.2C287.631 363.5 224.369 363.5 200.2 363.5zM432.333 445.333c-11.548 0-44.223-21.833-57.133-21.833-10.6 0-19.2-8.6-19.2-19.2v-21.6c0-10.6 8.6-19.2 19.2-19.2 12.276 0 41.44-15.5 53.467-15.5 11.548 0 45.223 15.5 58.133 15.5 10.6 0 19.2 8.6 19.2 19.2v21.6c0 10.6-8.6 19.2-19.2 19.2C475.526 423.5 443.995 445.333 432.333 445.333zM431 321.25c-11.548 0-42.89-17.75-55.8-17.75-10.6 0-19.2-8.6-19.2-19.2v-21.6c0-10.6 8.6-19.2 19.2-19.2 12.276 0 43.773-14 55.8-14 11.661 0 44.526 14 55.8 14 10.6 0 19.2 8.6 19.2 19.2v21.6c0 10.6-8.6 19.2-19.2 19.2C475.526 303.5 442.661 321.25 431 321.25z" fill="#ffb729" class="colorf6df5b svgShape"></path>
      <path d="M25.2 483.5c-10.6 0-19.2-8.6-19.2-19.2v-21.6c0-10.6 8.6-19.2 19.2-19.2 24.169 0 87.431 0 111.6 0 10.6 0 19.2 8.6 19.2 19.2v21.6c0 10.6-8.6 19.2-19.2 19.2C114.045 483.5 47.818 483.5 25.2 483.5zM375.2 363.5c-10.6 0-19.2-8.6-19.2-19.2v-21.6c0-10.6 8.6-19.2 19.2-19.2 38.351 0 80.42 0 111.6 0 10.6 0 19.2 8.6 19.2 19.2v21.6c0 10.6-8.6 19.2-19.2 19.2C454.921 363.5 411.292 363.5 375.2 363.5zM375.2 243.5c-10.6 0-19.2-8.6-19.2-19.2v-21.6c0-10.6 8.6-19.2 19.2-19.2h111.6c10.6 0 19.2 8.6 19.2 19.2v21.6c0 10.6-8.6 19.2-19.2 19.2C471.374 243.5 385.475 243.5 375.2 243.5z" fill="#ffffff" class="colore17559 svgShape"></path>
      <path d="M161 173.5V211l-13.333 31.333L114.02 257.98c-8.26-3.9-15.96-8.81-22.94-14.56l24.253-39.253L161 173.5zM138.5 158.5l-29 42.46-36.72 23.26c-5.47-7.33-10.04-15.37-13.56-23.94l14.447-26.78 27.333-15H138.5z" fill="#dca53a" class="colordc483a svgShape"></path>
      <path d="M161 268.5c-16.81 0-32.73-3.77-46.98-10.52L161 211V268.5zM161 158.5v15l-69.92 69.92c-6.84-5.64-12.99-12.09-18.3-19.2l65.72-65.72H161zM101 158.5l-41.78 41.78C53.92 187.4 51 173.29 51 158.5H101z" fill="#ffffff" class="colore17559 svgShape"></path>
      <path d="M141 28.5v110H31C31 77.75 80.25 28.5 141 28.5zM375.2 483.5c-10.6 0-19.2-8.6-19.2-19.2v-21.6c0-10.6 8.6-19.2 19.2-19.2 12.207 0 96.564 0 111.6 0 10.6 0 19.2 8.6 19.2 19.2v21.6c0 10.6-8.6 19.2-19.2 19.2C471.374 483.5 385.475 483.5 375.2 483.5z" fill="#e6b85e" class="colorbde65e svgShape"></path>
      <g fill="#000000" class="color000000 svgShape">
        <path d="M31,143.5h110c2.762,0,5-2.239,5-5v-110c0-2.761-2.238-5-5-5c-63.411,0-115,51.589-115,115
				C26,141.261,28.238,143.5,31,143.5z M136,33.618V133.5H36.117C38.656,79.57,82.07,36.157,136,33.618z" fill="#000000" class="color000000 svgShape"></path>
        <path d="M276 158.5c0-63.411-51.589-115-115-115-2.762 0-5 2.239-5 5 0 10.001 0 89.262 0 105H51c-2.762 0-5 2.239-5 5 0 63.721 51.886 115 115 115C224.411 273.5 276 221.911 276 158.5zM98.646 242.925 156 185.571v23.358l-42.958 42.958C107.992 249.284 103.18 246.283 98.646 242.925zM156 223.071v40.309c-11.67-.55-22.845-3.017-33.223-7.087L156 223.071zM65.173 201.398l37.898-37.898h23.358l-52.947 52.947C70.32 211.688 67.537 206.657 65.173 201.398zM88.929 163.5l-27.712 27.711c-2.887-8.787-4.647-18.081-5.1-27.711H88.929zM79.476 224.595l61.094-61.095H156v7.929l-65.138 65.138C86.762 232.881 82.955 228.877 79.476 224.595zM166 263.378c0-8.212 0-203.769 0-209.76 55.586 2.617 100 48.66 100 104.882C266 214.721 221.584 260.759 166 263.378zM136.8 358.5H25.2C11.856 358.5 1 369.356 1 382.7v21.6c0 7.815 3.727 14.773 9.494 19.2C4.727 427.927 1 434.885 1 442.7v21.6c0 13.344 10.856 24.2 24.2 24.2h111.6c13.344 0 24.2-10.856 24.2-24.2v-21.6c0-7.815-3.727-14.773-9.494-19.2 5.766-4.427 9.494-11.385 9.494-19.2v-21.6C161 369.356 150.144 358.5 136.8 358.5zM151 442.7v21.6c0 7.83-6.37 14.2-14.2 14.2H136v-15c0-2.762-2.238-5-5-5s-5 2.238-5 5v15h-15v-15c0-2.762-2.238-5-5-5s-5 2.238-5 5v15H86v-15c0-2.762-2.238-5-5-5s-5 2.238-5 5v15H61v-15c0-2.762-2.238-5-5-5s-5 2.238-5 5v15H36v-15c0-2.762-2.238-5-5-5s-5 2.238-5 5v15h-.8c-7.83 0-14.2-6.37-14.2-14.2v-21.6c0-7.83 6.37-14.2 14.2-14.2h111.6C144.63 428.5 151 434.87 151 442.7zM136 418.5v-15c0-2.762-2.238-5-5-5s-5 2.238-5 5v15h-15v-15c0-2.762-2.238-5-5-5s-5 2.238-5 5v15H86v-15c0-2.762-2.238-5-5-5s-5 2.238-5 5v15H61v-15c0-2.762-2.238-5-5-5s-5 2.238-5 5v15H36v-15c0-2.762-2.238-5-5-5s-5 2.238-5 5v15h-.8c-7.83 0-14.2-6.37-14.2-14.2v-21.6c0-7.83 6.37-14.2 14.2-14.2h111.6c7.83 0 14.2 6.37 14.2 14.2v21.6c0 7.83-6.37 14.2-14.2 14.2H136zM311.8 298.5H200.2c-13.344 0-24.2 10.856-24.2 24.2v21.6c0 7.815 3.727 14.773 9.494 19.2-5.766 4.427-9.494 11.385-9.494 19.2v21.6c0 7.815 3.727 14.773 9.494 19.2-5.766 4.427-9.494 11.385-9.494 19.2v21.6c0 13.344 10.856 24.2 24.2 24.2h111.6c13.344 0 24.2-10.856 24.2-24.2v-21.6c0-7.815-3.727-14.773-9.494-19.2 5.766-4.427 9.494-11.385 9.494-19.2v-21.6c0-7.815-3.727-14.773-9.494-19.2 5.766-4.427 9.494-11.385 9.494-19.2v-21.6C336 309.356 325.144 298.5 311.8 298.5zM326 442.7v21.6c0 7.83-6.37 14.2-14.2 14.2H311v-15c0-2.762-2.238-5-5-5s-5 2.238-5 5v15h-15v-15c0-2.762-2.238-5-5-5s-5 2.238-5 5v15h-15v-15c0-2.762-2.238-5-5-5s-5 2.238-5 5v15h-15v-15c0-2.762-2.238-5-5-5s-5 2.238-5 5v15h-15v-15c0-2.762-2.238-5-5-5s-5 2.238-5 5v15h-.8c-7.83 0-14.2-6.37-14.2-14.2v-21.6c0-7.83 6.37-14.2 14.2-14.2h111.6C319.63 428.5 326 434.87 326 442.7zM326 382.7v21.6c0 7.83-6.37 14.2-14.2 14.2H311v-15c0-2.762-2.238-5-5-5s-5 2.238-5 5v15h-15v-15c0-2.762-2.238-5-5-5s-5 2.238-5 5v15h-15v-15c0-2.762-2.238-5-5-5s-5 2.238-5 5v15h-15v-15c0-2.762-2.238-5-5-5s-5 2.238-5 5v15h-15v-15c0-2.762-2.238-5-5-5s-5 2.238-5 5v15h-.8c-7.83 0-14.2-6.37-14.2-14.2v-21.6c0-7.83 6.37-14.2 14.2-14.2h111.6C319.63 368.5 326 374.87 326 382.7zM311 358.5v-15c0-2.762-2.238-5-5-5s-5 2.238-5 5v15h-15v-15c0-2.762-2.238-5-5-5s-5 2.238-5 5v15h-15v-15c0-2.762-2.238-5-5-5s-5 2.238-5 5v15h-15v-15c0-2.762-2.238-5-5-5s-5 2.238-5 5v15h-15v-15c0-2.762-2.238-5-5-5s-5 2.238-5 5v15h-.8c-7.83 0-14.2-6.37-14.2-14.2v-21.6c0-7.83 6.37-14.2 14.2-14.2h111.6c7.83 0 14.2 6.37 14.2 14.2v21.6c0 7.83-6.37 14.2-14.2 14.2H311zM511 224.3v-21.6c0-13.344-10.856-24.2-24.2-24.2H375.2c-13.344 0-24.2 10.856-24.2 24.2v21.6c0 7.815 3.727 14.773 9.494 19.2-5.767 4.427-9.494 11.385-9.494 19.2v21.6c0 7.815 3.727 14.773 9.494 19.2-5.766 4.427-9.494 11.385-9.494 19.2v21.6c0 7.815 3.727 14.773 9.494 19.2-5.766 4.427-9.494 11.385-9.494 19.2v21.6c0 7.815 3.727 14.773 9.494 19.2-5.766 4.427-9.494 11.385-9.494 19.2v21.6c0 13.344 10.856 24.2 24.2 24.2h111.6c13.344 0 24.2-10.856 24.2-24.2v-21.6c0-7.815-3.727-14.773-9.494-19.2 5.766-4.427 9.494-11.385 9.494-19.2v-21.6c0-7.815-3.727-14.773-9.494-19.2 5.766-4.427 9.494-11.385 9.494-19.2v-21.6c0-7.815-3.727-14.773-9.494-19.2 5.766-4.427 9.494-11.385 9.494-19.2v-21.6c0-7.815-3.727-14.773-9.494-19.2C507.273 239.073 511 232.115 511 224.3zM501 442.7v21.6c0 7.83-6.37 14.2-14.2 14.2H486v-15c0-2.762-2.238-5-5-5s-5 2.238-5 5v15h-15v-15c0-2.762-2.238-5-5-5s-5 2.238-5 5v15h-15v-15c0-2.762-2.238-5-5-5s-5 2.238-5 5v15h-15v-15c0-2.762-2.238-5-5-5s-5 2.238-5 5v15h-15v-15c0-2.762-2.238-5-5-5s-5 2.238-5 5v15h-.8c-7.83 0-14.2-6.37-14.2-14.2v-21.6c0-7.83 6.37-14.2 14.2-14.2h111.6C494.63 428.5 501 434.87 501 442.7zM501 382.7v21.6c0 7.83-6.37 14.2-14.2 14.2H486v-15c0-2.762-2.238-5-5-5s-5 2.238-5 5v15h-15v-15c0-2.762-2.238-5-5-5s-5 2.238-5 5v15h-15v-15c0-2.762-2.238-5-5-5s-5 2.238-5 5v15h-15v-15c0-2.762-2.238-5-5-5s-5 2.238-5 5v15h-15v-15c0-2.762-2.238-5-5-5s-5 2.238-5 5v15h-.8c-7.83 0-14.2-6.37-14.2-14.2v-21.6c0-7.83 6.37-14.2 14.2-14.2h111.6C494.63 368.5 501 374.87 501 382.7zM501 322.7v21.6c0 7.83-6.37 14.2-14.2 14.2H486v-15c0-2.762-2.238-5-5-5s-5 2.238-5 5v15h-15v-15c0-2.762-2.238-5-5-5s-5 2.238-5 5v15h-15v-15c0-2.762-2.238-5-5-5s-5 2.238-5 5v15h-15v-15c0-2.762-2.238-5-5-5s-5 2.238-5 5v15h-15v-15c0-2.762-2.238-5-5-5s-5 2.238-5 5v15h-.8c-7.83 0-14.2-6.37-14.2-14.2v-21.6c0-7.83 6.37-14.2 14.2-14.2h111.6C494.63 308.5 501 314.87 501 322.7zM501 262.7v21.6c0 7.83-6.37 14.2-14.2 14.2H486v-15c0-2.762-2.238-5-5-5s-5 2.238-5 5v15h-15v-15c0-2.762-2.238-5-5-5s-5 2.238-5 5v15h-15v-15c0-2.762-2.238-5-5-5s-5 2.238-5 5v15h-15v-15c0-2.762-2.238-5-5-5s-5 2.238-5 5v15h-15v-15c0-2.762-2.238-5-5-5s-5 2.238-5 5v15h-.8c-7.83 0-14.2-6.37-14.2-14.2v-21.6c0-7.83 6.37-14.2 14.2-14.2h111.6C494.63 248.5 501 254.87 501 262.7zM486 238.5v-15c0-2.761-2.238-5-5-5s-5 2.239-5 5v15h-15v-15c0-2.761-2.238-5-5-5s-5 2.239-5 5v15h-15v-15c0-2.761-2.238-5-5-5s-5 2.239-5 5v15h-15v-15c0-2.761-2.238-5-5-5s-5 2.239-5 5v15h-15v-15c0-2.761-2.238-5-5-5s-5 2.239-5 5v15h-.8c-7.83 0-14.2-6.37-14.2-14.2v-21.6c0-7.83 6.37-14.2 14.2-14.2h111.6c7.83 0 14.2 6.37 14.2 14.2v21.6c0 7.83-6.37 14.2-14.2 14.2H486z" fill="#000000" class="color000000 svgShape"></path>
      </g>
    </g>
  </g>
</svg>
