<svg xmlns="http://www.w3.org/2000/svg" xml:space="preserve" viewBox="0 0 512 512" enable-background="new 0 0 512 512" id="11331581">
  <g id="_x34_1_x2C__barcode_x2C__Qr_Scan_x2C__technology_x2C__scan_x2C__smartphone_x2C__qr_code" fill="#000000" class="color000000 svgShape">
    <g fill="#000000" class="color000000 svgShape">
      <path d="M359.5,6h-207C129.58,6,111,24.58,111,47.5c0,39.153,0,370.847,0,417c0,22.92,18.58,41.5,41.5,41.5
			h207c22.92,0,41.5-18.58,41.5-41.5c0-56.37,0-359.819,0-417C401,24.58,382.42,6,359.5,6z" fill="#575757" class="color495f66 svgShape"></path>
      <polygon points="301 41 291 56 221 56 211 41 146 41 146 426 366 426 366 41" fill="#ffffff" class="colordfe8eb svgShape"></polygon>
      <path d="M246,256h-35l-7.167-15L186,231v-25h60C246,227.449,246,232.562,246,256z" fill="#f5cd7e" class="color7ed7f5 svgShape"></path>
      <rect width="25" height="30" x="301" y="226" fill="#f5cd7e" class="color7ed7f5 svgShape"></rect>
      <path d="M326,186h-60v-20v-30h60C326,157.449,326,162.562,326,186z" fill="#f5cd7e" class="color7ed7f5 svgShape"></path>
      <rect width="60" height="50" x="186" y="136" fill="#f5cd7e" class="color7ed7f5 svgShape"></rect>
      <rect width="170" height="60" x="171" y="311" fill="#ffb729" class="colorf6df5b svgShape"></rect>
      <circle cx="491" cy="323.5" r="15" fill="#e6b85e" class="colorbde65e svgShape"></circle>
      <circle cx="21" cy="323.5" r="15" fill="#e6b85e" class="colorbde65e svgShape"></circle>
      <circle cx="451" cy="226" r="15" fill="#ffb729" class="colorf6df5b svgShape"></circle>
      <circle cx="61" cy="226" r="15" fill="#ffb729" class="colorf6df5b svgShape"></circle>
      <circle cx="491" cy="126" r="15" fill="#e1b359" class="colore17559 svgShape"></circle>
      <circle cx="21" cy="126" r="15" fill="#e1b359" class="colore17559 svgShape"></circle>
      <rect width="25" height="25" x="186" y="231" fill="#fbca6a" class="color6aa8fb svgShape"></rect>
      <g fill="#000000" class="color000000 svgShape">
        <path d="M491,303.5c-9.299,0-17.113,6.388-19.342,15h-12.409l-8.68-19.53c-0.803-1.806-2.594-2.97-4.569-2.97h-40v-65h25.658
				c2.229,8.612,10.043,15,19.342,15c11.028,0,20-8.972,20-20s-8.972-20-20-20c-9.299,0-17.113,6.388-19.342,15H406v-67.5h40
				c1.976,0,3.767-1.164,4.569-2.97l8.68-19.53h12.409c2.229,8.612,10.043,15,19.342,15c11.028,0,20-8.972,20-20s-8.972-20-20-20
				c-9.299,0-17.113,6.388-19.342,15H456c-1.976,0-3.767,1.164-4.569,2.97l-8.68,19.53H406v-96C406,21.859,385.141,1,359.5,1h-207
				C126.859,1,106,21.859,106,47.5v96H69.249l-8.68-19.53C59.767,122.164,57.976,121,56,121H40.342
				c-2.229-8.612-10.043-15-19.342-15c-11.028,0-20,8.972-20,20s8.972,20,20,20c9.299,0,17.113-6.388,19.342-15h12.409l8.68,19.53
				c0.803,1.806,2.594,2.97,4.569,2.97h40V221H80.342c-2.229-8.612-10.043-15-19.342-15c-11.028,0-20,8.972-20,20s8.972,20,20,20
				c9.299,0,17.113-6.388,19.342-15H106v65H66c-1.976,0-3.767,1.164-4.569,2.97l-8.68,19.53H40.342
				c-2.229-8.612-10.043-15-19.342-15c-11.028,0-20,8.972-20,20s8.972,20,20,20c9.299,0,17.113-6.388,19.342-15H56
				c1.976,0,3.767-1.164,4.569-2.97l8.68-19.53H106v158.5c0,25.641,20.859,46.5,46.5,46.5h207c25.641,0,46.5-20.859,46.5-46.5V306
				h36.751l8.68,19.53c0.803,1.806,2.594,2.97,4.569,2.97h15.658c2.229,8.612,10.043,15,19.342,15c11.028,0,20-8.972,20-20
				S502.028,303.5,491,303.5z M451,216c5.514,0,10,4.486,10,10s-4.486,10-10,10s-10-4.486-10-10S445.486,216,451,216z M491,116
				c5.514,0,10,4.486,10,10s-4.486,10-10,10s-10-4.486-10-10S485.486,116,491,116z M21,136c-5.514,0-10-4.486-10-10s4.486-10,10-10
				s10,4.486,10,10S26.514,136,21,136z M61,236c-5.514,0-10-4.486-10-10s4.486-10,10-10s10,4.486,10,10S66.514,236,61,236z
				 M21,333.5c-5.514,0-10-4.486-10-10s4.486-10,10-10s10,4.486,10,10S26.514,333.5,21,333.5z M396,464.5
				c0,20.126-16.374,36.5-36.5,36.5h-207c-20.126,0-36.5-16.374-36.5-36.5v-417c0-20.126,16.374-36.5,36.5-36.5h207
				c20.126,0,36.5,16.374,36.5,36.5V464.5z M491,333.5c-5.514,0-10-4.486-10-10s4.486-10,10-10s10,4.486,10,10
				S496.514,333.5,491,333.5z" fill="#000000" class="color000000 svgShape"></path>
        <path d="M366 36c-.106 0-65.129.001-65.009.001-2.767.008-4.051 2.135-4.151 2.226L288.324 51h-64.648c-.067-.1-8.59-12.882-8.521-12.78C213.602 35.905 211.1 36.03 211 36h-65c-2.762 0-5 2.238-5 5v385c0 2.762 2.238 5 5 5h220c2.762 0 5-2.238 5-5V41C371 38.238 368.762 36 366 36zM361 421H151V46h57.324l8.516 12.773C217.767 60.164 219.328 61 221 61h70c1.672 0 3.233-.836 4.16-2.227L303.676 46H361V421zM271 461h-30c-2.762 0-5 2.238-5 5s2.238 5 5 5h30c2.762 0 5-2.238 5-5S273.762 461 271 461z" fill="#000000" class="color000000 svgShape"></path>
        <path d="M331 121h10v10c0 2.762 2.238 5 5 5s5-2.238 5-5v-15c0-2.762-2.238-5-5-5h-15c-2.762 0-5 2.238-5 5S328.238 121 331 121zM166 136c2.762 0 5-2.238 5-5v-10h10c2.762 0 5-2.238 5-5s-2.238-5-5-5h-15c-2.762 0-5 2.238-5 5v15C161 133.762 163.238 136 166 136zM346 256c-2.762 0-5 2.238-5 5v10h-10c-2.762 0-5 2.238-5 5s2.238 5 5 5h15c2.762 0 5-2.238 5-5v-15C351 258.238 348.762 256 346 256zM181 281c2.762 0 5-2.238 5-5s-2.238-5-5-5h-10v-10c0-2.762-2.238-5-5-5s-5 2.238-5 5v15c0 2.762 2.238 5 5 5H181zM181 136v50c0 2.762 2.238 5 5 5h60c2.762 0 5-2.238 5-5v-50c0-2.762-2.238-5-5-5h-60C183.238 131 181 133.238 181 136zM191 141h50v40h-50V141zM266 191h60c2.762 0 5-2.238 5-5v-50c0-2.762-2.238-5-5-5h-60c-2.762 0-5 2.238-5 5v50C261 188.762 263.238 191 266 191zM321 141v10h-20c-2.762 0-5 2.238-5 5s2.238 5 5 5h20v20h-50v-10h10c2.762 0 5-2.238 5-5s-2.238-5-5-5h-10v-20H321zM246 201h-60c-2.762 0-5 2.238-5 5v50c0 2.762 2.238 5 5 5h60c2.762 0 5-2.238 5-5v-50C251 203.238 248.762 201 246 201zM191 236h15v15h-15V236zM216 251v-20c0-2.762-2.238-5-5-5h-20v-15h50v10h-10c-2.762 0-5 2.238-5 5s2.238 5 5 5h10v20H216zM326 221h-25c-2.762 0-5 2.238-5 5v30c0 2.762 2.238 5 5 5h25c2.762 0 5-2.238 5-5v-30C331 223.238 328.762 221 326 221zM321 251h-15v-20h15V251zM266 211h60c2.762 0 5-2.238 5-5s-2.238-5-5-5h-60c-2.762 0-5 2.238-5 5S263.238 211 266 211zM266 246h15c2.762 0 5-2.238 5-5s-2.238-5-5-5h-10v-10c0-2.762-2.238-5-5-5s-5 2.238-5 5v15C261 243.762 263.238 246 266 246zM266 261h15c2.762 0 5-2.238 5-5s-2.238-5-5-5h-15c-2.762 0-5 2.238-5 5S263.238 261 266 261zM341 306H171c-2.762 0-5 2.238-5 5v60c0 2.762 2.238 5 5 5h170c2.762 0 5-2.238 5-5v-60C346 308.238 343.762 306 341 306zM336 366H176v-50h160V366z" fill="#000000" class="color000000 svgShape"></path>
      </g>
    </g>
  </g>
</svg>
