<svg xmlns="http://www.w3.org/2000/svg" xml:space="preserve" viewBox="0 0 512 512" enable-background="new 0 0 512 512" id="11331552">
  <g id="_x31_2_x2C__big_data_x2C__storage_x2C__cloud_x2C__artificial_intelligence_x2C__database_x2C__computer" fill="#000000" class="color000000 svgShape">
    <g fill="#000000" class="color000000 svgShape">
      <path d="M383.5,146h-11.78C388.911,97.292,352.78,46,301,46c-26.15,0-49.15,13.39-62.57,33.66
			c-0.01,0-0.01,0.01-0.01,0.01C191.366,52.512,132.67,92.747,141.77,146H128.5C99.51,146,76,169.51,76,198.5
			c0,28.974,23.5,52.5,52.5,52.5h255c28.99,0,52.5-23.51,52.5-52.5C436,169.526,412.5,146,383.5,146z" fill="#f5cd7e" class="color7ed7f5 svgShape"></path>
      <circle cx="256" cy="251" r="40" fill="#ffffff" class="colordfe8eb svgShape"></circle>
      <path d="M321,146v20c-6.995,0-13.005,0-20,0v-20H321z" fill="#e6b85e" class="colorbde65e svgShape"></path>
      <path d="M266,166v20c-6.995,0-13.005,0-20,0v-20H266z" fill="#ffb729" class="colorf6df5b svgShape"></path>
      <path d="M211,146v20c-6.995,0-13.005,0-20,0v-20H211z" fill="#e1b359" class="colore17559 svgShape"></path>
      <path d="M11,366v87h130v-87C125.289,366,26.815,366,11,366z" fill="#ffffff" class="colordfe8eb svgShape"></path>
      <path d="M146,436v8.8c0,11.71-9.49,21.2-21.2,21.2H27.2C15.49,466,6,456.51,6,444.8V436
			c15.29,0,35.859,0,50,0l5,10h30l5-10C110.14,436,130.643,436,146,436z" fill="#464646" class="color3b4a51 svgShape"></path>
      <path d="M191,366v87h130v-87C305.289,366,206.815,366,191,366z" fill="#ffffff" class="colordfe8eb svgShape"></path>
      <path d="M326,436v8.8c0,11.71-9.49,21.2-21.2,21.2h-97.6c-11.71,0-21.2-9.49-21.2-21.2V436
			c15.29,0,35.859,0,50,0l5,10h30l5-10C290.14,436,310.643,436,326,436z" fill="#464646" class="color3b4a51 svgShape"></path>
      <path d="M371,366v87h130v-87C485.289,366,386.815,366,371,366z" fill="#ffffff" class="colordfe8eb svgShape"></path>
      <path d="M506,436v8.8c0,11.71-9.49,21.2-21.2,21.2h-97.6c-11.71,0-21.2-9.49-21.2-21.2V436
			c15.29,0,35.859,0,50,0l5,10h30l5-10C470.14,436,490.643,436,506,436z" fill="#464646" class="color3b4a51 svgShape"></path>
      <g fill="#000000" class="color000000 svgShape">
        <path d="M506,431v-65c0-2.762-2.238-5-5-5h-55v-40c0-2.762-2.238-5-5-5H261v-20.284c20.825-2.314,37.402-18.89,39.716-39.716
				H383.5c31.706,0,57.5-25.794,57.5-57.5c0-15.354-5.982-29.793-16.845-40.655c-20.017-20.017-43.367-16.446-45.688-16.845
				C391.536,90.381,353.137,41,301,41c-25.375,0-49.003,11.93-64.094,32.136C188.747,49.493,132.363,86.997,136.177,141H128.5
				C96.794,141,71,166.794,71,198.5c0,31.774,25.73,57.5,57.5,57.5h82.784c2.314,20.825,18.89,37.402,39.716,39.716V316H76
				c-2.762,0-5,2.238-5,5v40H11c-2.762,0-5,2.238-5,5v65c-2.762,0-5,2.238-5,5v8.8C1,459.247,12.753,471,27.2,471h97.6
				c14.447,0,26.2-11.753,26.2-26.2V436c0-2.762-2.238-5-5-5v-65c0-2.762-2.238-5-5-5H81v-35h170v35h-60c-2.762,0-5,2.238-5,5v65
				c-2.762,0-5,2.238-5,5v8.8c0,14.447,11.753,26.2,26.2,26.2h97.6c14.447,0,26.2-11.753,26.2-26.2V436c0-2.762-2.238-5-5-5v-65
				c0-2.762-2.238-5-5-5h-60v-35h175v35h-65c-2.762,0-5,2.238-5,5v65c-2.762,0-5,2.238-5,5v8.8c0,14.447,11.753,26.2,26.2,26.2h97.6
				c14.447,0,26.2-11.753,26.2-26.2V436C511,433.238,508.762,431,506,431z M81,198.5c0-26.191,21.309-47.5,47.5-47.5h9.115
				c2.863,13.206,9.493,25.293,19.388,34.975c1.976,1.932,5.142,1.895,7.071-0.077c1.931-1.974,1.896-5.14-0.077-7.071
				C152.1,167.187,146,151.77,146,136c0-42.251,41.972-69.629,79.152-56.899c12.422,4.158,24.115,12.809,31.868,25.322
				c1.465,2.366,4.556,3.062,6.883,1.617c2.348-1.454,3.072-4.536,1.617-6.883c-5.241-8.459-12.04-15.528-19.909-20.937
				C258.841,61.089,279.181,51,301,51c48.071,0,82.112,47.714,66.005,93.336c-1.151,3.262,1.278,6.664,4.715,6.664h11.78
				c26.247,0,47.5,21.255,47.5,47.5c0,26.191-21.309,47.5-47.5,47.5h-82.784c-0.593-5.336-2.123-10.39-4.42-15H311
				c2.762,0,5-2.238,5-5v-55h5c2.762,0,5-2.238,5-5v-20c0-2.762-2.238-5-5-5h-20c-2.762,0-5,2.238-5,5v20c0,2.762,2.238,5,5,5h5v50
				h-16.495c-7.197-8.029-17.228-13.463-28.505-14.716V191h5c2.762,0,5-2.238,5-5v-20c0-2.762-2.238-5-5-5h-20c-2.762,0-5,2.238-5,5
				v20c0,2.762,2.238,5,5,5h5v15.284c-11.277,1.253-21.308,6.686-28.505,14.716H206v-50h5c2.762,0,5-2.238,5-5v-20
				c0-2.762-2.238-5-5-5h-20c-2.762,0-5,2.238-5,5v20c0,2.762,2.238,5,5,5h5v55c0,2.762,2.238,5,5,5h14.705
				c-2.297,4.61-3.827,9.664-4.42,15H128.5C102.253,246,81,224.745,81,198.5z M306,161v-10h10v10H306z M251,181v-10h10v10H251z
				 M196,161v-10h10v10H196z M221,251c0-19.299,15.701-35,35-35s35,15.701,35,35s-15.701,35-35,35S221,270.299,221,251z M141,444.8
				c0,8.933-7.268,16.2-16.2,16.2H27.2c-8.933,0-16.2-7.268-16.2-16.2V441h41.91l3.618,7.236C57.375,449.93,59.106,451,61,451h30
				c1.894,0,3.625-1.07,4.472-2.764L99.09,441H141V444.8z M136,431H96c-1.894,0-3.625,1.07-4.472,2.764L87.91,441H64.09
				l-3.618-7.236C59.625,432.07,57.894,431,56,431H16v-60h120V431z M321,444.8c0,8.933-7.268,16.2-16.2,16.2h-97.6
				c-8.933,0-16.2-7.268-16.2-16.2V441h41.91l3.618,7.236C237.375,449.93,239.106,451,241,451h30c1.894,0,3.625-1.07,4.472-2.764
				L279.09,441H321V444.8z M316,431h-40c-1.894,0-3.625,1.07-4.472,2.764L267.91,441h-23.82l-3.618-7.236
				C239.625,432.07,237.894,431,236,431h-40v-60h120V431z M376,371h120v60h-40c-1.894,0-3.625,1.07-4.472,2.764L447.91,441h-23.82
				l-3.618-7.236C419.625,432.07,417.894,431,416,431h-40V371z M501,444.8c0,8.933-7.268,16.2-16.2,16.2h-97.6
				c-8.933,0-16.2-7.268-16.2-16.2V441h41.91l3.618,7.236C417.375,449.93,419.106,451,421,451h30c1.894,0,3.625-1.07,4.472-2.764
				L459.09,441H501V444.8z" fill="#000000" class="color000000 svgShape"></path>
      </g>
    </g>
  </g>
</svg>
