<svg xmlns="http://www.w3.org/2000/svg" xml:space="preserve" viewBox="0 0 512 512" enable-background="new 0 0 512 512" id="11331569">
  <g id="_x32_9_x2C__blockchain_x2C__network_x2C__browser_x2C__digital_currency_x2C__business_x2C__market" fill="#000000" class="color000000 svgShape">
    <g fill="#000000" class="color000000 svgShape">
      <g fill="#000000" class="color000000 svgShape">
        <path d="M249.5,74.5L6,96v365.6C6,486.12,25.88,506,50.4,506h411.2c24.52,0,44.4-19.88,44.4-44.4V96
				L249.5,74.5z" fill="#ffffff" class="colordfe8eb svgShape"></path>
        <rect width="420" height="320" x="46" y="141" fill="#f5cd7e" class="color7ed7f5 svgShape"></rect>
        <path d="M506,50.4V96H226l-50-35L151,6h310.6C486.12,6,506,25.88,506,50.4z" fill="#575757" class="color495f66 svgShape"></path>
        <path d="M151,6H50.4C25.88,6,6,25.88,6,50.4V96h220L151,6z" fill="#464646" class="color3b4a51 svgShape"></path>
        <circle cx="141" cy="51" r="10" fill="#e6b85e" class="colorbde65e svgShape"></circle>
        <circle cx="96" cy="51" r="10" fill="#f6c25b" class="colorf6df5b svgShape"></circle>
        <circle cx="51" cy="51" r="10" fill="#e1b359" class="colore17559 svgShape"></circle>
      </g>
      <polygon points="306 271 306 331 256 351 245.833 322.333 256 291 268.625 271.875" fill="#c7a35b" class="colorc7865b svgShape"></polygon>
      <g fill="#000000" class="color000000 svgShape">
        <polygon points="286 386 286 421 256 436 249.333 419.833 256 401 262.333 389" fill="#e6b85e" class="colorbde65e svgShape"></polygon>
        <polygon points="256 401 256 436 226 421 226 386 247.167 388.167" fill="#c8ab71" class="color71c880 svgShape"></polygon>
        <polygon points="286 386 256 401 226 386 256 371" fill="#a68e5f" class="color5fa68d svgShape"></polygon>
      </g>
      <g fill="#000000" class="color000000 svgShape">
        <polygon points="286 181 286 216 256 231 249.333 214.833 256 196 262.333 184" fill="#e6b85e" class="colorbde65e svgShape"></polygon>
        <polygon points="256 196 256 231 226 216 226 181 247.167 183.167" fill="#c8ab71" class="color71c880 svgShape"></polygon>
        <polygon points="286 181 256 196 226 181 256 166" fill="#a68e5f" class="color5fa68d svgShape"></polygon>
      </g>
      <g fill="#000000" class="color000000 svgShape">
        <polygon points="396 221 396 256 366 271 359.333 254.833 366 236 372.333 224" fill="#e1b359" class="colore17559 svgShape"></polygon>
        <polygon points="366 236 366 271 336 256 336 221 357.167 223.167" fill="#dca53a" class="colordc483a svgShape"></polygon>
        <polygon points="396 221 366 236 336 221 366 206" fill="#cb911f" class="colorcb1f1f svgShape"></polygon>
      </g>
      <g fill="#000000" class="color000000 svgShape">
        <polygon points="396 346 396 381 366 396 359.333 379.833 366 361 372.333 349" fill="#f6c25b" class="colorf6df5b svgShape"></polygon>
        <polygon points="366 361 366 396 336 381 336 346 357.167 348.167" fill="#ffb729" class="coloreec158 svgShape"></polygon>
        <polygon points="396 346 366 361 336 346 366 331" fill="#e6bd6b" class="colore6986b svgShape"></polygon>
      </g>
      <g fill="#000000" class="color000000 svgShape">
        <polygon points="176 346 176 381 146 396 139.333 379.833 146 361 152.333 349" fill="#e1b359" class="colore17559 svgShape"></polygon>
        <polygon points="146 361 146 396 116 381 116 346 137.167 348.167" fill="#dca53a" class="colordc483a svgShape"></polygon>
        <polygon points="176 346 146 361 116 346 146 331" fill="#cb911f" class="colorcb1f1f svgShape"></polygon>
      </g>
      <g fill="#000000" class="color000000 svgShape">
        <polygon points="176 221 176 256 146 271 139.333 254.833 146 236 152.333 224" fill="#f6c25b" class="colorf6df5b svgShape"></polygon>
        <polygon points="146 236 146 271 116 256 116 221 137.167 223.167" fill="#ffb729" class="coloreec158 svgShape"></polygon>
        <polygon points="176 221 146 236 116 221 146 206" fill="#e6bd6b" class="colore6986b svgShape"></polygon>
      </g>
      <polygon points="256 291 256 351 206 331 206 271 235.667 274.167" fill="#b38b3c" class="colorb36d3c svgShape"></polygon>
      <polygon points="306 271 256 291 206 271 256 251" fill="#997734" class="color995e34 svgShape"></polygon>
      <g fill="#000000" class="color000000 svgShape">
        <path d="M461.6,1H50.4C23.161,1,1,23.161,1,50.4V461.6C1,488.839,23.161,511,50.4,511H461.6c27.239,0,49.4-22.161,49.4-49.4V50.4
				C511,23.161,488.839,1,461.6,1z M501,50.4V91H228.342l-66.667-80H461.6C483.325,11,501,28.675,501,50.4z M50.4,11h98.258
				l66.667,80H11V50.4C11,28.675,28.675,11,50.4,11z M461.6,501H50.4C28.675,501,11,483.325,11,461.6V101h490v360.6
				C501,483.325,483.325,501,461.6,501z" fill="#000000" class="color000000 svgShape"></path>
        <path d="M51 66c8.271 0 15-6.729 15-15s-6.729-15-15-15-15 6.729-15 15S42.729 66 51 66zM51 46c2.757 0 5 2.243 5 5s-2.243 5-5 5-5-2.243-5-5S48.243 46 51 46zM96 66c8.271 0 15-6.729 15-15s-6.729-15-15-15-15 6.729-15 15S87.729 66 96 66zM96 46c2.757 0 5 2.243 5 5s-2.243 5-5 5-5-2.243-5-5S93.243 46 96 46zM141 66c8.271 0 15-6.729 15-15s-6.729-15-15-15-15 6.729-15 15S132.729 66 141 66zM141 46c2.757 0 5 2.243 5 5s-2.243 5-5 5-5-2.243-5-5S138.243 46 141 46zM241 56h230c2.762 0 5-2.238 5-5s-2.238-5-5-5H241c-2.762 0-5 2.238-5 5S238.238 56 241 56zM466 136H46c-2.762 0-5 2.238-5 5v320c0 2.762 2.238 5 5 5h420c2.762 0 5-2.238 5-5V141C471 138.238 468.762 136 466 136zM461 456H51V146h410V456z" fill="#000000" class="color000000 svgShape"></path>
        <path d="M113.764,385.472c21.194,10.458,27.512,13.87,29.997,14.985c1.463,0.736,3.094,0.705,4.476,0.015l30-15
				C179.93,384.625,181,382.894,181,381v-31.91l25.227-12.614L251,354.385v13.525l-27.236,13.618
				C222.085,382.368,221,384.143,221,386v35c0,1.894,1.07,3.625,2.764,4.472l30,15c1.48,0.734,3.131,0.671,4.473,0l30-15
				C289.93,424.625,291,422.894,291,421v-35c0-1.937-1.154-3.667-2.764-4.472L261,367.91v-13.525l44.773-17.909L331,349.09V381
				c0,1.894,1.07,3.625,2.764,4.472l30,15c1.357,0.673,3.034,0.719,4.473,0l30-15C399.93,384.625,401,382.894,401,381v-35
				c0-1.905-1.122-3.651-2.764-4.472l-30-15c-1.276-0.64-3.1-0.688-4.473,0L336,340.41l-25-12.5v-53.82l25-12.5l27.764,13.882
				c1.41,0.705,3.091,0.691,4.473,0l30-15C399.93,259.625,401,257.894,401,256v-35c0-1.959-1.162-3.671-2.764-4.472l-30-15
				c-1.281-0.641-3.077-0.698-4.473,0l-30,15C332.155,217.333,331,219.065,331,221v31.91l-25.228,12.613L261,247.615V234.09
				l27.236-13.618C289.93,219.625,291,217.894,291,216v-35c0-1.933-1.123-3.651-2.764-4.472l-30-15c-1.379-0.691-3.157-0.66-4.473,0
				l-30,15C222.166,177.327,221,179.036,221,181v35c0,1.894,1.07,3.625,2.764,4.472L251,234.09v13.525l-44.772,17.909L181,252.91
				V221c0-1.942-1.148-3.664-2.764-4.472l-30-15c-1.281-0.641-3.07-0.702-4.473,0l-30,15C112.138,217.346,111,219.059,111,221v35
				c0,1.894,1.07,3.625,2.764,4.472l30,15c1.474,0.731,3.126,0.673,4.473,0L176,261.59l25,12.5v53.82l-25,12.5l-27.764-13.882
				c-1.272-0.638-3.083-0.698-4.473,0l-30,15C112.138,342.346,111,344.059,111,346v35C111,382.894,112.07,384.625,113.764,385.472z
				 M146,336.59l18.82,9.41L146,355.41L127.18,346L146,336.59z M121,354.09l20,10v23.82l-20-10V354.09z M171,377.91l-20,10v-23.82
				l20-10V377.91z M256,256.385L292.536,271L256,285.615L219.464,271L256,256.385z M256,171.59l18.82,9.41L256,190.41L237.18,181
				L256,171.59z M211,278.385l40,16v49.23l-40-16V278.385z M231,394.09l20,10v23.82l-20-10V394.09z M281,417.91l-20,10v-23.82l20-10
				V417.91z M274.82,386L256,395.41L237.18,386l18.82-9.41L274.82,386z M301,327.615l-40,16v-49.23l40-16V327.615z M366,336.59
				l18.82,9.41L366,355.41L347.18,346L366,336.59z M341,354.09l20,10v23.82l-20-10V354.09z M391,377.91l-20,10v-23.82l20-10V377.91z
				 M366,211.59l18.82,9.41L366,230.41L347.18,221L366,211.59z M341,229.09l20,10v23.82l-20-10V229.09z M391,252.91l-20,10v-23.82
				l20-10V252.91z M281,212.91l-20,10v-23.82l20-10V212.91z M231,189.09l20,10v23.82l-20-10V189.09z M146,230.41L127.18,221
				l18.82-9.41l18.82,9.41L146,230.41z M121,229.09l20,10v23.82l-20-10V229.09z M171,252.91l-20,10v-23.82l20-10V252.91z" fill="#000000" class="color000000 svgShape"></path>
      </g>
    </g>
  </g>
</svg>
