<svg xmlns="http://www.w3.org/2000/svg" viewBox="0 0 520 520" id="2881911">
  <path fill="#ffb729" d="M310 180H200V65c0-30.37 24.62-55 55-55 30.366 0 55 24.619 55 55v115z" class="colorff884d svgShape"></path>
  <circle cx="255" cy="115" r="25" fill="#ffffff" class="colore3f5ff svgShape"></circle>
  <path fill="#e49b0c" d="M360 210v30h-50v-80c13.8 0 26.3 5.6 35.35 14.65C354.4 183.69 360 196.19 360 210zm-160 10v20h-50v-30c0-13.81 5.6-26.31 14.65-35.35C173.7 165.6 186.2 160 200 160v60z" class="colore40c57 svgShape"></path>
  <path fill="#ffc34d" d="M310 180v40H200v-40z" class="colorff4d4d svgShape"></path>
  <path fill="#8e6e2e" d="M100 460h160v50H100z" class="color8e572e svgShape"></path>
  <path fill="#424242" d="M260 460h160v50H260z" class="color5c3629 svgShape"></path>
  <path fill="#c19b4f" d="m420 280 60 90H320l-60-90h20z" class="colorc17d4f svgShape"></path>
  <path fill="#8e6e2e" d="M420 370v90H260V280l60 90z" class="color8e572e svgShape"></path>
  <path fill="#c19b4f" d="M260 280v180H100v-90h100z" class="colorc17d4f svgShape"></path>
  <path fill="#8e6e2e" d="m260 280-60 90H40l60-90h160z" class="color8e572e svgShape"></path>
  <path d="M260 515H100a5 5 0 0 1-5-5V370a5 5 0 1 1 10 0v135h155a5 5 0 1 1 0 10z" fill="#000000" class="color000000 svgShape"></path>
  <path d="M200 375H40a5 5 0 0 1-4.16-7.774l60-90A5 5 0 0 1 100 275h160a5 5 0 0 1 4.16 7.774l-60 90A5 5 0 0 1 200 375zM49.343 365h147.981l53.333-80H102.676l-53.333 80z" fill="#000000" class="color000000 svgShape"></path>
  <path d="M420 515H260a5 5 0 0 1-5-5V280a5 5 0 1 1 10 0v225h150V370a5 5 0 1 1 10 0v140a5 5 0 0 1-5 5z" fill="#000000" class="color000000 svgShape"></path>
  <path d="M480 375H320a5 5 0 0 1-4.16-2.227l-60-90a5 5 0 0 1 4.16-7.774h160a5 5 0 0 1 4.16 2.227l60 90A5 5 0 0 1 480 375zm-157.324-10h147.981l-53.333-80H269.343l53.333 80zM310 165a5 5 0 0 1-5-5V65c0-13.345-5.202-25.9-14.647-35.355C280.91 20.201 268.354 15 255 15c-27.57 0-50 22.43-50 50v95a5 5 0 1 1-10 0V65c0-33.084 26.916-60 60-60 16.025 0 31.092 6.241 42.426 17.575C308.759 33.92 315 48.986 315 65v95a5 5 0 0 1-5 5zm0 60H200a5 5 0 1 1 0-10h110a5 5 0 1 1 0 10z" fill="#000000" class="color000000 svgShape"></path>
  <path d="M360 245h-50a5 5 0 0 1-5-5v-80a5 5 0 0 1 5-5c14.685 0 28.495 5.723 38.886 16.115C359.276 181.494 365 195.305 365 210v30a5 5 0 0 1-5 5zm-45-10h40v-25c0-12.022-4.682-23.319-13.184-31.813-7.313-7.314-16.693-11.801-26.816-12.914V235zm-115 10h-50a5 5 0 0 1-5-5v-30c0-14.695 5.724-28.506 16.116-38.887C171.505 160.723 185.315 155 200 155a5 5 0 0 1 5 5v80a5 5 0 0 1-5 5zm-45-10h40v-69.727c-10.123 1.113-19.503 5.6-26.814 12.912C159.682 186.681 155 197.978 155 210v25zm85 50a5 5 0 0 1-5-5v-60a5 5 0 1 1 10 0v60a5 5 0 0 1-5 5zm15-140c-16.542 0-30-13.458-30-30s13.458-30 30-30 30 13.458 30 30-13.458 30-30 30zm0-50c-11.028 0-20 8.972-20 20s8.972 20 20 20 20-8.972 20-20-8.972-20-20-20z" fill="#000000" class="color000000 svgShape"></path>
  <path d="M310 185H200a5 5 0 1 1 0-10h110a5 5 0 1 1 0 10zm-30 100a5 5 0 0 1-5-5v-30a5 5 0 1 1 10 0v30a5 5 0 0 1-5 5zm140 180H100a5 5 0 1 1 0-10h320a5 5 0 1 1 0 10zm-60-360a5 5 0 0 1-5-5V40a5 5 0 1 1 10 0v60a5 5 0 0 1-5 5zm40 70a5 5 0 0 1-5-5V70a5 5 0 1 1 10 0v100a5 5 0 0 1-5 5zm-240-70a5 5 0 0 1-5-5V40a5 5 0 1 1 10 0v60a5 5 0 0 1-5 5zm-40 70a5 5 0 0 1-5-5V70a5 5 0 1 1 10 0v100a5 5 0 0 1-5 5z" fill="#000000" class="color000000 svgShape"></path>
</svg>
