<svg xmlns="http://www.w3.org/2000/svg" viewBox="0 0 520 520" id="2881916">
  <path fill="#ffffff" d="M310 295v40H210v-70h100z" class="color5c3629 svgShape"></path>
  <path fill="#ffb729" d="M240 335h40v120h-40zM280 175v90h-40V115h40z" class="colorffe278 svgShape"></path>
  <path fill="#8e6e2e" d="M510 158.84V175H280v-60h186.17c24.21 0 43.83 19.63 43.83 43.84zM240 115v60H10v-16.16C10 134.63 29.62 115 53.83 115H240zm230 180v123.05c0 20.41-16.55 36.95-36.96 36.95H280V335h30v-40h160zm-230 40v120H86.96C66.55 455 50 438.46 50 418.05V295h160v40h30z" class="color8e572e svgShape"></path>
  <path fill="#c19b4f" d="M510 175v120H310v-30h-30v-90zM240 175v90h-30v30H10V175h230z" class="colorc17d4f svgShape"></path>
  <path d="M240 460H86.96C63.823 460 45 441.182 45 418.05V295a5 5 0 1 1 10 0v123.05C55 435.667 69.337 450 86.96 450H240a5 5 0 1 1 0 10zm193.04 0H280a5 5 0 1 1 0-10h153.04c17.623 0 31.96-14.333 31.96-31.95V295a5 5 0 1 1 10 0v123.05c0 23.132-18.823 41.95-41.96 41.95z" fill="#000000" class="color000000 svgShape"></path>
  <path d="M510 300H310a5 5 0 1 1 0-10h195V158.84c0-21.416-17.419-38.84-38.83-38.84H360a5 5 0 1 1 0-10h106.17c26.925 0 48.83 21.909 48.83 48.84V295a5 5 0 0 1-5 5zm-300 0H10a5 5 0 0 1-5-5V158.84C5 131.909 26.905 110 53.83 110H160a5 5 0 1 1 0 10H53.83C32.419 120 15 137.424 15 158.84V290h195a5 5 0 1 1 0 10zm30-30a5 5 0 0 1-5-5V115a5 5 0 1 1 10 0v150a5 5 0 0 1-5 5zm40 0a5 5 0 0 1-5-5V115a5 5 0 1 1 10 0v150a5 5 0 0 1-5 5zm0 190h-40a5 5 0 0 1-5-5V335a5 5 0 1 1 10 0v115h30V335a5 5 0 1 1 10 0v120a5 5 0 0 1-5 5z" fill="#000000" class="color000000 svgShape"></path>
  <path d="M310 340H210a5 5 0 0 1-5-5v-70a5 5 0 0 1 5-5h100a5 5 0 0 1 5 5v70a5 5 0 0 1-5 5zm-95-10h90v-60h-90v60zm295-150H280a5 5 0 1 1 0-10h230a5 5 0 1 1 0 10zm-270 0H10a5 5 0 1 1 0-10h230a5 5 0 1 1 0 10zm120-60H160a5 5 0 0 1-5-5V93.311C155 74.943 169.943 60 188.31 60h143.38C350.057 60 365 74.943 365 93.311V115a5 5 0 0 1-5 5zm-195-10h190V93.311C355 80.457 344.543 70 331.69 70H188.31C175.457 70 165 80.457 165 93.311V110z" fill="#000000" class="color000000 svgShape"></path>
</svg>
