<svg xmlns="http://www.w3.org/2000/svg" viewBox="0 0 520 520" id="2881891">
  <path fill="#ffffff" d="M470 297.5v123.05c0 10.145-4.094 19.399-10.826 26.129S443.186 457.5 433.04 457.5H280l-8.333-60 8.333-60c10.492 0 14.008-7.17 24.5-7.17 0-13.989 5.5-18.841 5.5-32.83l80-9.17 80 9.17zm-230 40 12.333 60-12.333 60H86.96C66.589 457.5 50 441.01 50 420.55V297.5c2.257 0 41.129-9.17 80.001-9.17 38.872 0 77.743 9.17 79.999 9.17 0 13.989 8.5 18.841 8.5 32.83 10.492 0 11.008 7.17 21.5 7.17z" class="color8e572e svgShape"></path>
  <path fill="#000000" d="M165 132.5V95.811c0-12.854 10.457-23.311 23.31-23.311h143.38c12.853 0 23.31 10.457 23.31 23.311V132.5h10V95.811c0-18.367-14.943-33.311-33.31-33.311H188.31C169.943 62.5 155 77.443 155 95.811V132.5h10z" class="color5c3629 svgShape"></path>
  <path fill="#ffb729" d="M280 337.5v120h-40v-120l20-7.17 20 7.17z" class="colorffe278 svgShape"></path>
  <path fill="#ffffff" d="M510 161.34v16.16l-115 11.33-115-11.33-8.333-30 8.333-30h186.17c12.105 0 23.063 4.907 30.994 12.841C505.095 138.275 510 149.235 510 161.34zM240 117.5l12.333 30-12.333 30-115 11.33L10 177.5v-16.16c0-24.209 19.619-43.84 43.83-43.84H240z" class="color8e572e svgShape"></path>
  <path fill="#c19b4f" d="M510 177.5v120H310c0-10.492-6.333-14.511-6.333-25.003-10.492 0-13.174-4.997-23.667-4.997l-8.333-45 8.333-45h230zm-270 0 7 45-7 45c-10.492 0-12.174 6.997-22.667 6.997 0 10.492-7.333 12.511-7.333 23.003H10v-120h230z" class="colorc17d4f svgShape"></path>
  <path fill="#ffb729" d="m280 267.5-20 9.33-20-9.33v-150h40v150z" class="colorffe278 svgShape"></path>
  <path fill="#000000" d="M310 337.5H210v-70h100v70z" class="color5c3629 svgShape"></path>
</svg>
