<svg xmlns="http://www.w3.org/2000/svg" xml:space="preserve" viewBox="0 0 512 512" enable-background="new 0 0 512 512" id="11331587">
  <g id="_x34_7_x2C__building_x2C__office_x2C__digital_economy_x2C__architecture_x2C__city_x2C__office" fill="#000000" class="color000000 svgShape">
    <g fill="#000000" class="color000000 svgShape">
      <path d="M314.5,201.008l11.833,297l129.667-12v-285C440.794,201.008,329.95,201.008,314.5,201.008z" fill="#ffb729" class="colorf6df5b svgShape"></path>
      <path d="M141,116.008v340l95,17l95-17c0-187.763,0-330.444,0-340
			C320.457,116.008,151.543,116.008,141,116.008z" fill="#ffffff" class="colordfe8eb svgShape"></path>
      <rect width="30" height="20" x="221" y="266.008" fill="#f5cd7e" class="color7ed7f5 svgShape"></rect>
      <path d="M251 241.008v25h-30v-25c0-13.402 16.258-19.976 25.6-10.6C249.32 233.118 251 236.868 251 241.008zM251 326.008v25h-30v-25c0-13.402 16.258-19.976 25.6-10.6C249.32 318.118 251 321.868 251 326.008z" fill="#f5cd7e" class="color7ed7f5 svgShape"></path>
      <rect width="30" height="20" x="221" y="351.008" fill="#f5cd7e" class="color7ed7f5 svgShape"></rect>
      <rect width="30" height="20" x="166" y="351.008" fill="#f5cd7e" class="color7ed7f5 svgShape"></rect>
      <path d="M196,326.008v25h-30v-25c0-13.402,16.258-19.976,25.6-10.6C194.32,318.118,196,321.868,196,326.008
			z" fill="#f5cd7e" class="color7ed7f5 svgShape"></path>
      <rect width="30" height="20" x="166" y="266.008" fill="#f5cd7e" class="color7ed7f5 svgShape"></rect>
      <path d="M196 241.008v25h-30v-25c0-13.402 16.258-19.976 25.6-10.6C194.32 233.118 196 236.868 196 241.008zM196 156.008v25h-30v-25c0-13.402 16.258-19.976 25.6-10.6C194.32 148.118 196 151.868 196 156.008z" fill="#f5cd7e" class="color7ed7f5 svgShape"></path>
      <rect width="30" height="20" x="166" y="181.008" fill="#f5cd7e" class="color7ed7f5 svgShape"></rect>
      <rect width="30" height="20" x="221" y="181.008" fill="#f5cd7e" class="color7ed7f5 svgShape"></rect>
      <path d="M251 156.008v25h-30v-25c0-13.402 16.258-19.976 25.6-10.6C249.32 148.118 251 151.868 251 156.008zM306 156.008v25h-30v-25c0-13.402 16.258-19.976 25.6-10.6C304.32 148.118 306 151.868 306 156.008z" fill="#f5cd7e" class="color7ed7f5 svgShape"></path>
      <rect width="30" height="20" x="276" y="181.008" fill="#f5cd7e" class="color7ed7f5 svgShape"></rect>
      <path d="M306,241.008v25h-30v-25c0-13.402,16.258-19.976,25.6-10.6C304.32,233.118,306,236.868,306,241.008
			z" fill="#f5cd7e" class="color7ed7f5 svgShape"></path>
      <rect width="30" height="20" x="276" y="266.008" fill="#f5cd7e" class="color7ed7f5 svgShape"></rect>
      <path d="M436,101.008c11.04,0,20,8.96,20,20c0,11.05-8.95,20-20,20c-7.259,0-52.693,0-60,0
			c-5.52,0-10.52-2.24-14.14-5.86c-12.487-12.487-3.735-34.14,14.14-34.14h10c0-23.631,30.474-34.436,45.03-14.96
			C434.435,90.517,436,95.976,436,101.008z" fill="#f5cd7e" class="color7ed7f5 svgShape"></path>
      <polygon points="331 456.008 331 486.008 264.5 496.008 271 456.008" fill="#f2e6ce" class="colorcee0f2 svgShape"></polygon>
      <rect width="30" height="20" x="276" y="351.008" fill="#f5cd7e" class="color7ed7f5 svgShape"></rect>
      <path d="M306,326.008v25h-30v-25c0-13.402,16.258-19.976,25.6-10.6C304.32,318.118,306,321.868,306,326.008
			z" fill="#f5cd7e" class="color7ed7f5 svgShape"></path>
      <circle cx="236" cy="76.008" r="10" fill="#f5cd7e" class="color7ed7f5 svgShape"></circle>
      <polygon points="201 456.008 215.25 499.258 141 486.008 141 456.008" fill="#f2e6ce" class="colorcee0f2 svgShape"></polygon>
      <path d="M66,431.008c-31.105,0-46.714-37.845-24.7-59.79c-22.11-53.502-6.283-145.21,24.7-145.21
			c30.592,0,47.069,91.081,24.7,145.21C112.724,393.173,97.083,431.008,66,431.008z" fill="#e6b85e" class="colorbde65e svgShape"></path>
      <path d="M271,492.758h-70c0-9.689,0-87.032,0-96.75h70C271,405.736,271,483.043,271,492.758z" fill="#c7a35b" class="colorc7865b svgShape"></path>
      <path d="M506,486.008v20H6v-20C572.738,486.008-72.554,486.008,506,486.008z" fill="#575757" class="color495f66 svgShape"></path>
      <g fill="#000000" class="color000000 svgShape">
        <path d="M506 481.008h-45v-280c0-2.762-2.238-5-5-5h-45v-50h25c13.785 0 25-11.215 25-25 0-12.189-8.769-22.369-20.33-24.562-.974-6.345-3.956-12.002-8.154-16.325-17.306-17.794-47.077-7.989-51.099 15.886H376c-13.785 0-25 11.215-25 25s11.215 25 25 25h25v50h-65v-80c0-2.762-2.238-5-5-5h-90V90.133c5.817-2.065 10-7.608 10-14.125 0-8.271-6.729-15-15-15s-15 6.729-15 15c0 6.517 4.183 12.06 10 14.125v20.875h-90c-2.762 0-5 2.238-5 5v365H71v-45.301c30.786-3.695 46.305-41.133 25.507-65.574 12.844-34.051 12.837-87.201-1.135-121.133-15.412-37.428-43.357-37.37-58.744 0-13.967 33.92-13.984 87.07-1.135 121.133-20.79 24.431-5.298 61.881 25.507 65.575v45.3H6c-2.762 0-5 2.238-5 5v20c0 2.762 2.238 5 5 5h500c2.762 0 5-2.238 5-5v-20C511 483.247 508.762 481.008 506 481.008zM361 121.008c0-8.271 6.729-15 15-15h5.439c.996 5.941 3.773 11.639 8.348 16.213 1.951 1.953 5.119 1.953 7.07 0 1.953-1.952 1.953-5.118 0-7.07-5.309-5.31-7.381-13.379-4.626-20.986 7.596-20.73 38.305-15.781 38.779 6.946-.018 2.658-.558 5.34-1.673 7.899-1.104 2.531.054 5.478 2.585 6.581 2.518 1.101 5.474-.044 6.581-2.585.9-2.063 1.548-4.182 1.966-6.318 6.095 1.906 10.531 7.604 10.531 14.32 0 8.271-6.729 15-15 15h-60C367.729 136.008 361 129.28 361 121.008zM236 71.008c2.757 0 5 2.243 5 5s-2.243 5-5 5-5-2.243-5-5S233.243 71.008 236 71.008zM44.825 374.757c1.434-1.428 1.864-3.58 1.092-5.45C39.521 353.831 36 333.127 36 311.008c0-47.146 15.811-80 30-80s30 32.854 30 80c0 22.118-3.521 42.822-9.917 58.299-.772 1.87-.342 4.022 1.092 5.45 17.624 17.566 7.116 47.108-16.175 50.852v-32.53l8.535-8.535c1.953-1.952 1.953-5.118 0-7.07-1.951-1.953-5.119-1.953-7.07 0L71 378.938v-15.859l8.535-8.535c1.953-1.952 1.953-5.118 0-7.07-1.951-1.953-5.119-1.953-7.07 0L71 348.938v-15.859l8.535-8.535c1.953-1.952 1.953-5.118 0-7.07-1.951-1.953-5.119-1.953-7.07 0L71 318.938v-32.93c0-2.762-2.238-5-5-5s-5 2.238-5 5v17.93l-1.465-1.465c-1.951-1.953-5.119-1.953-7.07 0-1.953 1.952-1.953 5.118 0 7.07L61 318.079c0 5.458 0 9.937 0 15.859l-1.465-1.465c-1.951-1.953-5.119-1.953-7.07 0-1.953 1.952-1.953 5.118 0 7.07L61 348.079v15.859l-1.465-1.465c-1.951-1.953-5.119-1.953-7.07 0-1.953 1.952-1.953 5.118 0 7.07L61 378.079v47.53C37.707 421.866 27.203 392.322 44.825 374.757zM451 206.008v275H336v-275H451zM276 481.008v-20h50v20H276zM206 401.008h60v80h-60V401.008zM326 121.008c0 7.138 0 325.757 0 330h-50v-55c0-2.762-2.238-5-5-5h-70c-2.762 0-5 2.238-5 5v55h-50v-330H326zM146 461.008h50v20h-50V461.008zM501 501.008H11v-10c46.471 0 408.421 0 490 0V501.008zM211.252 51.26c-1.953 1.952-1.953 5.118 0 7.07 1.951 1.953 5.119 1.953 7.07 0 9.773-9.771 25.583-9.77 35.355 0 .976.977 2.256 1.465 3.535 1.465 4.405 0 6.703-5.369 3.535-8.535C247.102 37.614 224.898 37.614 211.252 51.26z" fill="#000000" class="color000000 svgShape"></path>
        <path d="M271.355,45.653c4.405,0,6.703-5.369,3.535-8.535c-21.492-21.494-56.285-21.498-77.781,0
				c-1.953,1.952-1.953,5.118,0,7.07c1.951,1.953,5.119,1.953,7.07,0c17.59-17.587,46.053-17.585,63.641,0
				C268.796,45.165,270.076,45.653,271.355,45.653z" fill="#000000" class="color000000 svgShape"></path>
        <path d="M190.038 30.046c25.405-25.403 66.518-25.404 91.924 0 1.951 1.953 5.119 1.953 7.07 0 1.953-1.952 1.953-5.118 0-7.07-29.309-29.311-76.752-29.315-106.064 0-1.953 1.952-1.953 5.118 0 7.07C184.919 32 188.087 32 190.038 30.046zM166 206.008h30c2.762 0 5-2.238 5-5v-45c0-11.028-8.972-20-20-20s-20 8.972-20 20v45C161 203.77 163.238 206.008 166 206.008zM171 196.008v-10h20v10H171zM181 146.008c5.514 0 10 4.486 10 10v20h-20v-20C171 150.495 175.486 146.008 181 146.008zM221 206.008h30c2.762 0 5-2.238 5-5v-45c0-11.028-8.972-20-20-20s-20 8.972-20 20v45C216 203.77 218.238 206.008 221 206.008zM226 196.008v-10h20v10H226zM236 146.008c5.514 0 10 4.486 10 10v20h-20v-20C226 150.495 230.486 146.008 236 146.008zM276 206.008h30c2.762 0 5-2.238 5-5v-45c0-11.028-8.972-20-20-20s-20 8.972-20 20v45C271 203.77 273.238 206.008 276 206.008zM281 196.008v-10h20v10H281zM291 146.008c5.514 0 10 4.486 10 10v20h-20v-20C281 150.495 285.486 146.008 291 146.008zM166 291.008h30c2.762 0 5-2.238 5-5v-45c0-11.028-8.972-20-20-20s-20 8.972-20 20v45C161 288.77 163.238 291.008 166 291.008zM171 281.008v-10h20v10H171zM181 231.008c5.514 0 10 4.486 10 10v20h-20v-20C171 235.495 175.486 231.008 181 231.008zM221 291.008h30c2.762 0 5-2.238 5-5v-45c0-11.028-8.972-20-20-20s-20 8.972-20 20v45C216 288.77 218.238 291.008 221 291.008zM226 281.008v-10h20v10H226zM236 231.008c5.514 0 10 4.486 10 10v20h-20v-20C226 235.495 230.486 231.008 236 231.008zM276 291.008h30c2.762 0 5-2.238 5-5v-45c0-11.028-8.972-20-20-20s-20 8.972-20 20v45C271 288.77 273.238 291.008 276 291.008zM281 281.008v-10h20v10H281zM291 231.008c5.514 0 10 4.486 10 10v20h-20v-20C281 235.495 285.486 231.008 291 231.008zM166 376.008h30c2.762 0 5-2.238 5-5v-45c0-11.028-8.972-20-20-20s-20 8.972-20 20v45C161 373.77 163.238 376.008 166 376.008zM171 366.008v-10h20v10H171zM181 316.008c5.514 0 10 4.486 10 10v20h-20v-20C171 320.495 175.486 316.008 181 316.008zM221 376.008h30c2.762 0 5-2.238 5-5v-45c0-11.028-8.972-20-20-20s-20 8.972-20 20v45C216 373.77 218.238 376.008 221 376.008zM226 366.008v-10h20v10H226zM236 316.008c5.514 0 10 4.486 10 10v20h-20v-20C226 320.495 230.486 316.008 236 316.008zM276 376.008h30c2.762 0 5-2.238 5-5v-45c0-11.028-8.972-20-20-20s-20 8.972-20 20v45C271 373.77 273.238 376.008 276 376.008zM281 366.008v-10h20v10H281zM291 316.008c5.514 0 10 4.486 10 10v20h-20v-20C281 320.495 285.486 316.008 291 316.008zM356 246.008c2.762 0 5-2.238 5-5v-10c0-2.762-2.238-5-5-5s-5 2.238-5 5v10C351 243.77 353.238 246.008 356 246.008zM381 246.008c2.762 0 5-2.238 5-5v-10c0-2.762-2.238-5-5-5s-5 2.238-5 5v10C376 243.77 378.238 246.008 381 246.008zM406 246.008c2.762 0 5-2.238 5-5v-10c0-2.762-2.238-5-5-5s-5 2.238-5 5v10C401 243.77 403.238 246.008 406 246.008zM431 246.008c2.762 0 5-2.238 5-5v-10c0-2.762-2.238-5-5-5s-5 2.238-5 5v10C426 243.77 428.238 246.008 431 246.008zM356 281.008c2.762 0 5-2.238 5-5v-10c0-2.762-2.238-5-5-5s-5 2.238-5 5v10C351 278.77 353.238 281.008 356 281.008zM381 281.008c2.762 0 5-2.238 5-5v-10c0-2.762-2.238-5-5-5s-5 2.238-5 5v10C376 278.77 378.238 281.008 381 281.008zM406 281.008c2.762 0 5-2.238 5-5v-10c0-2.762-2.238-5-5-5s-5 2.238-5 5v10C401 278.77 403.238 281.008 406 281.008zM431 281.008c2.762 0 5-2.238 5-5v-10c0-2.762-2.238-5-5-5s-5 2.238-5 5v10C426 278.77 428.238 281.008 431 281.008zM356 316.008c2.762 0 5-2.238 5-5v-10c0-2.762-2.238-5-5-5s-5 2.238-5 5v10C351 313.77 353.238 316.008 356 316.008zM381 316.008c2.762 0 5-2.238 5-5v-10c0-2.762-2.238-5-5-5s-5 2.238-5 5v10C376 313.77 378.238 316.008 381 316.008zM406 316.008c2.762 0 5-2.238 5-5v-10c0-2.762-2.238-5-5-5s-5 2.238-5 5v10C401 313.77 403.238 316.008 406 316.008zM431 316.008c2.762 0 5-2.238 5-5v-10c0-2.762-2.238-5-5-5s-5 2.238-5 5v10C426 313.77 428.238 316.008 431 316.008zM356 351.008c2.762 0 5-2.238 5-5v-10c0-2.762-2.238-5-5-5s-5 2.238-5 5v10C351 348.77 353.238 351.008 356 351.008zM381 351.008c2.762 0 5-2.238 5-5v-10c0-2.762-2.238-5-5-5s-5 2.238-5 5v10C376 348.77 378.238 351.008 381 351.008zM406 351.008c2.762 0 5-2.238 5-5v-10c0-2.762-2.238-5-5-5s-5 2.238-5 5v10C401 348.77 403.238 351.008 406 351.008zM431 351.008c2.762 0 5-2.238 5-5v-10c0-2.762-2.238-5-5-5s-5 2.238-5 5v10C426 348.77 428.238 351.008 431 351.008zM356 386.008c2.762 0 5-2.238 5-5v-10c0-2.762-2.238-5-5-5s-5 2.238-5 5v10C351 383.77 353.238 386.008 356 386.008zM381 386.008c2.762 0 5-2.238 5-5v-10c0-2.762-2.238-5-5-5s-5 2.238-5 5v10C376 383.77 378.238 386.008 381 386.008zM406 386.008c2.762 0 5-2.238 5-5v-10c0-2.762-2.238-5-5-5s-5 2.238-5 5v10C401 383.77 403.238 386.008 406 386.008zM431 386.008c2.762 0 5-2.238 5-5v-10c0-2.762-2.238-5-5-5s-5 2.238-5 5v10C426 383.77 428.238 386.008 431 386.008zM356 421.008c2.762 0 5-2.238 5-5v-10c0-2.762-2.238-5-5-5s-5 2.238-5 5v10C351 418.77 353.238 421.008 356 421.008zM381 421.008c2.762 0 5-2.238 5-5v-10c0-2.762-2.238-5-5-5s-5 2.238-5 5v10C376 418.77 378.238 421.008 381 421.008zM406 421.008c2.762 0 5-2.238 5-5v-10c0-2.762-2.238-5-5-5s-5 2.238-5 5v10C401 418.77 403.238 421.008 406 421.008zM431 421.008c2.762 0 5-2.238 5-5v-10c0-2.762-2.238-5-5-5s-5 2.238-5 5v10C426 418.77 428.238 421.008 431 421.008zM356 456.008c2.762 0 5-2.238 5-5v-10c0-2.762-2.238-5-5-5s-5 2.238-5 5v10C351 453.77 353.238 456.008 356 456.008zM381 456.008c2.762 0 5-2.238 5-5v-10c0-2.762-2.238-5-5-5s-5 2.238-5 5v10C376 453.77 378.238 456.008 381 456.008zM406 456.008c2.762 0 5-2.238 5-5v-10c0-2.762-2.238-5-5-5s-5 2.238-5 5v10C401 453.77 403.238 456.008 406 456.008zM431 456.008c2.762 0 5-2.238 5-5v-10c0-2.762-2.238-5-5-5s-5 2.238-5 5v10C426 453.77 428.238 456.008 431 456.008z" fill="#000000" class="color000000 svgShape"></path>
      </g>
    </g>
  </g>
</svg>
