<svg xmlns="http://www.w3.org/2000/svg" viewBox="0 0 520 520" id="2881920">
  <path fill="#ffffff" d="M490 95.51V335H30V95.51C30 73.14 48.14 55 70.51 55h378.98C471.86 55 490 73.14 490 95.51z" class="colore3f5ff svgShape"></path>
  <path fill="#3e3e3e" d="M230 395h60v70h-60z" class="color00467d svgShape"></path>
  <path fill="#737373" d="M490 335v19.5c0 22.37-18.14 40.5-40.51 40.5H70.51C48.14 395 30 376.87 30 354.5V335h460z" class="color3b6bab svgShape"></path>
  <path fill="#eab44b" d="M450 225h-70v-70c38.66 0 70 31.34 70 70z" class="colorc6ea4b svgShape"></path>
  <path fill="#ffb729" d="M380 225h70c0 38.66-31.34 70-70 70s-70-31.34-70-70 31.34-70 70-70v70z" class="colorff884d svgShape"></path>
  <path d="M449.49 400H290a5 5 0 1 1 0-10h159.49c19.58 0 35.51-15.925 35.51-35.5V95.51C485 75.93 469.07 60 449.49 60H70.51C50.93 60 35 75.93 35 95.51V354.5c0 19.575 15.93 35.5 35.51 35.5H230a5 5 0 1 1 0 10H70.51C45.416 400 25 379.589 25 354.5V95.51C25 70.416 45.416 50 70.51 50h378.98C474.585 50 495 70.416 495 95.51V354.5c0 25.089-20.415 45.5-45.51 45.5z" fill="#000000" class="color000000 svgShape"></path>
  <path d="M290 470a5 5 0 0 1-5-5v-65h-50v65a5 5 0 1 1-10 0v-70a5 5 0 0 1 5-5h60a5 5 0 0 1 5 5v70a5 5 0 0 1-5 5z" fill="#000000" class="color000000 svgShape"></path>
  <path d="M330 470H190a5 5 0 1 1 0-10h140a5 5 0 1 1 0 10zm160-130H30a5 5 0 1 1 0-10h460a5 5 0 1 1 0 10zm-110-40c-41.355 0-75-33.645-75-75s33.645-75 75-75 75 33.645 75 75-33.645 75-75 75zm0-140c-35.841 0-65 29.159-65 65s29.159 65 65 65 65-29.159 65-65-29.159-65-65-65z" fill="#000000" class="color000000 svgShape"></path>
  <path d="M450 230h-70a5 5 0 0 1-5-5v-70a5 5 0 1 1 10 0v65h65a5 5 0 1 1 0 10zm-300-40H80a5 5 0 1 1 0-10h70a5 5 0 1 1 0 10zm80 40H80a5 5 0 1 1 0-10h150a5 5 0 1 1 0 10zm0 40H80a5 5 0 1 1 0-10h150a5 5 0 1 1 0 10z" fill="#000000" class="color000000 svgShape"></path>
</svg>
