<svg xmlns="http://www.w3.org/2000/svg" viewBox="0 0 520 520" id="2881876">
  <path fill="#3e3e3e" d="M230 385.497h60V462.5h-60z" class="color00467d svgShape"></path>
  <path fill="#737373" d="M510 332.5V352c0 22.369-18.139 40.5-40.51 40.5H50.51C28.141 392.5 10 374.371 10 352v-19.5l250-21.67 250 21.67z" class="color3b6bab svgShape"></path>
  <path fill="#ffffff" d="M510 93.01V332.5H10V93.01C10 70.64 28.14 52.5 50.51 52.5h418.98c22.37 0 40.51 18.14 40.51 40.51z" class="colore3f5ff svgShape"></path>
  <path fill="#eab44b" d="m180 222.5 9.667 30-9.667 30h-40v-60h40z" class="colorc6ea4b svgShape"></path>
  <path fill="#000000" d="M330 467.5H190a5 5 0 1 1 0-10h140a5 5 0 1 1 0 10z" class="color00215a svgShape"></path>
  <path fill="#ffdd99" d="M145.528 174.736a5 5 0 0 1 2.236-6.708l140-70a5 5 0 1 1 4.472 8.943l-140 70a4.998 4.998 0 0 1-6.708-2.235z" class="color99ccff svgShape"></path>
  <path fill="#6e6e6e" d="m220 202.5 10 40-10 40h-40v-80h40z" class="color00dc7b svgShape"></path>
  <path fill="#515151" d="m260 182.5 13 50-13 50h-40v-100h40z" class="color00a27b svgShape"></path>
  <path fill="#ffd278" d="m300 162.5 9 60-9 60h-40v-120h40z" class="colorffe278 svgShape"></path>
  <path fill="#ffb729" d="m340 142.5 11.667 70-11.667 70h-40v-140h40z" class="colorffb454 svgShape"></path>
  <path fill="#ffc34d" d="M380 122.5v160h-40v-160h40z" class="colorff884d svgShape"></path>
</svg>
