<svg xmlns="http://www.w3.org/2000/svg" viewBox="0 0 520 520" id="2881895">
  <path fill="#3e3e3e" d="M230 386.163h60V462.5h-60z" class="color00467d svgShape"></path>
  <path fill="#737373" d="M490 332.5V352c0 11.185-4.535 21.31-11.866 28.639-7.331 7.329-17.459 11.861-28.644 11.861H70.51c-11.185 0-21.313-4.533-28.644-11.861C34.535 373.31 30 363.185 30 352v-19.5l230-11.67 230 11.67z" class="color3b6bab svgShape"></path>
  <path fill="#000000" d="M330 467.5H190a5 5 0 1 1 0-10h140a5 5 0 1 1 0 10z" class="color00215a svgShape"></path>
  <path fill="#ffffff" d="M490 93.01V332.5H30V93.01C30 70.64 48.14 52.5 70.51 52.5h378.98c22.37 0 40.51 18.14 40.51 40.51z" class="colore3f5ff svgShape"></path>
  <path fill="#ffb729" d="M384.5 218.997 450 222.5c0 47.093-46.504 83.324-96.094 65.277a65.586 65.586 0 0 1-39.183-39.183C296.676 199.004 332.907 152.5 380 152.5l4.5 66.497z" class="colorff884d svgShape"></path>
  <path fill="#ffd480" d="M150 187.5H80a5 5 0 1 1 0-10h70a5 5 0 1 1 0 10zm80 40H80a5 5 0 1 1 0-10h150a5 5 0 1 1 0 10zm0 40H80a5 5 0 1 1 0-10h150a5 5 0 1 1 0 10z" class="color8095ff svgShape"></path>
  <path fill="#eab44b" d="M450 222.5h-70v-70c38.66 0 70 31.34 70 70z" class="colorc6ea4b svgShape"></path>
</svg>
