<svg xmlns="http://www.w3.org/2000/svg" xml:space="preserve" viewBox="0 0 512 512" enable-background="new 0 0 512 512" id="11331588">
  <g id="_x34_8_x2C__buyer_x2C__online_shopping_x2C__person_x2C__customer_x2C__user_x2C__commerce_and_shopping" fill="#000000" class="color000000 svgShape">
    <g fill="#000000" class="color000000 svgShape">
      <polygon points="267.32 247.056 267.3 247 192.57 247.056 192.57 301.714 192.48 301.756 229.88 348.83 267.33 301.714" fill="#f2e0be" class="colorf2cdbe svgShape"></polygon>
      <path d="M416.08,354.5L346,327.55c-2.732-0.935,14.683,5.027-58.39-19.99l-25.86,26.94l-31.87-0.33
			l-33.63-2.92l-24.08-23.65c-68.608,23.493-72.721,24.902-108.81,37.26C29.05,356.61,6,388.86,6,425.12v64.38
			c30.66,0,104.563,0,125,0l87-23.5l98,23.5c19.712,0,118.278,0,137.9,0v-64.38C453.9,396.28,439.31,369.97,416.08,354.5z" fill="#d4b371" class="color717ed4 svgShape"></path>
      <path d="M149.95 119.5v35h-17.5c-4.83 0-9.21-1.96-12.38-5.13-10.914-10.948-3.26-29.87 12.38-29.87H149.95zM327.45 119.5c9.66 0 17.5 7.84 17.5 17.5 0 9.633-7.82 17.5-17.5 17.5h-17.5v-35H327.45z" fill="#f2e0be" class="colorf2cdbe svgShape"></path>
      <path d="M139.95,91.25c0,10.618,0,79.251,0,89.59c0.28,35.99,21.8,66.97,52.62,80.86
			c19.536,8.81,37.28,7.704,38.21,7.8c48.968,0,88.652-39.692,89.17-88.66c0-23.677,0-42.877,0-67.84L139.95,91.25z" fill="#f6e9cf" class="colorf6decf svgShape"></path>
      <path d="M341,374.5l-25,115H131l-20-115H341z" fill="#575757" class="color495f66 svgShape"></path>
      <path d="M486.23,234.5H365.77c-10.92,0-19.77,8.85-19.77,19.77c0,11.321,0,60.778,0,80.46
			c0,10.92,8.85,19.77,19.77,19.77H381v30l30-30c22.852,0,52.484,0,75.23,0c10.92,0,19.77-8.85,19.77-19.77v-80.46
			C506,243.35,497.15,234.5,486.23,234.5z" fill="#ffffff" class="colordfe8eb svgShape"></path>
      <path d="M456,274.5v40l-30,10l-30-10v-40C408.356,274.5,435.463,274.5,456,274.5z" fill="#ffb729" class="colorc7865b svgShape"></path>
      <rect width="60" height="20" x="396" y="314.5" fill="#b38b3c" class="colorb36d3c svgShape"></rect>
      <circle cx="226" cy="434.5" r="20" fill="#464646" class="color3b4a51 svgShape"></circle>
      <polygon points="229.88 334.17 197.96 354.5 172.17 307.6 192.48 300.65" fill="#cca557" class="color5766cc svgShape"></polygon>
      <polygon points="287.61 307.56 261.8 354.5 229.88 334.17 267.33 300.62" fill="#cca557" class="color5766cc svgShape"></polygon>
      <path d="M166.1,113c-32.042,0-57.7-26-57.7-57.7V22.5h96.7c16.08,0,30.61,6.58,41.08,17.19
			c30.566-21.661,73.77-0.025,73.77,38.18c0,31.098,0,17.179,0,35.13C272.663,113,213.533,113,166.1,113z" fill="#b38b3c" class="colorb36d3c svgShape"></path>
      <g fill="#000000" class="color000000 svgShape">
        <path d="M226 409.5c-13.785 0-25 11.215-25 25s11.215 25 25 25 25-11.215 25-25S239.785 409.5 226 409.5zM226 449.5c-8.271 0-15-6.729-15-15s6.729-15 15-15 15 6.729 15 15S234.271 449.5 226 449.5zM184.09 159.5c-2.762 0-5 2.238-5 5v5c0 2.762 2.238 5 5 5s5-2.238 5-5v-5C189.09 161.738 186.852 159.5 184.09 159.5zM206.767 148.894c-12.502-12.504-32.849-12.504-45.354-.001-1.953 1.953-1.953 5.119-.001 7.071 1.953 1.953 5.12 1.952 7.071.001 8.606-8.606 22.607-8.605 31.214-.001 1.951 1.953 5.119 1.953 7.07 0C208.72 154.012 208.72 150.846 206.767 148.894zM274.09 159.5c-2.762 0-5 2.238-5 5v5c0 2.762 2.238 5 5 5s5-2.238 5-5v-5C279.09 161.738 276.852 159.5 274.09 159.5zM258.482 155.965c8.606-8.606 22.607-8.605 31.214-.001 1.951 1.953 5.119 1.953 7.07 0 1.953-1.952 1.953-5.118 0-7.07-12.502-12.504-32.849-12.504-45.354-.001-1.953 1.953-1.953 5.119-.001 7.071C253.364 157.917 256.531 157.916 258.482 155.965zM252.363 212.681c-1.951-1.953-5.119-1.953-7.07 0-9.08 9.078-23.85 9.078-32.93 0-1.951-1.953-5.119-1.953-7.07 0-1.953 1.952-1.953 5.118 0 7.07 12.977 12.979 34.095 12.977 47.07 0C254.316 217.799 254.316 214.633 252.363 212.681z" fill="#000000" class="color000000 svgShape"></path>
        <path d="M486.233,229.5H365.767C352.11,229.5,341,240.61,341,254.267v66.287l-68.671-23.507l-0.008-32.229
				c30.895-15.28,52.237-47.076,52.626-83.978V159.5h2.5c12.406,0,22.5-10.094,22.5-22.5s-10.094-22.5-22.5-22.5h-2.5
				c0-7.192,0-30.189,0-36.626c0-28.549-23.226-51.774-51.773-51.774c-9.38,0-18.431,2.494-26.412,7.249
				C235.271,23.099,220.629,17.5,205.1,17.5H108.4c-2.762,0-5,2.238-5,5v32.8c0,23.238,12.717,43.548,31.547,54.378v4.822h-2.5
				c-12.406,0-22.5,10.094-22.5,22.5s10.094,22.5,22.5,22.5h2.5v21.379c0.288,36.737,21.738,68.594,52.623,83.915v32.253
				c-15.388,5.269-107.126,36.679-125.83,43.083C25.41,352.572,1,386.727,1,425.12v64.38c0,2.762,2.238,5,5,5
				c26.722,0,421.58,0,447.9,0c2.762,0,5-2.238,5-5v-64.38c0-25.15-10.441-48.781-28.479-65.62h55.812
				c13.656,0,24.767-11.11,24.767-24.767v-80.467C511,240.61,499.89,229.5,486.233,229.5z M280.36,310.365l-20.372,37.053
				l-21.861-13.926l30.353-27.194L280.36,310.365z M327.447,124.5c6.893,0,12.5,5.607,12.5,12.5s-5.607,12.5-12.5,12.5h-2.5v-25
				H327.447z M113.4,55.3V27.5H205.1c14.207,0,27.53,5.576,37.518,15.7c1.719,1.744,4.449,1.985,6.45,0.569
				c27.418-19.423,65.88,0.154,65.88,34.104c0,7.033,0,23.152,0,30.126c-12.067,0-87.962,0-98.947,0
				c-16.551,0-25.785-18.974-16.002-31.997c1.658-2.208,1.213-5.342-0.995-7.001c-2.209-1.657-5.343-1.212-7.001,0.995
				c-9.191,12.236-7.199,27.952,1.657,38.003H186c-11.028,0-20-8.972-20-20c0-2.762-2.238-5-5-5s-5,2.238-5,5
				c0,7.647,2.881,14.632,7.609,19.937C135.703,106.631,113.4,83.523,113.4,55.3z M132.447,149.5c-6.893,0-12.5-5.607-12.5-12.5
				s5.607-12.5,12.5-12.5h2.5v25H132.447z M144.947,180.84c0-12.597,0-51.518,0-66.521c6.612,2.377,13.732,3.681,21.152,3.681
				c22.531,0,129.44,0,148.848,0c0,5.304,0,53.805,0,62.787c-0.486,46.159-38.244,83.713-84.167,83.713h-1.8
				C183.006,264.5,145.309,226.953,144.947,180.84z M262.322,269.059l0.007,29.324l-32.45,29.071l-32.31-28.947V269.05
				C218.355,276.497,242.278,276.214,262.322,269.059z M191.32,306.333l30.313,27.159l-21.86,13.926l-20.349-37.012L191.32,306.333z
				 M135.205,484.5l-18.261-105h217.852l-22.826,105H135.205z M448.9,425.12v59.38H401v-45c0-2.762-2.238-5-5-5s-5,2.238-5,5v45
				h-68.796l23.682-108.938c0.676-3.111-1.695-6.063-4.886-6.063H111c-3.1,0-5.458,2.798-4.926,5.856L125.056,484.5H61v-45
				c0-2.762-2.238-5-5-5s-5,2.238-5,5v45H11v-59.38c0-34.119,21.693-64.473,53.98-75.529l104.839-35.896l23.76,43.214
				c1.393,2.533,4.637,3.357,7.068,1.808l29.232-18.622l29.233,18.622c2.436,1.552,5.678,0.721,7.068-1.808l23.783-43.256
				L341,331.123v3.61c0,13.656,11.11,24.767,24.767,24.767H376v25c0,4.451,5.398,6.675,8.535,3.535l28.536-28.535h1.456
				C436.075,374.428,448.9,398.842,448.9,425.12z M501,334.733c0,8.143-6.624,14.767-14.767,14.767
				c-82.323,0-76.791-0.514-78.769,1.465L386,372.429V354.5c0-2.762-2.238-5-5-5h-15.233c-8.143,0-14.767-6.624-14.767-14.767
				v-80.467c0-8.143,6.624-14.767,14.767-14.767h120.467c8.143,0,14.767,6.624,14.767,14.767V334.733z" fill="#000000" class="color000000 svgShape"></path>
        <path d="M456,269.5h-15v-5c0-8.271-6.729-15-15-15s-15,6.729-15,15v5h-15c-2.762,0-5,2.238-5,5v60c0,2.762,2.238,5,5,5h60
				c2.762,0,5-2.238,5-5v-60C461,271.738,458.762,269.5,456,269.5z M421,264.5c0-2.757,2.243-5,5-5s5,2.243,5,5v5h-10V264.5z
				 M411,279.5v10c0,2.762,2.238,5,5,5s5-2.238,5-5v-10h10v10c0,2.762,2.238,5,5,5s5-2.238,5-5v-10h10v30h-50v-30H411z M401,329.5
				v-10h50v10H401z" fill="#000000" class="color000000 svgShape"></path>
      </g>
    </g>
  </g>
</svg>
