<svg xmlns="http://www.w3.org/2000/svg" viewBox="0 0 520 520" id="2881912">
  <path fill="#ffdd99" d="M467.72 100H52.28C34.45 100 20 114.46 20 132.29v295.43C20 445.55 34.45 460 52.28 460h415.44c17.83 0 32.28-14.45 32.28-32.28V132.29c0-17.83-14.45-32.29-32.28-32.29z" class="color99ccff svgShape"></path>
  <path fill="#ffffff" d="m451.912 142.703-2.896 209.98-69.993-.965-.965 69.993-319.97-4.413 3.862-279.973 389.962 5.378z" class="colore3f5ff svgShape"></path>
  <path fill="#ffb729" d="M280 260h40v40h-40zM190 340h40v40h-40zM190 260h40v40h-40zM280 180h40v40h-40zM190 180h40v40h-40zM100 260h40v40h-40zM100 340h40v40h-40zM100 180h40v40h-40zM370 180h40v40h-40z" class="colorc6ea4b svgShape"></path>
  <path fill="#f0e2c5" d="M450 350c-28.17 28.18-41.83 41.83-70 70v-70h70z" class="colorc5e6f0 svgShape"></path>
  <path d="M467.72 465H52.28C31.724 465 15 448.276 15 427.72V132.29C15 111.729 31.724 95 52.28 95h415.44c20.556 0 37.28 16.729 37.28 37.29v295.43c0 20.556-16.724 37.28-37.28 37.28zM52.28 105C37.238 105 25 117.242 25 132.29v295.43C25 442.762 37.238 455 52.28 455h415.44c15.042 0 27.28-12.238 27.28-27.28V132.29c0-15.048-12.238-27.29-27.28-27.29H52.28z" fill="#000000" class="color000000 svgShape"></path>
  <path d="M380 425H60a5 5 0 0 1-5-5V140a5 5 0 0 1 5-5h390a5 5 0 0 1 5 5v210a4.996 4.996 0 0 1-1.464 3.535c-18.171 18.177-30.305 30.309-44.189 44.191l-25.811 25.809A4.997 4.997 0 0 1 380 425zM65 415h312.929l24.347-24.345C415.784 377.149 427.635 365.3 445 347.93V145H65v270z" fill="#000000" class="color000000 svgShape"></path>
  <path d="M380 425a5 5 0 0 1-5-5v-70a5 5 0 0 1 5-5h70a5 5 0 1 1 0 10h-65v65a5 5 0 0 1-5 5zM100 145a5 5 0 1 1 0-10c19.299 0 35-15.701 35-35s-15.701-35-35-35-35 15.701-35 35a5 5 0 1 1-10 0c0-24.813 20.187-45 45-45s45 20.187 45 45-20.187 45-45 45z" fill="#000000" class="color000000 svgShape"></path>
  <path d="M180 145a5 5 0 1 1 0-10c19.299 0 35-15.701 35-35s-15.701-35-35-35-35 15.701-35 35a5 5 0 1 1-10 0c0-24.813 20.187-45 45-45s45 20.187 45 45-20.187 45-45 45z" fill="#000000" class="color000000 svgShape"></path>
  <path d="M260 145a5 5 0 1 1 0-10c19.299 0 35-15.701 35-35s-15.701-35-35-35-35 15.701-35 35a5 5 0 1 1-10 0c0-24.813 20.187-45 45-45s45 20.187 45 45-20.187 45-45 45z" fill="#000000" class="color000000 svgShape"></path>
  <path d="M340 145a5 5 0 1 1 0-10c19.299 0 35-15.701 35-35s-15.701-35-35-35-35 15.701-35 35a5 5 0 1 1-10 0c0-24.813 20.187-45 45-45s45 20.187 45 45-20.187 45-45 45z" fill="#000000" class="color000000 svgShape"></path>
  <path d="M420 145a5 5 0 1 1 0-10c19.299 0 35-15.701 35-35s-15.701-35-35-35-35 15.701-35 35a5 5 0 1 1-10 0c0-24.813 20.187-45 45-45s45 20.187 45 45-20.187 45-45 45zm-280 80h-40a5 5 0 0 1-5-5v-40a5 5 0 0 1 5-5h40a5 5 0 0 1 5 5v40a5 5 0 0 1-5 5zm-35-10h30v-30h-30v30zm125 10h-40a5 5 0 0 1-5-5v-40a5 5 0 0 1 5-5h40a5 5 0 0 1 5 5v40a5 5 0 0 1-5 5zm-35-10h30v-30h-30v30zm125 10h-40a5 5 0 0 1-5-5v-40a5 5 0 0 1 5-5h40a5 5 0 0 1 5 5v40a5 5 0 0 1-5 5zm-35-10h30v-30h-30v30zm125 10h-40a5 5 0 0 1-5-5v-40a5 5 0 0 1 5-5h40a5 5 0 0 1 5 5v40a5 5 0 0 1-5 5zm-35-10h30v-30h-30v30zm-235 90h-40a5 5 0 0 1-5-5v-40a5 5 0 0 1 5-5h40a5 5 0 0 1 5 5v40a5 5 0 0 1-5 5zm-35-10h30v-30h-30v30zm125 10h-40a5 5 0 0 1-5-5v-40a5 5 0 0 1 5-5h40a5 5 0 0 1 5 5v40a5 5 0 0 1-5 5zm-35-10h30v-30h-30v30zm125 10h-40a5 5 0 0 1-5-5v-40a5 5 0 0 1 5-5h40a5 5 0 0 1 5 5v40a5 5 0 0 1-5 5zm-35-10h30v-30h-30v30zm-145 90h-40a5 5 0 0 1-5-5v-40a5 5 0 0 1 5-5h40a5 5 0 0 1 5 5v40a5 5 0 0 1-5 5zm-35-10h30v-30h-30v30zm125 10h-40a5 5 0 0 1-5-5v-40a5 5 0 0 1 5-5h40a5 5 0 0 1 5 5v40a5 5 0 0 1-5 5zm-35-10h30v-30h-30v30z" fill="#000000" class="color000000 svgShape"></path>
</svg>
