<svg xmlns="http://www.w3.org/2000/svg" viewBox="0 0 520 520" id="2881887">
  <path fill="#ffdd99" d="M467.72 102.5H52.28C34.45 102.5 20 116.96 20 134.79v295.43c0 17.83 14.45 32.28 32.28 32.28h415.44c17.83 0 32.28-14.45 32.28-32.28V134.79c0-17.83-14.45-32.29-32.28-32.29z" class="color99ccff svgShape"></path>
  <path fill="#000000" d="M420 57.5c-17.401 0-32.516 9.935-40 24.424-7.484-14.49-22.599-24.424-40-24.424s-32.516 9.935-40 24.424c-7.484-14.49-22.599-24.424-40-24.424s-32.516 9.935-40 24.424c-7.484-14.49-22.599-24.424-40-24.424s-32.516 9.935-40 24.424c-7.484-14.49-22.599-24.424-40-24.424-24.813 0-45 20.187-45 45h10c0-19.299 15.701-35 35-35s35 15.701 35 35-15.701 35-35 35a5 5 0 1 0 0 10c24.813 0 45-20.187 45-45 0-19.299 15.701-35 35-35s35 15.701 35 35-15.701 35-35 35a5 5 0 1 0 0 10c24.813 0 45-20.187 45-45 0-19.299 15.701-35 35-35s35 15.701 35 35-15.701 35-35 35a5 5 0 1 0 0 10c24.813 0 45-20.187 45-45 0-19.299 15.701-35 35-35s35 15.701 35 35-15.701 35-35 35a5 5 0 1 0 0 10c24.813 0 45-20.187 45-45 0-19.299 15.701-35 35-35s35 15.701 35 35-15.701 35-35 35a5 5 0 1 0 0 10c24.813 0 45-20.187 45-45s-20.187-45-45-45z" class="color3b6bab svgShape"></path>
  <path fill="#ffffff" d="M380 422.5H59.745V142.856H450V352.5l-50 19.83z" class="colore3f5ff svgShape"></path>
  <path fill="#ffb729" d="M280 262.5h40v40h-40zM190 342.5h40v40h-40zM190 262.5h40v40h-40zM280 182.5h40v40h-40zM190 182.5h40v40h-40zM100 262.5h40v40h-40zM100 342.5h40v40h-40zM100 182.5h40v40h-40zM370 182.5h40v40h-40z" class="colorc6ea4b svgShape"></path>
  <path fill="#f0e2c5" d="M450 352.5c-28.17 28.18-41.83 41.83-70 70v-70h70z" class="colorc5e6f0 svgShape"></path>
</svg>
