<svg xmlns="http://www.w3.org/2000/svg" viewBox="0 0 520 520" id="2881884">
  <path fill="#000000" d="M70 20v430h340V20H70z" class="color99ccff svgShape"></path>
  <path fill="#ffffff" d="M328.44 60H151.56c0 22.96-18.61 41.57-41.56 41.57v266.87c22.95 0 41.56 18.61 41.56 41.56h176.88c0-22.96 18.61-41.57 41.56-41.57V101.56c-22.95 0-41.56-18.61-41.56-41.56z" class="colore3f5ff svgShape"></path>
  <path fill="#ffc34d" d="M320 401.117V500l50-30 50 30v-98.883c-29.234 23.446-70.858 23.373-100 0z" class="colorff4d4d svgShape"></path>
  <path fill="#ffcc66" d="M330 235H150a5 5 0 1 1 0-10h180a5 5 0 1 1 0 10zm0-40H150a5 5 0 1 1 0-10h180a5 5 0 1 1 0 10zm-90-40h-90a5 5 0 1 1 0-10h90a5 5 0 1 1 0 10z" class="color6666ff svgShape"></path>
  <path fill="#ffd278" d="M450 350c0 44.186-35.824 80-80 80-43.992 0-80-35.612-80-80 0-44.18 35.82-80 80-80 44.172 0 80 35.82 80 80z" class="colorffe278 svgShape"></path>
  <circle cx="370" cy="350" r="40" fill="#ffb729" class="colorff884d svgShape"></circle>
</svg>
