<svg xmlns="http://www.w3.org/2000/svg" viewBox="0 0 520 520" id="2881909">
  <path fill="#ffd278" d="M450 350c0 44.186-35.824 80-80 80-43.992 0-80-35.612-80-80 0-44.18 35.82-80 80-80 44.172 0 80 35.82 80 80z" class="colorffe278 svgShape"></path>
  <circle cx="370" cy="350" r="40" fill="#ffb729" class="colorff884d svgShape"></circle>
  <path fill="#ffc34d" d="M420 412.45V500l-50-30-50 30v-87.55c29.142 23.373 70.766 23.447 100 0z" class="colorff4d4d svgShape"></path>
  <path fill="#ffffff" d="M370 101.57V270c-44.18 0-80 35.82-80 80 0 23.9 10.48 45.35 27.09 60H151.56c0-22.95-18.61-41.56-41.56-41.56V101.57c22.95 0 41.56-18.61 41.56-41.57h176.88c0 22.96 18.61 41.57 41.56 41.57z" class="colore3f5ff svgShape"></path>
  <path fill="#ffdd99" d="M410 20v260.71c-11.77-6.82-25.43-10.71-40-10.71V101.57c-22.95 0-41.56-18.61-41.56-41.57H151.56c0 22.96-18.61 41.57-41.56 41.57v266.87c22.95 0 41.56 18.61 41.56 41.56h165.53c.95.85 1.92 1.66 2.91 2.45V450H70V20h340z" class="color99ccff svgShape"></path>
  <path d="M320 455H70a5 5 0 0 1-5-5V20a5 5 0 0 1 5-5h340a5 5 0 0 1 5 5v260.71c0 2.762-2.239 5.01-5 5.01s-5-2.228-5-4.989V25H75v420h245a5 5 0 1 1 0 10z" fill="#000000" class="color000000 svgShape"></path>
  <path d="M317.11 415H151.56a5 5 0 0 1-5-5c0-20.159-16.401-36.56-36.56-36.56a5 5 0 0 1-5-5V101.57a5 5 0 0 1 5-5c20.159 0 36.56-16.405 36.56-36.57a5 5 0 0 1 5-5h176.88a5 5 0 0 1 5 5c0 20.165 16.401 36.57 36.56 36.57a5 5 0 0 1 5 5V270a5 5 0 1 1-10 0V106.304c-21.688-2.327-38.967-19.611-41.293-41.304H156.294c-2.326 21.692-19.606 38.977-41.294 41.304v257.403c21.688 2.326 38.967 19.605 41.294 41.293H317.09c2.761 0 5.01 2.238 5.01 5s-2.229 5-4.99 5z" fill="#000000" class="color000000 svgShape"></path>
  <path d="M420 505a4.992 4.992 0 0 1-2.572-.713L370 475.831l-47.428 28.456a4.996 4.996 0 0 1-5.036.063A4.996 4.996 0 0 1 315 500v-87.55c0-2.762 2.239-5.01 5-5.01s5 2.228 5 4.989v78.739l42.428-25.456a4.996 4.996 0 0 1 5.145 0L415 491.169V412.45c0-2.762 2.239-5.01 5-5.01s5 2.228 5 4.989V500a4.998 4.998 0 0 1-5 5z" fill="#000000" class="color000000 svgShape"></path>
  <path d="M370 435c-19.265 0-38.133-6.623-53.128-18.649a71.437 71.437 0 0 1-3.114-2.623A85.024 85.024 0 0 1 285 350c0-46.869 38.131-85 85-85 14.956 0 29.655 3.936 42.507 11.384C438.717 291.547 455 319.755 455 350c0 25.932-11.617 50.116-31.873 66.352C408.133 428.377 389.265 435 370 435zm0-160c-41.355 0-75 33.645-75 75a75.036 75.036 0 0 0 25.397 56.25 62.263 62.263 0 0 0 2.721 2.292C336.547 419.311 352.755 425 370 425s33.453-5.689 46.872-16.45C434.748 394.221 445 372.881 445 350c0-26.689-14.371-51.581-37.503-64.962l-.003-.002C396.163 278.471 383.198 275 370 275z" fill="#000000" class="color000000 svgShape"></path>
  <path d="M370 395c-24.813 0-45-20.186-45-45s20.187-45 45-45 45 20.186 45 45-20.187 45-45 45zm0-80c-19.299 0-35 15.701-35 35s15.701 35 35 35 35-15.701 35-35-15.701-35-35-35zm-40-80H150a5 5 0 1 1 0-10h180a5 5 0 1 1 0 10zm0-40H150a5 5 0 1 1 0-10h180a5 5 0 1 1 0 10zm-90-40h-90a5 5 0 1 1 0-10h90a5 5 0 1 1 0 10z" fill="#000000" class="color000000 svgShape"></path>
</svg>
