<svg xmlns="http://www.w3.org/2000/svg" viewBox="0 0 520 520" id="2881910">
  <circle cx="260" cy="260" r="240" fill="#ffdd99" class="color99ccff svgShape"></circle>
  <path fill="#ffffff" d="M132.72 387.28c-70.252-70.252-70.353-184.197 0-254.55C165.29 100.15 210.29 80 260 80s94.71 20.15 127.28 52.73c70.25 70.25 70.353 184.197 0 254.55-70.273 70.251-184.185 70.353-254.56 0z" class="colore3f5ff svgShape"></path>
  <circle cx="260" cy="260" r="20" fill="#ffb729" class="colorff884d svgShape"></circle>
  <path d="M260 505c-65.442 0-126.968-25.484-173.242-71.758C40.484 386.968 15 325.442 15 260c0-65.439 25.484-126.963 71.758-173.238C133.033 40.485 194.559 15 260 15s126.967 25.485 173.242 71.762C479.516 133.037 505 194.561 505 260c0 65.442-25.484 126.968-71.758 173.242C386.968 479.516 325.442 505 260 505zm0-480C130.42 25 25 130.421 25 260s105.42 235 235 235 235-105.421 235-235S389.58 25 260 25z" fill="#000000" class="color000000 svgShape"></path>
  <path d="M260 445c-49.405 0-95.863-19.243-130.815-54.184C94.243 355.874 75 309.416 75 260c0-49.41 19.243-95.864 54.185-130.805C164.122 94.247 210.58 75 260 75s95.878 19.247 130.816 54.195C425.757 164.136 445 210.59 445 260c0 49.416-19.243 95.874-54.185 130.815C355.863 425.757 309.405 445 260 445zm0-360c-46.749 0-90.695 18.206-123.744 51.266C103.203 169.317 85 213.261 85 260c0 46.745 18.203 90.692 51.256 123.745C169.318 416.797 213.265 435 260 435s90.682-18.203 123.745-51.256C416.797 350.692 435 306.745 435 260c0-46.739-18.203-90.683-51.256-123.734C350.695 103.206 306.749 85 260 85z" fill="#000000" class="color000000 svgShape"></path>
  <path d="M260 285c-13.785 0-25-11.215-25-25s11.215-25 25-25 25 11.215 25 25-11.215 25-25 25zm0-40c-8.271 0-15 6.729-15 15 0 8.272 6.729 15 15 15s15-6.728 15-15c0-8.271-6.729-15-15-15zm0-120a5 5 0 0 1-5-5V80a5 5 0 1 1 10 0v40a5 5 0 0 1-5 5zm0 320a5 5 0 0 1-5-5v-40a5 5 0 1 1 10 0v40a5 5 0 0 1-5 5zm98.99-278.99a5 5 0 0 1-3.535-8.536l28.289-28.279a5 5 0 0 1 7.07 7.072l-28.29 28.279a4.983 4.983 0 0 1-3.534 1.464zM132.72 392.28a5 5 0 0 1-3.535-8.536l28.289-28.28a5 5 0 0 1 7.07 7.072l-28.29 28.28a4.98 4.98 0 0 1-3.534 1.464zm28.29-226.27a4.984 4.984 0 0 1-3.535-1.464l-28.29-28.279a5 5 0 1 1 7.07-7.072l28.29 28.279a5 5 0 0 1-3.535 8.536zm226.27 226.27a4.984 4.984 0 0 1-3.535-1.464l-28.289-28.28a5 5 0 0 1 7.07-7.072l28.29 28.28a5 5 0 0 1-3.536 8.536zM120 265H80a5 5 0 1 1 0-10h40a5 5 0 1 1 0 10zm320 0h-40a5 5 0 1 1 0-10h40a5 5 0 1 1 0 10z" fill="#000000" class="color000000 svgShape"></path>
  <path d="M260 245a5 5 0 0 1-5-5v-80a5 5 0 1 1 10 0v80a5 5 0 0 1-5 5zm-20 20h-50a5 5 0 1 1 0-10h50a5 5 0 1 1 0 10z" fill="#000000" class="color000000 svgShape"></path>
</svg>
