<svg xmlns="http://www.w3.org/2000/svg" viewBox="0 0 520 520" id="2881885">
  <circle cx="260" cy="260" r="240" fill="#000000" class="color99ccff svgShape"></circle>
  <path fill="#ffffff" d="M132.72 387.28c-70.252-70.252-70.353-184.197 0-254.55 70.237-70.258 184.207-70.375 254.56 0 70.25 70.25 70.353 184.197 0 254.55-70.273 70.251-184.185 70.353-254.56 0z" class="colore3f5ff svgShape"></path>
  <path fill="#ffd480" d="M390.818 390.812c72.293-72.296 72.303-189.313-.003-261.617-72.289-72.311-189.332-72.319-261.629-.002l-.005.005c-72.295 72.297-72.302 189.311.002 261.617l.001.001C164.137 425.757 210.595 445 260 445c49.404 0 95.861-19.242 130.813-54.182l.003-.002.002-.004zm-28.293-35.348a5.001 5.001 0 0 0-7.07 7.072l24.698 24.69c-31.412 29.7-71.955 46.493-115.154 47.697V400a5 5 0 1 0-10 0v34.924c-43.199-1.204-83.742-17.998-115.154-47.697l24.699-24.691a5 5 0 0 0-7.07-7.072l-24.7 24.692C103.074 348.753 86.28 308.208 85.076 265H120a5 5 0 1 0 0-10H85.076c1.204-43.203 17.998-83.743 47.699-115.145l24.7 24.691a5 5 0 0 0 7.07-7.072l-24.699-24.69c31.4-29.707 71.943-46.503 115.155-47.707V120a5 5 0 1 0 10 0V85.076c43.211 1.204 83.754 18 115.155 47.707l-24.699 24.69a5 5 0 1 0 7.07 7.072l24.701-24.691c29.701 31.402 46.494 71.943 47.698 115.146H400a5 5 0 1 0 0 10h34.924c-1.204 43.209-17.998 83.753-47.698 115.156l-24.701-24.692z" class="color8095ff svgShape"></path>
  <path fill="#e49b0c" d="M260 155a5 5 0 0 0-5 5v95.003a5 5 0 1 0 10 0V160a5 5 0 0 0-5-5z" class="colore40c57 svgShape"></path>
  <path fill="#ffc34d" d="M250 255h-60a5 5 0 1 0 0 10h60a5 5 0 1 0 0-10z" class="colorff4d4d svgShape"></path>
  <circle cx="260" cy="260" r="20" fill="#ffb729" class="colorff884d svgShape"></circle>
</svg>
