<svg xmlns="http://www.w3.org/2000/svg" viewBox="0 0 520 520" id="2881878">
  <path fill="#ffb729" d="m400 130-7.27 60L260 203.663 127.27 190 120 130l140-12.337L400 130z" class="colorffb454 svgShape"></path>
  <path fill="#ffffff" d="m392.73 190-25.46 210L260 411.663 152.73 400l-25.46-210h265.46z" class="colorffe278 svgShape"></path>
  <path fill="#ffb729" d="M400 20v50L260 88.33 120 70V20h280z" class="colorffb454 svgShape"></path>
  <path fill="#000000" d="M430 70v60H90V70h340zM330 460v40H190v-40l70-15.67L330 460z" class="colorff884d svgShape"></path>
  <path fill="#ffb729" d="M367.27 400 360 460H160l-7.27-60h214.54z" class="colorffb454 svgShape"></path>
  <path fill="#c19b4f" d="m305.25 249.32-41.654 54.343-50.346 37.647c-9.262-9.262-10.903-24.155-5.954-39.947 8.053-25.696 32.27-49.943 58.009-58.006 15.792-4.948 30.683-3.304 39.945 5.963z" class="colorc17d4f svgShape"></path>
  <path fill="#8e6e2e" d="M305.25 249.32c9.262 9.262 10.906 24.153 5.959 39.943-7.975 25.452-32.07 49.879-58.01 58.006-15.793 4.948-30.687 3.303-39.949-5.959l92-91.99z" class="color8e572e svgShape"></path>
</svg>
