<svg xmlns="http://www.w3.org/2000/svg" viewBox="0 0 520 520" id="2881903">
  <path fill="#ffffff" d="m392.73 190-25.46 210H152.73l-25.46-210h265.46z" class="colorffe278 svgShape"></path>
  <path fill="#ffb729" d="M120 20h280v50H120z" class="colorffb454 svgShape"></path>
  <path fill="#ffc34d" d="M430 70v60H90V70h340zM190 460h140v40H190z" class="colorff884d svgShape"></path>
  <path fill="#ffb729" d="m400 130-7.27 60H127.27L120 130zM367.27 400 360 460H160l-7.27-60z" class="colorffb454 svgShape"></path>
  <path fill="#8e6e2e" d="M305.25 249.32c16.33 16.33 8.98 50.16-16.43 75.56-25.4 25.41-59.24 32.76-75.57 16.43l92-91.99z" class="color8e572e svgShape"></path>
  <path fill="#c19b4f" d="m305.25 249.32-92 91.99c-16.33-16.33-8.97-50.16 16.43-75.57 25.41-25.4 59.24-32.76 75.57-16.42z" class="colorc17d4f svgShape"></path>
  <path d="M120 135H90a5 5 0 0 1-5-5V70a5 5 0 0 1 5-5h30a5 5 0 1 1 0 10H95v50h25a5 5 0 1 1 0 10zm310 0h-30a5 5 0 1 1 0-10h25V75h-25a5 5 0 1 1 0-10h30a5 5 0 0 1 5 5v60a5 5 0 0 1-5 5z" fill="#000000" class="color000000 svgShape"></path>
  <path d="M400 75H120a5 5 0 0 1-5-5V20a5 5 0 0 1 5-5h280a5 5 0 0 1 5 5v50a5 5 0 0 1-5 5zM125 65h270V25H125v40zm205 440H190a5 5 0 0 1-5-5v-40a5 5 0 1 1 10 0v35h130v-35a5 5 0 1 1 10 0v40a5 5 0 0 1-5 5zm-93.588-149.982c-10.757.001-19.991-3.466-26.697-10.172-9.142-9.142-12.262-22.984-8.784-38.978 3.305-15.197 12.259-30.703 25.214-43.663 12.962-12.956 28.468-21.91 43.664-25.213 15.992-3.478 29.835-.354 38.978 8.793l.001.001c9.142 9.143 12.263 22.985 8.787 38.975-3.304 15.197-12.26 30.701-25.219 43.654-12.952 12.957-28.457 21.913-43.659 25.218-4.264.927-8.376 1.385-12.285 1.385zm45.628-109.405c-3.184 0-6.567.381-10.108 1.15-13.346 2.9-27.096 10.896-38.717 22.513-11.615 11.619-19.61 25.37-22.513 38.717-2.73 12.553-.569 23.129 6.083 29.782 6.654 6.653 17.233 8.815 29.786 6.086 13.35-2.901 27.098-10.897 38.712-22.517 11.62-11.615 19.617-25.361 22.518-38.708 2.729-12.551.566-23.127-6.087-29.781l-.001-.001c-4.775-4.778-11.574-7.241-19.673-7.241z" fill="#000000" class="color000000 svgShape"></path>
  <path d="M213.25 346.311a5 5 0 0 1-3.536-8.536l92-91.99a5 5 0 1 1 7.071 7.072l-92 91.99a4.989 4.989 0 0 1-3.535 1.464zM392.73 195H127.27a5 5 0 1 1 0-10h265.46a5 5 0 1 1 0 10zm-25.46 210H152.73a5 5 0 1 1 0-10h214.54a5 5 0 1 1 0 10z" fill="#000000" class="color000000 svgShape"></path>
  <path d="M360 465H160a5 5 0 0 1-4.964-4.398l-40-330A5.001 5.001 0 0 1 120 125h280a5 5 0 0 1 4.964 5.602l-40 330A5 5 0 0 1 360 465zm-195.569-10H355.57l6.737-55.602L394.357 135H125.643l38.788 320z" fill="#000000" class="color000000 svgShape"></path>
</svg>
