<svg xmlns="http://www.w3.org/2000/svg" xml:space="preserve" viewBox="0 0 512 512" enable-background="new 0 0 512 512" id="11331548">
  <g id="_x30_8_x2C__communication_tower_x2C__signal_tower_x2C__network_x2C__antennas_x2C__signal_x2C__communications" fill="#000000" class="color000000 svgShape">
    <g fill="#000000" class="color000000 svgShape">
      <circle cx="256" cy="41.36" r="10" fill="#ffb729" class="color7ed7f5 svgShape"></circle>
      <path d="M376 216c-30.38 0-55-24.62-55-55s24.62-55 55-55C376 135.891 376 198.523 376 216zM136 106c30.38 0 55 24.62 55 55s-24.62 55-55 55C136 186.109 136 123.477 136 106z" fill="#575757" class="color495f66 svgShape"></path>
      <path d="M341 316v30c-49.51 0-120.504 0-170 0v-30C190.142 316 318.919 316 341 316zM416 446v37.333H96V446C101.022 446 407.228 446 416 446z" fill="#f2e6ce" class="colorcee0f2 svgShape"></path>
      <path d="M466,476v30H46v-30C79.969,476,452.804,476,466,476z" fill="#ffffff" class="colordfe8eb svgShape"></path>
      <g fill="#000000" class="color000000 svgShape">
        <path d="M466,471h-45v-25c0-2.762-2.238-5-5-5h-65.784l-15.426-90H341c2.762,0,5-2.238,5-5v-30c0-2.762-2.238-5-5-5h-13.075
				l-17.61-102.738c-0.006-0.036-0.011-0.071-0.018-0.106L303.071,166h13.153c2.551,30.751,28.376,55,59.775,55c2.762,0,5-2.238,5-5
				v-50h15c2.762,0,5-2.238,5-5s-2.238-5-5-5h-15v-50c0-2.762-2.238-5-5-5c-31.399,0-57.224,24.249-59.775,55h-14.868l-5.506-32.121
				c-0.002-0.013-0.004-0.026-0.006-0.038l-4.917-28.685C290.517,92.755,288.436,91,286,91h-25V55.48
				c5.816-2.066,10-7.609,10-14.125c0-8.271-6.729-15-15-15s-15,6.729-15,15c0,6.516,4.184,12.059,10,14.125V91h-25
				c-2.436,0-4.517,1.755-4.928,4.155l-4.917,28.685c-0.002,0.013-0.004,0.026-0.006,0.038L210.643,156h-14.868
				c-2.551-30.751-28.377-55-59.775-55c-2.762,0-5,2.238-5,5v50h-15c-2.762,0-5,2.238-5,5s2.238,5,5,5h15v50c0,2.762,2.238,5,5,5
				c31.399,0,57.224-24.249,59.775-55h13.153l-7.205,42.032c-0.038,0.169-0.067,0.337-0.087,0.507L184.075,311H171
				c-2.762,0-5,2.238-5,5v30c0,2.762,2.238,5,5,5h6.21l-15.426,90H96c-2.762,0-5,2.238-5,5v25H46c-2.762,0-5,2.238-5,5v30
				c0,2.762,2.238,5,5,5h420c2.762,0,5-2.238,5-5v-30C471,473.238,468.762,471,466,471z M371,111.248v99.504
				c-25.23-2.518-45-23.87-45-49.752S345.77,113.766,371,111.248z M256,36.355c2.757,0,5,2.243,5,5s-2.243,5-5,5s-5-2.243-5-5
				S253.243,36.355,256,36.355z M141,210.752v-99.504c25.23,2.518,45,23.87,45,49.752S166.23,208.234,141,210.752z M340.07,441
				h-34.48l-42.52-42.52l47.48-47.48h14.094L340.07,441z M291.297,441h-70.746l35.514-35.514
				C274.021,423.52,284.742,434.421,291.297,441z M256,391.41L215.59,351h80.82L256,391.41z M315.42,311l-52.35-52.35l39.044-39.044
				L317.78,311H315.42z M301.279,311h-90.559L256,265.721L301.279,311z M256,251.58l-42.38-42.38L256,166.82l42.38,42.38L256,251.58
				z M297.809,194.489L269.32,166h23.605L297.809,194.489z M266.82,156l20.822-20.822L291.212,156H266.82z M281.784,101
				l3.789,22.106L256,152.68l-29.573-29.573L230.216,101H281.784z M224.357,135.178L245.18,156h-24.391L224.357,135.178z
				 M242.68,166l-28.489,28.489L219.074,166H242.68z M209.885,219.606l39.044,39.044L196.58,311h-2.36L209.885,219.606z M176,321
				h12.455c0.001,0,0.002,0,0.003,0H336v20h-6.969c-0.004,0-0.007,0-0.011,0H182.982c-0.005,0-0.01,0-0.016,0H176V321z M187.355,351
				h14.105c19.42,19.274,35.012,34.841,47.546,47.404L206.41,441h-34.48L187.355,351z M101,451h65h136.706
				c0.251,0.018,0.503,0,0.813,0H346h65v20H101V451z M461,501H51v-20h45h320h45V501z" fill="#000000" class="color000000 svgShape"></path>
        <path d="M273.678 59.033c-1.953 1.952-1.953 5.118 0 7.07 1.951 1.953 5.119 1.953 7.07 0 13.681-13.679 13.678-35.821 0-49.497-1.953-1.951-5.118-1.952-7.071.001-1.952 1.952-1.952 5.118.001 7.071C283.451 33.45 283.446 49.263 273.678 59.033zM231.252 66.104c1.951 1.953 5.119 1.953 7.07 0 1.953-1.952 1.953-5.118 0-7.07-9.771-9.773-9.77-25.587 0-35.354 1.953-1.953 1.953-5.119.001-7.071-1.953-1.953-5.12-1.952-7.071-.001C217.571 30.286 217.573 52.427 231.252 66.104z" fill="#000000" class="color000000 svgShape"></path>
        <path d="M287.82 73.176c-1.953 1.952-1.953 5.118 0 7.07 1.951 1.953 5.119 1.953 7.07 0 21.498-21.496 21.494-56.29 0-77.781-1.951-1.953-5.119-1.953-7.07 0-1.953 1.952-1.953 5.118 0 7.07C305.408 27.125 305.406 55.589 287.82 73.176zM224.18 80.246c1.953-1.952 1.953-5.118 0-7.07-17.588-17.59-17.585-46.053 0-63.641 1.953-1.952 1.953-5.118 0-7.07-1.951-1.953-5.119-1.953-7.07 0-21.498 21.496-21.494 56.29 0 77.781C219.061 82.199 222.229 82.199 224.18 80.246zM396 146c8.271 0 15 6.729 15 15s-6.729 15-15 15c-2.762 0-5 2.238-5 5s2.238 5 5 5c13.785 0 25-11.215 25-25s-11.215-25-25-25c-2.762 0-5 2.238-5 5S393.238 146 396 146z" fill="#000000" class="color000000 svgShape"></path>
        <path d="M396 126c19.299 0 35 15.701 35 35s-15.701 35-35 35c-2.762 0-5 2.238-5 5s2.238 5 5 5c24.813 0 45-20.187 45-45s-20.187-45-45-45c-2.762 0-5 2.238-5 5S393.238 126 396 126zM116 146c2.762 0 5-2.238 5-5s-2.238-5-5-5c-13.785 0-25 11.215-25 25s11.215 25 25 25c2.762 0 5-2.238 5-5s-2.238-5-5-5c-8.271 0-15-6.729-15-15S107.729 146 116 146z" fill="#000000" class="color000000 svgShape"></path>
        <path d="M116,206c2.762,0,5-2.238,5-5s-2.238-5-5-5c-19.299,0-35-15.701-35-35s15.701-35,35-35c2.762,0,5-2.238,5-5s-2.238-5-5-5
				c-24.813,0-45,20.187-45,45S91.187,206,116,206z" fill="#000000" class="color000000 svgShape"></path>
      </g>
    </g>
  </g>
</svg>
