<svg xmlns="http://www.w3.org/2000/svg" xml:space="preserve" viewBox="0 0 512 512" enable-background="new 0 0 512 512" id="11331586">
  <g id="_x34_6_x2C__communication_x2C__computer_x2C__worldwide_x2C__discussion_x2C__corporate_x2C__business" fill="#000000" class="color000000 svgShape">
    <g fill="#000000" class="color000000 svgShape">
      <g fill="#000000" class="color000000 svgShape">
        <g fill="#000000" class="color000000 svgShape">
          <path d="m341 481.031-82.5 12.5-87.5-12.5 3.58-1.43c28.03-11.22 46.42-38.37 46.42-68.57l32.667-15.833L291 411.031c0 30.2 18.39 57.35 46.42 68.57L341 481.031zM462.4 91.031H49.6c-24.08 0-43.6 19.52-43.6 43.6v221.4l250 25.5 250-25.5v-221.4C506 110.551 486.48 91.031 462.4 91.031z" fill="#575757" class="color495f66 svgShape"></path>
          <rect width="430" height="238.5" x="41" y="126.031" fill="#ffffff" class="colordfe8eb svgShape"></rect>
          <path d="M506 356.031v11.4c0 24.08-19.52 43.6-43.6 43.6-15.952 0-391.684 0-412.8 0-24.08 0-43.6-19.52-43.6-43.6v-11.4C26.27 356.031 473.623 356.031 506 356.031zM431 506.031H86c0-13.824 11.2-25 25-25 10.638 0 285.357 0 295 0C419.81 481.031 431 492.221 431 506.031z" fill="#464646" class="color3b4a51 svgShape"></path>
        </g>
      </g>
      <path d="M361.47,56.74l-21.19-21.19c-49.248-39.398-119.325-39.388-168.56,0l-21.19,21.19
			c-38.763,48.454-39.98,118.587,0,168.56l21.19,21.19c49.247,39.398,119.325,39.389,168.56,0l21.19-21.19
			C400.935,175.97,400.78,105.879,361.47,56.74z" fill="#d4b371" class="color717ed4 svgShape"></path>
      <path d="M362.07,247.09c-5.671,5.661-15.28,6.253-21.79-0.6c-5.28-5.89-5.09-14.96,0.57-20.62
			s14.73-5.85,20.62-0.57C368.283,231.773,367.757,241.393,362.07,247.09z" fill="#c7a35b" class="colorc7865b svgShape"></path>
      <path d="M171.15,225.87c5.66,5.66,5.85,14.73,0.57,20.62c-6.473,6.813-16.093,6.287-21.79,0.6
			c-5.661-5.671-6.253-15.28,0.6-21.79C156.42,220.02,165.49,220.21,171.15,225.87z" fill="#e6b85e" class="colorbde65e svgShape"></path>
      <path d="M362.07,34.95c5.85,5.86,5.85,15.36,0,21.22c-5.865,5.864-15.371,5.849-21.22,0
			c-5.841-5.841-5.872-15.348,0-21.22C346.71,29.1,356.21,29.1,362.07,34.95z" fill="#ffb729" class="colorf6df5b svgShape"></path>
      <path d="M171.15,56.17c-5.66,5.66-14.73,5.85-20.62,0.57c-6.813-6.473-6.287-16.093-0.6-21.79
			c5.86-5.85,15.36-5.85,21.22,0C177.014,40.815,176.999,50.321,171.15,56.17z" fill="#e1b359" class="colore17559 svgShape"></path>
      <circle cx="256" cy="141.02" r="100" fill="#f5cd7e" class="color7ed7f5 svgShape"></circle>
      <path d="M436,337.82v18.2h-80v-18.2c0-12.04,9.76-21.8,21.8-21.8c12.731,0,23.669,0,36.4,0
			C426.24,316.02,436,325.78,436,337.82z" fill="#e1b359" class="colore17559 svgShape"></path>
      <path d="M156,337.82v18.2H76v-18.2c0-12.04,9.76-21.8,21.8-21.8c12.731,0,23.669,0,36.4,0
			C146.24,316.02,156,325.78,156,337.82z" fill="#ffb729" class="colorf6df5b svgShape"></path>
      <circle cx="116" cy="291.02" r="25" fill="#f6e9cf" class="colorf6decf svgShape"></circle>
      <circle cx="396" cy="291.02" r="25" fill="#f6e9cf" class="colorf6decf svgShape"></circle>
      <g fill="#000000" class="color000000 svgShape">
        <path d="M462.4,86.02h-77.615c-4.357-10.184-9.98-19.966-16.871-29.117c5.371-7.788,4.61-18.561-2.314-25.485
				c-6.924-6.923-17.695-7.682-25.484-2.313c-49.755-37.463-118.384-37.538-168.235,0c-7.789-5.371-18.56-4.608-25.485,2.313
				c-6.923,6.923-7.684,17.695-2.314,25.483c-6.871,9.113-12.53,18.867-16.92,29.119H49.6c-26.798,0-48.6,21.802-48.6,48.6v232.801
				c0,26.798,21.802,48.6,48.6,48.6h166.218c-1.87,26.241-18.365,49.034-43.099,58.927l-2.683,1.073H111c-16.542,0-30,13.458-30,30
				c0,2.762,2.238,5,5,5h345c2.762,0,5-2.238,5-5c0-16.542-13.458-30-30-30h-64.036l-2.683-1.073
				c-24.733-9.893-41.228-32.686-43.098-58.927H462.4c26.798,0,48.6-21.802,48.6-48.6V134.62C511,107.822,489.198,86.02,462.4,86.02
				z M462.4,96.02c21.284,0,38.6,17.315,38.6,38.6v216.4h-25v-225c0-2.762-2.238-5-5-5h-76.387c-1.219-8.458-3.219-16.829-5.994-25
				H462.4z M396,311.02c-11.028,0-20-8.972-20-20s8.972-20,20-20s20,8.972,20,20S407.028,311.02,396,311.02z M377.8,321.02h36.4
				c9.264,0,16.8,7.536,16.8,16.8v13.2h-70v-13.2C361,328.556,368.536,321.02,377.8,321.02z M418.079,311.304
				c17.591-19.132,3.973-50.284-22.079-50.284c-26.083,0-39.657,31.168-22.079,50.284C360.975,313.19,351,324.36,351,337.82v13.2
				H161v-13.2c0-13.46-9.975-24.63-22.921-26.516c17.591-19.131,3.973-50.284-22.079-50.284c-26.083,0-39.657,31.168-22.079,50.284
				C80.975,313.19,71,324.36,71,337.82v13.2H46v-220h70.352c-0.23,3.311-0.352,6.644-0.352,10c0,30.745,9.699,59.735,28.084,84.119
				c-5.37,7.788-4.609,18.56,2.315,25.484c6.925,6.923,17.696,7.684,25.484,2.313c49.755,37.462,118.383,37.538,168.235,0
				c7.789,5.371,18.562,4.608,25.485-2.313c6.923-6.924,7.684-17.695,2.313-25.484c20.849-27.69,30.118-61.224,27.768-94.117H466
				v220h-25v-13.2C441,324.36,431.025,313.19,418.079,311.304z M116,311.02c-11.028,0-20-8.972-20-20s8.972-20,20-20s20,8.972,20,20
				S127.028,311.02,116,311.02z M97.8,321.02h36.4c9.264,0,16.8,7.536,16.8,16.8v13.2H81v-13.2
				C81,328.556,88.536,321.02,97.8,321.02z M167.612,243.55c-3.899,3.899-10.243,3.898-14.143,0.001
				c-3.899-3.899-3.899-10.244-0.001-14.143c3.9-3.9,10.245-3.899,14.143-0.001C171.511,233.307,171.511,239.652,167.612,243.55z
				 M358.53,229.408c3.899,3.899,3.899,10.244,0.001,14.143c-3.899,3.897-10.242,3.899-14.143,0c-3.899-3.899-3.899-10.244,0-14.142
				C348.287,225.509,354.631,225.508,358.53,229.408z M358.53,38.489c3.899,3.899,3.899,10.244,0.001,14.143
				c-3.899,3.899-10.243,3.9-14.143,0.001s-3.899-10.244-0.001-14.143C348.288,34.59,354.631,34.591,358.53,38.489z M333.506,36.661
				c-6.317,12.544,2.524,28.89,17.953,28.89c3.043,0,6.08-0.705,8.866-2.081c34.481,46.299,34.073,109.346,0,155.1
				c-17.135-8.461-35.247,9.655-26.769,26.789c-45.759,34.129-109.001,34.392-155.112,0c8.481-17.141-9.647-35.258-26.782-26.782
				C134.861,196.052,126,169.338,126,141.02c0-28.305,8.858-55.027,25.661-77.557c17.129,8.474,35.254-9.628,26.789-26.769
				C224.489,2.408,287.535,2.457,333.506,36.661z M153.469,38.49c3.899-3.9,10.243-3.897,14.143-0.001
				c3.899,3.899,3.899,10.244,0.001,14.143c-3.901,3.9-10.244,3.898-14.143,0C149.57,48.733,149.57,42.388,153.469,38.49z
				 M49.6,96.02h73.739c-2.741,8.093-4.729,16.448-5.937,25H41c-2.762,0-5,2.238-5,5v225H11v-216.4
				C11,113.336,28.315,96.02,49.6,96.02z M425.367,501.02H91.633c2.226-8.616,10.065-15,19.367-15c9.622,0,285.462,0,295,0
				C415.302,486.02,423.142,492.404,425.367,501.02z M320.169,476.02H191.831c19.835-13.559,32.479-35.5,34.002-60h60.335
				C287.69,440.521,300.334,462.462,320.169,476.02z M462.4,406.02H49.6c-21.284,0-38.6-17.315-38.6-38.6v-6.4
				c17.888,0,472.165,0,490,0v6.4C501,388.705,483.685,406.02,462.4,406.02z" fill="#000000" class="color000000 svgShape"></path>
        <path d="M256 246.02c57.897 0 105-47.103 105-105s-47.103-105-105-105-105 47.103-105 105S198.103 246.02 256 246.02zM161.131 146.02h39.93c.868 37.037 11.343 68.503 26.903 85.776C190.747 220.279 163.238 186.456 161.131 146.02zM261 235.401v-89.38h39.934C299.745 191.778 282.369 230.148 261 235.401zM261 136.02V46.64c21.369 5.253 38.745 43.623 39.934 89.38H261zM251 46.64v89.38h-39.934C212.255 90.263 229.631 51.893 251 46.64zM251 146.02v89.38c-21.369-5.253-38.745-43.623-39.934-89.38H251zM284.036 231.797c15.56-17.273 26.035-48.74 26.903-85.776h39.93C348.761 186.456 321.253 220.279 284.036 231.797zM350.869 136.02h-39.93c-.868-37.037-11.343-68.503-26.903-85.776C321.253 61.762 348.761 95.585 350.869 136.02zM227.964 50.244c-15.56 17.273-26.035 48.74-26.903 85.776h-39.93C163.238 95.585 190.747 61.762 227.964 50.244zM324.53 312.48l-9.995-9.995c-1.951-1.953-5.119-1.953-7.07 0-1.953 1.952-1.953 5.118 0 7.07l1.465 1.465H203.071l1.465-1.465c1.953-1.952 1.953-5.118 0-7.07-1.951-1.953-5.119-1.953-7.07 0l-9.995 9.995c-1.931 1.924-1.954 5.133 0 7.08l9.995 9.995c1.951 1.953 5.119 1.953 7.07 0 1.953-1.952 1.953-5.118 0-7.07l-1.465-1.465h105.859l-1.465 1.465c-1.953 1.952-1.953 5.118 0 7.07 1.951 1.953 5.119 1.953 7.07 0l9.995-9.995C326.476 317.623 326.479 314.421 324.53 312.48zM246 458.52h20c2.762 0 5-2.238 5-5s-2.238-5-5-5h-20c-2.762 0-5 2.238-5 5S243.238 458.52 246 458.52z" fill="#000000" class="color000000 svgShape"></path>
      </g>
    </g>
  </g>
</svg>
