<svg xmlns="http://www.w3.org/2000/svg" viewBox="0 0 520 520" id="2881918">
  <path fill="#ffb729" d="M435 70v430H165v-50h220V70z" class="color99ccff svgShape"></path>
  <path fill="#ffffff" d="M385 70v380H85V20h300z" class="colore3f5ff svgShape"></path>
  <path d="M385 455H85a5 5 0 0 1-5-5V20a5 5 0 0 1 5-5h300a5 5 0 0 1 5 5v430a5 5 0 0 1-5 5zM90 445h290V25H90v420z" fill="#000000" class="color000000 svgShape"></path>
  <path d="M435 505H165a5 5 0 0 1-5-5v-50a5 5 0 1 1 10 0v45h260V75h-45a5 5 0 1 1 0-10h50a5 5 0 0 1 5 5v430a5 5 0 0 1-5 5z" fill="#000000" class="color000000 svgShape"></path>
  <path d="M299.999 415a4.999 4.999 0 0 1-4.999-5v-27.929l-31.464 31.464a5 5 0 1 1-7.071-7.07l40-40A4.999 4.999 0 0 1 305 370v27.929l36.464-36.464a4.999 4.999 0 0 1 8.535 3.535v35a5 5 0 1 1-10 0v-22.929l-36.464 36.464a4.996 4.996 0 0 1-3.536 1.465zM255 95H135a5 5 0 1 1 0-10h120a5 5 0 1 1 0 10zm80 50H135a5 5 0 1 1 0-10h200a5 5 0 1 1 0 10zm0 50H135a5 5 0 1 1 0-10h200a5 5 0 1 1 0 10zm0 50H135a5 5 0 1 1 0-10h200a5 5 0 1 1 0 10zm0 50H135a5 5 0 1 1 0-10h200a5 5 0 1 1 0 10z" fill="#000000" class="color000000 svgShape"></path>
</svg>
