<svg xmlns="http://www.w3.org/2000/svg" viewBox="0 0 520 520" id="2881893">
  <path fill="#ffb729" d="M435 70v430H165v-50l200-11.67L385 70z" class="color99ccff svgShape"></path>
  <path fill="#ffffff" d="M385 70v380H85V20h300z" class="colore3f5ff svgShape"></path>
  <path fill="#000000" d="M299.999 415a4.999 4.999 0 0 1-4.999-5v-27.929l-31.464 31.464a5 5 0 1 1-7.071-7.07l40-40A4.999 4.999 0 0 1 305 370v27.929l36.464-36.464a4.999 4.999 0 0 1 8.535 3.535v35a5 5 0 1 1-10 0v-22.929l-36.464 36.464a4.996 4.996 0 0 1-3.536 1.465z" class="color00dc7b svgShape"></path>
  <path fill="#ffcc66" d="M255 95H135a5 5 0 1 1 0-10h120a5 5 0 1 1 0 10zm80 50H135a5 5 0 1 1 0-10h200a5 5 0 1 1 0 10zm0 50H135a5 5 0 1 1 0-10h200a5 5 0 1 1 0 10zm0 50H135a5 5 0 1 1 0-10h200a5 5 0 1 1 0 10zm0 50H135a5 5 0 1 1 0-10h200a5 5 0 1 1 0 10z" class="color6666ff svgShape"></path>
</svg>
