<svg xmlns="http://www.w3.org/2000/svg" viewBox="0 0 520 520" id="2881904">
  <path fill="#ffb729" d="M189.998 429.997v-15.14c0-32.55-15.31-63.02-40.93-83.09-42.65-33.42-69.83-85.66-69.05-144.22 1.32-99.22 83.73-179.12 182.94-177.52 98.05 1.58 177.04 81.55 177.04 179.97 0 57.7-27.14 109.05-69.36 142a105.583 105.583 0 0 0-40.64 83.26v14.74h-140z" class="colorffe278 svgShape"></path>
  <path fill="#ffffff" d="M289.998 469.997c11.05 0 20 8.96 20 20 0 11.131-9.049 20-20 20h-60c-11.05 0-20-8.95-20-20 0-11.04 8.96-20 20-20h60z" class="color00467d svgShape"></path>
  <path fill="#737373" d="M329.998 429.997c11.05 0 20 8.96 20 20 0 11.131-9.049 20-20 20h-140c-11.05 0-20-8.95-20-20 0-11.04 8.96-20 20-20h140z" class="color3b6bab svgShape"></path>
  <path d="M329.998 434.997a5 5 0 0 1-5-5v-14.74c0-34.315 15.514-66.1 42.565-87.202 42.855-33.446 67.435-83.767 67.435-138.058 0-94.949-77.213-173.441-172.121-174.971-46.71-.714-90.96 16.861-124.674 49.598-33.677 32.7-52.565 76.379-53.186 122.989-.734 55.104 23.736 106.211 67.134 140.219 27.229 21.33 42.846 53.05 42.846 87.025v15.14a5 5 0 1 1-10 0v-15.14c0-30.882-14.22-59.732-39.014-79.153-21.939-17.192-39.996-39.469-52.218-64.42-12.832-26.197-19.14-54.394-18.748-83.804.656-49.287 20.621-95.466 56.218-130.03 35.634-34.602 82.432-53.233 131.802-52.422 48.777.786 94.509 20.375 128.77 55.16 34.299 34.823 53.189 80.924 53.189 129.809 0 57.393-25.982 110.586-71.284 145.941-24.605 19.195-38.716 48.105-38.716 79.318v14.74a4.996 4.996 0 0 1-4.998 5.001z" fill="#000000" class="color000000 svgShape"></path>
  <path d="M329.998 474.997h-40a5 5 0 1 1 0-10h40a14.9 14.9 0 0 0 10.605-4.396 14.87 14.87 0 0 0 4.395-10.604c0-8.272-6.729-15-15-15h-140a14.9 14.9 0 0 0-10.605 4.396 14.905 14.905 0 0 0-4.395 10.604c0 8.271 6.729 15 15 15h40a5 5 0 1 1 0 10h-40c-13.785 0-25-11.215-25-25 0-6.674 2.601-12.951 7.324-17.675 4.724-4.724 11.001-7.325 17.676-7.325h140c13.785 0 25 11.215 25 25 0 6.689-2.603 12.967-7.33 17.681a24.83 24.83 0 0 1-17.67 7.319z" fill="#000000" class="color000000 svgShape"></path>
  <path d="M289.998 514.997h-60c-13.785 0-25-11.215-25-25 0-6.674 2.601-12.951 7.324-17.675 4.724-4.724 11.001-7.325 17.676-7.325h60c13.785 0 25 11.215 25 25 0 6.689-2.603 12.967-7.33 17.681a24.83 24.83 0 0 1-17.67 7.319zm-60-40a14.9 14.9 0 0 0-10.605 4.396 14.905 14.905 0 0 0-4.395 10.604c0 8.271 6.729 15 15 15h60a14.9 14.9 0 0 0 10.605-4.396 14.87 14.87 0 0 0 4.395-10.604c0-8.272-6.729-15-15-15h-60zm-5-210c-22.056 0-40-17.944-40-40s17.944-40 40-40 40 17.944 40 40-17.943 40-40 40zm0-70c-16.542 0-30 13.458-30 30s13.458 30 30 30 30-13.458 30-30-13.458-30-30-30z" fill="#000000" class="color000000 svgShape"></path>
  <path d="M294.998 264.997c-22.056 0-40-17.944-40-40s17.944-40 40-40 40 17.944 40 40-17.943 40-40 40zm0-70c-16.542 0-30 13.458-30 30s13.458 30 30 30 30-13.458 30-30-13.458-30-30-30z" fill="#000000" class="color000000 svgShape"></path>
  <path d="M259.998 434.997a5 5 0 0 1-5-5v-200a5 5 0 1 1 10 0v200a5 5 0 0 1-5 5zm120-240a5 5 0 0 1-5-5c0-63.411-51.589-115-115-115s-115 51.589-115 115a5 5 0 1 1-10 0c0-68.925 56.075-125 125-125s125 56.075 125 125a5 5 0 0 1-5 5z" fill="#000000" class="color000000 svgShape"></path>
</svg>
