<svg xmlns="http://www.w3.org/2000/svg" viewBox="0 0 520 520" id="2881879">
  <path fill="#ffffff" d="M189.99 429.995v-15.14c0-32.204-15.031-62.802-40.93-83.09-85.566-67.048-93.084-194.356-14.282-270.795 71.23-69.092 184.157-67.717 253.534 2.8 75.184 76.42 67.518 201.732-17.682 268.226a105.583 105.583 0 0 0-40.64 83.26v14.74c-8.471 0-39.234 11.663-70 11.663-30.739 0-61.482-11.664-70-11.664z" class="colorffe278 svgShape"></path>
  <path fill="#ffb729" d="M294.99 184.995c-15.046 0-28.172 8.354-35 20.663-6.828-12.309-19.954-20.663-35-20.663-22.056 0-40 17.944-40 40s17.944 40 40 40c11.938 0 22.665-5.264 30-13.585v178.585a5 5 0 1 0 10 0V251.41c7.335 8.321 18.062 13.585 30 13.585 22.056 0 40-17.944 40-40 0-22.055-17.944-40-40-40zm-70 70c-16.542 0-30-13.458-30-30s13.458-30 30-30 30 13.458 30 30-13.458 30-30 30zm70 0c-16.542 0-30-13.458-30-30s13.458-30 30-30 30 13.458 30 30-13.458 30-30 30z" class="colorffb454 svgShape"></path>
  <path fill="#ffb729" d="M259.99 64.995c-68.925 0-125 56.075-125 125a5 5 0 1 0 10 0c0-63.411 51.589-115 115-115s115 51.589 115 115a5 5 0 1 0 10 0c0-68.925-56.075-125-125-125z" class="colorffb454 svgShape"></path>
  <path fill="#000000" d="M289.99 469.995c11.043 0 20 8.953 20 20 0 11.126-9.044 20-20 20h-60c-11.05 0-20-8.95-20-20 0-11.039 8.959-20 20-20l30-13.003 30 13.003z" class="color00467d svgShape"></path>
  <path fill="#737373" d="M329.99 429.995c5.524 0 10.524 2.24 14.142 5.859 7.786 7.787 7.839 20.452-.001 28.281a19.975 19.975 0 0 1-14.141 5.86h-140c-11.05 0-20-8.95-20-20 0-11.039 8.959-20 20-20h140z" class="color3b6bab svgShape"></path>
</svg>
