<svg xmlns="http://www.w3.org/2000/svg" xml:space="preserve" viewBox="0 0 512 512" enable-background="new 0 0 512 512" id="11331573">
  <g id="_x33_3_x2C__crowdfunding_x2C__money_x2C__investment_x2C__business_and_finance_x2C__funding_x2C__donation" fill="#000000" class="color000000 svgShape">
    <g fill="#000000" class="color000000 svgShape">
      <circle cx="285.997" cy="38.5" r="15" fill="#f6c25b" class="colorf6df5b svgShape"></circle>
      <path d="M384.987 64.51c5.86 5.85 5.86 15.35 0 21.21-5.85 5.86-15.35 5.86-21.21 0-5.86-5.86-5.86-15.36 0-21.21C369.637 58.65 379.137 58.65 384.987 64.51zM208.217 64.51c5.86 5.85 5.86 15.35 0 21.21s-15.36 5.86-21.21 0c-5.86-5.86-5.86-15.36 0-21.21C192.857 58.65 202.357 58.65 208.217 64.51z" fill="#e6b85e" class="colorbde65e svgShape"></path>
      <circle cx="410.997" cy="163.5" r="15" fill="#e1b359" class="colore17559 svgShape"></circle>
      <circle cx="160.997" cy="163.5" r="15" fill="#e1b359" class="colore17559 svgShape"></circle>
      <polygon points="287.997 244 160.997 253.5 160.997 323.22 294.747 385.75 410.997 310.48 410.997 253.5" fill="#c7a35b" class="colorc7865b svgShape"></polygon>
      <rect width="56.273" height="110.18" x="62.391" y="347.71" fill="#ffffff" class="colordfe8eb svgShape"></rect>
      <path d="M70.997,461.55c0,14.88-12.07,26.95-26.95,26.95H5.997V317.1h38.05
			c14.88,0,26.95,12.07,26.95,26.96C70.997,360.216,70.997,411.751,70.997,461.55z" fill="#f5cd7e" class="color7ed7f5 svgShape"></path>
      <path d="M296.487,367.73c2.007-1.003,168.67-84.335,168.86-84.43c18.702-9.334,40.65,4.331,40.65,25.11
			c0,8.29-3.64,16.54-10.76,22.12l-158.01,123.86c-27.74,21.73-63.33,30.81-98.08,25.02l-129.09-21.52V347.71l36.73-24.49
			c14.623,0,103.468,0,121.79,0c16.92,0,31.11,13.46,31.24,30.38C299.857,358.7,298.647,363.5,296.487,367.73z" fill="#f6e9cf" class="colorf6decf svgShape"></path>
      <path d="M370.997,193.5c-21.418,0-148.651,0-170,0l-40,60h250L370.997,193.5z" fill="#b38b3c" class="colorb36d3c svgShape"></path>
      <path d="M360.997,163.5c0,24.306-11.61,46.198-30,60h-90c-18.389-13.801-30-35.693-30-60
			c0-41.42,33.58-75,75-75S360.997,122.08,360.997,163.5z" fill="#f6c25b" class="colorf6df5b svgShape"></path>
      <circle cx="285.997" cy="163.5" r="40" fill="#ffb729" class="coloreec158 svgShape"></circle>
      <g fill="#000000" class="color000000 svgShape">
        <path d="M285.997,208.5c24.813,0,45-20.187,45-45s-20.187-45-45-45s-45,20.187-45,45S261.184,208.5,285.997,208.5z
				 M285.997,128.5c19.299,0,35,15.701,35,35s-15.701,35-35,35s-35-15.701-35-35S266.698,128.5,285.997,128.5z" fill="#000000" class="color000000 svgShape"></path>
        <path d="M501.302,285.039c-10.082-10.083-25.43-12.578-38.191-6.206l-47.113,23.557c-0.002-53.694,0.371-49.613-0.85-51.679
				c-5.071-7.606-35.775-53.663-39.99-59.984c-0.928-1.391-2.488-2.227-4.16-2.227h-8.945c16.889-51.775-21.74-105-76.055-105
				c-54.219,0-92.967,53.154-76.055,105h-8.945c-1.672,0-3.232,0.836-4.16,2.227c-43.483,65.224-40.84,60.546-40.84,62.773v64.657
				c-11.587,0-10.879,0.17-11.983,0.907l-35.465,23.646H75.963c-0.709-16.996-14.751-30.606-31.919-30.606H5.997
				c-2.762,0-5,2.238-5,5V488.5c0,2.762,2.238,5,5,5h38.047c17.167,0,31.21-13.61,31.919-30.606h33.676l128.686,21.45
				c36.12,6.021,73.276-3.519,101.982-26.021L498.321,334.47C513.985,322.193,515.324,299.061,501.302,285.039z M304.559,358.108
				c2.591-21.469-14.595-39.884-35.982-39.884c-55.482,0.131-85.814,0.008-102.579-0.045V258.5h240v48.889L304.559,358.108z
				 M285.997,93.5c50.262,0,84.01,51.6,64.423,97.538c-0.165,0.29-0.3,0.596-0.405,0.918c-4.548,10.25-11.581,19.35-20.724,26.543
				h-86.587c-9.144-7.193-16.176-16.293-20.724-26.543c-0.105-0.323-0.24-0.628-0.405-0.918c-3.645-8.549-5.577-17.871-5.577-27.538
				C215.997,124.902,247.4,93.5,285.997,93.5z M203.673,198.5h10.312c3.543,7.291,8.209,14.03,13.893,20h-11.881
				c-2.762,0-5,2.238-5,5s2.238,5,5,5h140c2.762,0,5-2.238,5-5s-2.238-5-5-5h-11.881c5.684-5.97,10.35-12.709,13.893-20h10.312
				l33.333,50H170.34L203.673,198.5z M65.997,461.547c0,12.105-9.848,21.953-21.953,21.953H10.997V322.104h33.047
				c12.105,0,21.953,9.848,21.953,21.953C65.997,360.213,65.997,411.748,65.997,461.547z M75.997,352.711h29.06v100.183h-29.06
				V352.711z M492.152,326.599L334.138,450.452c-26.559,20.819-60.885,29.572-94.169,24.028l-124.91-20.821v-103.27l33.242-22.165
				h120.275c19.514,0,32.174,20.18,23.458,37.235c-0.093,0.1-6.373,13.975-22.827,13.975h-85.69c-2.762,0-5,2.238-5,5s2.238,5,5,5
				h85.69c13.199,0,24.733-7.125,30.923-17.932l167.449-83.725c15.455-7.713,33.418,3.647,33.418,20.636
				C500.997,315.565,497.774,322.194,492.152,326.599z" fill="#000000" class="color000000 svgShape"></path>
        <path d="M35.997 340.395c-2.762 0-5 2.238-5 5v5c0 2.762 2.238 5 5 5s5-2.238 5-5v-5C40.997 342.633 38.759 340.395 35.997 340.395zM280.997 57.842V68.5c0 2.762 2.238 5 5 5s5-2.238 5-5V57.842c8.612-2.229 15-10.043 15-19.342 0-11.028-8.972-20-20-20s-20 8.972-20 20C265.997 47.799 272.385 55.613 280.997 57.842zM285.997 28.5c5.514 0 10 4.486 10 10s-4.486 10-10 10-10-4.486-10-10S280.484 28.5 285.997 28.5zM197.609 95.111c3.842 0 7.281-1.021 10.182-2.748l7.497 7.497c1.951 1.953 5.119 1.953 7.07 0 1.953-1.952 1.953-5.118 0-7.07l-7.546-7.546c4.273-7.303 4.04-17.175-3.061-24.274-7.797-7.8-20.485-7.798-28.284 0C170.953 73.484 179.836 95.111 197.609 95.111zM190.537 68.041c6.26-6.26 17.071-1.816 17.071 7.07 0 8.816-10.739 13.4-17.071 7.071C186.639 78.283 186.639 71.939 190.537 68.041zM160.997 183.5c9.299 0 17.113-6.388 19.342-15h10.658c2.762 0 5-2.238 5-5s-2.238-5-5-5h-10.658c-2.229-8.612-10.043-15-19.342-15-11.028 0-20 8.972-20 20S149.969 183.5 160.997 183.5zM160.997 153.5c5.514 0 10 4.486 10 10s-4.486 10-10 10-10-4.486-10-10S155.484 153.5 160.997 153.5zM380.997 158.5c-2.762 0-5 2.238-5 5s2.238 5 5 5h10.658c2.229 8.612 10.043 15 19.342 15 11.028 0 20-8.972 20-20s-8.972-20-20-20c-9.299 0-17.113 6.388-19.342 15H380.997zM410.997 153.5c5.514 0 10 4.486 10 10s-4.486 10-10 10-10-4.486-10-10S405.484 153.5 410.997 153.5zM353.172 101.325c1.279 0 2.56-.488 3.535-1.465l7.546-7.546c7.303 4.273 17.175 4.04 24.274-3.061 7.798-7.797 7.798-20.485 0-28.284-12.526-12.524-34.142-3.619-34.142 14.143 0 3.842 1.021 7.281 2.748 10.182l-7.497 7.497C346.471 95.955 348.765 101.325 353.172 101.325zM381.456 68.04c6.258 6.258 1.818 17.071-7.07 17.071-5.526 0-10-4.473-10-10C364.386 66.283 375.137 61.721 381.456 68.04z" fill="#000000" class="color000000 svgShape"></path>
      </g>
    </g>
  </g>
</svg>
