<svg xmlns="http://www.w3.org/2000/svg" xml:space="preserve" viewBox="0 0 512 512" enable-background="new 0 0 512 512" id="11331542">
  <g id="_x30_2_x2C__currency_x2C__cash_x2C__digital_x2C__business_x2C__money_x2C__business_and_finance" fill="#000000" class="color000000 svgShape">
    <g fill="#000000" class="color000000 svgShape">
      <circle cx="416" cy="466" r="40" fill="#d4b371" class="color717ed4 svgShape"></circle>
      <circle cx="256" cy="466" r="40" fill="#ffb729" class="colorf6df5b svgShape"></circle>
      <circle cx="96" cy="466" r="40" fill="#e1b359" class="colore17559 svgShape"></circle>
      <path d="M474,6H38C20.33,6,6,20.33,6,38v206c0,17.67,14.33,32,32,32h436c17.67,0,32-14.33,32-32V38
			C506,20.33,491.67,6,474,6z" fill="#e6b85e" class="colorbde65e svgShape"></path>
      <circle cx="416" cy="466" r="15" fill="#ffffff" class="colordfe8eb svgShape"></circle>
      <circle cx="256" cy="466" r="15" fill="#ffffff" class="colordfe8eb svgShape"></circle>
      <circle cx="96" cy="466" r="15" fill="#ffffff" class="colordfe8eb svgShape"></circle>
      <path d="M432.53,46H79.47c0,18.48-14.99,33.47-33.47,33.47v123.06c18.48,0,33.47,14.99,33.47,33.47h353.06
			c0-18.48,14.99-33.47,33.47-33.47V79.47C447.52,79.47,432.53,64.48,432.53,46z" fill="#c8ab71" class="color71c880 svgShape"></path>
      <circle cx="381" cy="141" r="30" fill="#a68e5f" class="color5fa68d svgShape"></circle>
      <ellipse cx="256" cy="141" rx="45" ry="65" fill="#a68e5f" class="color5fa68d svgShape"></ellipse>
      <circle cx="131" cy="141" r="30" fill="#a68e5f" class="color5fa68d svgShape"></circle>
      <g fill="#000000" class="color000000 svgShape">
        <path d="M474,1H38C17.599,1,1,17.598,1,38v206c0,20.401,16.599,37,37,37h436c20.401,0,37-16.599,37-37V38
				C511,17.598,494.401,1,474,1z M501,244c0,14.888-12.112,27-27,27H38c-14.888,0-27-12.112-27-27V38c0-14.888,12.112-27,27-27h436
				c14.888,0,27,12.112,27,27V244z" fill="#000000" class="color000000 svgShape"></path>
        <path d="M466,74.467c-15.696,0-28.467-12.77-28.467-28.467c0-2.761-2.238-5-5-5H79.467c-2.762,0-5,2.239-5,5
				c0,15.697-12.771,28.467-28.467,28.467c-2.762,0-5,2.239-5,5v123.066c0,2.761,2.238,5,5,5c15.696,0,28.467,12.77,28.467,28.467
				c0,2.761,2.238,5,5,5h353.066c2.762,0,5-2.239,5-5c0-15.697,12.771-28.467,28.467-28.467c2.762,0,5-2.239,5-5V79.467
				C471,76.706,468.762,74.467,466,74.467z M461,197.856c-17.219,2.246-30.897,15.924-33.144,33.144H84.144
				C81.897,213.781,68.219,200.102,51,197.856V84.144C68.219,81.898,81.897,68.219,84.144,51h343.713
				c2.246,17.219,15.925,30.898,33.144,33.144V197.856z" fill="#000000" class="color000000 svgShape"></path>
        <path d="M256 71c-44.369 0-66.419 74.767-35.931 118.808 19.656 28.392 52.357 28.172 71.861 0C322.144 146.164 300.723 71 256 71zM256 201c-22.056 0-40-26.916-40-60s17.944-60 40-60 40 26.916 40 60S278.056 201 256 201zM381 106c-19.299 0-35 15.701-35 35s15.701 35 35 35 35-15.701 35-35S400.299 106 381 106zM381 166c-13.785 0-25-11.215-25-25s11.215-25 25-25 25 11.215 25 25S394.785 166 381 166zM131 106c-19.299 0-35 15.701-35 35s15.701 35 35 35 35-15.701 35-35S150.299 106 131 106zM131 166c-13.785 0-25-11.215-25-25s11.215-25 25-25 25 11.215 25 25S144.785 166 131 166z" fill="#000000" class="color000000 svgShape"></path>
        <path d="M256 126c-2.762 0-5 2.239-5 5v20c0 2.761 2.238 5 5 5s5-2.239 5-5v-20C261 128.239 258.762 126 256 126zM421 421.284V356c0-2.762-2.238-5-5-5h-75v-40c0-2.762-2.238-5-5-5s-5 2.238-5 5v45c0 2.762 2.238 5 5 5h75v60.284c-22.468 2.496-40 21.593-40 44.716 0 24.813 20.187 45 45 45s45-20.187 45-45C461 442.877 443.468 423.781 421 421.284zM416 501c-19.299 0-35-15.701-35-35s15.701-35 35-35 35 15.701 35 35S435.299 501 416 501z" fill="#000000" class="color000000 svgShape"></path>
        <path d="M416 446c-11.028 0-20 8.972-20 20s8.972 20 20 20 20-8.972 20-20S427.028 446 416 446zM416 476c-5.514 0-10-4.486-10-10s4.486-10 10-10 10 4.486 10 10S421.514 476 416 476zM261 421.284V311c0-2.762-2.238-5-5-5s-5 2.238-5 5v110.284c-22.468 2.496-40 21.593-40 44.716 0 24.813 20.187 45 45 45s45-20.187 45-45C301 442.877 283.468 423.781 261 421.284zM256 501c-19.299 0-35-15.701-35-35s15.701-35 35-35 35 15.701 35 35S275.299 501 256 501z" fill="#000000" class="color000000 svgShape"></path>
        <path d="M256 446c-11.028 0-20 8.972-20 20s8.972 20 20 20 20-8.972 20-20S267.028 446 256 446zM256 476c-5.514 0-10-4.486-10-10s4.486-10 10-10 10 4.486 10 10S261.514 476 256 476zM76 466c0 11.028 8.972 20 20 20s20-8.972 20-20-8.972-20-20-20S76 454.972 76 466zM106 466c0 5.514-4.486 10-10 10s-10-4.486-10-10 4.486-10 10-10S106 460.486 106 466z" fill="#000000" class="color000000 svgShape"></path>
        <path d="M176,306c-2.762,0-5,2.238-5,5v40H96c-2.762,0-5,2.238-5,5v65.284C68.532,423.781,51,442.877,51,466
				c0,24.813,20.187,45,45,45s45-20.187,45-45c0-23.123-17.532-42.219-40-44.716V361h75c2.762,0,5-2.238,5-5v-45
				C181,308.238,178.762,306,176,306z M131,466c0,19.299-15.701,35-35,35s-35-15.701-35-35s15.701-35,35-35S131,446.701,131,466z" fill="#000000" class="color000000 svgShape"></path>
      </g>
    </g>
  </g>
</svg>
