<svg xmlns="http://www.w3.org/2000/svg" xml:space="preserve" viewBox="0 0 512 512" enable-background="new 0 0 512 512" id="11331541">
  <g id="_x30_1_x2C__cyber_x2C__Spyware_x2C__warning_x2C__cyber_attack_x2C__antivirus_x2C__eye" fill="#000000" class="color000000 svgShape">
    <g fill="#000000" class="color000000 svgShape">
      <path d="M5.999,256.22h500C377.419,96.203,134.501,96.301,5.999,256.22z" fill="#f2e6ce" class="colorcee0f2 svgShape"></path>
      <path d="M5.999,256.22c128.525,159.376,371.372,159.504,500,0C377.32,142.508,134.462,142.7,5.999,256.22z" fill="#ffffff" class="colordfe8eb svgShape"></path>
      <path d="M255.999,171c-0.06,0-0.12,0-0.18,0c-46.86,0.1-84.82,38.12-84.82,85c0,46.94,38.06,85,85,85
			c46.94,0,85-38.06,85-85C340.999,209.057,302.936,171,255.999,171z" fill="#575757" class="color495f66 svgShape"></path>
      <circle cx="255.999" cy="256" r="55" fill="#f5cd7e" class="color7ed7f5 svgShape"></circle>
      <g fill="#000000" class="color000000 svgShape">
        <circle cx="255.999" cy="226" r="25" fill="#e9b44c" class="color4c86e9 svgShape"></circle>
      </g>
      <circle cx="144.749" cy="481" r="25" fill="#e1b359" class="colore17559 svgShape"></circle>
      <circle cx="255.999" cy="451" r="25" fill="#e6b85e" class="colorbde65e svgShape"></circle>
      <circle cx="367.249" cy="481" r="25" fill="#ffb729" class="colorf6df5b svgShape"></circle>
      <circle cx="367.249" cy="31" r="25" fill="#ffb729" class="colorf6df5b svgShape"></circle>
      <circle cx="255.999" cy="61" r="25" fill="#e6b85e" class="colorbde65e svgShape"></circle>
      <circle cx="144.749" cy="31" r="25" fill="#e1b359" class="colore17559 svgShape"></circle>
      <g fill="#000000" class="color000000 svgShape">
        <path d="M509.897,253.088c-43.392-54.006-99.618-90.065-160.147-108.177V114.25l19.53-8.681c1.806-0.802,2.97-2.593,2.97-4.569
				V60.575c14.169-2.388,25-14.737,25-29.575c0-16.542-13.458-30-30-30s-30,13.458-30,30c0,14.838,10.831,27.187,25,29.575V97.75
				l-19.53,8.681c-1.806,0.802-2.97,2.593-2.97,4.569v31.087c-25.779-6.825-52.244-10.44-78.75-10.845V90.575
				c14.169-2.388,25-14.737,25-29.575c0-16.542-13.458-30-30-30s-30,13.458-30,30c0,14.838,10.831,27.187,25,29.575v40.667
				c-26.505,0.402-52.969,4.014-78.75,10.838V111c0-1.976-1.164-3.767-2.97-4.569l-19.53-8.681V60.575
				c14.169-2.388,25-14.737,25-29.575c0-16.542-13.458-30-30-30s-30,13.458-30,30c0,14.838,10.831,27.187,25,29.575V101
				c0,1.976,1.164,3.767,2.97,4.569l19.53,8.681v30.653C96.697,164.515,39.347,205.136,2.055,253.158
				c-1.444,1.857-1.339,4.475,0.052,6.201c43.421,53.847,99.64,89.762,160.143,107.796v30.597l-19.53,8.68
				c-1.806,0.803-2.97,2.594-2.97,4.569v40.425c-14.169,2.388-25,14.737-25,29.575c0,16.542,13.458,30,30,30s30-13.458,30-30
				c0-14.838-10.831-27.187-25-29.575v-37.176l19.53-8.68c1.806-0.803,2.97-2.594,2.97-4.569v-31.034
				c25.782,6.798,52.246,10.394,78.75,10.793v40.666c-14.169,2.388-25,14.737-25,29.575c0,16.542,13.458,30,30,30s30-13.458,30-30
				c0-14.838-10.831-27.187-25-29.575v-40.666c26.507-0.406,52.972-4.01,78.75-10.811V401c0,1.976,1.164,3.767,2.97,4.569
				l19.53,8.68v37.176c-14.169,2.388-25,14.737-25,29.575c0,16.542,13.458,30,30,30s30-13.458,30-30
				c0-14.838-10.831-27.187-25-29.575V411c0-1.976-1.164-3.767-2.97-4.569l-19.53-8.68v-30.617
				c60.54-18.052,116.767-53.984,160.143-107.775C511.341,257.561,511.351,254.896,509.897,253.088z M347.249,31
				c0-11.028,8.972-20,20-20s20,8.972,20,20s-8.972,20-20,20S347.249,42.028,347.249,31z M124.749,31c0-11.028,8.972-20,20-20
				s20,8.972,20,20s-8.972,20-20,20S124.749,42.028,124.749,31z M164.749,481c0,11.028-8.972,20-20,20s-20-8.972-20-20
				s8.972-20,20-20S164.749,469.972,164.749,481z M387.249,481c0,11.028-8.972,20-20,20s-20-8.972-20-20s8.972-20,20-20
				S387.249,469.972,387.249,481z M47.681,219.779c117.978-104.162,297.514-105.235,416.666,0.02
				C344.447,148.194,167.973,147.948,47.681,219.779z M335.999,256c0,44.112-35.888,80-80,80s-80-35.888-80-80
				c0-43.993,35.695-79.797,79.643-79.991C300.604,175.972,335.999,212.28,335.999,256z M235.999,61c0-11.028,8.972-20,20-20
				s20,8.972,20,20s-8.972,20-20,20S235.999,72.028,235.999,61z M275.999,451c0,11.028-8.972,20-20,20s-20-8.972-20-20
				s8.972-20,20-20S275.999,439.972,275.999,451z M12.971,256.825c52.53-44.786,123.511-70.949,197.621-78.503
				c-26.655,15.642-44.593,44.602-44.593,77.677c0,49.626,40.374,90,90,90s90-40.374,90-90c0-33.072-17.935-62.031-44.586-77.673
				c74.127,7.562,145.111,33.736,197.614,78.499C373.207,408.164,139.858,409.447,12.971,256.825z" fill="#000000" class="color000000 svgShape"></path>
        <path d="M195.999,256c0,33.084,26.916,60,60,60s60-26.916,60-60s-26.916-60-60-60S195.999,222.916,195.999,256z M275.999,226
				c0,11.028-8.972,20-20,20s-20-8.972-20-20s8.972-20,20-20S275.999,214.972,275.999,226z M305.999,256c0,27.57-22.43,50-50,50
				s-50-22.43-50-50c0-17.352,8.889-32.662,22.347-41.631C220.058,234.001,234.513,256,255.999,256
				c21.482,0,35.943-21.994,27.653-41.631C297.111,223.338,305.999,238.648,305.999,256z" fill="#000000" class="color000000 svgShape"></path>
      </g>
    </g>
  </g>
</svg>
