<svg xmlns="http://www.w3.org/2000/svg" xml:space="preserve" viewBox="0 0 512 512" enable-background="new 0 0 512 512" id="11331546">
  <g id="_x30_6_x2C__cyber_security_x2C__security_shield_x2C__hacker_x2C__protection_x2C__technology_x2C__digital" fill="#000000" class="color000000 svgShape">
    <g fill="#000000" class="color000000 svgShape">
      <path d="M380.99,8.563H131.01c4.09,39.92-27.23,69.62-67.36,69.62l16.66,162.43
			C98.997,422.844,245.63,493.182,256,503.563c11.075-11.087,157.023-80.911,175.69-262.95l16.66-162.43
			C408.22,78.183,376.9,48.483,380.99,8.563z" fill="#ffb729" class="colorbde65e svgShape"></path>
      <path d="M353.42,43.563H158.58c-5.72,23.496-30.542,52.726-62.27,63.98l13.85,135.01
			c16.32,159.117,141.007,224.611,145.84,229.6c4.751-4.904,129.517-70.455,145.84-229.6l13.85-135.01
			C384.638,96.53,359.252,67.52,353.42,43.563z" fill="#ffffff" class="colordfe8eb svgShape"></path>
      <path d="m336.87 173.713-.02.01-35.239-21.93-38.445 67.853 6.25 43.5 32.113-9.023 32.32-48.33C340.31 196.133 341.27 184.053 336.87 173.713zM213.5 148.313l-38.35 25.41-.02-.01c-4.4 10.34-3.44 22.42 3.02 32.08l32.32 48.33 36.03 10.69v-51.75L213.5 148.313z" fill="#464646" class="color3b4a51 svgShape"></path>
      <path d="M273.07,217.563v43.03h-34.14v-43.03l1.08,1.03c9.68,9.238,22.3,9.238,31.98,0L273.07,217.563z" fill="#f2e0be" class="colorf2cdbe svgShape"></path>
      <path d="M271.99,224.753c-9.68,6.46-22.3,6.46-31.98,0c-0.1-0.067-7.456-4.96-6.99-4.65
			c-12.2-8.13-19.52-21.83-19.52-36.49v-24.31c9.5-7.365,27.7-9.865,42.5-9.865c14.8,0,31.125,0,42.5,9.865v24.31
			c0,14.66-7.32,28.36-19.52,36.49C278.88,220.17,271.524,225.063,271.99,224.753z" fill="#f6e9cf" class="colorf6decf svgShape"></path>
      <path d="M336.87,173.713l-0.02,0.01c-48.638-25.84-112.832-25.963-161.7,0l-0.02-0.01
			c3.096-7.27,2.711-4.706,55.81-72.96c12.76-16.25,37.36-16.25,50.12,0l51.28,65.3C334.21,168.443,335.72,171.013,336.87,173.713z" fill="#575757" class="color495f66 svgShape"></path>
      <path d="M341.36,289.123v38.98H170.64v-38.98c0-19.33,15.67-35,35-35c12.634,0,92.825,0,100.72,0
			C325.69,254.123,341.36,269.793,341.36,289.123z" fill="#d4b371" class="color717ed4 svgShape"></path>
      <g fill="#000000" class="color000000 svgShape">
        <path d="M448.347,73.18c-36.813,0-66.199-26.873-62.381-64.106c0.145-1.407-0.314-2.81-1.262-3.86
				c-2.84-3.144,10.898-1.022-253.696-1.649c-2.96,0-5.276,2.561-4.974,5.51c3.815,37.208-25.539,64.106-62.381,64.106
				c-2.96,0-5.276,2.561-4.974,5.51l16.66,162.438c10.118,98.662,62.795,187.473,144.522,243.659l33.305,22.897
				c1.707,1.174,3.961,1.173,5.666,0l33.305-22.897c81.728-56.187,134.404-144.997,144.522-243.659l16.66-162.438
				C453.623,75.745,451.31,73.18,448.347,73.18z M426.713,240.107c-9.819,95.738-60.935,181.916-140.241,236.438L256,497.496
				l-30.472-20.95c-79.307-54.522-130.422-140.7-140.241-236.438L69.174,82.998c38.588-2.544,68.18-31.088,67.164-69.435h239.324
				c-1.016,38.351,28.581,66.891,67.164,69.435L426.713,240.107z" fill="#000000" class="color000000 svgShape"></path>
        <path d="M358.279,42.38c-0.546-2.24-2.553-3.816-4.858-3.816H158.578c-2.306,0-4.313,1.576-4.858,3.816
				c-5.475,22.478-29.754,50.043-59.084,60.454c-2.173,0.771-3.536,2.929-3.301,5.222l13.848,135.01
				c9.22,89.893,57.214,170.808,131.676,222l16.309,11.212c1.707,1.174,3.961,1.172,5.666,0l16.31-11.213
				c74.461-51.191,122.455-132.107,131.674-221.999l13.848-135.01c0.235-2.293-1.128-4.45-3.301-5.222
				C387.955,92.394,363.739,64.795,358.279,42.38z M396.869,242.046c-8.92,86.968-55.353,165.251-127.393,214.778L256,466.09
				l-13.476-9.265c-72.041-49.527-118.474-127.812-127.395-214.779l-13.455-131.181c29.898-11.931,54.055-40.016,60.728-62.302
				h187.194c6.666,22.266,30.816,50.365,60.727,62.302L396.869,242.046z" fill="#000000" class="color000000 svgShape"></path>
        <path d="M310.724,249.363l27.283-40.79c9.374-14.015,8.677-32.34-1.736-45.603l-51.277-65.309
				c-14.773-18.815-43.239-18.788-57.988,0l-51.277,65.309c-10.413,13.262-11.111,31.588-1.736,45.603l27.283,40.79
				c-20.01,2.182-35.637,19.177-35.637,39.758v38.98c0,2.762,2.238,5,5,5h170.723c2.762,0,5-2.238,5-5v-38.98
				C346.361,268.54,330.735,251.545,310.724,249.363z M329.695,203.013l-30.841,46.108h-20.782v-22.407l3.679-2.45
				c13.617-9.07,21.747-24.267,21.747-40.65v-17.811c10.234,2.882,20.113,6.724,29.413,11.522
				C335.908,185.747,334.877,195.266,329.695,203.013z M218.502,163.308c24.542-5.322,50.525-5.301,74.996,0.005v20.301
				c0,13.031-6.464,25.116-17.29,32.328l-5.612,3.737c-0.198,0.114-0.387,0.238-0.567,0.378l-0.81,0.54
				c-8.03,5.351-18.406,5.353-26.438,0l-0.806-0.537c-0.182-0.141-0.374-0.267-0.575-0.383l-5.607-3.735
				c-10.826-7.212-17.29-19.297-17.29-32.328V163.308z M243.928,232.377c7.776,2.982,16.371,2.981,24.145,0v16.744h-24.145V232.377z
				 M234.871,103.838c10.766-13.714,31.51-13.69,42.258,0l45.403,57.826c-7.407-2.915-15.049-5.325-22.854-7.208
				c-0.079-0.019-0.156-0.044-0.236-0.06c-28.285-6.781-58.598-6.781-86.884,0c-0.08,0.015-0.156,0.04-0.235,0.06
				c-7.804,1.882-15.446,4.292-22.854,7.208L234.871,103.838z M179.088,177.324c9.32-4.808,19.198-8.648,29.414-11.527v17.816
				c0,16.384,8.13,31.58,21.747,40.65l3.679,2.45v22.407h-20.783l-30.841-46.108C177.122,195.266,176.091,185.747,179.088,177.324z
				 M336.361,323.101H175.639v-33.98c0-16.542,13.458-30,30-30h4.805c0.007,0,0.014,0,0.022,0h28.463h34.145h28.476
				c0.005,0,0.011,0,0.016,0h4.797c16.542,0,30,13.458,30,30V323.101z" fill="#000000" class="color000000 svgShape"></path>
        <path d="M238.5 203.563h8.75c3.592 0 4.518-3.118 8.75-7.407 4.24 4.297 5.157 7.407 8.75 7.407h8.75c2.762 0 5-2.238 5-5s-2.238-5-5-5h-6.481l-7.256-8.293c-1.993-2.278-5.538-2.272-7.525 0l-7.256 8.293H238.5c-2.762 0-5 2.238-5 5S235.738 203.563 238.5 203.563zM331 123.563c2.762 0 5-2.238 5-5v-10c0-2.762-2.238-5-5-5s-5 2.238-5 5v10C326 121.325 328.238 123.563 331 123.563zM361 133.563v-10c0-2.762-2.238-5-5-5s-5 2.238-5 5v10c0 2.762 2.238 5 5 5S361 136.325 361 133.563zM381 153.563c2.762 0 5-2.238 5-5v-10c0-2.762-2.238-5-5-5s-5 2.238-5 5v10C376 151.325 378.238 153.563 381 153.563zM361 153.563c-2.762 0-5 2.238-5 5v10c0 2.762 2.238 5 5 5s5-2.238 5-5v-10C366 155.802 363.762 153.563 361 153.563zM311 88.563c2.762 0 5-2.238 5-5v-10c0-2.762-2.238-5-5-5s-5 2.238-5 5v10C306 86.325 308.238 88.563 311 88.563zM181 123.563c2.762 0 5-2.238 5-5v-10c0-2.762-2.238-5-5-5s-5 2.238-5 5v10C176 121.325 178.238 123.563 181 123.563zM156 118.563c-2.762 0-5 2.238-5 5v10c0 2.762 2.238 5 5 5s5-2.238 5-5v-10C161 120.802 158.762 118.563 156 118.563zM131 133.563c-2.762 0-5 2.238-5 5v10c0 2.762 2.238 5 5 5s5-2.238 5-5v-10C136 135.802 133.762 133.563 131 133.563zM151 153.563c-2.762 0-5 2.238-5 5v10c0 2.762 2.238 5 5 5s5-2.238 5-5v-10C156 155.802 153.762 153.563 151 153.563zM201 88.563c2.762 0 5-2.238 5-5v-10c0-2.762-2.238-5-5-5s-5 2.238-5 5v10C196 86.325 198.238 88.563 201 88.563z" fill="#000000" class="color000000 svgShape"></path>
      </g>
    </g>
  </g>
</svg>
