<svg xmlns="http://www.w3.org/2000/svg" xml:space="preserve" viewBox="0 0 512 512" enable-background="new 0 0 512 512" id="11331574">
  <g id="_x33_4_x2C__data_mining_x2C__database_x2C__server_x2C__big_data_x2C__storage_x2C__seo_and_web" fill="#000000" class="color000000 svgShape">
    <g fill="#000000" class="color000000 svgShape">
      <rect width="290" height="65" x="26" y="366.005" fill="#464646" class="color3b4a51 svgShape"></rect>
      <rect width="290" height="51.14" x="26" y="247.935" fill="#464646" class="color3b4a51 svgShape"></rect>
      <path d="M317 416.005c-12.338 0-278.506 0-292 0-10.49 0-19 8.51-19 19v52c0 10.49 8.51 19 19 19h292c10.49 0 19-8.51 19-19v-52C336 424.515 327.49 416.005 317 416.005zM317 291.005c-41.999 0-265.303 0-292 0-10.49 0-19 8.51-19 19v52c0 10.49 8.51 19 19 19 41.999 0 265.303 0 292 0 10.49 0 19-8.51 19-19v-52C336 299.515 327.49 291.005 317 291.005zM317 166.005H25c-10.49 0-19 8.51-19 19v52c0 10.49 8.51 19 19 19 12.338 0 278.506 0 292 0 10.49 0 19-8.51 19-19v-52C336 174.515 327.49 166.005 317 166.005z" fill="#575757" class="color495f66 svgShape"></path>
      <circle cx="151" cy="126.005" r="15" fill="#ffb729" class="colorf6df5b svgShape"></circle>
      <circle cx="181" cy="41.005" r="15" fill="#e1b359" class="colore17559 svgShape"></circle>
      <circle cx="46" cy="461.005" r="15" fill="#e1b359" class="colore17559 svgShape"></circle>
      <circle cx="46" cy="336.005" r="15" fill="#e1b359" class="colore17559 svgShape"></circle>
      <circle cx="46" cy="211.005" r="15" fill="#e1b359" class="colore17559 svgShape"></circle>
      <circle cx="96" cy="461.005" r="15" fill="#e6b85e" class="colorbde65e svgShape"></circle>
      <circle cx="96" cy="336.005" r="15" fill="#e6b85e" class="colorbde65e svgShape"></circle>
      <circle cx="96" cy="211.005" r="15" fill="#e6b85e" class="colorbde65e svgShape"></circle>
      <circle cx="146" cy="461.005" r="15" fill="#ffb729" class="colorf6df5b svgShape"></circle>
      <circle cx="146" cy="336.005" r="15" fill="#ffb729" class="colorf6df5b svgShape"></circle>
      <circle cx="146" cy="211.005" r="15" fill="#ffb729" class="colorf6df5b svgShape"></circle>
      <path d="m432.34 8.595-78.37 78.37-28.72-8.96-6.63-26.4 17.67-17.67c20.49-20.48 49.17-30.54 77.95-27.35L432.34 8.595zM311.55 129.395c-.428.428-78.051 78.041-78.37 78.36-1.112-13.648-4.084-24.721-1.67-41.75 2.81-20.35 12.17-39.46 27-54.29l17.68-17.68 23.56 7.72L311.55 129.395z" fill="#ffffff" class="colordfe8eb svgShape"></path>
      <path d="M300.94,55.145l-6.065,16.235l-15.145,4.975l-10.61-10.6c-5.86-5.86-5.86-15.36,0-21.22
			c5.823-5.823,15.327-5.883,21.21,0L300.94,55.145z" fill="#c7a35b" class="colorc7865b svgShape"></path>
      <polygon points="506 260.205 484.79 281.415 329.22 125.855 332 109.505 350.44 104.645" fill="#c7a35b" class="colorc7865b svgShape"></polygon>
      <path d="M361.04,94.035c-0.12,0.12-42.209,42.219-42.42,42.43c-15.378-15.378-34.155-34.155-49.5-49.5
			c14.85-14.85,27.632-27.632,42.43-42.43C313.361,46.346,356.964,89.961,361.04,94.035z" fill="#b38b3c" class="colorb36d3c svgShape"></path>
      <g fill="#000000" class="color000000 svgShape">
        <path d="M46 441.005c-11.028 0-20 8.972-20 20s8.972 20 20 20 20-8.972 20-20S57.028 441.005 46 441.005zM46 471.005c-5.514 0-10-4.486-10-10s4.486-10 10-10 10 4.486 10 10S51.514 471.005 46 471.005zM96 441.005c-11.028 0-20 8.972-20 20s8.972 20 20 20 20-8.972 20-20S107.028 441.005 96 441.005zM96 471.005c-5.514 0-10-4.486-10-10s4.486-10 10-10 10 4.486 10 10S101.514 471.005 96 471.005zM146 441.005c-11.028 0-20 8.972-20 20s8.972 20 20 20 20-8.972 20-20S157.028 441.005 146 441.005zM146 471.005c-5.514 0-10-4.486-10-10s4.486-10 10-10 10 4.486 10 10S151.514 471.005 146 471.005zM311 456.005H191c-2.762 0-5 2.238-5 5s2.238 5 5 5h120c2.762 0 5-2.238 5-5S313.762 456.005 311 456.005zM46 316.005c-11.028 0-20 8.972-20 20s8.972 20 20 20 20-8.972 20-20S57.028 316.005 46 316.005zM46 346.005c-5.514 0-10-4.486-10-10s4.486-10 10-10 10 4.486 10 10S51.514 346.005 46 346.005zM96 316.005c-11.028 0-20 8.972-20 20s8.972 20 20 20 20-8.972 20-20S107.028 316.005 96 316.005zM96 346.005c-5.514 0-10-4.486-10-10s4.486-10 10-10 10 4.486 10 10S101.514 346.005 96 346.005zM146 316.005c-11.028 0-20 8.972-20 20s8.972 20 20 20 20-8.972 20-20S157.028 316.005 146 316.005zM146 346.005c-5.514 0-10-4.486-10-10s4.486-10 10-10 10 4.486 10 10S151.514 346.005 146 346.005zM311 331.005H191c-2.762 0-5 2.238-5 5s2.238 5 5 5h120c2.762 0 5-2.238 5-5S313.762 331.005 311 331.005zM46 191.005c-11.028 0-20 8.972-20 20s8.972 20 20 20 20-8.972 20-20S57.028 191.005 46 191.005zM46 221.005c-5.514 0-10-4.486-10-10s4.486-10 10-10 10 4.486 10 10S51.514 221.005 46 221.005zM96 191.005c-11.028 0-20 8.972-20 20s8.972 20 20 20 20-8.972 20-20S107.028 191.005 96 191.005zM96 221.005c-5.514 0-10-4.486-10-10s4.486-10 10-10 10 4.486 10 10S101.514 221.005 96 221.005zM146 191.005c-11.028 0-20 8.972-20 20s8.972 20 20 20 20-8.972 20-20S157.028 191.005 146 191.005zM146 221.005c-5.514 0-10-4.486-10-10s4.486-10 10-10 10 4.486 10 10S151.514 221.005 146 221.005z" fill="#000000" class="color000000 svgShape"></path>
        <path d="M509.535,256.67L357.507,104.642l7.071-7.071c1.953-1.952,1.953-5.118,0-7.07l-3.536-3.536l74.83-74.829
				c2.963-2.961,1.174-8.042-2.983-8.505l-18.094-2.011c-30.464-3.385-60.363,7.104-82.036,28.777l-14.142,14.142l-3.536-3.536
				c-1.951-1.953-5.119-1.953-7.07,0l-7.071,7.071l-7.072-7.071c-3.777-3.778-8.8-5.858-14.143-5.858
				c-17.769,0-26.66,21.623-14.142,34.142l7.071,7.071l-7.071,7.071c-1.95,1.948-1.955,5.117,0,7.07l3.536,3.536
				c-7.274,8.958-34.589,26.742-41.916,66.97H25c-13.233,0-24,10.767-24,24v52c0,11.87,8.665,21.75,20,23.66v25.68
				c-11.335,1.911-20,11.79-20,23.66v52c0,11.87,8.665,21.75,20,23.66v25.68c-11.335,1.911-20,11.79-20,23.66v52
				c0,13.233,10.767,24,24,24h292c13.233,0,24-10.767,24-24v-52c0-11.87-8.665-21.75-20-23.66v-25.68
				c11.335-1.911,20-11.79,20-23.66v-52c0-11.87-8.665-21.75-20-23.66v-25.68c11.335-1.911,20-11.79,20-23.66v-52
				c0-13.233-10.767-24-24-24h-29.998l24.543-24.543c2.832,2.465,3.914,5,7.071,5c3.385,0,4.158-2.605,10.607-8.537l152.029,152.029
				c1.948,1.95,5.117,1.955,7.07,0l21.213-21.214C511.488,261.788,511.488,258.622,509.535,256.67z M272.654,48.073
				c3.911-3.909,10.235-3.907,14.143,0.001l7.071,7.07l-14.143,14.142l-7.071-7.07C268.756,58.317,268.756,51.973,272.654,48.073z
				 M311,286.005H31v-25h280V286.005z M311,411.005H31v-25h280V411.005z M331,435.005v52c0,7.72-6.28,14-14,14H25
				c-7.72,0-14-6.28-14-14v-52c0-7.72,6.28-14,14-14c12.338,0,278.506,0,292,0C324.72,421.005,331,427.285,331,435.005z
				 M331,310.005v52c0,7.72-6.28,14-14,14c-41.999,0-265.303,0-292,0c-7.72,0-14-6.28-14-14v-52c0-7.72,6.28-14,14-14
				c41.999,0,265.303,0,292,0C324.72,296.005,331,302.285,331,310.005z M317,171.005c7.72,0,14,6.28,14,14v52c0,7.72-6.28,14-14,14
				c-41.999,0-265.303,0-292,0c-7.72,0-14-6.28-14-14v-52c0-7.72,6.28-14,14-14h200.898c-1.123,14.148,0.972,22.853,2.057,35H191
				c-2.762,0-5,2.238-5,5s2.238,5,5,5h120c2.762,0,5-2.238,5-5s-2.238-5-5-5h-68.998l35-35H317z M237.001,196.864
				c0.234-2.625-10.436-46.132,25.047-81.616l14.143-14.142l28.284,28.284L237.001,196.864z M339.829,37.467
				c35.634-35.634,78.852-24.801,81.616-25.047l-67.474,67.473L325.688,51.61L339.829,37.467z M318.616,129.391L276.19,86.964
				l35.355-35.354l42.426,42.426L318.616,129.391z M484.787,274.348L336.295,125.856l14.142-14.143l148.492,148.492L484.787,274.348
				z" fill="#000000" class="color000000 svgShape"></path>
        <path d="M315.082 69.287c-1.953-1.953-5.12-1.952-7.071-.001l-14.143 14.142c-1.953 1.953-1.953 5.119-.001 7.071 1.953 1.953 5.12 1.953 7.071.001l14.143-14.142C317.034 74.405 317.034 71.239 315.082 69.287zM332.76 86.965c-1.953-1.953-5.12-1.952-7.071-.001l-14.143 14.142c-1.953 1.953-1.953 5.119-.001 7.071 1.953 1.953 5.12 1.953 7.071.001l14.143-14.142C334.712 92.083 334.712 88.917 332.76 86.965zM151 146.005c9.299 0 17.113-6.388 19.342-15H206c2.762 0 5-2.238 5-5s-2.238-5-5-5h-35.658c-2.229-8.612-10.043-15-19.342-15-11.028 0-20 8.972-20 20S139.972 146.005 151 146.005zM151 116.005c5.514 0 10 4.486 10 10s-4.486 10-10 10-10-4.486-10-10S145.486 116.005 151 116.005zM176 60.347v15.658c0 1.326.526 2.598 1.465 3.535l30 30c1.951 1.953 5.119 1.953 7.07 0 1.953-1.952 1.953-5.118 0-7.07L186 73.934V60.347c8.612-2.229 15-10.043 15-19.342 0-11.028-8.972-20-20-20s-20 8.972-20 20C161 50.304 167.388 58.118 176 60.347zM181 31.005c5.514 0 10 4.486 10 10s-4.486 10-10 10-10-4.486-10-10S175.486 31.005 181 31.005z" fill="#000000" class="color000000 svgShape"></path>
      </g>
    </g>
  </g>
</svg>
