<svg xmlns="http://www.w3.org/2000/svg" xml:space="preserve" viewBox="0 0 512 512" enable-background="new 0 0 512 512" id="11331580">
  <g id="_x34_0_x2C__data_privacy_x2C__document_x2C__personal_information_x2C__data_storage_x2C__safety_x2C__secure" fill="#000000" class="color000000 svgShape">
    <g fill="#000000" class="color000000 svgShape">
      <polygon points="91 21 91 143.5 133 206 416 61 416 21" fill="#f5cd7e" class="color7ed7f5 svgShape"></polygon>
      <path d="M446,126l-47.5,311v16.5l24,32.5l29.75,4.729L461,491c24.85,0,45-20.15,45-45V126H446z" fill="#e6bd6b" class="colore6986b svgShape"></path>
      <path d="M131,61v107.5l-2.667,47.5L416,441h30c0-15.023,0-361.617,0-380C427.351,61,145.513,61,131,61z" fill="#ffffff" class="colordfe8eb svgShape"></path>
      <rect width="225" height="40" x="176" y="91" fill="#575757" class="color495f66 svgShape"></rect>
      <path d="M148.5,186c-10.73-10.73-35.884-35.884-42.5-42.5c-22.712,0-79.421,0-100,0V416l227.5,18.5L416,416
			V186H148.5z" fill="#f6c25b" class="colorf6df5b svgShape"></path>
      <path d="M276,247.33v40.44c0,36.12-18.96,69.6-49.93,88.19L211,385l-15.07-9.04
			C164.96,357.37,146,323.89,146,287.77v-40.44c17.3,0,31.33-14.03,31.33-31.33h67.34C244.67,233.3,258.7,247.33,276,247.33z" fill="#c8ab71" class="color71c880 svgShape"></path>
      <path d="M461,491H70.2C34.74,491,6,462.26,6,426.8V416h410c0,11.232,0,19.12,0,30
			C416,470.863,436.159,491,461,491z" fill="#ffb729" class="coloreec158 svgShape"></path>
      <path d="M256,263.27v24.5c0,51.874-44.286,73.196-45,73.91c-0.608-0.608-45-22.306-45-73.91v-24.5
			c12.25-5.2,22.07-15.02,27.27-27.27h35.46C233.93,248.25,243.75,258.07,256,263.27z" fill="#ffffff" class="colordfe8eb svgShape"></path>
      <g fill="#000000" class="color000000 svgShape">
        <path d="M212.035,311.535l22.5-22.5c1.953-1.952,1.953-5.118,0-7.07c-1.951-1.953-5.119-1.953-7.07,0L208.5,300.929l-8.965-8.964
				c-1.951-1.953-5.119-1.953-7.07,0c-1.953,1.952-1.953,5.118,0,7.07l12.5,12.5C206.916,313.488,210.084,313.488,212.035,311.535z" fill="#000000" class="color000000 svgShape"></path>
        <path d="M193.362,380.248l15.065,9.039c1.584,0.951,3.563,0.95,5.145,0l15.065-9.039C260.936,360.869,281,325.433,281,287.767
				V247.33c0-2.762-2.238-5-5-5c-14.519,0-26.33-11.812-26.33-26.33c0-2.762-2.238-5-5-5h-67.34c-2.762,0-5,2.238-5,5
				c0,14.519-11.812,26.33-26.33,26.33c-2.762,0-5,2.238-5,5v40.437C141,325.433,161.064,360.869,193.362,380.248z M151,251.987
				c16.041-2.218,28.77-14.946,30.987-30.987h58.025c2.218,16.041,14.946,28.77,30.987,30.987v35.779
				c0,34.174-18.204,66.324-47.507,83.907L211,379.169l-12.493-7.495C169.204,354.091,151,321.94,151,287.767V251.987z" fill="#000000" class="color000000 svgShape"></path>
        <path d="M203.652,363.098c4.201,2.328,5.122,3.578,7.348,3.578c2.223,0,3.195-1.277,7.348-3.578
				C244.656,347.313,261,318.448,261,287.768v-24.494c0-2.006-1.199-3.817-3.045-4.602c-10.985-4.666-19.961-13.643-24.626-24.627
				c-0.784-1.846-2.597-3.045-4.603-3.045h-35.453c-2.006,0-3.818,1.199-4.603,3.045c-4.665,10.985-13.641,19.961-24.626,24.626
				c-1.846,0.784-3.045,2.597-3.045,4.603v24.494C161,318.448,177.344,347.313,203.652,363.098z M171,266.471
				c10.953-5.463,20.008-14.518,25.471-25.471h29.059c5.463,10.953,14.517,20.008,25.471,25.471v21.297
				c0,27.188-14.483,52.768-37.797,66.756L211,355.845l-2.203-1.321C185.483,340.535,171,314.956,171,287.768V266.471z" fill="#000000" class="color000000 svgShape"></path>
        <path d="M506,121h-55V61c0-2.762-2.238-5-5-5h-25V21c0-2.762-2.238-5-5-5H91c-2.762,0-5,2.238-5,5v117.5H6c-2.762,0-5,2.238-5,5
				v283.3C1,464.957,32.043,496,70.2,496H461c27.57,0,50-22.43,50-50V126C511,123.238,508.762,121,506,121z M441,436h-20V186
				c0-2.762-2.238-5-5-5H150.571L136,166.429V66h305V436z M96,26h315v30H131c-2.762,0-5,2.238-5,5v95.429l-16.465-16.464
				c-2.393-2.396-4.796-1.1-13.535-1.465V26z M103.929,148.5c27.768,27.768,13.372,13.372,41.036,41.035
				c2.788,2.791-12.368,0.912,266.035,1.465v220H11V148.5H103.929z M70.2,486C37.557,486,11,459.443,11,426.8V421h400v25
				c0,16.338,7.876,30.87,20.031,40H70.2z M461,486c-22.056,0-40-17.944-40-40h25c2.762,0,5-2.238,5-5V131h50v315
				C501,468.056,483.056,486,461,486z" fill="#000000" class="color000000 svgShape"></path>
        <path d="M401 86H176c-2.762 0-5 2.238-5 5v40c0 2.762 2.238 5 5 5h225c2.762 0 5-2.238 5-5V91C406 88.238 403.762 86 401 86zM396 126H181V96h215V126zM341 151H176c-2.762 0-5 2.238-5 5s2.238 5 5 5h165c2.762 0 5-2.238 5-5S343.762 151 341 151zM401 151h-30c-2.762 0-5 2.238-5 5s2.238 5 5 5h30c2.762 0 5-2.238 5-5S403.762 151 401 151z" fill="#000000" class="color000000 svgShape"></path>
      </g>
    </g>
  </g>
</svg>
