<svg xmlns="http://www.w3.org/2000/svg" xml:space="preserve" viewBox="0 0 512 512" enable-background="new 0 0 512 512" id="11331547">
  <g id="_x30_7_x2C__digital_key_x2C__security_x2C__interface_x2C__password_x2C__business_and_finance_x2C__key" fill="#000000" class="color000000 svgShape">
    <g fill="#000000" class="color000000 svgShape">
      <path d="M256,150.875L291,161c0,24.497,0,155.7,0,185l-13.28,13.28L291,372.57V401l-15,15l15,15
			c0,8.671,0,16.302,0,25l-35,50l-35-50c0-82.294,0-195.827,0-295L256,150.875z" fill="#ffffff" class="colordfe8eb svgShape"></path>
      <circle cx="446" cy="206" r="20" fill="#e6b85e" class="colorbde65e svgShape"></circle>
      <circle cx="391" cy="251" r="20" fill="#ffb729" class="colorf6df5b svgShape"></circle>
      <circle cx="351" cy="321" r="20" fill="#e1b359" class="colore17559 svgShape"></circle>
      <circle cx="391" cy="441" r="20" fill="#ffb729" class="colorf6df5b svgShape"></circle>
      <circle cx="446" cy="486" r="20" fill="#e6b85e" class="colorbde65e svgShape"></circle>
      <circle cx="66" cy="486" r="20" fill="#e6b85e" class="colorbde65e svgShape"></circle>
      <circle cx="121" cy="441" r="20" fill="#ffb729" class="colorf6df5b svgShape"></circle>
      <circle cx="161" cy="321" r="20" fill="#e1b359" class="colore17559 svgShape"></circle>
      <circle cx="66" cy="206" r="20" fill="#e6b85e" class="colorbde65e svgShape"></circle>
      <circle cx="121" cy="251" r="20" fill="#ffb729" class="colorf6df5b svgShape"></circle>
      <path d="M326,126.5V161c-79.625,0-60.884,0-140,0v-34.5H326z" fill="#f2e6ce" class="colorcee0f2 svgShape"></path>
      <path d="M361,28.83v84.34c0,12.61-10.22,22.83-22.83,22.83c-17.922,0-144.534,0-164.34,0
			c-12.61,0-22.83-10.22-22.83-22.83V28.83C151,16.22,161.22,6,173.83,6h164.34C350.78,6,361,16.22,361,28.83z M276,31h-40
			c-4.14,0-7.89,1.68-10.6,4.4C216.021,44.744,222.604,61,236,61h40c4.14,0,7.89-1.68,10.6-4.4C295.979,47.256,289.396,31,276,31z" fill="#575757" class="color495f66 svgShape"></path>
      <g fill="#000000" class="color000000 svgShape">
        <path d="M236,66h40c11.028,0,20-8.972,20-20s-8.972-20-20-20h-40c-11.028,0-20,8.972-20,20S224.972,66,236,66z M236,36h40
				c5.514,0,10,4.486,10,10s-4.486,10-10,10h-40c-5.514,0-10-4.486-10-10S230.486,36,236,36z" fill="#000000" class="color000000 svgShape"></path>
        <path d="M446,461c-12.073,0-22.174,8.603-24.497,20h-69.67c-8.73,0-15.833-7.103-15.833-15.833V446h30.503
				c2.323,11.397,12.424,20,24.497,20c13.785,0,25-11.215,25-25s-11.215-25-25-25c-12.073,0-22.174,8.603-24.497,20H296v-5
				c0-1.326-0.526-2.598-1.465-3.535L283.071,416l11.464-11.465c0.938-0.938,1.465-2.209,1.465-3.535v-28.432
				c0-1.326-0.526-2.598-1.465-3.535l-9.748-9.749l9.748-9.749c1.421-1.42,1.632,0.296,1.569-23.535h30.399
				c2.323,11.397,12.424,20,24.497,20c13.785,0,25-11.215,25-25s-11.215-25-25-25c-12.073,0-22.174,8.603-24.497,20h-30.432
				c-0.051-13.498-0.133-32.672-0.165-60h70.597c2.323,11.397,12.424,20,24.497,20c13.785,0,25-11.215,25-25s-11.215-25-25-25
				c-12.073,0-22.174,8.603-24.497,20H336v-19.167c0-8.73,7.103-15.833,15.833-15.833h69.67c2.323,11.397,12.424,20,24.497,20
				c13.785,0,25-11.215,25-25s-11.215-25-25-25c-12.073,0-22.174,8.603-24.497,20h-69.67C337.589,201,326,212.589,326,226.833V246
				h-30.103c-0.014-21.696,0.005-48.025,0.089-80H326c2.762,0,5-2.238,5-5v-20h7.167C353.514,141,366,128.514,366,113.167V28.833
				C366,13.486,353.514,1,338.167,1H173.833C158.486,1,146,13.486,146,28.833v84.334C146,128.514,158.486,141,173.833,141H181v20
				c0,2.762,2.238,5,5,5h30v80h-30v-19.167C186,212.589,174.411,201,160.167,201h-69.67C88.174,189.603,78.073,181,66,181
				c-13.785,0-25,11.215-25,25s11.215,25,25,25c12.073,0,22.174-8.603,24.497-20h69.67c8.73,0,15.833,7.103,15.833,15.833V246
				h-30.503c-2.323-11.397-12.424-20-24.497-20c-13.785,0-25,11.215-25,25s11.215,25,25,25c12.073,0,22.174-8.603,24.497-20H216v60
				h-30.503c-2.323-11.397-12.424-20-24.497-20c-13.785,0-25,11.215-25,25s11.215,25,25,25c12.073,0,22.174-8.603,24.497-20H216v110
				h-70.503c-2.323-11.397-12.424-20-24.497-20c-13.785,0-25,11.215-25,25s11.215,25,25,25c12.073,0,22.174-8.603,24.497-20H176
				v19.167c0,8.73-7.103,15.833-15.833,15.833h-69.67C88.174,469.603,78.073,461,66,461c-13.785,0-25,11.215-25,25s11.215,25,25,25
				c12.073,0,22.174-8.603,24.497-20h69.67C174.411,491,186,479.411,186,465.167V446h30v10c0,2.89-0.079,0.911,35.904,52.867
				c1.99,2.843,6.204,2.839,8.191,0C295.87,457.213,296,458.968,296,456v-10h30v19.167C326,479.411,337.589,491,351.833,491h69.67
				c2.323,11.397,12.424,20,24.497,20c13.785,0,25-11.215,25-25S459.785,461,446,461z M351,306c8.271,0,15,6.729,15,15
				s-6.729,15-15,15s-15-6.729-15-15S342.729,306,351,306z M446,191c8.271,0,15,6.729,15,15s-6.729,15-15,15s-15-6.729-15-15
				S437.729,191,446,191z M391,236c8.271,0,15,6.729,15,15s-6.729,15-15,15s-15-6.729-15-15S382.729,236,391,236z M66,221
				c-8.271,0-15-6.729-15-15s6.729-15,15-15s15,6.729,15,15S74.271,221,66,221z M121,266c-8.271,0-15-6.729-15-15s6.729-15,15-15
				s15,6.729,15,15S129.271,266,121,266z M161,336c-8.271,0-15-6.729-15-15s6.729-15,15-15s15,6.729,15,15S169.271,336,161,336z
				 M66,501c-8.271,0-15-6.729-15-15s6.729-15,15-15s15,6.729,15,15S74.271,501,66,501z M121,456c-8.271,0-15-6.729-15-15
				s6.729-15,15-15s15,6.729,15,15S129.271,456,121,456z M156,113.167V28.833C156,19,164,11,173.833,11h164.334
				C348,11,356,19,356,28.833v84.334C356,123,348,131,338.167,131H326H186h-12.167C164,131,156,123,156,113.167z M191,141h130v15
				h-30h-70h-30V141z M286,454.424l-30,42.857l-30-42.857V166h15v145c0,2.762,2.238,5,5,5s5-2.238,5-5V166h35v177.929l-11.819,11.82
				c-1.953,1.952-1.953,5.118,0,7.07L286,374.64v24.289l-13.535,13.536c-1.953,1.952-1.953,5.118,0,7.07L286,433.071V454.424z
				 M391,426c8.271,0,15,6.729,15,15s-6.729,15-15,15s-15-6.729-15-15S382.729,426,391,426z M446,501c-8.271,0-15-6.729-15-15
				s6.729-15,15-15s15,6.729,15,15S454.271,501,446,501z" fill="#000000" class="color000000 svgShape"></path>
        <path d="M246,331c-2.762,0-5,2.238-5,5v15c0,2.762,2.238,5,5,5s5-2.238,5-5v-15C251,333.238,248.762,331,246,331z" fill="#000000" class="color000000 svgShape"></path>
      </g>
    </g>
  </g>
</svg>
