<svg xmlns="http://www.w3.org/2000/svg" xml:space="preserve" viewBox="0 0 512 512" enable-background="new 0 0 512 512" id="11331549">
  <g id="_x30_9_x2C__Digital_Wallet_x2C__currency_x2C__wallet_x2C__digital_money_x2C__blockchain_x2C__business_and_finance" fill="#000000" class="color000000 svgShape">
    <g fill="#000000" class="color000000 svgShape">
      <path d="M471,291h-22.5l-19.625,26.375L448.5,336l28.667,9.667c11.59,0,14.963-18.427,16.193-29.687
			C494.843,302.646,484.397,291,471,291z" fill="#ffb729" class="coloreec158 svgShape"></path>
      <path d="M394.6,141H78.5c-33.14,0-60,26.86-60,60c0,16.57,2.317,41.473,13.167,52.333
			C42.527,264.183,62.43,274,79,274l369.5,40.9c0-15.253,0-105.299,0-120C448.5,165.13,424.37,141,394.6,141z" fill="#ffffff" class="color995e34 svgShape"></path>
      <path d="M394.6,261c-62.951,0-192.47,0-301.1,0L62.333,379.333L93.5,491h309.9
			c24.91,0,45.1-20.19,45.1-45.1v-131C448.5,285.13,424.37,261,394.6,261z" fill="#c7a35b" class="colorc7865b svgShape"></path>
      <path d="M93.5,491H63.6c-24.91,0-45.1-20.19-45.1-45.1V201c0,33.138,26.859,60,60,60h15
			C93.5,342.344,93.5,409.631,93.5,491z" fill="#b38b3c" class="colorb36d3c svgShape"></path>
      <path d="M292.87 141c-2.22 8.63-10.05 15-19.37 15-11.071 0-20-8.974-20-20 0-11.05 8.95-20 20-20C286.56 116 296.121 128.314 292.87 141zM212.87 141c-2.22 8.63-10.05 15-19.37 15-11.071 0-20-8.974-20-20 0-11.05 8.95-20 20-20C206.56 116 216.121 128.314 212.87 141z" fill="#e6b85e" class="colorbde65e svgShape"></path>
      <circle cx="328.5" cy="96" r="20" fill="#e1b359" class="colore17559 svgShape"></circle>
      <circle cx="138.5" cy="96" r="20" fill="#e1b359" class="colore17559 svgShape"></circle>
      <circle cx="373.5" cy="41" r="20" fill="#f6c25b" class="colorf6df5b svgShape"></circle>
      <circle cx="93.5" cy="41" r="20" fill="#f6c25b" class="colorf6df5b svgShape"></circle>
      <path d="M493.5,316v63.9c0,19.94-16.16,36.1-36.1,36.1c-2.719,0-21.918,0-28.9,0c-22.09,0-40-17.91-40-40
			c0-22.079,17.919-40,40-40c14.228,0,27.001,0,42.5,0c11.59,0,21.13-8.76,22.36-20.02L493.5,316z" fill="#f6c25b" class="colorf6df5b svgShape"></path>
      <circle cx="428.5" cy="376" r="15" fill="#ffb729" class="coloreec158 svgShape"></circle>
      <g fill="#000000" class="color000000 svgShape">
        <path d="M471,286h-17.5v-91.1c0-32.478-26.423-58.9-58.9-58.9h-16.1V65.497c11.397-2.323,20-12.424,20-24.497
				c0-13.785-11.215-25-25-25s-25,11.215-25,25c0,12.073,8.603,22.174,20,24.497V136h-35v-15.503c11.397-2.323,20-12.424,20-24.497
				c0-13.785-11.215-25-25-25s-25,11.215-25,25c0,12.073,8.603,22.174,20,24.497V136h-25c0-13.785-11.215-25-25-25s-25,11.215-25,25
				h-30c0-13.785-11.215-25-25-25s-25,11.215-25,25h-25v-15.503c11.397-2.323,20-12.424,20-24.497c0-13.785-11.215-25-25-25
				s-25,11.215-25,25c0,12.073,8.603,22.174,20,24.497V136h-35V65.497c11.397-2.323,20-12.424,20-24.497c0-13.785-11.215-25-25-25
				s-25,11.215-25,25c0,12.073,8.603,22.174,20,24.497V136h-10c-35.841,0-65,29.159-65,65v244.9c0,27.625,22.475,50.1,50.1,50.1
				H403.4c27.625,0,50.1-22.475,50.1-50.1V421h3.9c22.662,0,41.1-18.438,41.1-41.1c0-9.59,0-53.058,0-66.4
				C498.5,298.337,486.163,286,471,286z M358.5,41c0-8.271,6.729-15,15-15s15,6.729,15,15s-6.729,15-15,15S358.5,49.271,358.5,41z
				 M313.5,96c0-8.271,6.729-15,15-15s15,6.729,15,15s-6.729,15-15,15S313.5,104.271,313.5,96z M123.5,96c0-8.271,6.729-15,15-15
				s15,6.729,15,15s-6.729,15-15,15S123.5,104.271,123.5,96z M78.5,41c0-8.271,6.729-15,15-15s15,6.729,15,15s-6.729,15-15,15
				S78.5,49.271,78.5,41z M443.5,194.9v87.205C432.914,266.372,414.946,256,394.6,256h-61.1v-85h19.167
				c13.965,0,25.37-11.141,25.812-25H394.6C421.563,146,443.5,167.937,443.5,194.9z M368.458,146c-0.437,8.342-7.342,15-15.791,15
				H333.5v-15H368.458z M323.5,146v110h-45v-95.503c8.042-1.639,14.688-7.152,17.906-14.497H323.5z M273.5,121
				c8.271,0,15,6.729,15,15s-6.729,15-15,15s-15-6.729-15-15S265.229,121,273.5,121z M250.594,146
				c3.219,7.344,9.865,12.858,17.906,14.497V256h-70v-95.503c8.042-1.639,14.688-7.152,17.906-14.497H250.594z M193.5,121
				c8.271,0,15,6.729,15,15s-6.729,15-15,15s-15-6.729-15-15S185.229,121,193.5,121z M170.594,146
				c3.219,7.344,9.865,12.858,17.906,14.497V256h-45V146H170.594z M133.5,161h-19.167c-8.449,0-15.354-6.658-15.791-15H133.5V161z
				 M78.5,146h10.021c0.442,13.859,11.847,25,25.812,25H133.5v85h-55c-30.513,0-55-24.724-55-55C23.5,170.673,48.173,146,78.5,146z
				 M23.5,445.9V235.651C35.031,253.918,55.391,266,78.5,266h10v220H63.6C41.488,486,23.5,468.012,23.5,445.9z M443.5,445.9
				c0,22.111-17.988,40.1-40.1,40.1H98.5v-35h260c2.762,0,5-2.238,5-5s-2.238-5-5-5h-260V311h260c2.762,0,5-2.238,5-5s-2.238-5-5-5
				h-260v-35h296.1c26.964,0,48.9,21.937,48.9,48.9c0,5.793,0,10.548,0,16.1h-15c-24.813,0-45,20.187-45,45s20.187,45,45,45h15
				V445.9z M488.5,379.9c0,17.148-13.951,31.1-31.1,31.1h-28.9c-19.299,0-35-15.701-35-35s15.701-35,35-35H471
				c6.643,0,12.742-2.367,17.5-6.302V379.9z M471,331h-17.5c0-8.179,0-26.914,0-35H471c9.649,0,17.5,7.851,17.5,17.5
				S480.649,331,471,331z" fill="#000000" class="color000000 svgShape"></path>
        <path d="M428.5,356c-11.028,0-20,8.972-20,20s8.972,20,20,20s20-8.972,20-20S439.528,356,428.5,356z M428.5,386
				c-5.514,0-10-4.486-10-10s4.486-10,10-10s10,4.486,10,10S434.014,386,428.5,386z" fill="#000000" class="color000000 svgShape"></path>
      </g>
    </g>
  </g>
</svg>
