<svg xmlns="http://www.w3.org/2000/svg" xml:space="preserve" viewBox="0 0 512 512" enable-background="new 0 0 512 512" id="11331565">
  <g id="_x32_5_x2C__digital_signature_x2C__online_x2C__computer_x2C__coding_x2C__digital_x2C__agreement" fill="#000000" class="color000000 svgShape">
    <g fill="#000000" class="color000000 svgShape">
      <path d="m341 456-82.5 12.5L171 456l3.58-1.43C202.61 443.35 221 416.2 221 386l32.667-15.833L291 386c0 30.2 18.39 57.35 46.42 68.57L341 456zM462.4 66H49.6C25.52 66 6 85.52 6 109.6V331l250 25.5L506 331V109.6C506 85.52 486.48 66 462.4 66z" fill="#575757" class="color495f66 svgShape"></path>
      <rect width="430" height="238.5" x="41" y="101" fill="#ffffff" class="colordfe8eb svgShape"></rect>
      <path d="M431,481H86c0-13.824,11.2-25,25-25c7.176,0,293.942,0,295,0C419.81,456,431,467.19,431,481z" fill="#464646" class="color3b4a51 svgShape"></path>
      <circle cx="431" cy="156" r="15" fill="#e1b359" class="colore17559 svgShape"></circle>
      <circle cx="81" cy="156" r="15" fill="#e1b359" class="colore17559 svgShape"></circle>
      <circle cx="431" cy="276" r="15" fill="#e6b85e" class="colorbde65e svgShape"></circle>
      <circle cx="81" cy="276" r="15" fill="#e6b85e" class="colorbde65e svgShape"></circle>
      <circle cx="81" cy="216" r="15" fill="#ffb729" class="colorf6df5b svgShape"></circle>
      <circle cx="431" cy="216" r="15" fill="#ffb729" class="colorf6df5b svgShape"></circle>
      <path d="M146,31c0,10.125,0,291.08,0,312.333h220c0-15.319,0-297.494,0-312.333H146z" fill="#f5cd7e" class="color7ed7f5 svgShape"></path>
      <rect width="70" height="75" x="171" y="56" fill="#ffb729" class="colorf6df5b svgShape"></rect>
      <path d="M506,331v11.4c0,24.08-19.52,43.6-43.6,43.6c-15.952,0-391.684,0-412.8,0
			C25.52,386,6,366.48,6,342.4V331C42.848,331,488.142,331,506,331z" fill="#464646" class="color3b4a51 svgShape"></path>
      <g fill="#000000" class="color000000 svgShape">
        <path d="M462.4,61H371V31c0-2.762-2.238-5-5-5H146c-2.762,0-5,2.238-5,5v30H49.6C22.802,61,1,82.802,1,109.6V342.4
				C1,369.198,22.802,391,49.6,391h166.218c-1.87,26.241-18.365,49.034-43.099,58.927L170.036,451H111c-16.542,0-30,13.458-30,30
				c0,2.762,2.238,5,5,5h345c2.762,0,5-2.238,5-5c0-16.542-13.458-30-30-30h-64.036l-2.684-1.073
				c-24.733-9.893-41.228-32.686-43.098-58.927H462.4c26.798,0,48.6-21.802,48.6-48.6V109.6C511,82.802,489.198,61,462.4,61z
				 M462.4,71c21.284,0,38.6,17.315,38.6,38.6V326h-25V101c0-2.762-2.238-5-5-5H371V71H462.4z M371,301h20c2.762,0,5-2.238,5-5v-15
				h15.658c2.229,8.612,10.043,15,19.342,15c11.028,0,20-8.972,20-20s-8.972-20-20-20c-9.299,0-17.113,6.388-19.342,15H391
				c-2.762,0-5,2.238-5,5v15h-15V141h15v15c0,2.762,2.238,5,5,5h20.658c2.229,8.612,10.043,15,19.342,15c11.028,0,20-8.972,20-20
				s-8.972-20-20-20c-9.299,0-17.113,6.388-19.342,15H396v-15c0-2.762-2.238-5-5-5h-20v-25h95v220h-95V301z M421,276
				c0-5.514,4.486-10,10-10s10,4.486,10,10s-4.486,10-10,10S421,281.514,421,276z M421,156c0-5.514,4.486-10,10-10s10,4.486,10,10
				s-4.486,10-10,10S421,161.514,421,156z M151,36h210v290H151V36z M46,326V106h95v25h-20c-2.762,0-5,2.238-5,5v15h-15.658
				c-2.229-8.612-10.043-15-19.342-15c-11.028,0-20,8.972-20,20s8.972,20,20,20c9.299,0,17.113-6.388,19.342-15H121
				c2.762,0,5-2.238,5-5v-15h15v150h-15v-15c0-2.762-2.238-5-5-5h-20.658c-2.229-8.612-10.043-15-19.342-15
				c-11.028,0-20,8.972-20,20s8.972,20,20,20c9.299,0,17.113-6.388,19.342-15H116v15c0,2.762,2.238,5,5,5h20v25H46z M91,156
				c0,5.514-4.486,10-10,10s-10-4.486-10-10s4.486-10,10-10S91,150.486,91,156z M91,276c0,5.514-4.486,10-10,10s-10-4.486-10-10
				s4.486-10,10-10S91,270.486,91,276z M49.6,71H141v25H41c-2.762,0-5,2.238-5,5v225H11V109.6C11,88.315,28.315,71,49.6,71z
				 M425.367,476H91.633c2.226-8.616,10.065-15,19.367-15c9.622,0,285.462,0,295,0C415.302,461,423.142,467.384,425.367,476z
				 M320.169,451H191.831c19.835-13.559,32.479-35.5,34.002-60h60.335C287.69,415.5,300.334,437.441,320.169,451z M462.4,381H49.6
				C28.315,381,11,363.685,11,342.4V336c15.744,0,455.328,0,490,0v6.4C501,363.685,483.685,381,462.4,381z" fill="#000000" class="color000000 svgShape"></path>
        <path d="M431 196c-9.299 0-17.113 6.388-19.342 15H391c-2.762 0-5 2.238-5 5s2.238 5 5 5h20.658c2.229 8.612 10.043 15 19.342 15 11.028 0 20-8.972 20-20S442.028 196 431 196zM431 226c-5.514 0-10-4.486-10-10s4.486-10 10-10 10 4.486 10 10S436.514 226 431 226zM81 236c9.299 0 17.113-6.388 19.342-15H121c2.762 0 5-2.238 5-5s-2.238-5-5-5h-20.658c-2.229-8.612-10.043-15-19.342-15-11.028 0-20 8.972-20 20S69.972 236 81 236zM81 206c5.514 0 10 4.486 10 10s-4.486 10-10 10-10-4.486-10-10S75.486 206 81 206zM171 136h70c2.762 0 5-2.238 5-5V56c0-2.762-2.238-5-5-5h-70c-2.762 0-5 2.238-5 5v75C166 133.762 168.238 136 171 136zM176 61h60v65h-60V61zM266 61h70c2.762 0 5-2.238 5-5s-2.238-5-5-5h-70c-2.762 0-5 2.238-5 5S263.238 61 266 61zM266 86h70c2.762 0 5-2.238 5-5s-2.238-5-5-5h-70c-2.762 0-5 2.238-5 5S263.238 86 266 86zM266 111h70c2.762 0 5-2.238 5-5s-2.238-5-5-5h-70c-2.762 0-5 2.238-5 5S263.238 111 266 111zM266 136h70c2.762 0 5-2.238 5-5s-2.238-5-5-5h-70c-2.762 0-5 2.238-5 5S263.238 136 266 136zM171 161h165c2.762 0 5-2.238 5-5s-2.238-5-5-5H171c-2.762 0-5 2.238-5 5S168.238 161 171 161zM171 186h165c2.762 0 5-2.238 5-5s-2.238-5-5-5H171c-2.762 0-5 2.238-5 5S168.238 186 171 186zM171 211h165c2.762 0 5-2.238 5-5s-2.238-5-5-5H171c-2.762 0-5 2.238-5 5S168.238 211 171 211zM339.976 285.589c-6.355 1.326-11.27.736-14.607-1.764-4.596-3.444-5.14-9.728-5.142-9.755-.135-2.111-1.583-3.909-3.616-4.49-2.035-.581-4.214.181-5.442 1.901l-4.868 6.815c-3.521-2.394-6.954-4.324-10.285-5.855.207-7.801-2.071-13.91-6.801-18.206-10.813-9.82-30.172-5.17-30.992-4.968-2.677.663-4.307 3.367-3.648 6.045.657 2.678 3.363 4.314 6.044 3.664 4.158-1.014 16.201-2.511 21.886 2.673 1.849 1.686 2.972 4.101 3.364 7.218-13.263-3.256-24.443-.439-32.585 3.476-17.697 8.506-13.926 34.969 5.375 38.121 8.231 1.342 16.158.309 22.784-4.533 6.374-4.657 10.783-12.398 13.144-23.053 3.25 1.722 6.519 3.849 9.803 6.382 2.249 1.734 5.479 1.248 7.122-1.053l2.104-2.945c4.743 8.231 14.019 13.13 28.41 10.114 2.702-.565 4.436-3.215 3.869-5.918C345.329 286.756 342.683 285.025 339.976 285.589zM275.542 297.857c-3.882 2.836-9.019 3.758-15.273 2.737-9.667-1.579-11.53-14.971-2.653-19.24 5.455-2.622 11.017-3.932 16.665-3.932 3.599 0 7.231.531 10.894 1.593C283.438 288.119 280.204 294.449 275.542 297.857zM246 427.5h20c2.762 0 5-2.238 5-5s-2.238-5-5-5h-20c-2.762 0-5 2.238-5 5S243.238 427.5 246 427.5z" fill="#000000" class="color000000 svgShape"></path>
      </g>
    </g>
  </g>
</svg>
