<svg xmlns="http://www.w3.org/2000/svg" xml:space="preserve" viewBox="0 0 512 512" enable-background="new 0 0 512 512" id="11331582">
  <g id="_x34_2_x2C__downtrend_x2C__Recession_x2C__decrease_x2C__graph_x2C__analysis_x2C__business_and_finance" fill="#000000" class="color000000 svgShape">
    <g fill="#000000" class="color000000 svgShape">
      <g fill="#000000" class="color000000 svgShape">
        <g fill="#000000" class="color000000 svgShape">
          <path d="M341 438.5 258.5 451 171 438.5l3.58-1.43C202.61 425.85 221 398.7 221 368.5l32.667-15.833L291 368.5c0 30.2 18.39 57.35 46.42 68.57L341 438.5zM462.4 48.5H49.6C25.52 48.5 6 68.02 6 92.1v221.4L256 339l250-25.5V92.1C506 68.02 486.48 48.5 462.4 48.5z" fill="#575757" class="color495f66 svgShape"></path>
          <rect width="430" height="238.5" x="41" y="83.5" fill="#ffffff" class="colordfe8eb svgShape"></rect>
          <path d="M506 313.5v11.4c0 24.08-19.52 43.6-43.6 43.6-15.952 0-391.684 0-412.8 0C25.52 368.5 6 348.98 6 324.9v-11.4C26.27 313.5 473.623 313.5 506 313.5zM431 463.5H86c0-13.824 11.2-25 25-25 10.638 0 285.357 0 295 0C419.81 438.5 431 449.69 431 463.5z" fill="#464646" class="color3b4a51 svgShape"></path>
        </g>
      </g>
      <path d="M296,210.44v43.06h-30l-10-22.25l10-26.13c3.107,0.679,7.39,1.559,10.9,2.21
			C277.001,207.431,292.737,210.114,296,210.44z" fill="#c7a35b" class="colorc7865b svgShape"></path>
      <path d="M266,205.12v48.38h-30l-9.667-22L236,197.18C244.558,199.886,255.114,202.729,266,205.12z" fill="#d4b371" class="color717ed4 svgShape"></path>
      <path d="M236,197.18v56.32h-30l-5.625-28.16L206,186.2C216.843,190.792,229.542,195.281,236,197.18z" fill="#e6b85e" class="colorbde65e svgShape"></path>
      <path d="M206,186.2v67.3h-30l-5.917-33.65L176,171.46C186.581,177.465,195.822,181.768,206,186.2z" fill="#ffb729" class="colorf6df5b svgShape"></path>
      <path d="M176,253.5h-30l-9.667-36L146,151.75c8.302,6.369,19.987,14.152,30,19.7
			C176,171.45,176,238.272,176,253.5z" fill="#f5cd7e" class="color7ed7f5 svgShape"></path>
      <path d="M146,151.75V253.5h-30v-130C116.1,123.595,125.8,136.404,146,151.75z" fill="#e1b359" class="colore17559 svgShape"></path>
      <g fill="#000000" class="color000000 svgShape">
        <path d="M462.4,43.5H49.6C22.802,43.5,1,65.302,1,92.1V324.9c0,26.798,21.802,48.6,48.6,48.6h166.218
				c-1.87,26.241-18.365,49.034-43.099,58.927l-2.683,1.073H111c-16.542,0-30,13.458-30,30c0,2.762,2.238,5,5,5h345
				c2.762,0,5-2.238,5-5c0-16.542-13.458-30-30-30h-64.036l-2.683-1.073c-24.733-9.893-41.228-32.686-43.098-58.927H462.4
				c26.798,0,48.6-21.802,48.6-48.6V92.1C511,65.302,489.198,43.5,462.4,43.5z M49.6,53.5H462.4c21.284,0,38.6,17.315,38.6,38.6
				v216.4h-25v-225c0-2.762-2.238-5-5-5H41c-2.762,0-5,2.238-5,5v225H11V92.1C11,70.815,28.315,53.5,49.6,53.5z M466,308.5H46v-220
				h420V308.5z M425.367,458.5H91.633c2.226-8.616,10.065-15,19.367-15c17.557,0,284.004,0,295,0
				C415.302,443.5,423.142,449.884,425.367,458.5z M320.169,433.5H191.831c19.835-13.559,32.479-35.5,34.002-60h60.335
				C287.69,398,300.334,419.941,320.169,433.5z M462.4,363.5H49.6c-21.284,0-38.6-17.315-38.6-38.6v-6.4c16.11,0,440.27,0,460,0h30
				v6.4C501,346.185,483.685,363.5,462.4,363.5z" fill="#000000" class="color000000 svgShape"></path>
        <path d="M71,278.5h10v10c0,2.762,2.238,5,5,5s5-2.238,5-5v-10h232.929l-1.465,1.465c-1.953,1.952-1.953,5.118,0,7.07
				c1.951,1.953,5.119,1.953,7.07,0l9.995-9.995c1.942-1.934,1.958-5.13,0-7.08l-9.995-9.995c-1.951-1.953-5.119-1.953-7.07,0
				c-1.953,1.952-1.953,5.118,0,7.07l1.465,1.465H91V120.57l1.465,1.465c1.951,1.953,5.119,1.953,7.07,0
				c1.953-1.952,1.953-5.118,0-7.07l-9.995-9.995c-1.915-1.919-5.107-1.978-7.081,0l-9.995,9.995c-1.953,1.952-1.953,5.118,0,7.07
				c1.951,1.953,5.119,1.953,7.07,0L81,120.57V268.5H71c-2.762,0-5,2.238-5,5S68.238,278.5,71,278.5z" fill="#000000" class="color000000 svgShape"></path>
        <path d="M116 258.5c52.915 0 125.694 0 180 0 2.762 0 5-2.238 5-5v-37.378c4.511.563 9.116 1.063 13.814 1.494l-2.349 2.35c-1.953 1.952-1.953 5.118 0 7.07 1.951 1.953 5.119 1.953 7.07 0l10-10c1.915-1.908 1.913-5.163 0-7.07l-10-10c-1.951-1.953-5.119-1.953-7.07 0-1.953 1.952-1.953 5.118 0 7.07l.356.356c-97.855-9.664-168.346-54.327-192.825-86.897-2.863-3.818-8.996-1.777-8.996 3.006v130C111 256.262 113.238 258.5 116 258.5zM121 136.571c4.701 4.758 11.313 10.873 20 17.643V248.5h-20V136.571zM151 161.607c6.706 4.706 13.211 8.823 20 12.747V248.5h-20V161.607zM181 179.874c6.479 3.412 13.173 6.629 20 9.61V248.5h-20V179.874zM211 193.646c6.507 2.577 13.199 4.982 20 7.188V248.5h-20V193.646zM241 203.908c6.532 1.9 13.225 3.641 20 5.201V248.5h-20V203.908zM291 248.5h-20v-37.231c6.549 1.321 13.242 2.492 20 3.5V248.5zM381 118.5h60c2.762 0 5-2.238 5-5s-2.238-5-5-5h-60c-2.762 0-5 2.238-5 5S378.238 118.5 381 118.5zM346 118.5h10c2.762 0 5-2.238 5-5s-2.238-5-5-5h-10c-2.762 0-5 2.238-5 5S343.238 118.5 346 118.5zM381 143.5h60c2.762 0 5-2.238 5-5s-2.238-5-5-5h-60c-2.762 0-5 2.238-5 5S378.238 143.5 381 143.5zM346 143.5h10c2.762 0 5-2.238 5-5s-2.238-5-5-5h-10c-2.762 0-5 2.238-5 5S343.238 143.5 346 143.5zM381 168.5h60c2.762 0 5-2.238 5-5s-2.238-5-5-5h-60c-2.762 0-5 2.238-5 5S378.238 168.5 381 168.5zM346 168.5h10c2.762 0 5-2.238 5-5s-2.238-5-5-5h-10c-2.762 0-5 2.238-5 5S343.238 168.5 346 168.5zM246 415.5h20c2.762 0 5-2.238 5-5s-2.238-5-5-5h-20c-2.762 0-5 2.238-5 5S243.238 415.5 246 415.5z" fill="#000000" class="color000000 svgShape"></path>
      </g>
    </g>
  </g>
</svg>
