<svg xmlns="http://www.w3.org/2000/svg" xml:space="preserve" viewBox="0 0 512 512" enable-background="new 0 0 512 512" id="11331550">
  <g id="_x31_0_x2C__E_business_x2C__online_shop_x2C__commerce_x2C__online_x2C__portfolio" fill="#000000" class="color000000 svgShape">
    <g fill="#000000" class="color000000 svgShape">
      <path d="M341 438.5 258.5 451 171 438.5l3.58-1.43C202.61 425.85 221 398.7 221 368.5l32.667-15.833L291 368.5c0 30.2 18.39 57.35 46.42 68.57L341 438.5zM462.4 48.5H49.6C25.52 48.5 6 68.02 6 92.1v221.4L256 339l250-25.5V92.1C506 68.02 486.48 48.5 462.4 48.5z" fill="#575757" class="color495f66 svgShape"></path>
      <rect width="430" height="238.5" x="41" y="83.5" fill="#ffffff" class="colordfe8eb svgShape"></rect>
      <path d="M506,313.5v11.4c0,24.08-19.52,43.6-43.6,43.6c-20.751,0-396.847,0-412.8,0
			C25.52,368.5,6,348.98,6,324.9v-11.4C26.27,313.5,473.623,313.5,506,313.5z" fill="#464646" class="color3b4a51 svgShape"></path>
      <circle cx="431" cy="138.5" r="15" fill="#e1b359" class="colore17559 svgShape"></circle>
      <circle cx="431" cy="198.5" r="15" fill="#e6b85e" class="colorbde65e svgShape"></circle>
      <circle cx="431" cy="258.5" r="15" fill="#ffb729" class="colorf6df5b svgShape"></circle>
      <path d="M431,463.5H86c0-13.824,11.2-25,25-25c10.638,0,285.357,0,295,0C419.81,438.5,431,449.69,431,463.5
			z" fill="#464646" class="color3b4a51 svgShape"></path>
      <path d="M346 143.5v25l-90 9.25c-7.697 0-85.837-9.25-90-9.25v-25C220.803 143.5 290.339 143.5 346 143.5zM186 211.89v47.71c0 10.44 8.46 18.9 18.9 18.9h102.2c10.44 0 18.9-8.46 18.9-18.9v-47.71H186z" fill="#b38b3c" class="colorb36d3c svgShape"></path>
      <circle cx="81" cy="138.5" r="15" fill="#e1b359" class="colore17559 svgShape"></circle>
      <circle cx="81" cy="198.5" r="15" fill="#e6b85e" class="colorbde65e svgShape"></circle>
      <circle cx="81" cy="258.5" r="15" fill="#ffb729" class="colorf6df5b svgShape"></circle>
      <path d="M166,168.5v25.37c0,16.46,13.375,29.63,29.63,29.63c127.295-0.56,122.129,1.255,130.37-1.61
			c11.64-3.99,20-15.03,20-28.02V168.5h-30l-10,8.333l-10-8.333h-80l-10.417,7.083L196,168.5H166z" fill="#c7a35b" class="colorc7865b svgShape"></path>
      <path d="M316 168.5v20c0 5.52-4.48 10-10 10s-10-4.48-10-10v-20H316zM216 168.5v20c0 5.52-4.48 10-10 10s-10-4.48-10-10v-20H216z" fill="#ffb729" class="colorf6df5b svgShape"></path>
      <g fill="#000000" class="color000000 svgShape">
        <path d="M462.4,43.5H49.6C22.802,43.5,1,65.302,1,92.1V324.9c0,26.798,21.802,48.6,48.6,48.6h166.218
				c-1.87,26.241-18.365,49.034-43.099,58.927l-2.683,1.073H111c-16.542,0-30,13.458-30,30c0,2.762,2.238,5,5,5h345
				c2.762,0,5-2.238,5-5c0-16.542-13.458-30-30-30h-64.036l-2.684-1.073c-24.733-9.893-41.228-32.686-43.098-58.927H462.4
				c26.798,0,48.6-21.802,48.6-48.6V92.1C511,65.302,489.198,43.5,462.4,43.5z M49.6,53.5H462.4c21.284,0,38.6,17.315,38.6,38.6
				v216.4h-25v-225c0-2.762-2.238-5-5-5H41c-2.762,0-5,2.238-5,5v225H11V92.1C11,70.815,28.315,53.5,49.6,53.5z M466,308.5H46v-220
				h420V308.5z M425.367,458.5H91.633c2.226-8.616,10.065-15,19.367-15c4.687,0,286.025,0,295,0
				C415.302,443.5,423.142,449.884,425.367,458.5z M320.169,433.5H191.831c19.835-13.559,32.479-35.5,34.002-60h60.335
				C287.69,398,300.334,419.941,320.169,433.5z M462.4,363.5H49.6c-21.284,0-38.6-17.315-38.6-38.6v-6.4c17.349,0,472.641,0,490,0
				v6.4C501,346.185,483.685,363.5,462.4,363.5z" fill="#000000" class="color000000 svgShape"></path>
        <path d="M246 413.5h20c2.762 0 5-2.238 5-5s-2.238-5-5-5h-20c-2.762 0-5 2.238-5 5S243.238 413.5 246 413.5zM181 225.246V259.6c0 13.179 10.722 23.9 23.9 23.9H307.1c13.179 0 23.9-10.722 23.9-23.9v-34.354c11.802-5.526 20-17.511 20-31.38V143.5c0-2.762-2.238-5-5-5h-60v-20c0-2.762-2.238-5-5-5h-50c-2.762 0-5 2.238-5 5v20h-60c-2.762 0-5 2.238-5 5v50.366C161 207.735 169.198 219.72 181 225.246zM321 259.6c0 7.665-6.235 13.9-13.9 13.9H204.9c-7.665 0-13.9-6.235-13.9-13.9v-31.419c4.51.606-1.159.201 125.366.319 1.572 0 3.117-.115 4.634-.319V259.6zM236 123.5h40v15h-40V123.5zM231 148.5h50 60v15c-11.512 0-27.409 0-45 0-27.908 0-96.828 0-125 0v-15H231zM301 173.5h10v15c0 2.757-2.243 5-5 5s-5-2.243-5-5V173.5zM201 173.5h10v15c0 2.757-2.243 5-5 5s-5-2.243-5-5V173.5zM171 173.5h20v15c0 8.271 6.729 15 15 15s15-6.729 15-15v-15h70v15c0 8.271 6.729 15 15 15s15-6.729 15-15v-15h20v20.366c0 13.583-11.051 24.634-24.634 24.634H195.634c-13.583 0-24.634-11.051-24.634-24.634V173.5zM366 123.5h20v15c0 2.762 2.238 5 5 5h20.658c2.229 8.612 10.043 15 19.342 15 11.028 0 20-8.972 20-20s-8.972-20-20-20c-9.299 0-17.113 6.388-19.342 15H396v-15c0-2.762-2.238-5-5-5h-25c-2.762 0-5 2.238-5 5S363.238 123.5 366 123.5zM431 128.5c5.514 0 10 4.486 10 10s-4.486 10-10 10-10-4.486-10-10S425.486 128.5 431 128.5zM431 178.5c-9.299 0-17.113 6.388-19.342 15H381c-2.762 0-5 2.238-5 5s2.238 5 5 5h30.658c2.229 8.612 10.043 15 19.342 15 11.028 0 20-8.972 20-20S442.028 178.5 431 178.5zM431 208.5c-5.514 0-10-4.486-10-10s4.486-10 10-10 10 4.486 10 10S436.514 208.5 431 208.5zM366 283.5h25c2.762 0 5-2.238 5-5v-15h15.658c2.229 8.612 10.043 15 19.342 15 11.028 0 20-8.972 20-20s-8.972-20-20-20c-9.299 0-17.113 6.388-19.342 15H391c-2.762 0-5 2.238-5 5v15h-20c-2.762 0-5 2.238-5 5S363.238 283.5 366 283.5zM431 248.5c5.514 0 10 4.486 10 10s-4.486 10-10 10-10-4.486-10-10S425.486 248.5 431 248.5zM81 158.5c9.299 0 17.113-6.388 19.342-15H121c2.762 0 5-2.238 5-5v-15h20c2.762 0 5-2.238 5-5s-2.238-5-5-5h-25c-2.762 0-5 2.238-5 5v15h-15.658c-2.229-8.612-10.043-15-19.342-15-11.028 0-20 8.972-20 20S69.972 158.5 81 158.5zM81 128.5c5.514 0 10 4.486 10 10s-4.486 10-10 10-10-4.486-10-10S75.486 128.5 81 128.5zM81 218.5c9.299 0 17.113-6.388 19.342-15H131c2.762 0 5-2.238 5-5s-2.238-5-5-5h-30.658c-2.229-8.612-10.043-15-19.342-15-11.028 0-20 8.972-20 20S69.972 218.5 81 218.5zM81 188.5c5.514 0 10 4.486 10 10s-4.486 10-10 10-10-4.486-10-10S75.486 188.5 81 188.5zM81 278.5c9.299 0 17.113-6.388 19.342-15H116v15c0 2.762 2.238 5 5 5h25c2.762 0 5-2.238 5-5s-2.238-5-5-5h-20v-15c0-2.762-2.238-5-5-5h-20.658c-2.229-8.612-10.043-15-19.342-15-11.028 0-20 8.972-20 20S69.972 278.5 81 278.5zM81 248.5c5.514 0 10 4.486 10 10s-4.486 10-10 10-10-4.486-10-10S75.486 248.5 81 248.5z" fill="#000000" class="color000000 svgShape"></path>
      </g>
    </g>
  </g>
</svg>
