<svg xmlns="http://www.w3.org/2000/svg" xml:space="preserve" viewBox="0 0 512 512" enable-background="new 0 0 512 512" id="11331584">
  <g id="_x34_4_x2C__ecommerece_x2C__ecommerece_x2C__shopping_x2C__cart_x2C__online_x2C__commerce_and_shopping" fill="#000000" class="color000000 svgShape">
    <g fill="#000000" class="color000000 svgShape">
      <g fill="#000000" class="color000000 svgShape">
        <g fill="#000000" class="color000000 svgShape">
          <path d="M435.405,6h-358.8c-22.42,0-40.6,18.18-40.6,40.6v208.8c0,22.42,18.18,40.6,40.6,40.6h14.67
					l156.73,22l172.73-22h14.67c22.42,0,40.6-18.18,40.6-40.6V46.6C476.005,24.18,457.825,6,435.405,6z" fill="#575757" class="color495f66 svgShape"></path>
          <path d="M476.985,339.92c-6.45-25.81-29.65-43.92-56.25-43.92H91.275c-26.6,0-49.8,18.11-56.25,43.92
					L6.005,456l246.5,17.5l253.5-17.5L476.985,339.92z" fill="#464646" class="color3b4a51 svgShape"></path>
          <path d="M310.215,437.03l3.79,18.97l-58,11.25l-58-11.25l3.79-18.97c2.45-12.23,13.19-21.03,25.66-21.03
					h57.1C297.025,416,307.765,424.8,310.215,437.03z" fill="#373737" class="color283646 svgShape"></path>
          <path d="M506.005,456v20c0,16.57-13.43,30-30,30h-440c-16.57,0-30-13.43-30-30v-20
					C21.543,456,482.136,456,506.005,456z" fill="#575757" class="color495f66 svgShape"></path>
          <path d="M115.683 346h-9.678c-2.762 0-5-2.238-5-5s2.238-5 5-5h9.678c2.762 0 5 2.238 5 5S118.445 346 115.683 346zM164.07 346h-9.678c-2.762 0-5-2.238-5-5s2.238-5 5-5h9.678c2.762 0 5 2.238 5 5S166.831 346 164.07 346zM212.456 346h-9.677c-2.762 0-5-2.238-5-5s2.238-5 5-5h9.677c2.762 0 5 2.238 5 5S215.218 346 212.456 346zM260.844 346h-9.678c-2.762 0-5-2.238-5-5s2.238-5 5-5h9.678c2.762 0 5 2.238 5 5S263.606 346 260.844 346zM309.231 346h-9.677c-2.762 0-5-2.238-5-5s2.238-5 5-5h9.677c2.762 0 5 2.238 5 5S311.992 346 309.231 346zM357.618 346h-9.678c-2.762 0-5-2.238-5-5s2.238-5 5-5h9.678c2.762 0 5 2.238 5 5S360.38 346 357.618 346zM406.005 346h-9.678c-2.762 0-5-2.238-5-5s2.238-5 5-5h9.678c2.762 0 5 2.238 5 5S408.767 346 406.005 346zM96.973 381H86.005c-2.762 0-5-2.238-5-5s2.238-5 5-5h10.968c2.762 0 5 2.238 5 5S99.735 381 96.973 381zM151.812 381h-10.968c-2.762 0-5-2.238-5-5s2.238-5 5-5h10.968c2.762 0 5 2.238 5 5S154.574 381 151.812 381zM206.651 381h-10.968c-2.762 0-5-2.238-5-5s2.238-5 5-5h10.968c2.762 0 5 2.238 5 5S209.412 381 206.651 381zM261.489 381h-10.967c-2.762 0-5-2.238-5-5s2.238-5 5-5h10.967c2.762 0 5 2.238 5 5S264.25 381 261.489 381zM316.327 381H305.36c-2.762 0-5-2.238-5-5s2.238-5 5-5h10.968c2.762 0 5 2.238 5 5S319.089 381 316.327 381zM371.166 381h-10.968c-2.762 0-5-2.238-5-5s2.238-5 5-5h10.968c2.762 0 5 2.238 5 5S373.928 381 371.166 381zM426.005 381h-10.968c-2.762 0-5-2.238-5-5s2.238-5 5-5h10.968c2.762 0 5 2.238 5 5S428.767 381 426.005 381zM73.586 416H61.005c-2.762 0-5-2.238-5-5s2.238-5 5-5h12.581c2.762 0 5 2.238 5 5S76.348 416 73.586 416zM136.489 416h-12.58c-2.762 0-5-2.238-5-5s2.238-5 5-5h12.58c2.762 0 5 2.238 5 5S139.25 416 136.489 416zM388.102 416h-12.58c-2.762 0-5-2.238-5-5s2.238-5 5-5h12.58c2.762 0 5 2.238 5 5S390.864 416 388.102 416zM451.005 416h-12.581c-2.762 0-5-2.238-5-5s2.238-5 5-5h12.581c2.762 0 5 2.238 5 5S453.767 416 451.005 416z" fill="#373737" class="color283646 svgShape"></path>
        </g>
        <rect width="370" height="220" x="71.005" y="41" fill="#ffffff" class="colordfe8eb svgShape"></rect>
      </g>
      <rect width="45" height="45" x="96.005" y="126" fill="#ffb729" class="colore17559 svgShape"></rect>
      <rect width="45" height="45" x="161.005" y="126" fill="#ffb729" class="colore17559 svgShape"></rect>
      <rect width="145" height="45" x="96.005" y="191" fill="#ffb729" class="colore17559 svgShape"></rect>
      <circle cx="321.005" cy="226" r="10" fill="#575757" class="color495f66 svgShape"></circle>
      <circle cx="391.005" cy="226" r="10" fill="#575757" class="color495f66 svgShape"></circle>
      <path d="M265.745,136c2.3,7.288,16.631,52.687,18.94,60c22.066,0,84.137,0,106.32,0
			c3.494-20.964,6.506-39.036,10-60C384.573,136,279.356,136,265.745,136z" fill="#f5cd7e" class="color7ed7f5 svgShape"></path>
      <g fill="#000000" class="color000000 svgShape">
        <path d="M511.003,455.973c-0.002-0.294-0.035-0.589-0.089-0.882c-0.011-0.058-0.02-0.115-0.033-0.172
				c-0.01-0.044-0.014-0.088-0.025-0.132l-29.021-116.08c-4.435-17.742-16.097-32.097-31.381-40.271
				c17.77-6.232,30.551-23.165,30.551-43.036V46.6c0-25.144-20.456-45.6-45.6-45.6H76.605c-25.144,0-45.6,20.456-45.6,45.6V255.4
				c0,19.871,12.781,36.804,30.551,43.036c-15.283,8.174-26.946,22.529-31.381,40.271C-0.608,461.864,1.014,454.856,1.008,455.973
				C1.004,456.63,1.005,475.9,1.005,476c0,19.299,15.701,35,35,35h440c19.299,0,35-15.701,35-35v-20
				C511.005,455.991,511.003,455.982,511.003,455.973z M76.605,291c-19.63,0-35.6-15.97-35.6-35.6V46.6
				c0-19.63,15.97-35.6,35.6-35.6h358.801c19.63,0,35.6,15.97,35.6,35.6V255.4c0,19.63-15.97,35.6-35.6,35.6
				C395.369,291,119.643,291,76.605,291z M39.876,341.133C45.783,317.503,66.919,301,91.277,301h329.457
				c24.357,0,45.494,16.503,51.4,40.133L499.601,451H318.105l-2.99-14.951C312.211,421.534,299.362,411,284.56,411h-57.109
				c-14.802,0-27.651,10.534-30.555,25.049L193.906,451H12.409L39.876,341.133z M204.104,451l2.599-12.99
				c1.971-9.856,10.696-17.01,20.748-17.01h57.109c10.052,0,18.777,7.153,20.748,17.01l2.599,12.99H204.104z M501.005,476
				c0,13.785-11.215,25-25,25h-440c-13.785,0-25-11.215-25-25v-15c380.917,0.086,489.876,0,490,0V476z" fill="#000000" class="color000000 svgShape"></path>
        <path d="M120.683 341c0-2.762-2.238-5-5-5h-9.678c-2.762 0-5 2.238-5 5s2.238 5 5 5h9.678C118.445 346 120.683 343.762 120.683 341zM164.07 336h-9.678c-2.762 0-5 2.238-5 5s2.238 5 5 5h9.678c2.762 0 5-2.238 5-5S166.831 336 164.07 336zM202.78 346h9.677c2.762 0 5-2.238 5-5s-2.238-5-5-5h-9.677c-2.762 0-5 2.238-5 5S200.018 346 202.78 346zM251.166 346h9.678c2.762 0 5-2.238 5-5s-2.238-5-5-5h-9.678c-2.762 0-5 2.238-5 5S248.405 346 251.166 346zM299.554 346h9.677c2.762 0 5-2.238 5-5s-2.238-5-5-5h-9.677c-2.762 0-5 2.238-5 5S296.792 346 299.554 346zM347.941 346h9.678c2.762 0 5-2.238 5-5s-2.238-5-5-5h-9.678c-2.762 0-5 2.238-5 5S345.179 346 347.941 346zM396.327 346h9.678c2.762 0 5-2.238 5-5s-2.238-5-5-5h-9.678c-2.762 0-5 2.238-5 5S393.566 346 396.327 346zM96.973 371H86.005c-2.762 0-5 2.238-5 5s2.238 5 5 5h10.968c2.762 0 5-2.238 5-5S99.735 371 96.973 371zM151.812 371h-10.968c-2.762 0-5 2.238-5 5s2.238 5 5 5h10.968c2.762 0 5-2.238 5-5S154.574 371 151.812 371zM195.683 381h10.968c2.762 0 5-2.238 5-5s-2.238-5-5-5h-10.968c-2.762 0-5 2.238-5 5S192.921 381 195.683 381zM250.522 381h10.967c2.762 0 5-2.238 5-5s-2.238-5-5-5h-10.967c-2.762 0-5 2.238-5 5S247.76 381 250.522 381zM300.36 376c0 2.762 2.238 5 5 5h10.968c2.762 0 5-2.238 5-5s-2.238-5-5-5H305.36C302.598 371 300.36 373.238 300.36 376zM355.199 376c0 2.762 2.238 5 5 5h10.968c2.762 0 5-2.238 5-5s-2.238-5-5-5h-10.968C357.437 371 355.199 373.238 355.199 376zM415.037 381h10.968c2.762 0 5-2.238 5-5s-2.238-5-5-5h-10.968c-2.762 0-5 2.238-5 5S412.276 381 415.037 381zM73.586 406H61.005c-2.762 0-5 2.238-5 5s2.238 5 5 5h12.581c2.762 0 5-2.238 5-5S76.348 406 73.586 406zM136.489 406h-12.58c-2.762 0-5 2.238-5 5s2.238 5 5 5h12.58c2.762 0 5-2.238 5-5S139.25 406 136.489 406zM370.522 411c0 2.762 2.238 5 5 5h12.58c2.762 0 5-2.238 5-5s-2.238-5-5-5h-12.58C372.76 406 370.522 408.238 370.522 411zM438.424 416h12.581c2.762 0 5-2.238 5-5s-2.238-5-5-5h-12.581c-2.762 0-5 2.238-5 5S435.662 416 438.424 416zM446.005 261V41c0-2.762-2.238-5-5-5h-370c-2.762 0-5 2.238-5 5v220c0 2.762 2.238 5 5 5h370C443.767 266 446.005 263.762 446.005 261zM436.005 256h-360V46h360V256z" fill="#000000" class="color000000 svgShape"></path>
        <path d="M231.005 126h26.336l28.896 91.506c.656 2.08 2.586 3.494 4.768 3.494h15.875c-.556 1.566-.875 3.245-.875 5 0 8.271 6.729 15 15 15s15-6.729 15-15c0-1.755-.319-3.434-.875-5h41.75c-3.489 9.823 3.864 20 14.125 20 10.26 0 17.615-10.176 14.125-20h10.875c2.762 0 5-2.238 5-5s-2.238-5-5-5H294.669l-3.158-10h99.494c2.444 0 4.53-1.767 4.932-4.178l10-60c.508-3.04-1.837-5.822-4.932-5.822H269.406l-3.633-11.506c-.656-2.08-2.586-3.494-4.768-3.494h-30c-2.762 0-5 2.238-5 5S228.243 126 231.005 126zM326.005 226c0 2.757-2.243 5-5 5s-5-2.243-5-5 2.243-5 5-5S326.005 223.243 326.005 226zM396.005 226c0 2.757-2.243 5-5 5s-5-2.243-5-5 2.243-5 5-5S396.005 223.243 396.005 226zM282.038 171h18.968v20h-12.652L282.038 171zM341.005 161v-20h20v20H341.005zM361.005 171v20h-20v-20H361.005zM331.005 161h-20v-20h20V161zM331.005 171v20h-20v-20H331.005zM371.005 191v-20h19.098l-3.333 20H371.005zM391.77 161h-20.764v-20h24.098L391.77 161zM301.005 141v20H278.88l-6.316-20H301.005zM96.005 241h145c2.762 0 5-2.238 5-5v-45c0-2.762-2.238-5-5-5h-145c-2.762 0-5 2.238-5 5v45C91.005 238.762 93.243 241 96.005 241zM101.005 196h135v35h-135V196zM96.005 176h45c2.762 0 5-2.238 5-5v-45c0-2.762-2.238-5-5-5h-45c-2.762 0-5 2.238-5 5v45C91.005 173.762 93.243 176 96.005 176zM101.005 131h35v35h-35V131zM96.005 111h95c2.762 0 5-2.238 5-5s-2.238-5-5-5h-95c-2.762 0-5 2.238-5 5S93.243 111 96.005 111zM96.005 91h95c2.762 0 5-2.238 5-5s-2.238-5-5-5h-95c-2.762 0-5 2.238-5 5S93.243 91 96.005 91zM96.005 71h40c2.762 0 5-2.238 5-5s-2.238-5-5-5h-40c-2.762 0-5 2.238-5 5S93.243 71 96.005 71zM156.005 126v45c0 2.762 2.238 5 5 5h45c2.762 0 5-2.238 5-5v-45c0-2.762-2.238-5-5-5h-45C158.243 121 156.005 123.238 156.005 126zM166.005 131h35v35h-35V131z" fill="#000000" class="color000000 svgShape"></path>
      </g>
    </g>
  </g>
</svg>
