<svg xmlns="http://www.w3.org/2000/svg" xml:space="preserve" viewBox="0 0 512 512" enable-background="new 0 0 512 512" id="11331551">
  <g id="_x31_1_x2C__ecommece_x2C__online_shopping_x2C__online_store_x2C__market_x2C__shopping_x2C__sales" fill="#000000" class="color000000 svgShape">
    <g fill="#000000" class="color000000 svgShape">
      <path d="M462.4,48.5H426L270,73.667L96,48.5H49.6C25.52,48.5,6,68.02,6,92.1v221.4L256,339l250-25.5V92.1
			C506,68.02,486.48,48.5,462.4,48.5z" fill="#575757" class="color495f66 svgShape"></path>
      <rect width="430" height="238.5" x="41" y="83.5" fill="#ffffff" class="colordfe8eb svgShape"></rect>
      <path d="M341,438.5L258.5,451L171,438.5l3.58-1.43C202.61,425.85,221,398.7,221,368.5l32.667-15.833
			L291,368.5c0,30.2,18.39,57.35,46.42,68.57L341,438.5z" fill="#575757" class="color495f66 svgShape"></path>
      <path d="M506 313.5v11.4c0 24.08-19.52 43.6-43.6 43.6-20.751 0-396.847 0-412.8 0C25.52 368.5 6 348.98 6 324.9v-11.4c27.727 0 437.059 0 465 0H506zM431 463.5H86c0-13.824 11.2-25 25-25 10.638 0 285.357 0 295 0C419.81 438.5 431 449.69 431 463.5z" fill="#464646" class="color3b4a51 svgShape"></path>
      <path d="M471,122.79c0,16.96-13.75,30.71-30.71,30.71c-16.897,0-30.72-13.697-30.72-30.71V108.5L381,48.5
			h45l45,60C471,110.299,471,118.638,471,122.79z" fill="#ffb729" class="colorf6df5b svgShape"></path>
      <rect width="50" height="30" x="381" y="248.5" fill="#f5cd7e" class="color7ed7f5 svgShape"></rect>
      <rect width="50" height="50" x="381" y="178.5" fill="#f5cd7e" class="color7ed7f5 svgShape"></rect>
      <path d="M409.57,108.5v14.29c0,16.96-13.75,30.71-30.71,30.71c-16.949,0-30.72-13.747-30.72-30.71V108.5
			L331,48.5h50L409.57,108.5z" fill="#e1b359" class="colore17559 svgShape"></path>
      <path d="M348.14,108.5v14.29c0,27.384-33.223,40.917-52.43,21.71c-5.56-5.55-9-13.23-9-21.71
			c0-35.378,0-42.915,0-74.29H331L348.14,108.5z" fill="#ffb729" class="colorf6df5b svgShape"></path>
      <circle cx="321" cy="283.5" r="10" fill="#575757" class="color495f66 svgShape"></circle>
      <path d="M286.71,122.79c0,16.96-13.75,30.71-30.71,30.71c-16.956,0-30.71-13.747-30.71-30.71V108.5l10-60
			h51.42C286.71,79.842,286.71,87.375,286.71,122.79z" fill="#e1b359" class="colore17559 svgShape"></path>
      <circle cx="251" cy="283.5" r="10" fill="#575757" class="color495f66 svgShape"></circle>
      <path d="M235.29,48.5l-10,60v14.29c0,27.427-33.277,40.897-52.43,21.71c-5.56-5.55-9-13.23-9-21.71V108.5
			l27.14-60H235.29z" fill="#ffb729" class="colorf6df5b svgShape"></path>
      <path d="M191,48.5l-27.14,60v14.29c0,16.96-13.75,30.71-30.72,30.71c-16.956,0-30.71-13.747-30.71-30.71
			V108.5l38.57-60H191z" fill="#e1b359" class="colore17559 svgShape"></path>
      <path d="M141,48.5l-38.57,60v14.29c0,27.506-33.316,40.859-52.43,21.71c-11.045-11.025-8.688-24.144-9-26
			v-10l55-60H141z" fill="#ffb729" class="colorf6df5b svgShape"></path>
      <rect width="50" height="30" x="81" y="248.5" fill="#f5cd7e" class="color7ed7f5 svgShape"></rect>
      <rect width="50" height="50" x="81" y="178.5" fill="#f5cd7e" class="color7ed7f5 svgShape"></rect>
      <g fill="#000000" class="color000000 svgShape">
        <path d="M462.4,43.5c-259.451,0-249.109,0-412.801,0C22.802,43.5,1,65.302,1,92.1V324.9c0,26.798,21.802,48.6,48.6,48.6h166.218
				c-1.87,26.241-18.365,49.034-43.099,58.927l-2.683,1.073H111c-16.542,0-30,13.458-30,30c0,2.762,2.238,5,5,5h345
				c2.762,0,5-2.238,5-5c0-16.542-13.458-30-30-30h-64.036l-2.683-1.073c-24.733-9.893-41.228-32.686-43.098-58.927H462.4
				c26.798,0,48.6-21.802,48.6-48.6V92.1C511,65.302,489.198,43.5,462.4,43.5z M501,92.1v216.4h-25
				c0-0.816,0.05-199.806-0.068-200.674c-0.348-2.551,0.101-0.57-39.932-54.326h26.4C483.685,53.5,501,70.815,501,92.1z M46,147.532
				c16.433,17.07,44.385,13.701,56.429-6.55c13.87,23.323,47.54,23.353,61.429,0c13.87,23.323,47.54,23.353,61.429,0
				c13.87,23.323,47.539,23.353,61.428,0c13.871,23.323,47.54,23.353,61.429,0c13.871,23.323,47.54,23.353,61.429,0
				c12.06,20.278,40.022,23.593,56.429,6.55V308.5H46V147.532z M327.228,53.5l15.914,55.701v13.585
				c0,14.179-11.535,25.714-25.714,25.714c-14.18,0-25.715-11.535-25.715-25.714c0-7.009,0-61.746,0-69.286H327.228z M466,110.167
				c0,4.542,0,8.073,0,12.619c0,14.179-11.535,25.714-25.714,25.714c-14.18,0-25.715-11.535-25.715-25.714
				c-0.01-14.534,0.054-14.566-0.13-15.386c-0.315-1.388-0.148-0.375-25.522-53.9H423.5L466,110.167z M377.843,53.5l26.729,56.13
				v13.156c0,14.179-11.535,25.714-25.714,25.714c-14.18,0-25.715-11.535-25.715-25.714c-0.016-14.572,0.079-14.706-0.192-15.66
				L337.629,53.5H377.843z M281.714,122.786c0,14.179-11.535,25.714-25.714,25.714s-25.714-11.535-25.714-25.714v-13.874
				l9.235-55.412h42.192C281.714,60.981,281.714,115.778,281.714,122.786z M220.328,108.081c-0.08,0.95-0.01-0.803-0.042,14.705
				c0,14.179-11.535,25.714-25.715,25.714c-14.179,0-25.714-11.535-25.714-25.714v-13.208L194.226,53.5h35.158
				C226.99,67.909,220.403,107.194,220.328,108.081z M158.857,108.5v14.286c0,14.179-11.535,25.714-25.715,25.714
				c-14.179,0-25.714-11.535-25.714-25.714v-12.817L143.73,53.5h39.52C157.499,110.439,158.857,106.95,158.857,108.5z M131.841,53.5
				c-36.31,56.535-33.862,52.482-34.189,53.599c-0.316,1.079-0.196,0.184-0.224,15.687c0,14.179-11.535,25.714-25.715,25.714
				C57.535,148.5,46,136.965,46,122.786c0-4.259,0-8.066,0-12.341L98.199,53.5H131.841z M49.6,53.5h35.034l-47.319,51.621
				C36.587,105.915,36,107.217,36,108.5c0,7.338,0,192.399,0,200H11V92.1C11,70.815,28.315,53.5,49.6,53.5z M425.367,458.5H91.633
				c2.226-8.616,10.065-15,19.367-15c5.846,0,286.453,0,295,0C415.302,443.5,423.142,449.884,425.367,458.5z M320.169,433.5H191.831
				c19.835-13.559,32.479-35.5,34.002-60h60.335C287.69,398,300.334,419.941,320.169,433.5z M462.4,363.5H49.6
				c-21.284,0-38.6-17.315-38.6-38.6v-6.4c17.349,0,472.641,0,490,0v6.4C501,346.185,483.685,363.5,462.4,363.5z" fill="#000000" class="color000000 svgShape"></path>
        <path d="M246 413.5h20c2.762 0 5-2.238 5-5s-2.238-5-5-5h-20c-2.762 0-5 2.238-5 5S243.238 413.5 246 413.5zM346 268.5H224.664l-3.158-10H321c2.444 0 4.53-1.767 4.932-4.178l10-60c.508-3.04-1.837-5.822-4.932-5.822H199.401l-3.633-11.506c-.656-2.08-2.586-3.494-4.768-3.494h-30c-2.762 0-5 2.238-5 5s2.238 5 5 5h26.336l28.896 91.506c.656 2.08 2.586 3.494 4.768 3.494h15.875c-3.488 9.823 3.864 20 14.125 20 8.271 0 15-6.729 15-15 0-1.755-.319-3.433-.875-5h41.75c-.556 1.567-.875 3.245-.875 5 0 8.271 6.729 15 15 15s15-6.729 15-15c0-1.755-.319-3.433-.875-5H346c2.762 0 5-2.238 5-5S348.762 268.5 346 268.5zM212.033 228.5H231v20h-12.652L212.033 228.5zM271 218.5v-20h20v20H271zM291 228.5v20h-20v-20H291zM261 218.5h-20v-20h20V218.5zM261 228.5v20h-20v-20H261zM301 248.5v-20h19.098l-3.333 20H301zM321.764 218.5H301v-20h24.098L321.764 218.5zM231 198.5v20h-22.125l-6.316-20H231zM256 283.5c0 2.757-2.243 5-5 5s-5-2.243-5-5 2.243-5 5-5S256 280.743 256 283.5zM326 283.5c0 2.757-2.243 5-5 5s-5-2.243-5-5 2.243-5 5-5S326 280.743 326 283.5zM431 173.5h-50c-2.762 0-5 2.238-5 5v50c0 2.762 2.238 5 5 5h50c2.762 0 5-2.238 5-5v-50C436 175.738 433.762 173.5 431 173.5zM426 223.5h-40v-40h40V223.5zM431 243.5h-50c-2.762 0-5 2.238-5 5v30c0 2.762 2.238 5 5 5h50c2.762 0 5-2.238 5-5v-30C436 245.738 433.762 243.5 431 243.5zM426 273.5h-40v-20h40V273.5zM131 173.5H81c-2.762 0-5 2.238-5 5v50c0 2.762 2.238 5 5 5h50c2.762 0 5-2.238 5-5v-50C136 175.738 133.762 173.5 131 173.5zM126 223.5H86v-40h40V223.5zM131 243.5H81c-2.762 0-5 2.238-5 5v30c0 2.762 2.238 5 5 5h50c2.762 0 5-2.238 5-5v-30C136 245.738 133.762 243.5 131 243.5zM126 273.5H86v-20h40V273.5z" fill="#000000" class="color000000 svgShape"></path>
      </g>
    </g>
  </g>
</svg>
