<svg xmlns="http://www.w3.org/2000/svg" xml:space="preserve" viewBox="0 0 512 512" enable-background="new 0 0 512 512" id="11331589">
  <g id="_x34_9_x2C__Economy_x2C__graph_x2C__line_chart_x2C__business_and_finance_x2C__statistics_x2C__money" fill="#000000" class="color000000 svgShape">
    <g fill="#000000" class="color000000 svgShape">
      <path d="M466 396.13v9.74c0 5.59-4.54 10.13-10.13 10.13l-42.537 9-37.203-9c-5.59 0-10.13-4.54-10.13-10.13v-9.74c0-5.59 4.54-10.13 10.13-10.13L416 375.25 455.87 386C461.46 386 466 390.54 466 396.13zM466 336.13v9.74c0 5.59-4.54 10.13-10.13 10.13L414 367.333 376.13 356c-5.59 0-10.13-4.54-10.13-10.13v-9.74c0-5.59 4.54-10.13 10.13-10.13L416 313l39.87 13C461.46 326 466 330.54 466 336.13z" fill="#ffffff" class="colorf6df5b svgShape"></path>
      <path d="M466 306.13v9.74c0 5.59-4.54 10.13-10.13 10.13h-79.74c-5.59 0-10.13-4.54-10.13-10.13v-9.74c0-5.59 4.54-10.13 10.13-10.13h79.74C461.46 296 466 300.54 466 306.13zM466 366.13v9.74c0 5.59-4.54 10.13-10.13 10.13h-79.74c-5.59 0-10.13-4.54-10.13-10.13v-9.74c0-5.59 4.54-10.13 10.13-10.13h79.74C461.46 356 466 360.54 466 366.13zM466 426.13v9.74c0 5.59-4.54 10.13-10.13 10.13L416 451.667 376.13 446c-5.59 0-10.13-4.54-10.13-10.13v-9.74c0-5.59 4.54-10.13 10.13-10.13h79.74C461.46 416 466 420.54 466 426.13z" fill="#ffb729" class="coloreec158 svgShape"></path>
      <path d="M341 396.13v9.74c0 5.59-4.54 10.13-10.13 10.13l-42.537 9-37.203-9c-5.59 0-10.13-4.54-10.13-10.13v-9.74c0-5.59 4.54-10.13 10.13-10.13L291 375.25 330.87 386C336.46 386 341 390.54 341 396.13zM341 336.13v9.74c0 5.59-4.54 10.13-10.13 10.13L289 367.333 251.13 356c-5.59 0-10.13-4.54-10.13-10.13v-9.74c0-5.59 4.54-10.13 10.13-10.13L291 313l39.87 13C336.46 326 341 330.54 341 336.13zM216 396.13v9.74c0 5.59-4.54 10.13-10.13 10.13l-41.12 11.25L126.13 416c-5.59 0-10.13-4.54-10.13-10.13v-9.74c0-5.59 4.54-10.13 10.13-10.13L166 375.25 205.87 386C211.46 386 216 390.54 216 396.13z" fill="#ffffff" class="colorf6df5b svgShape"></path>
      <path d="M216 426.13v9.74c0 5.59-4.54 10.13-10.13 10.13l-36.62 10-43.12-10c-5.59 0-10.13-4.54-10.13-10.13v-9.74c0-5.59 4.54-10.13 10.13-10.13h79.74C211.46 416 216 420.54 216 426.13zM216 366.13v9.74c0 5.59-4.54 10.13-10.13 10.13h-79.74c-5.59 0-10.13-4.54-10.13-10.13v-9.74c0-5.59 4.54-10.13 10.13-10.13h79.74C211.46 356 216 360.54 216 366.13zM341 306.13v9.74c0 5.59-4.54 10.13-10.13 10.13h-79.74c-5.59 0-10.13-4.54-10.13-10.13v-9.74c0-5.59 4.54-10.13 10.13-10.13h79.74C336.46 296 341 300.54 341 306.13zM341 366.13v9.74c0 5.59-4.54 10.13-10.13 10.13h-79.74c-5.59 0-10.13-4.54-10.13-10.13v-9.74c0-5.59 4.54-10.13 10.13-10.13h79.74C336.46 356 341 360.54 341 366.13zM341 426.13v9.74c0 5.59-4.54 10.13-10.13 10.13L291 451.667 251.13 446c-5.59 0-10.13-4.54-10.13-10.13v-9.74c0-5.59 4.54-10.13 10.13-10.13h79.74C336.46 416 341 420.54 341 426.13zM466 246.13v9.74c0 5.59-4.54 10.13-10.13 10.13L416 276.75 376.13 266c-5.59 0-10.13-4.54-10.13-10.13v-9.74c0-5.59 4.54-10.13 10.13-10.13l39.87-9.75 39.87 9.75C461.46 236 466 240.54 466 246.13z" fill="#ffb729" class="coloreec158 svgShape"></path>
      <path d="M466 276.13v9.74c0 5.59-4.54 10.13-10.13 10.13h-79.74c-5.59 0-10.13-4.54-10.13-10.13v-9.74c0-5.59 4.54-10.13 10.13-10.13h79.74C461.46 266 466 270.54 466 276.13zM466 216.13v9.74c0 5.59-4.54 10.13-10.13 10.13h-79.74c-5.59 0-10.13-4.54-10.13-10.13v-9.74c0-5.59 4.54-10.13 10.13-10.13h79.74C461.46 206 466 210.54 466 216.13z" fill="#ffffff" class="colorf6df5b svgShape"></path>
      <rect width="20" height="47.167" x="51" y="458.833" fill="#575757" class="color495f66 svgShape"></rect>
      <path d="M71,6v448.667H51C51,317.533,51,142.028,51,6H71z" fill="#575757" class="color495f66 svgShape"></path>
      <path d="M506,446v20c-59.999,0-451.587,0-500,0v-20C83.25,446,443.219,446,506,446z" fill="#464646" class="color3b4a51 svgShape"></path>
      <g fill="#000000" class="color000000 svgShape">
        <path d="M506,441h-35.916c1.465-4.045,0.701-6.351,0.916-14.866c0-3.899-1.495-7.448-3.926-10.134
				c2.431-2.686,3.926-6.234,3.926-10.134v-9.732c0-3.899-1.495-7.448-3.926-10.134c2.431-2.686,3.926-6.234,3.926-10.134v-9.732
				c0-3.899-1.495-7.448-3.926-10.134c2.431-2.686,3.926-6.234,3.926-10.134v-9.732c0-3.899-1.495-7.448-3.926-10.134
				c2.431-2.686,3.926-6.234,3.926-10.134v-9.732c0-3.899-1.495-7.448-3.926-10.134c2.431-2.686,3.926-6.234,3.926-10.134v-9.732
				c0-3.899-1.495-7.448-3.926-10.134c2.431-2.686,3.926-6.234,3.926-10.134v-9.732c0-3.899-1.495-7.448-3.926-10.134
				c2.431-2.686,3.926-6.234,3.926-10.134v-9.732c0-8.345-6.789-15.134-15.134-15.134h-79.732c-8.345,0-15.134,6.789-15.134,15.134
				v9.732c0,3.899,1.495,7.448,3.926,10.134c-2.431,2.686-3.926,6.234-3.926,10.134v9.732c0,3.899,1.495,7.448,3.926,10.134
				c-2.431,2.686-3.926,6.234-3.926,10.134v9.732c0,3.899,1.495,7.448,3.926,10.134c-2.431,2.686-3.926,6.234-3.926,10.134v9.732
				c0,3.899,1.495,7.448,3.926,10.134c-2.431,2.686-3.926,6.234-3.926,10.134v9.732c0,3.899,1.495,7.448,3.926,10.134
				c-2.431,2.686-3.926,6.234-3.926,10.134v9.732c0,3.899,1.495,7.448,3.926,10.134c-2.431,2.686-3.926,6.234-3.926,10.134v9.732
				c0,3.899,1.495,7.448,3.926,10.134c-2.431,2.686-3.926,6.234-3.926,10.134c0.214,8.517-0.55,10.822,0.916,14.866h-16.831
				c1.465-4.045,0.701-6.351,0.916-14.866c0-3.899-1.495-7.448-3.926-10.134c2.431-2.686,3.926-6.234,3.926-10.134v-9.732
				c0-3.899-1.495-7.448-3.926-10.134c2.431-2.686,3.926-6.234,3.926-10.134v-9.732c0-3.899-1.495-7.448-3.926-10.134
				c2.431-2.686,3.926-6.234,3.926-10.134v-9.732c0-3.899-1.495-7.448-3.926-10.134c2.431-2.686,3.926-6.234,3.926-10.134v-9.732
				c0-8.345-6.789-15.134-15.134-15.134h-79.732c-8.345,0-15.134,6.789-15.134,15.134v9.732c0,3.899,1.495,7.448,3.926,10.134
				c-2.431,2.686-3.926,6.234-3.926,10.134v9.732c0,3.899,1.495,7.448,3.926,10.134c-2.431,2.686-3.926,6.234-3.926,10.134v9.732
				c0,3.899,1.495,7.448,3.926,10.134c-2.431,2.686-3.926,6.234-3.926,10.134v9.732c0,3.899,1.495,7.448,3.926,10.134
				c-2.431,2.686-3.926,6.234-3.926,10.134c0.214,8.517-0.55,10.822,0.916,14.866h-16.831c1.465-4.045,0.701-6.351,0.916-14.866
				c0-3.899-1.495-7.448-3.926-10.134c2.431-2.686,3.926-6.234,3.926-10.134v-9.732c0-3.899-1.495-7.448-3.926-10.134
				c2.431-2.686,3.926-6.234,3.926-10.134v-9.732c0-8.345-6.789-15.134-15.134-15.134h-79.732c-8.345,0-15.134,6.789-15.134,15.134
				v9.732c0,3.899,1.495,7.448,3.926,10.134c-2.431,2.686-3.926,6.234-3.926,10.134v9.732c0,3.899,1.495,7.448,3.926,10.134
				c-2.431,2.686-3.926,6.234-3.926,10.134c0.214,8.517-0.55,10.822,0.916,14.866H76V6c0-2.762-2.238-5-5-5H51c-2.762,0-5,2.238-5,5
				v25H36c-2.762,0-5,2.238-5,5s2.238,5,5,5h10v35H36c-2.762,0-5,2.238-5,5s2.238,5,5,5h10v35H36c-2.762,0-5,2.238-5,5s2.238,5,5,5
				h10v35H36c-2.762,0-5,2.238-5,5s2.238,5,5,5h10v35H36c-2.762,0-5,2.238-5,5s2.238,5,5,5h10v35H36c-2.762,0-5,2.238-5,5
				s2.238,5,5,5h10v35H36c-2.762,0-5,2.238-5,5s2.238,5,5,5h10v35H36c-2.762,0-5,2.238-5,5s2.238,5,5,5h10v35H36
				c-2.762,0-5,2.238-5,5s2.238,5,5,5h10v40H6c-2.762,0-5,2.238-5,5v20c0,2.762,2.238,5,5,5h40v35c0,2.762,2.238,5,5,5h20
				c2.762,0,5-2.238,5-5v-35h35v10c0,2.762,2.238,5,5,5s5-2.238,5-5v-10h35v10c0,2.762,2.238,5,5,5s5-2.238,5-5v-10h35v10
				c0,2.762,2.238,5,5,5s5-2.238,5-5v-10h35v10c0,2.762,2.238,5,5,5s5-2.238,5-5v-10h35v10c0,2.762,2.238,5,5,5s5-2.238,5-5v-10h35
				v10c0,2.762,2.238,5,5,5s5-2.238,5-5v-10h35v10c0,2.762,2.238,5,5,5s5-2.238,5-5v-10h35v10c0,2.762,2.238,5,5,5s5-2.238,5-5v-10
				h35v10c0,2.762,2.238,5,5,5s5-2.238,5-5v-10h25c2.762,0,5-2.238,5-5v-20C511,443.238,508.762,441,506,441z M371,405.866v-9.732
				c0-2.831,2.303-5.134,5.134-5.134h79.732c2.831,0,5.134,2.303,5.134,5.134v9.732c0,2.831-2.303,5.134-5.134,5.134h-79.732
				C373.303,411,371,408.697,371,405.866z M371,375.866v-9.732c0-2.831,2.303-5.134,5.134-5.134h79.732
				c2.831,0,5.134,2.303,5.134,5.134v9.732c0,2.831-2.303,5.134-5.134,5.134h-79.732C373.303,381,371,378.697,371,375.866z
				 M371,345.866v-9.732c0-2.831,2.303-5.134,5.134-5.134h79.732c2.831,0,5.134,2.303,5.134,5.134v9.732
				c0,2.831-2.303,5.134-5.134,5.134h-79.732C373.303,351,371,348.697,371,345.866z M371,315.866v-9.732
				c0-2.831,2.303-5.134,5.134-5.134h79.732c2.831,0,5.134,2.303,5.134,5.134v9.732c0,2.831-2.303,5.134-5.134,5.134h-79.732
				C373.303,321,371,318.697,371,315.866z M371,285.866v-9.732c0-2.831,2.303-5.134,5.134-5.134h79.732
				c2.831,0,5.134,2.303,5.134,5.134v9.732c0,2.831-2.303,5.134-5.134,5.134h-79.732C373.303,291,371,288.697,371,285.866z
				 M371,255.866v-9.732c0-2.831,2.303-5.134,5.134-5.134h79.732c2.831,0,5.134,2.303,5.134,5.134v9.732
				c0,2.831-2.303,5.134-5.134,5.134h-79.732C373.303,261,371,258.697,371,255.866z M371,216.134c0-2.831,2.303-5.134,5.134-5.134
				h79.732c2.831,0,5.134,2.303,5.134,5.134v9.732c0,2.831-2.303,5.134-5.134,5.134h-79.732c-2.831,0-5.134-2.303-5.134-5.134
				V216.134z M371,435.866v-9.732c0-2.831,2.303-5.134,5.134-5.134h79.732c2.831,0,5.134,2.303,5.134,5.134v9.732
				c0,2.831-2.303,5.134-5.134,5.134h-79.732C373.303,441,371,438.697,371,435.866z M246,405.866v-9.732
				c0-2.831,2.303-5.134,5.134-5.134h79.732c2.831,0,5.134,2.303,5.134,5.134v9.732c0,2.831-2.303,5.134-5.134,5.134h-79.732
				C248.303,411,246,408.697,246,405.866z M246,375.866v-9.732c0-2.831,2.303-5.134,5.134-5.134h79.732
				c2.831,0,5.134,2.303,5.134,5.134v9.732c0,2.831-2.303,5.134-5.134,5.134h-79.732C248.303,381,246,378.697,246,375.866z
				 M246,345.866v-9.732c0-2.831,2.303-5.134,5.134-5.134h79.732c2.831,0,5.134,2.303,5.134,5.134v9.732
				c0,2.831-2.303,5.134-5.134,5.134h-79.732C248.303,351,246,348.697,246,345.866z M246,306.134c0-2.831,2.303-5.134,5.134-5.134
				h79.732c2.831,0,5.134,2.303,5.134,5.134v9.732c0,2.831-2.303,5.134-5.134,5.134h-79.732c-2.831,0-5.134-2.303-5.134-5.134
				V306.134z M246,435.866v-9.732c0-2.831,2.303-5.134,5.134-5.134h79.732c2.831,0,5.134,2.303,5.134,5.134v9.732
				c0,2.831-2.303,5.134-5.134,5.134h-79.732C248.303,441,246,438.697,246,435.866z M121,405.866v-9.732
				c0-2.831,2.303-5.134,5.134-5.134h79.732c2.831,0,5.134,2.303,5.134,5.134v9.732c0,2.831-2.303,5.134-5.134,5.134h-79.732
				C123.303,411,121,408.697,121,405.866z M121,366.134c0-2.831,2.303-5.134,5.134-5.134h79.732c2.831,0,5.134,2.303,5.134,5.134
				v9.732c0,2.831-2.303,5.134-5.134,5.134h-79.732c-2.831,0-5.134-2.303-5.134-5.134V366.134z M121,435.866v-9.732
				c0-2.831,2.303-5.134,5.134-5.134h79.732c2.831,0,5.134,2.303,5.134,5.134v9.732c0,2.831-2.303,5.134-5.134,5.134h-79.732
				C123.303,441,121,438.697,121,435.866z M56,11h10v430H56V11z M66,501H56v-30h10V501z M501,461c-15.189,0-465.691,0-490,0v-10
				c110.69,0,427.295,0,490,0V461z" fill="#000000" class="color000000 svgShape"></path>
        <path d="M122.581,330.743l75-25c1.622-0.54,2.855-1.872,3.27-3.53l9.323-37.294l107.342-34.154
				c1.789-0.569,3.107-2.092,3.416-3.942l9.491-56.947l112.079-34.318l-1.994,5.01c-1.021,2.565,0.23,5.473,2.797,6.494
				c2.562,1.019,5.472-0.228,6.494-2.797l5.847-14.69c1-2.505-0.26-5.479-2.797-6.494l-14.69-5.847
				c-2.566-1.021-5.474,0.231-6.494,2.797c-1.021,2.565,0.23,5.473,2.797,6.494l1.471,0.585l-111.396,34.109
				c-1.813,0.556-3.156,2.089-3.468,3.959l-9.498,56.984l-107.086,34.073c-1.652,0.525-2.915,1.87-3.335,3.552l-9.334,37.338
				l-72.396,24.132c-2.62,0.873-4.035,3.705-3.162,6.324C117.133,330.211,119.972,331.613,122.581,330.743z" fill="#000000" class="color000000 svgShape"></path>
      </g>
    </g>
  </g>
</svg>
