<svg xmlns="http://www.w3.org/2000/svg" xml:space="preserve" viewBox="0 0 512 512" enable-background="new 0 0 512 512" id="11331590">
  <g id="_x35_0_x2C__Email_x2C__digital_economy_x2C__message_x2C__online_x2C__communications_x2C__business_and_finance" fill="#000000" class="color000000 svgShape">
    <g fill="#000000" class="color000000 svgShape">
      <g fill="#000000" class="color000000 svgShape">
        <g fill="#000000" class="color000000 svgShape">
          <path d="M341 438.5 258.5 451 171 438.5l3.58-1.43C202.61 425.85 221 398.7 221 368.5l32.667-15.833L291 368.5c0 30.2 18.39 57.35 46.42 68.57L341 438.5zM462.4 48.5H49.6C25.52 48.5 6 68.02 6 92.1v221.4L256 339l250-25.5V92.1C506 68.02 486.48 48.5 462.4 48.5z" fill="#575757" class="color495f66 svgShape"></path>
          <rect width="430" height="238.5" x="41" y="83.5" fill="#ffffff" class="colordfe8eb svgShape"></rect>
          <path d="M506 313.5v11.4c0 24.08-19.52 43.6-43.6 43.6-15.952 0-391.684 0-412.8 0C25.52 368.5 6 348.98 6 324.9v-11.4C26.27 313.5 473.623 313.5 506 313.5zM431 463.5H86c0-13.824 11.2-25 25-25 10.638 0 285.357 0 295 0C419.81 438.5 431 449.69 431 463.5z" fill="#464646" class="color3b4a51 svgShape"></path>
        </g>
        <path d="M266,416.5h-20c-2.762,0-5-2.238-5-5s2.238-5,5-5h20c2.762,0,5,2.238,5,5S268.762,416.5,266,416.5
				z" fill="#373737" class="color283646 svgShape"></path>
      </g>
      <polygon points="186 183.5 192.25 204.335 186 225.17 164.167 220.667 151 203.5" fill="#e6bd6b" class="colore6986b svgShape"></polygon>
      <polygon points="361 203.5 343.5 226 326 225.17 316.833 206.333 326 183.5" fill="#e6bd6b" class="colore6986b svgShape"></polygon>
      <path d="M186,83.5c0,38.042,0,143.802,0,181.67h140c0-37.868,0-143.628,0-181.67H186z" fill="#f5cd7e" class="color7ed7f5 svgShape"></path>
      <circle cx="431" cy="278.5" r="15" fill="#e6b85e" class="colorbde65e svgShape"></circle>
      <circle cx="81" cy="278.5" r="15" fill="#e6b85e" class="colorbde65e svgShape"></circle>
      <circle cx="401" cy="228.5" r="15" fill="#e1b359" class="colore17559 svgShape"></circle>
      <circle cx="111" cy="228.5" r="15" fill="#e1b359" class="colore17559 svgShape"></circle>
      <path d="m233.5 254.57-29 38.93-53.5 20c0-38.197 0-88.016 0-110C151.12 203.574 233.399 254.508 233.5 254.57zM361 313.5l-51.75-20-30.75-38.93c1.691-1.047-13.667 8.461 82.5-51.07C361 215.03 361 301.823 361 313.5z" fill="#ffb729" class="coloreec158 svgShape"></path>
      <path d="M361,313.5H151c10.002-7.144,85.991-61.422,105-75C263.693,243.995,348.77,304.764,361,313.5z" fill="#f6c25b" class="colorf6df5b svgShape"></path>
      <g fill="#000000" class="color000000 svgShape">
        <path d="M236,183.5c-2.762,0-5,2.238-5,5s2.238,5,5,5h15v5c0,2.762,2.238,5,5,5s5-2.238,5-5v-5.142
				c11.234-1.248,20-10.797,20-22.358s-8.766-21.11-20-22.358V123.5h15c2.762,0,5-2.238,5-5s-2.238-5-5-5h-15v-5
				c0-2.762-2.238-5-5-5s-5,2.238-5,5v5.142c-11.234,1.248-20,10.797-20,22.358s8.766,21.11,20,22.358V183.5H236z M271,171
				c0,6.037-4.301,11.086-10,12.248v-24.496C266.699,159.914,271,164.963,271,171z M241,136c0-6.037,4.301-11.086,10-12.248v24.496
				C245.301,147.086,241,142.037,241,136z" fill="#000000" class="color000000 svgShape"></path>
        <path d="M462.4,43.5H49.6C22.802,43.5,1,65.302,1,92.1V324.9c0,26.798,21.802,48.6,48.6,48.6h166.218
				c-1.87,26.241-18.365,49.034-43.099,58.927l-2.683,1.073H111c-16.542,0-30,13.458-30,30c0,2.762,2.238,5,5,5h345
				c2.762,0,5-2.238,5-5c0-16.542-13.458-30-30-30h-64.036l-2.684-1.073c-24.733-9.893-41.228-32.686-43.098-58.927H462.4
				c26.798,0,48.6-21.802,48.6-48.6V92.1C511,65.302,489.198,43.5,462.4,43.5z M49.6,53.5H462.4c21.284,0,38.6,17.315,38.6,38.6
				v216.4h-25v-225c0-2.762-2.238-5-5-5H326H186H41c-2.762,0-5,2.238-5,5v225H11V92.1C11,70.815,28.315,53.5,49.6,53.5z
				 M287.518,254.868c14.377-8.9,56.21-34.796,68.482-42.393v91.309L287.518,254.868z M331,216.191v-24.076l20.223,11.557
				L331,216.191z M321,222.381l-42.303,26.187l-19.791-14.136c-1.738-1.242-4.074-1.242-5.813,0l-19.791,14.136L191,222.381V88.5
				h130V222.381z M181,216.191l-20.223-12.519L181,192.115V216.191z M156,212.476c12.328,7.631,54.091,33.484,68.482,42.393
				L156,303.784V212.476z M181,180.599l-32.48,18.56C147,200.024,146,201.696,146,203.5v20h-15.658
				c-2.229-8.612-10.043-15-19.342-15c-11.028,0-20,8.972-20,20s8.972,20,20,20c9.299,0,17.113-6.388,19.342-15H146v55h-20v-10
				c0-2.762-2.238-5-5-5h-20.658c-2.229-8.612-10.043-15-19.342-15c-11.028,0-20,8.972-20,20s8.972,20,20,20
				c9.299,0,17.113-6.388,19.342-15H116v10c0,2.762,2.238,5,5,5h25v10H46v-220h135V180.599z M121,228.5c0,5.514-4.486,10-10,10
				s-10-4.486-10-10s4.486-10,10-10S121,222.986,121,228.5z M91,278.5c0,5.514-4.486,10-10,10s-10-4.486-10-10s4.486-10,10-10
				S91,272.986,91,278.5z M256,244.645c17.163,12.26,72.374,51.695,89.398,63.855H166.602
				C177.089,301.009,149.379,320.802,256,244.645z M366,298.5h25c2.762,0,5-2.238,5-5v-10h15.658c2.229,8.612,10.043,15,19.342,15
				c11.028,0,20-8.972,20-20s-8.972-20-20-20c-9.299,0-17.113,6.388-19.342,15H391c-2.762,0-5,2.238-5,5v10h-20v-55h15.658
				c2.229,8.612,10.043,15,19.342,15c11.028,0,20-8.972,20-20s-8.972-20-20-20c-9.299,0-17.113,6.388-19.342,15H366v-20
				c0-1.808-1.02-3.483-2.52-4.341L331,180.599V88.5h135v220H366V298.5z M421,278.5c0-5.514,4.486-10,10-10s10,4.486,10,10
				s-4.486,10-10,10S421,284.014,421,278.5z M391,228.5c0-5.514,4.486-10,10-10s10,4.486,10,10s-4.486,10-10,10
				S391,234.014,391,228.5z M425.367,458.5H91.633c2.226-8.616,10.065-15,19.367-15c9.622,0,285.462,0,295,0
				C415.302,443.5,423.142,449.884,425.367,458.5z M320.169,433.5H191.831c19.835-13.559,32.479-35.5,34.002-60h60.335
				C287.69,398,300.334,419.941,320.169,433.5z M462.4,363.5H49.6c-21.284,0-38.6-17.315-38.6-38.6v-6.4c49.777,0,437.926,0,490,0
				v6.4C501,346.185,483.685,363.5,462.4,363.5z" fill="#000000" class="color000000 svgShape"></path>
        <path d="M281 288.5h-50c-2.762 0-5 2.238-5 5s2.238 5 5 5h50c2.762 0 5-2.238 5-5S283.762 288.5 281 288.5zM246 416.5h20c2.762 0 5-2.238 5-5s-2.238-5-5-5h-20c-2.762 0-5 2.238-5 5S243.238 416.5 246 416.5z" fill="#000000" class="color000000 svgShape"></path>
      </g>
    </g>
  </g>
</svg>
