<svg xmlns="http://www.w3.org/2000/svg" viewBox="0 0 520 520" id="2881907">
  <path fill="#ffffff" d="M55 415V153.67C55 137.84 67.83 125 83.67 125h352.66c15.84 0 28.67 12.84 28.67 28.67V415H55z" class="colore3f5ff svgShape"></path>
  <path fill="#ffb729" d="M315 215H205V100c0-30.37 24.62-55 55-55 30.366 0 55 24.619 55 55v115z" class="colorff884d svgShape"></path>
  <path fill="#737373" d="M495 415c0 33.079-26.793 60-60 60H85c-33.14 0-60-26.86-60-60h470z" class="color3b6bab svgShape"></path>
  <circle cx="260" cy="150" r="25" fill="#ffdd99" class="color99ccff svgShape"></circle>
  <path fill="#e49b0c" d="M315 215v40H205v-40z" class="colore40c57 svgShape"></path>
  <path fill="#ffc34d" d="M365 245v40h-50v-90c13.8 0 26.3 5.6 35.35 14.65C359.4 218.69 365 231.19 365 245zm-160 10v30h-50v-40c0-13.81 5.6-26.31 14.65-35.35C178.7 200.6 191.2 195 205 195v60z" class="colorff4d4d svgShape"></path>
  <path d="M55 420a5 5 0 0 1-5-5V153.67C50 135.105 65.104 120 83.67 120H205a5 5 0 1 1 0 10H83.67C70.618 130 60 140.618 60 153.67V415a5 5 0 0 1-5 5zm410 0a5 5 0 0 1-5-5V153.67c0-13.052-10.618-23.67-23.67-23.67H315a5 5 0 1 1 0-10h121.33c18.565 0 33.67 15.105 33.67 33.67V415a5 5 0 0 1-5 5z" fill="#000000" class="color000000 svgShape"></path>
  <path d="M435 480H85c-35.841 0-65-29.159-65-65a5 5 0 0 1 5-5h70a5 5 0 1 1 0 10H30.225c2.533 27.994 26.132 50 54.775 50h350c14.696 0 28.509-5.72 38.895-16.105 9.198-9.207 14.736-21.094 15.883-33.895H425a5 5 0 1 1 0-10h70a5 5 0 0 1 5 5c0 17.355-6.759 33.679-19.033 45.964C468.691 473.24 452.367 480 435 480z" fill="#000000" class="color000000 svgShape"></path>
  <path d="M425 420H95a5 5 0 0 1-5-5V165a5 5 0 0 1 5-5h60a5 5 0 1 1 0 10h-55v240h320V170h-55a5 5 0 1 1 0-10h60a5 5 0 0 1 5 5v250a5 5 0 0 1-5 5z" fill="#000000" class="color000000 svgShape"></path>
  <path d="M315 200a5 5 0 0 1-5-5v-95c0-13.345-5.202-25.9-14.647-35.355C285.91 55.201 273.354 50 260 50c-27.57 0-50 22.43-50 50v95a5 5 0 1 1-10 0v-95c0-33.084 26.916-60 60-60 16.025 0 31.092 6.241 42.426 17.575C313.759 68.92 320 83.986 320 100v95a5 5 0 0 1-5 5zm0 60H205a5 5 0 1 1 0-10h110a5 5 0 1 1 0 10z" fill="#000000" class="color000000 svgShape"></path>
  <path d="M365 290h-50a5 5 0 0 1-5-5v-90a5 5 0 0 1 5-5c14.685 0 28.495 5.723 38.886 16.115C364.276 216.494 370 230.305 370 245v40a5 5 0 0 1-5 5zm-45-10h40v-35c0-12.022-4.682-23.319-13.184-31.813-7.313-7.314-16.693-11.801-26.816-12.914V280zm-115 10h-50a5 5 0 0 1-5-5v-40c0-14.695 5.724-28.506 16.116-38.887C176.505 195.723 190.315 190 205 190a5 5 0 0 1 5 5v90a5 5 0 0 1-5 5zm-45-10h40v-79.727c-10.123 1.113-19.503 5.6-26.814 12.912C164.682 221.681 160 232.978 160 245v35zm85 70a5 5 0 0 1-5-5v-90a5 5 0 1 1 10 0v90a5 5 0 0 1-5 5zm40 70a5 5 0 0 1-5-5v-90a5 5 0 1 1 10 0v90a5 5 0 0 1-5 5zm-25-240c-16.542 0-30-13.458-30-30s13.458-30 30-30 30 13.458 30 30-13.458 30-30 30zm0-50c-11.028 0-20 8.972-20 20s8.972 20 20 20 20-8.972 20-20-8.972-20-20-20z" fill="#000000" class="color000000 svgShape"></path>
  <path d="M315 220H205a5 5 0 1 1 0-10h110a5 5 0 1 1 0 10z" fill="#000000" class="color000000 svgShape"></path>
</svg>
