<svg xmlns="http://www.w3.org/2000/svg" xml:space="preserve" viewBox="0 0 512 512" enable-background="new 0 0 512 512" id="11331564">
  <g id="_x32_4_x2C__filter_x2C__digital_x2C__refine_x2C__digital_x2C__Tools_and_utensils_x2C__funnel" fill="#000000" class="color000000 svgShape">
    <g fill="#000000" class="color000000 svgShape">
      <polygon points="431 240.997 387.8 280.997 256 298.997 124.2 280.997 81 240.997 254.333 228.997" fill="#f5cd7e" class="color7ed7f5 svgShape"></polygon>
      <polygon points="296 365.997 296 465.997 216 505.997 216 365.997 124.2 280.997 387.8 280.997" fill="#ffffff" class="colordfe8eb svgShape"></polygon>
      <rect width="350" height="35.667" x="81" y="205.331" fill="#ffffff" class="colordfe8eb svgShape"></rect>
      <circle cx="296" cy="120.997" r="20" fill="#ffb729" class="colorf6df5b svgShape"></circle>
      <circle cx="221" cy="120.997" r="20" fill="#ffb729" class="colorf6df5b svgShape"></circle>
      <circle cx="351" cy="80.997" r="20" fill="#e6b85e" class="colorbde65e svgShape"></circle>
      <circle cx="161" cy="80.997" r="20" fill="#e6b85e" class="colorbde65e svgShape"></circle>
      <circle cx="396" cy="25.997" r="20" fill="#e1b359" class="colore17559 svgShape"></circle>
      <circle cx="116" cy="25.997" r="20" fill="#e1b359" class="colore17559 svgShape"></circle>
      <path d="M446,180.997v30c-44.725,0-317.112,0-380,0v-30C71.836,180.997,434.25,180.997,446,180.997z" fill="#f5cd7e" class="color7ed7f5 svgShape"></path>
      <g fill="#000000" class="color000000 svgShape">
        <path d="M446,175.997h-90v-30h19.167c14.244,0,25.833-11.589,25.833-25.833v-69.67c11.397-2.323,20-12.424,20-24.497
				c0-13.785-11.215-25-25-25s-25,11.215-25,25c0,12.073,8.603,22.174,20,24.497v69.67c0,8.73-7.103,15.833-15.833,15.833H356
				v-30.503c11.397-2.323,20-12.424,20-24.497c0-13.785-11.215-25-25-25s-25,11.215-25,25c0,12.073,8.603,22.174,20,24.497v70.503
				h-45v-30.503c11.397-2.323,20-12.424,20-24.497c0-13.785-11.215-25-25-25s-25,11.215-25,25c0,12.073,8.603,22.174,20,24.497
				v30.503h-65v-30.503c11.397-2.323,20-12.424,20-24.497c0-13.785-11.215-25-25-25s-25,11.215-25,25
				c0,12.073,8.603,22.174,20,24.497v30.503h-50v-70.503c11.397-2.323,20-12.424,20-24.497c0-13.785-11.215-25-25-25
				s-25,11.215-25,25c0,12.073,8.603,22.174,20,24.497v30.503h-19.167c-8.73,0-15.833-7.103-15.833-15.833v-69.67
				c11.397-2.323,20-12.424,20-24.497c0-13.785-11.215-25-25-25s-25,11.215-25,25c0,12.073,8.603,22.174,20,24.497v69.67
				c0,14.244,11.589,25.833,25.833,25.833H156v30H66c-2.762,0-5,2.238-5,5v30c0,2.762,2.238,5,5,5h10
				c0.146,26.243-0.696,26.55,1.603,28.669L211,368.182v137.815c0,3.715,3.919,6.132,7.236,4.472l80-40
				c1.693-0.847,2.764-2.578,2.764-4.472v-97.815c142.493-131.949,133.578-123.599,134.096-124.329
				c1.404-2.003,0.775-2.581,0.904-27.856h10c2.762,0,5-2.238,5-5v-30C451,178.236,448.762,175.997,446,175.997z M381,25.997
				c0-8.271,6.729-15,15-15s15,6.729,15,15s-6.729,15-15,15S381,34.269,381,25.997z M336,80.997c0-8.271,6.729-15,15-15
				s15,6.729,15,15s-6.729,15-15,15S336,89.269,336,80.997z M281,120.997c0-8.271,6.729-15,15-15s15,6.729,15,15s-6.729,15-15,15
				S281,129.269,281,120.997z M206,120.997c0-8.271,6.729-15,15-15s15,6.729,15,15s-6.729,15-15,15S206,129.269,206,120.997z
				 M101,25.997c0-8.271,6.729-15,15-15s15,6.729,15,15s-6.729,15-15,15S101,34.269,101,25.997z M146,80.997c0-8.271,6.729-15,15-15
				s15,6.729,15,15s-6.729,15-15,15S146,89.269,146,80.997z M221,497.908v-131.91c0-3.643,3.328,1.128-84.211-80h238.422
				c-56.215,52.098-74.958,68.774-81.173,75H251c-2.762,0-5,2.238-5,5s2.238,5,5,5h40v91.91L221,497.908z M385.992,275.997H126.008
				c-9.726-9.029-20.43-18.984-32.248-30h324.48C406.423,257.013,395.719,266.969,385.992,275.997z M426,235.997H86v-20h340V235.997
				z M441,205.997c-55.766,0-314.059,0-370,0v-20h370V205.997z" fill="#000000" class="color000000 svgShape"></path>
      </g>
    </g>
  </g>
</svg>
