<svg xmlns="http://www.w3.org/2000/svg" xml:space="preserve" viewBox="0 0 512 512" enable-background="new 0 0 512 512" id="11331572">
  <g id="_x33_2_x2C__financial_x2C__analytics_x2C__graph_x2C__technology_x2C__business_x2C__computer" fill="#000000" class="color000000 svgShape">
    <g fill="#000000" class="color000000 svgShape">
      <g fill="#000000" class="color000000 svgShape">
        <path d="M341 438.5 258.5 451 171 438.5l3.58-1.43C202.61 425.85 221 398.7 221 368.5l32.667-15.833L291 368.5c0 30.2 18.39 57.35 46.42 68.57L341 438.5zM462.4 48.5H49.6C25.52 48.5 6 68.02 6 92.1v221.4L256 339l250-25.5V92.1C506 68.02 486.48 48.5 462.4 48.5z" fill="#575757" class="color495f66 svgShape"></path>
        <rect width="430" height="238.5" x="41" y="83.5" fill="#ffffff" class="colordfe8eb svgShape"></rect>
        <path d="M506 313.5v11.4c0 24.08-19.52 43.6-43.6 43.6-20.751 0-396.847 0-412.8 0C25.52 368.5 6 348.98 6 324.9v-11.4C26.27 313.5 473.623 313.5 506 313.5zM431 463.5H86c0-13.824 11.2-25 25-25h60c24.727 0 227.797 0 235 0C419.81 438.5 431 449.69 431 463.5z" fill="#464646" class="color3b4a51 svgShape"></path>
      </g>
      <circle cx="396" cy="263.5" r="15" fill="#e6b85e" class="colorbde65e svgShape"></circle>
      <circle cx="396" cy="198.5" r="15" fill="#ffb729" class="colorf6df5b svgShape"></circle>
      <circle cx="396" cy="133.5" r="15" fill="#e1b359" class="colore17559 svgShape"></circle>
      <path d="M166,164.5c18.779,0,34,15.221,34,34c0,30.391-36.812,45.264-58.038,24.038
			C120.729,201.305,135.622,164.5,166,164.5z" fill="#f5cd7e" class="color7ed7f5 svgShape"></path>
      <path d="M166,133.5c35.9,0,65,29.1,65,65s-29.1,65-65,65c-17.95,0-34.2-7.28-45.96-19.04l5.627-18.627
			l19.123-6.123c18.735,18.735,51.21,5.594,51.21-21.21c0-16.57-13.43-30-30-30l-10.167-16.167L166,133.5z" fill="#e1b359" class="colore17559 svgShape"></path>
      <path d="M166,133.5v35c-16.57,0-30,13.43-30,30l-17.333,7.5L101,198.5C101,162.6,130.1,133.5,166,133.5z" fill="#ffb729" class="colorf6df5b svgShape"></path>
      <path d="M136,198.5c0,8.28,3.36,15.78,8.79,21.21l-24.75,24.75C108.28,232.7,101,216.45,101,198.5H136z" fill="#e6b85e" class="colorbde65e svgShape"></path>
      <g fill="#000000" class="color000000 svgShape">
        <path d="M462.4,43.5H49.6C22.802,43.5,1,65.302,1,92.1V324.9c0,26.798,21.802,48.6,48.6,48.6h166.218
				c-1.87,26.241-18.365,49.034-43.099,58.927l-2.683,1.073H111c-16.542,0-30,13.458-30,30c0,2.762,2.238,5,5,5h345
				c2.762,0,5-2.238,5-5c0-16.542-13.458-30-30-30h-64.036l-2.683-1.073c-24.733-9.893-41.228-32.686-43.098-58.927H462.4
				c26.798,0,48.6-21.802,48.6-48.6V92.1C511,65.302,489.198,43.5,462.4,43.5z M49.6,53.5H462.4c21.284,0,38.6,17.315,38.6,38.6
				v216.4h-25v-225c0-2.762-2.238-5-5-5H41c-2.762,0-5,2.238-5,5v225H11V92.1C11,70.815,28.315,53.5,49.6,53.5z M466,308.5H46v-220
				h420V308.5z M425.367,458.5H91.633c2.226-8.616,10.065-15,19.367-15c5.835,0,286.423,0,295,0
				C415.302,443.5,423.142,449.884,425.367,458.5z M320.169,433.5H191.831c19.835-13.559,32.479-35.5,34.002-60h60.335
				C287.69,398,300.334,419.941,320.169,433.5z M462.4,363.5H49.6c-21.284,0-38.6-17.315-38.6-38.6v-6.4c17.349,0,472.641,0,490,0
				v6.4C501,346.185,483.685,363.5,462.4,363.5z" fill="#000000" class="color000000 svgShape"></path>
        <path d="M261 158.5h75c1.326 0 2.598-.526 3.535-1.465l18.536-18.535h18.587c2.229 8.612 10.043 15 19.342 15 11.028 0 20-8.972 20-20s-8.972-20-20-20c-9.299 0-17.113 6.388-19.342 15H356c-1.326 0-2.598.526-3.535 1.465L333.929 148.5H261c-2.762 0-5 2.238-5 5S258.238 158.5 261 158.5zM396 123.5c5.514 0 10 4.486 10 10s-4.486 10-10 10-10-4.486-10-10S390.486 123.5 396 123.5zM396 178.5c-9.299 0-17.113 6.388-19.342 15H321c-2.762 0-5 2.238-5 5s2.238 5 5 5h55.658c2.229 8.612 10.043 15 19.342 15 11.028 0 20-8.972 20-20S407.028 178.5 396 178.5zM396 208.5c-5.514 0-10-4.486-10-10s4.486-10 10-10 10 4.486 10 10S401.514 208.5 396 208.5zM261 248.5h72.929l18.536 18.535c.938.938 2.209 1.465 3.535 1.465h20.658c2.229 8.612 10.043 15 19.342 15 11.028 0 20-8.972 20-20s-8.972-20-20-20c-9.299 0-17.113 6.388-19.342 15h-18.587l-18.536-18.535c-.938-.938-2.209-1.465-3.535-1.465h-75c-2.762 0-5 2.238-5 5S258.238 248.5 261 248.5zM396 253.5c5.514 0 10 4.486 10 10s-4.486 10-10 10-10-4.486-10-10S390.486 253.5 396 253.5zM166 268.5c38.598 0 70-31.402 70-70s-31.402-70-70-70-70 31.402-70 70C96 237.071 127.417 268.5 166 268.5zM131.363 203.5c.851 5.921 3.183 11.369 6.617 15.95l-17.766 17.766c-7.845-9.263-12.928-20.924-13.99-33.716H131.363zM166 173.5c13.785 0 25 11.215 25 25s-11.215 25-25 25-25-11.215-25-25S152.215 173.5 166 173.5zM226 198.5c0 50.899-59.903 78.657-98.716 45.786l17.766-17.766c22.83 17.113 55.95.886 55.95-28.02 0-17.601-13.062-32.203-30-34.637v-25.138C201.751 141.276 226 167.101 226 198.5zM161 138.725v25.138c-15.304 2.199-27.438 14.333-29.637 29.637h-25.138C108.639 164.399 131.899 141.139 161 138.725zM246 415.5h20c2.762 0 5-2.238 5-5s-2.238-5-5-5h-20c-2.762 0-5 2.238-5 5S243.238 415.5 246 415.5z" fill="#000000" class="color000000 svgShape"></path>
      </g>
    </g>
  </g>
</svg>
