<svg xmlns="http://www.w3.org/2000/svg" xml:space="preserve" viewBox="0 0 512 512" enable-background="new 0 0 512 512" id="11331570">
  <g id="_x33_0_x2C__fintech_x2C__transaction_x2C__banking_x2C__financial_x2C__business_x2C__technology" fill="#000000" class="color000000 svgShape">
    <g fill="#000000" class="color000000 svgShape">
      <path d="M359.5,6h-207C129.58,6,111,24.58,111,47.5c0,19.798,0,400.632,0,417c0,22.92,18.58,41.5,41.5,41.5
			h207c22.92,0,41.5-18.58,41.5-41.5c0-46.151,0-377.863,0-417C401,24.58,382.42,6,359.5,6z" fill="#575757" class="color495f66 svgShape"></path>
      <rect width="220" height="190" x="146" y="236" fill="#ffffff" class="colordfe8eb svgShape"></rect>
      <polygon points="301 41 291 56 221 56 211 41 146 41 146 236 366 236 366 41" fill="#ffffff" class="colordfe8eb svgShape"></polygon>
      <circle cx="491" cy="126" r="15" fill="#e1b359" class="colore17559 svgShape"></circle>
      <circle cx="21" cy="126" r="15" fill="#e1b359" class="colore17559 svgShape"></circle>
      <circle cx="451" cy="226" r="15" fill="#f6c25b" class="colorf6df5b svgShape"></circle>
      <circle cx="61" cy="226" r="15" fill="#f6c25b" class="colorf6df5b svgShape"></circle>
      <circle cx="491" cy="323.5" r="15" fill="#e6b85e" class="colorbde65e svgShape"></circle>
      <circle cx="21" cy="323.5" r="15" fill="#e6b85e" class="colorbde65e svgShape"></circle>
      <path d="M256,126c60.75,0,110,49.25,110,110s-49.25,110-110,110s-110-49.25-110-110S195.25,126,256,126z" fill="#f6c25b" class="colorf6df5b svgShape"></path>
      <path d="M256,166c38.66,0,70,31.34,70,70s-31.34,70-70,70s-70-31.34-70-70S217.34,166,256,166z" fill="#ffb729" class="coloreec158 svgShape"></path>
      <g fill="#000000" class="color000000 svgShape">
        <path d="M491,303.5c-9.299,0-17.113,6.388-19.342,15h-12.409l-8.68-19.53c-0.803-1.806-2.594-2.97-4.569-2.97h-40v-65h25.658
				c2.229,8.612,10.043,15,19.342,15c11.028,0,20-8.972,20-20s-8.972-20-20-20c-9.299,0-17.113,6.388-19.342,15H406v-67.5h40
				c1.976,0,3.767-1.164,4.569-2.97l8.68-19.53h12.409c2.229,8.612,10.043,15,19.342,15c11.028,0,20-8.972,20-20s-8.972-20-20-20
				c-9.299,0-17.113,6.388-19.342,15H456c-1.976,0-3.767,1.164-4.569,2.97l-8.68,19.53H406v-96C406,21.859,385.141,1,359.5,1h-207
				C126.859,1,106,21.859,106,47.5v96H69.249l-8.68-19.53C59.767,122.164,57.976,121,56,121H40.342
				c-2.229-8.612-10.043-15-19.342-15c-11.028,0-20,8.972-20,20s8.972,20,20,20c9.299,0,17.113-6.388,19.342-15h12.409l8.68,19.53
				c0.803,1.806,2.594,2.97,4.569,2.97h40V221H80.342c-2.229-8.612-10.043-15-19.342-15c-11.028,0-20,8.972-20,20s8.972,20,20,20
				c9.299,0,17.113-6.388,19.342-15H106v65H66c-1.976,0-3.767,1.164-4.569,2.97l-8.68,19.53H40.342
				c-2.229-8.612-10.043-15-19.342-15c-11.028,0-20,8.972-20,20s8.972,20,20,20c9.299,0,17.113-6.388,19.342-15H56
				c1.976,0,3.767-1.164,4.569-2.97l8.68-19.53H106v158.5c0,25.641,20.859,46.5,46.5,46.5h207c25.641,0,46.5-20.859,46.5-46.5V306
				h36.751l8.68,19.53c0.803,1.806,2.594,2.97,4.569,2.97h15.658c2.229,8.612,10.043,15,19.342,15c11.028,0,20-8.972,20-20
				S502.028,303.5,491,303.5z M451,216c5.514,0,10,4.486,10,10s-4.486,10-10,10s-10-4.486-10-10S445.486,216,451,216z M491,116
				c5.514,0,10,4.486,10,10s-4.486,10-10,10s-10-4.486-10-10S485.486,116,491,116z M21,136c-5.514,0-10-4.486-10-10s4.486-10,10-10
				s10,4.486,10,10S26.514,136,21,136z M61,236c-5.514,0-10-4.486-10-10s4.486-10,10-10s10,4.486,10,10S66.514,236,61,236z
				 M21,333.5c-5.514,0-10-4.486-10-10s4.486-10,10-10s10,4.486,10,10S26.514,333.5,21,333.5z M396,464.5
				c0,20.126-16.374,36.5-36.5,36.5h-207c-20.126,0-36.5-16.374-36.5-36.5v-417c0-20.126,16.374-36.5,36.5-36.5h207
				c20.126,0,36.5,16.374,36.5,36.5V464.5z M491,333.5c-5.514,0-10-4.486-10-10s4.486-10,10-10s10,4.486,10,10
				S496.514,333.5,491,333.5z" fill="#000000" class="color000000 svgShape"></path>
        <path d="M256,311c41.355,0,75-33.645,75-75s-33.645-75-75-75s-75,33.645-75,75S214.645,311,256,311z M256,171
				c35.841,0,65,29.159,65,65s-29.159,65-65,65s-65-29.159-65-65S220.159,171,256,171z" fill="#000000" class="color000000 svgShape"></path>
        <path d="M236,266c-2.762,0-5,2.238-5,5s2.238,5,5,5h15v5c0,2.762,2.238,5,5,5s5-2.238,5-5v-5.142
				c11.234-1.248,20-10.797,20-22.358s-8.766-21.11-20-22.358V206h15c2.762,0,5-2.238,5-5s-2.238-5-5-5h-15v-5c0-2.762-2.238-5-5-5
				s-5,2.238-5,5v5.142c-11.234,1.248-20,10.797-20,22.358s8.766,21.11,20,22.358V266H236z M271,253.5
				c0,6.037-4.301,11.087-10,12.248v-24.496C266.699,242.413,271,247.463,271,253.5z M241,218.5c0-6.037,4.301-11.087,10-12.248
				v24.496C245.301,229.587,241,224.537,241,218.5z" fill="#000000" class="color000000 svgShape"></path>
        <path d="M366 36c-70.734-.005-65.958-.374-67.778.844-1.273.853-.839.657-9.897 14.156h-64.648c-9.375-14.061-8.784-13.562-10.32-14.385-1.579-.85 4.08-.652-67.356-.615-2.762 0-5 2.238-5 5v385c0 2.762 2.238 5 5 5h220c2.762 0 5-2.238 5-5V41C371 38.238 368.762 36 366 36zM361 421H151V282.885C168.979 322.991 209.279 351 256 351s87.021-28.009 105-68.115V421zM151 236c0-57.897 47.103-105 105-105s105 47.103 105 105-47.103 105-105 105S151 293.897 151 236zM256 121c-46.721 0-87.021 28.009-105 68.115V46h57.324l8.516 12.773C217.767 60.164 219.328 61 221 61h70c1.672 0 3.233-.836 4.16-2.227L303.676 46H361v143.115C343.021 149.009 302.721 121 256 121zM271 461h-30c-2.762 0-5 2.238-5 5s2.238 5 5 5h30c2.762 0 5-2.238 5-5S273.762 461 271 461z" fill="#000000" class="color000000 svgShape"></path>
      </g>
    </g>
  </g>
</svg>
