<svg xmlns="http://www.w3.org/2000/svg" viewBox="0 0 520 520" id="2881874">
  <path fill="#8e6e2e" d="m410 280 20.009 90L410 460H110l-21.667-90L110 280l150-17.67L410 280z" class="color8e572e svgShape"></path>
  <path fill="#f0e2c5" d="M120 175h50v50h-50z" class="colorc5e6f0 svgShape"></path>
  <path fill="#ffb729" d="M360 140c42.614 0 75.367 37.778 69.28 80L360 230.997 290.72 220c-6.081-42.177 26.626-80 69.28-80z" class="colorc6ea4b svgShape"></path>
  <circle cx="360" cy="100" r="40" fill="#ffd278" class="colorffe278 svgShape"></circle>
  <path fill="#ffdd99" d="m350 370-90 50-90-50 90-50z" class="color99ccff svgShape"></path>
  <path fill="#000000" d="M470 280v180h-60V280l30-17.67L470 280zm-360 0v180H50V280l30-17.67L110 280z" class="color5c3629 svgShape"></path>
  <path fill="#c19b4f" d="M510 220v60H10v-60h500z" class="colorc17d4f svgShape"></path>
  <path fill="#ffffff" d="M220 80v100H70V80h150z" class="colore3f5ff svgShape"></path>
</svg>
