<svg xmlns="http://www.w3.org/2000/svg" viewBox="0 0 520 520" id="2881902">
  <path fill="#ffffff" d="M450 260h-76c0-62.96-51.04-114-114-114V70c104.93 0 190 85.07 190 190z" class="colorff4d4d svgShape"></path>
  <path fill="#ffb729" d="M380 260h70c0 104.94-85.07 190-190 190v-76c62.96 0 114-51.04 114-114h6z" class="colorff884d svgShape"></path>
  <path fill="#e49b0c" d="M260 146c62.96 0 114 51.04 114 114s-51.04 114-114 114-114-51.04-114-114 51.04-114 114-114zm60 114c0-33.13-26.86-60-60-60s-60 26.87-60 60c0 33.14 26.86 60 60 60s60-26.86 60-60z" class="colore40c57 svgShape"></path>
  <path fill="#ffffff" d="M260 380v70c-104.93 0-190-85.06-190-190h76c0 62.96 51.04 114 114 114v6z" class="colorff4d4d svgShape"></path>
  <path fill="#ffb729" d="M260 140v6c-62.96 0-114 51.04-114 114H70c0-104.93 85.07-190 190-190v70z" class="colorff884d svgShape"></path>
  <path d="M260 455c-107.523 0-195-87.477-195-195S152.477 65 260 65s195 87.477 195 195-87.477 195-195 195zm0-380C157.991 75 75 157.99 75 260s82.991 185 185 185 185-82.99 185-185S362.009 75 260 75z" fill="#000000" class="color000000 svgShape"></path>
  <path d="M260 379c-65.617 0-119-53.383-119-119s53.383-119 119-119 119 53.383 119 119-53.383 119-119 119zm0-228c-60.103 0-109 48.898-109 109 0 60.103 48.897 109 109 109s109-48.897 109-109c0-60.102-48.897-109-109-109z" fill="#000000" class="color000000 svgShape"></path>
  <path d="M260 325c-35.841 0-65-29.159-65-65s29.159-65 65-65 65 29.159 65 65-29.159 65-65 65zm0-120c-30.327 0-55 24.673-55 55s24.673 55 55 55 55-24.673 55-55-24.673-55-55-55zm49.995 294.772a5.002 5.002 0 0 1-1.032-9.893c90.678-19.211 161.691-90.225 180.915-180.916a5 5 0 1 1 9.782 2.075c-20.042 94.556-94.082 168.595-188.625 188.625a5.07 5.07 0 0 1-1.04.109zM25.235 215.001a5 5 0 0 1-4.896-6.038c20.043-94.549 94.083-168.584 188.625-188.614a5.001 5.001 0 0 1 2.073 9.783C120.359 49.343 49.345 120.353 30.121 211.037a5.001 5.001 0 0 1-4.886 3.964zm184.77 284.771c-.343 0-.692-.035-1.041-.109-94.543-20.03-168.583-94.069-188.625-188.625a5 5 0 0 1 9.782-2.075c19.224 90.691 90.237 161.705 180.915 180.916a5.001 5.001 0 0 1-1.031 9.893zm284.76-284.771a5.001 5.001 0 0 1-4.886-3.964c-19.224-90.684-90.238-161.694-180.915-180.905a5 5 0 1 1 2.073-9.783c94.542 20.03 168.582 94.065 188.625 188.614a5.001 5.001 0 0 1-4.897 6.038zM260 145a5 5 0 0 1-5-5V10a5 5 0 1 1 10 0v130a5 5 0 0 1-5 5zm0 370a5 5 0 0 1-5-5V380a5 5 0 1 1 10 0v130a5 5 0 0 1-5 5zm250-250H380a5 5 0 1 1 0-10h130a5 5 0 1 1 0 10zm-370 0H10a5 5 0 1 1 0-10h130a5 5 0 1 1 0 10z" fill="#000000" class="color000000 svgShape"></path>
</svg>
