<svg xmlns="http://www.w3.org/2000/svg" xml:space="preserve" viewBox="0 0 512 512" enable-background="new 0 0 512 512" id="11331559">
  <g id="_x31_9_x2C__growth_x2C__bar_chart_x2C__performance_x2C__stats_x2C__business_and_finance_x2C__business" fill="#000000" class="color000000 svgShape">
    <g fill="#000000" class="color000000 svgShape">
      <circle cx="210.52" cy="146.96" r="95" fill="#f6c25b" class="colorf6df5b svgShape"></circle>
      <path d="M456,141v338.61h-50V196.134c16.311-14.849,33.122-33.055,47.14-51.373
			C453.217,144.735,455.95,141.068,456,141z" fill="#f5cd7e" class="color7ed7f5 svgShape"></path>
      <path d="M406,192.667v287.607h-50V231.982C371.088,222.159,390.819,206.936,406,192.667z" fill="#f6c25b" class="colorf6df5b svgShape"></path>
      <path d="M306,259v217.75h-50V277.476C272.52,272.68,289.025,266.681,306,259z" fill="#d4b371" class="color717ed4 svgShape"></path>
      <path d="M256,276.5v200.25h-50V287.343C222.566,284.856,237.921,281.74,256,276.5z" fill="#f5cd7e" class="color7ed7f5 svgShape"></path>
      <path d="M206,284.5v194.47h-50V288.335c8.574-0.03,18.931-0.486,28.21-1.296
			C184.367,287.124,196.665,285.883,206,284.5z" fill="#e6b85e" class="colorbde65e svgShape"></path>
      <path d="M156,289.5v187.99h-50V289.511C141.31,289.511,154.771,289.519,156,289.5z" fill="#f6c25b" class="colorf6df5b svgShape"></path>
      <path d="M356,233.5v242.72h-50V260.7C324.982,252.168,343.2,241.922,356,233.5z" fill="#c7a35b" class="colorc7865b svgShape"></path>
      <rect width="50" height="193" x="56" y="287" fill="#e1b359" class="colore17559 svgShape"></rect>
      <path d="M506,471v30H6v-30c310.093,0,39.145,0,400,0h50H506z" fill="#575757" class="color495f66 svgShape"></path>
      <path d="M502.57,110.01c3.561,6.227-1.168,11.745-1.21,11.85c-4.93,6.22-14.76,4.67-17.55-2.76l-2.23-5.95
			c-13.066,21.153-28.306,39.985-28.44,40.03c-63.379,78.331-156.866,131.832-268.88,141.62c-0.01,0-0.03,0.01-0.05,0
			c-27.864,2.143-38.685,0.714-128.21,1.2H36v-20h117.87c124.31,0,241.02-64.33,307.79-168.74l-10.95,1.77
			c-5.34,0.874-10.547-2.615-11.64-8.07c-1.1-5.51,2.46-10.87,7.96-11.99L486,81.02L502.57,110.01z" fill="#ffffff" class="colordfe8eb svgShape"></path>
      <path d="M210.52,81.96c35.9,0,65,29.1,65,65s-29.1,65-65,65s-65-29.1-65-65S174.62,81.96,210.52,81.96z" fill="#ffb729" class="coloreec158 svgShape"></path>
      <g fill="#000000" class="color000000 svgShape">
        <path d="M506,466h-45V151.338c6.931-8.844,13.5-17.991,19.667-27.432c5.485,8.398,18.009,9.385,24.607,1.058
				c0.04-0.101,6.801-8.413,1.641-17.438l-16.574-28.992c-1.071-1.873-3.22-2.846-5.341-2.418l-38.965,7.952
				c-8.182,1.671-13.505,9.69-11.867,17.877c1.591,7.952,9.034,13.199,17.018,12.073C384.567,211.128,271.699,271,153.872,271H36
				c-2.762,0-5,2.238-5,5v20c0,2.762,2.238,5,5,5h15v165H6c-2.762,0-5,2.238-5,5v30c0,2.762,2.238,5,5,5h500c2.762,0,5-2.238,5-5
				v-30C511,468.239,508.762,466,506,466z M451,466h-40V204.211c13.811-12.13,27.304-25.71,40-40.629V466z M311,466V268.028
				c14.312-6.309,28.007-13.388,40-20.445V466H311z M261,466V286.079c13.649-3.893,26.998-8.511,40-13.813V466H261z M211,466
				V296.837c13.569-1.994,26.914-4.692,40-8.048V466H211z M161,466V300.931c13.508-0.243,26.851-1.18,40-2.765V466H161z M111,466
				V301h40v165H111z M361,241.497c13.522-8.498,27.134-18.259,39.89-28.71C400.89,212.92,401,465.875,401,466h-40V241.497z M41,281
				h112.872c127.176,0,244.981-66.241,312.003-171.051c2.323-3.631-0.747-8.316-5.014-7.629l-10.953,1.778
				c-2.781,0.458-5.383-1.356-5.934-4.115c-0.562-2.801,1.261-5.545,4.061-6.116l35.42-7.229l14.778,25.852
				c1.975,3.454-0.75,6.155-0.796,6.263c-2.516,3.177-7.527,2.382-8.947-1.405l-2.23-5.949c-1.455-3.885-6.755-4.401-8.935-0.874
				c-34.87,56.397-74.862,87.345-75.576,88.466c-55.761,48.066-123.724,78.609-196.424,88.513
				C171.785,292.072,157.503,290.994,56,291H41V281z M61,301h40v165H61V301z M501,496H11v-20c4.319,0,482.976,0,490,0V496z" fill="#000000" class="color000000 svgShape"></path>
        <path d="M112.153,239.425c1.897,2.018,5.06,2.104,7.068,0.218c2.011-1.892,2.108-5.057,0.217-7.068
				C97.565,209.316,85.52,178.911,85.52,146.96c0-68.925,56.075-125,125-125s125,56.075,125,125c0,2.762,2.238,5,5,5s5-2.238,5-5
				c0-74.439-60.561-135-135-135s-135,60.561-135,135C75.52,181.466,88.529,214.304,112.153,239.425z" fill="#000000" class="color000000 svgShape"></path>
        <path d="M210.519,76.962c-38.598,0-70,31.402-70,70s31.402,70,70,70s70-31.402,70-70S249.116,76.962,210.519,76.962z
				 M210.519,206.962c-33.084,0-60-26.916-60-60s26.916-60,60-60s60,26.916,60,60S243.603,206.962,210.519,206.962z" fill="#000000" class="color000000 svgShape"></path>
        <path d="M230.519,116.962c2.762,0,5-2.238,5-5s-2.238-5-5-5h-15v-5c0-2.762-2.238-5-5-5s-5,2.238-5,5v5.142
				c-11.234,1.248-20,10.797-20,22.358s8.766,21.11,20,22.358v25.142h-15c-2.762,0-5,2.238-5,5s2.238,5,5,5h15v5
				c0,2.762,2.238,5,5,5s5-2.238,5-5v-5.142c11.234-1.248,20-10.797,20-22.358s-8.766-21.11-20-22.358v-25.142H230.519z
				 M195.519,129.462c0-6.037,4.301-11.087,10-12.248v24.496C199.82,140.549,195.519,135.499,195.519,129.462z M225.519,164.462
				c0,6.037-4.302,11.087-10,12.248v-24.496C221.217,153.375,225.519,158.425,225.519,164.462z" fill="#000000" class="color000000 svgShape"></path>
        <path d="M210.519 46.962c-55.141 0-100 44.859-100 100s44.859 100 100 100 100-44.859 100-100S265.659 46.962 210.519 46.962zM210.519 236.962c-49.626 0-90-40.374-90-90s40.374-90 90-90 90 40.374 90 90S260.145 236.962 210.519 236.962zM320.043 33.679c2.335 0 4.423-1.644 4.898-4.021l3.535-17.678c.541-2.708-1.215-5.342-3.923-5.884-2.72-.54-5.343 1.216-5.884 3.923l-3.535 17.678C314.519 30.781 316.874 33.679 320.043 33.679zM337.716 46.355l17.677-17.677c1.953-1.952 1.953-5.118 0-7.07-1.951-1.953-5.119-1.953-7.07 0l-17.677 17.677c-1.953 1.952-1.953 5.118 0 7.07C332.597 48.308 335.765 48.308 337.716 46.355zM343.419 57.943c.536 2.678 3.139 4.465 5.884 3.923l17.678-3.535c2.708-.542 4.464-3.176 3.923-5.884-.541-2.707-3.166-4.463-5.884-3.923l-17.678 3.535C344.634 52.601 342.878 55.235 343.419 57.943zM96.097 29.659c.536 2.678 3.139 4.465 5.884 3.923 2.708-.542 4.464-3.176 3.923-5.884l-3.535-17.678c-.542-2.707-3.168-4.463-5.884-3.923-2.708.542-4.464 3.176-3.923 5.884L96.097 29.659zM83.322 46.355c1.951 1.953 5.119 1.953 7.07 0 1.953-1.952 1.953-5.118 0-7.07L72.716 21.608c-1.951-1.953-5.119-1.953-7.07 0-1.953 1.952-1.953 5.118 0 7.07L83.322 46.355zM54.058 58.331c18.558 3.676 17.746 3.633 18.663 3.633 2.335 0 4.423-1.644 4.898-4.021.541-2.708-1.215-5.342-3.923-5.884l-17.678-3.535c-2.714-.54-5.342 1.216-5.884 3.923C49.594 55.155 51.35 57.789 54.058 58.331z" fill="#000000" class="color000000 svgShape"></path>
      </g>
    </g>
  </g>
</svg>
