<svg xmlns="http://www.w3.org/2000/svg" viewBox="0 0 520 520" id="2881880">
  <path fill="#000000" d="M260 260c71.79 0 130 58.2 130 130v60l-130 20.33L130 450v-60c0-71.79 58.2-130 130-130z" class="colorc5e6f0 svgShape"></path>
  <path fill="#ffffff" d="M168.075 221.925C144.55 198.4 130 165.9 130 130V70l130-18.337L390 70v60c0 35.9-14.55 68.4-38.075 91.925-50.732 50.732-133.035 50.815-183.85 0z" class="colore3f5ff svgShape"></path>
  <path fill="#8e6e2e" d="M430 45a5 5 0 0 0-5 5v435.333a5 5 0 1 0 10 0V50a5 5 0 0 0-5-5zM90 45a5 5 0 0 0-5 5v425a5 5 0 1 0 10 0V50a5 5 0 0 0-5-5z" class="color8e572e svgShape"></path>
  <path fill="#ffb729" d="M420 10c16.57 0 30 13.44 30 30 0 16.736-13.617 30-30 30H100c-16.392 0-30-13.275-30-30 0-16.56 13.439-30 30-30h320zm30 470c0 16.57-13.43 30-30 30H100c-16.414 0-30-13.295-30-30 0-16.713 13.59-30 30-30h320c16.483 0 30 13.37 30 30z" class="colorc17d4f svgShape"></path>
  <path fill="#000000" d="M260 265c-46.869 0-85-38.131-85-85a5 5 0 1 1 10 0c0 41.355 33.645 75 75 75s75-33.645 75-75a5 5 0 1 1 10 0c0 46.869-38.131 85-85 85z" class="colorc5e6f0 svgShape"></path>
  <path fill="#e6d3ae" d="M340 345a5 5 0 0 1-5-5c0-41.355-33.645-75-75-75s-75 33.645-75 75a5 5 0 1 1-10 0c0-46.869 38.131-85 85-85s85 38.131 85 85a5 5 0 0 1-5 5z" class="coloraed7e6 svgShape"></path>
</svg>
