<svg xmlns="http://www.w3.org/2000/svg" viewBox="0 0 520 520" id="2881905">
  <path fill="#ffb729" d="M420 10c16.57 0 30 13.44 30 30 0 16.736-13.617 30-30 30H100c-16.392 0-30-13.275-30-30 0-16.56 13.439-30 30-30h320zm30 470c0 16.57-13.43 30-30 30H100c-16.414 0-30-13.295-30-30 0-16.713 13.59-30 30-30h320c16.483 0 30 13.37 30 30z" class="colorc17d4f svgShape"></path>
  <path fill="#e6d3ae" d="M260 260c71.8 0 130 58.21 130 130v60H130v-60c0-71.79 58.2-130 130-130z" class="coloraed7e6 svgShape"></path>
  <path fill="#ffffff" d="M260 260c-71.8 0-130-58.2-130-130V70h260v60c0 71.8-58.2 130-130 130z" class="colore3f5ff svgShape"></path>
  <path d="M420 75h-30a5 5 0 1 1 0-10h30c2.704 0 5.358-.431 7.889-1.28a25.024 25.024 0 0 0 9.785-6.045C442.399 52.958 445 46.683 445 40c0-13.785-11.215-25-25-25H100c-6.673 0-12.95 2.602-17.675 7.326C77.602 27.049 75 33.326 75 40c0 10.79 6.87 20.32 17.095 23.715A24.79 24.79 0 0 0 100 65h30a5 5 0 1 1 0 10h-30c-3.787 0-7.512-.605-11.071-1.8C74.623 68.451 65 55.107 65 40c0-9.346 3.642-18.134 10.255-24.746C81.868 8.642 90.656 5 100 5h320c19.299 0 35 15.701 35 35 0 9.357-3.643 18.146-10.258 24.749a35.051 35.051 0 0 1-13.691 8.458A34.688 34.688 0 0 1 420 75z" fill="#000000" class="color000000 svgShape"></path>
  <path d="M260 265c-74.439 0-135-60.561-135-135V70a5 5 0 0 1 5-5h260a5 5 0 0 1 5 5v60c0 74.439-60.56 135-135 135zM135 75v55c0 68.925 56.075 125 125 125s125-56.075 125-125V75H135z" fill="#000000" class="color000000 svgShape"></path>
  <path d="M260 265c-46.869 0-85-38.131-85-85a5 5 0 1 1 10 0c0 41.355 33.645 75 75 75s75-33.645 75-75a5 5 0 1 1 10 0c0 46.869-38.131 85-85 85zm160 250H100c-9.344 0-18.132-3.642-24.745-10.254C68.643 498.147 65 489.357 65 480a34.925 34.925 0 0 1 23.945-33.205A34.676 34.676 0 0 1 100 445h30a5 5 0 1 1 0 10h-30c-2.704 0-5.358.431-7.889 1.28A24.946 24.946 0 0 0 75 480c0 6.683 2.601 12.958 7.322 17.671C87.05 502.398 93.327 505 100 505h320c13.785 0 25-11.215 25-25 0-6.674-2.602-12.951-7.325-17.674A25.019 25.019 0 0 0 420 455h-30a5 5 0 1 1 0-10h30c3.787 0 7.512.605 11.071 1.8 5.1 1.689 9.835 4.614 13.675 8.455C451.358 461.866 455 470.654 455 480c0 19.299-15.701 35-35 35z" fill="#000000" class="color000000 svgShape"></path>
  <path d="M390 455H130a5 5 0 0 1-5-5v-60c0-74.439 60.561-135 135-135s135 60.561 135 135v60a5 5 0 0 1-5 5zm-255-10h250v-55c0-68.925-56.075-125-125-125s-125 56.075-125 125v55z" fill="#000000" class="color000000 svgShape"></path>
  <path d="M340 345a5 5 0 0 1-5-5c0-41.355-33.645-75-75-75s-75 33.645-75 75a5 5 0 1 1-10 0c0-46.869 38.131-85 85-85s85 38.131 85 85a5 5 0 0 1-5 5zm90 110a5 5 0 0 1-5-5V70a5 5 0 1 1 10 0v380a5 5 0 0 1-5 5zm-340 0a5 5 0 0 1-5-5V70a5 5 0 1 1 10 0v380a5 5 0 0 1-5 5z" fill="#000000" class="color000000 svgShape"></path>
</svg>
