<svg xmlns="http://www.w3.org/2000/svg" viewBox="0 0 520 520" id="2881875">
  <path fill="#f0e2c5" d="M390 435v50H130v-50l130-13.67L390 435z" class="colorc5e6f0 svgShape"></path>
  <path fill="#ffffff" d="M390 115v320H130V115h260z" class="colore3f5ff svgShape"></path>
  <path fill="#000000" d="M350 205v190H170V205h180z" class="color00467d svgShape"></path>
  <path fill="#ffdd99" d="m260 126 23.667 12.663L290 165h-60c-75.821-98.571-42.441-55.173-100-130h60l70 91z" class="color99ccff svgShape"></path>
  <path fill="#ffc34d" d="M261.88 300c29.37 0 51.87 26.154 47.62 55h-95.25c-4.247-28.825 18.224-55 47.63-55z" class="colorff4d4d svgShape"></path>
  <circle cx="261.88" cy="272.5" r="27.5" fill="#ffb729" class="colorffe278 svgShape"></circle>
  <path fill="#ffd480" d="M390 35 290 165l-30-39 70-91h60z" class="color8095ff svgShape"></path>
  <path fill="#ffcc66" d="M320 160H200a5 5 0 1 0 0 10h120a5 5 0 1 0 0-10z" class="color6666ff svgShape"></path>
</svg>
