<svg xmlns="http://www.w3.org/2000/svg" viewBox="0 0 520 520" id="2881900">
  <path fill="#ffffff" d="M390 115v320H130V115h260z" class="colore3f5ff svgShape"></path>
  <path fill="#3e3e3e" d="M350 205v190H170V205h180z" class="color00467d svgShape"></path>
  <path fill="#ffd480" d="m390 35-61.54 80L290 165l-30-39 70-91z" class="color8095ff svgShape"></path>
  <path fill="#ffdd99" d="m260 126 30 39h-60l-38.46-50L130 35h60z" class="color99ccff svgShape"></path>
  <path fill="#ffc34d" d="M261.88 300c26.57 0 48.12 21.55 48.12 48.13 0 2.33-.17 4.63-.5 6.87h-95.25c-.33-2.24-.5-4.54-.5-6.87 0-26.58 21.55-48.13 48.13-48.13z" class="colorff4d4d svgShape"></path>
  <circle cx="261.88" cy="272.5" r="27.5" fill="#ffb729" class="colorffe278 svgShape"></circle>
  <path fill="#f0e2c5" d="M130 435h260v50H130z" class="colorc5e6f0 svgShape"></path>
  <path d="M390 490H130a5 5 0 0 1-5-5V115a5 5 0 0 1 5-5h61.54a5 5 0 1 1 0 10H135v360h250V120h-56.54a5 5 0 1 1 0-10H390a5 5 0 0 1 5 5v370a5 5 0 0 1-5 5z" fill="#000000" class="color000000 svgShape"></path>
  <path d="M320 170h-30a5 5 0 1 1 0-10h30a5 5 0 1 1 0 10zm-90 0h-30a5 5 0 1 1 0-10h30a5 5 0 1 1 0 10z" fill="#000000" class="color000000 svgShape"></path>
  <path d="M289.997 170a5 5 0 0 1-3.96-8.049L379.846 40h-47.384l-68.499 89.049a5 5 0 0 1-7.926-6.098l70-91A5 5 0 0 1 330 30h60a5 5 0 0 1 3.963 8.049l-99.999 130a4.994 4.994 0 0 1-3.967 1.951z" fill="#000000" class="color000000 svgShape"></path>
  <path d="M290 170h-60a5 5 0 0 1-3.963-1.951l-100-130A5.001 5.001 0 0 1 130 30h60a5 5 0 0 1 3.963 1.951l100 130A5.001 5.001 0 0 1 290 170zm-57.538-10h47.384L187.538 40h-47.384l92.308 120zM390 440H130a5 5 0 1 1 0-10h260a5 5 0 1 1 0 10zM261.88 305c-17.92 0-32.5-14.579-32.5-32.5s14.58-32.5 32.5-32.5 32.5 14.579 32.5 32.5-14.58 32.5-32.5 32.5zm0-55c-12.407 0-22.5 10.094-22.5 22.5s10.093 22.5 22.5 22.5 22.5-10.094 22.5-22.5-10.093-22.5-22.5-22.5z" fill="#000000" class="color000000 svgShape"></path>
  <path d="M309.5 360h-95.25a5 5 0 0 1-4.947-4.272 52.333 52.333 0 0 1-.553-7.599c0-29.296 23.834-53.13 53.13-53.13 29.29 0 53.12 23.834 53.12 53.13 0 2.55-.186 5.106-.553 7.599A5 5 0 0 1 309.5 360zm-90.709-10h86.168c.027-.622.041-1.246.041-1.87 0-23.782-19.344-43.13-43.12-43.13-23.782 0-43.13 19.348-43.13 43.13 0 .624.014 1.248.041 1.87z" fill="#000000" class="color000000 svgShape"></path>
  <path d="M350 400H170a5 5 0 0 1-5-5V205a5 5 0 0 1 5-5h180a5 5 0 0 1 5 5v190a5 5 0 0 1-5 5zm-175-10h170V210H175v180z" fill="#000000" class="color000000 svgShape"></path>
</svg>
