<svg xmlns="http://www.w3.org/2000/svg" xml:space="preserve" viewBox="0 0 512 512" enable-background="new 0 0 512 512" id="11331568">
  <g id="_x32_8_x2C__income_x2C__Evaluation_x2C__assessment_x2C__financial_x2C__bar_chart_x2C__business_and_finance" fill="#000000" class="color000000 svgShape">
    <g fill="#000000" class="color000000 svgShape">
      <g fill="#000000" class="color000000 svgShape">
        <path d="M341 438.5 258.5 451 171 438.5l3.58-1.43C202.61 425.85 221 398.7 221 368.5l32.667-15.833L291 368.5c0 30.2 18.39 57.35 46.42 68.57L341 438.5zM462.4 48.5H49.6C25.52 48.5 6 68.02 6 92.1v221.4L256 339l250-25.5V92.1C506 68.02 486.48 48.5 462.4 48.5z" fill="#575757" class="color495f66 svgShape"></path>
        <rect width="430" height="238.5" x="41" y="83.5" fill="#ffffff" class="colordfe8eb svgShape"></rect>
        <path d="M506 313.5v11.4c0 24.08-19.52 43.6-43.6 43.6-15.952 0-391.684 0-412.8 0C25.52 368.5 6 348.98 6 324.9v-11.4C42.848 313.5 488.142 313.5 506 313.5zM431 463.5H86c0-13.824 11.2-25 25-25 10.638 0 285.357 0 295 0C419.81 438.5 431 449.69 431 463.5z" fill="#464646" class="color3b4a51 svgShape"></path>
      </g>
      <polygon points="341.5 248.5 336 273.5 311 273.5 311 248.5" fill="#e1b359" class="colore17559 svgShape"></polygon>
      <path d="M366.75,233.5l-5.75,40h-25c0-13.843,0-26.111,0-40H366.75z" fill="#ffb729" class="colorf6df5b svgShape"></path>
      <path d="M393.75,218.5l-7.75,55h-25c0-12.868,0-42.085,0-55H393.75z" fill="#f5cd7e" class="color7ed7f5 svgShape"></path>
      <path d="M417.25,198.5l-6.25,75h-25c0-22.334,0-51.587,0-75H417.25z" fill="#e6b85e" class="colorbde65e svgShape"></path>
      <path d="M436,183.5v90h-25c0-10.562,0-76.13,0-90H436z" fill="#c7a35b" class="colorc7865b svgShape"></path>
      <g fill="#000000" class="color000000 svgShape">
        <path d="M462.4,43.5H49.6C22.802,43.5,1,65.302,1,92.1V324.9c0,26.798,21.802,48.6,48.6,48.6h166.218
				c-1.87,26.241-18.365,49.034-43.099,58.927l-2.683,1.073H111c-16.542,0-30,13.458-30,30c0,2.762,2.238,5,5,5h345
				c2.762,0,5-2.238,5-5c0-16.542-13.458-30-30-30h-64.036l-2.684-1.073c-24.733-9.893-41.228-32.686-43.098-58.927H462.4
				c26.798,0,48.6-21.802,48.6-48.6V92.1C511,65.302,489.198,43.5,462.4,43.5z M49.6,53.5H462.4c21.284,0,38.6,17.315,38.6,38.6
				v216.4h-25v-225c0-2.762-2.238-5-5-5H41c-2.762,0-5,2.238-5,5v225H11V92.1C11,70.815,28.315,53.5,49.6,53.5z M466,308.5H46v-220
				h420V308.5z M425.367,458.5H91.633c2.226-8.616,10.065-15,19.367-15c9.622,0,285.462,0,295,0
				C415.302,443.5,423.142,449.884,425.367,458.5z M320.169,433.5H191.831c19.835-13.559,32.479-35.5,34.002-60h60.335
				C287.69,398,300.334,419.941,320.169,433.5z M462.4,363.5H49.6c-21.284,0-38.6-17.315-38.6-38.6v-6.4c17.349,0,472.641,0,490,0
				v6.4C501,346.185,483.685,363.5,462.4,363.5z" fill="#000000" class="color000000 svgShape"></path>
        <path d="M119.965 239.535c1.951 1.953 5.119 1.953 7.07 0L186 180.571l38.965 38.964c1.951 1.953 5.119 1.953 7.07 0L276 175.571l23.965 23.964c1.951 1.953 5.119 1.953 7.07 0L381 125.57v7.93c0 2.762 2.238 5 5 5s5-2.238 5-5v-20c0-2.745-2.253-5-5-5h-20c-2.762 0-5 2.238-5 5s2.238 5 5 5h7.93l-70.43 70.429-23.965-23.964c-1.951-1.953-5.119-1.953-7.07 0L228.5 208.929l-38.965-38.964c-1.951-1.953-5.119-1.953-7.07 0l-62.5 62.5C118.012 234.417 118.012 237.583 119.965 239.535zM66 278.5c23.938 0 367.267 0 380 0 2.762 0 5-2.238 5-5s-2.238-5-5-5h-5v-85c0-2.762-2.238-5-5-5h-25c-2.762 0-5 2.238-5 5v10h-20c-2.762 0-5 2.238-5 5v15h-20c-2.762 0-5 2.238-5 5v10h-20c-2.762 0-5 2.238-5 5v10h-20c-2.762 0-5 2.238-5 5v20H66c-2.762 0-5 2.238-5 5S63.238 278.5 66 278.5zM416 188.5h15v80h-15v-70V188.5zM391 203.5h15v65h-15v-50V203.5zM366 223.5h15v45h-15v-35V223.5zM341 238.5h15v30h-15v-20V238.5zM316 253.5h15v15h-15V253.5zM76 123.5h10c2.762 0 5-2.238 5-5s-2.238-5-5-5H76c-2.762 0-5 2.238-5 5S73.238 123.5 76 123.5zM106 123.5h45c2.762 0 5-2.238 5-5s-2.238-5-5-5h-45c-2.762 0-5 2.238-5 5S103.238 123.5 106 123.5zM76 148.5h10c2.762 0 5-2.238 5-5s-2.238-5-5-5H76c-2.762 0-5 2.238-5 5S73.238 148.5 76 148.5zM106 148.5h45c2.762 0 5-2.238 5-5s-2.238-5-5-5h-45c-2.762 0-5 2.238-5 5S103.238 148.5 106 148.5zM76 173.5h10c2.762 0 5-2.238 5-5s-2.238-5-5-5H76c-2.762 0-5 2.238-5 5S73.238 173.5 76 173.5zM106 173.5h45c2.762 0 5-2.238 5-5s-2.238-5-5-5h-45c-2.762 0-5 2.238-5 5S103.238 173.5 106 173.5zM246 415.5h20c2.762 0 5-2.238 5-5s-2.238-5-5-5h-20c-2.762 0-5 2.238-5 5S243.238 415.5 246 415.5z" fill="#000000" class="color000000 svgShape"></path>
      </g>
    </g>
  </g>
</svg>
