<svg xmlns="http://www.w3.org/2000/svg" xml:space="preserve" viewBox="0 0 512 512" enable-background="new 0 0 512 512" id="11331577">
  <g id="_x33_7_x2C__innovation_x2C__technology_x2C__browser_x2C__idea_x2C__web_page_x2C__online" fill="#000000" class="color000000 svgShape">
    <g fill="#000000" class="color000000 svgShape">
      <g fill="#000000" class="color000000 svgShape">
        <path d="M249.5,74.5L6,96v365.6C6,486.12,25.88,506,50.4,506h411.2c24.52,0,44.4-19.88,44.4-44.4V96
				L249.5,74.5z" fill="#ffffff" class="colordfe8eb svgShape"></path>
        <rect width="420" height="320" x="46" y="141" fill="#f5cd7e" class="color7ed7f5 svgShape"></rect>
        <path d="M506,50.4V96H226l-50-35L151,6h310.6C486.12,6,506,25.88,506,50.4z" fill="#575757" class="color495f66 svgShape"></path>
        <path d="M151,6H50.4C25.88,6,6,25.88,6,50.4V96h220L151,6z" fill="#464646" class="color3b4a51 svgShape"></path>
        <circle cx="141" cy="51" r="10" fill="#e6b85e" class="colorbde65e svgShape"></circle>
        <circle cx="96" cy="51" r="10" fill="#ffb729" class="colorf6df5b svgShape"></circle>
        <circle cx="51" cy="51" r="10" fill="#e1b359" class="colore17559 svgShape"></circle>
      </g>
      <path d="M290.03,409.96c11.405,0,16.989,13.811,9.02,21.78c-2.31,2.31-5.49,3.74-9.02,3.74L256,442.667
			l-34.03-7.187c-7.05,0-12.76-5.72-12.76-12.76c0-7.059,5.733-12.76,12.76-12.76l33.03-8.293L290.03,409.96z" fill="#464646" class="color3b4a51 svgShape"></path>
      <path d="M290.03,435.48v6.62c0,10.44-8.46,18.9-18.9,18.9h-30.26c-10.44,0-18.9-8.46-18.9-18.9v-6.62
			H290.03z" fill="#575757" class="color495f66 svgShape"></path>
      <circle cx="426" cy="336" r="15" fill="#e6b85e" class="colorbde65e svgShape"></circle>
      <circle cx="86" cy="336" r="15" fill="#e6b85e" class="colorbde65e svgShape"></circle>
      <circle cx="426" cy="206" r="15" fill="#e1b359" class="colore17559 svgShape"></circle>
      <circle cx="86" cy="206" r="15" fill="#e1b359" class="colore17559 svgShape"></circle>
      <circle cx="426" cy="271" r="15" fill="#ffb729" class="colorf6df5b svgShape"></circle>
      <circle cx="86" cy="271" r="15" fill="#ffb729" class="colorf6df5b svgShape"></circle>
      <path d="M254.67,176.01c-50.239,0.7-91.306,41.591-92.24,91.8c-0.614,33.702,16.667,64.215,44.33,81.37
			c20.706,12.825,19.42,35.099,19.46,35.25l31.613,10.07l27.947-10.07v-0.49c0-14.26,7.55-27.34,19.66-34.89
			c13.15-8.2,24.12-19.57,31.83-33.05c7.83-13.68,12.31-29.53,12.31-46.42C349.58,217.486,306.995,175.279,254.67,176.01z" fill="#ffb729" class="colorf6df5b svgShape"></path>
      <path d="M290.03,384.43c11.405,0,16.989,13.821,9.02,21.79c-2.31,2.31-5.49,3.74-9.02,3.74h-68.06
			c-11.405,0-16.989-13.821-9.02-21.79c2.31-2.31,5.49-3.74,9.02-3.74c13.008,0,50.845,0,63.81,0H290.03z" fill="#575757" class="color495f66 svgShape"></path>
      <g fill="#000000" class="color000000 svgShape">
        <path d="M461.6,1H50.4C23.161,1,1,23.161,1,50.4V461.6C1,488.839,23.161,511,50.4,511H461.6c27.239,0,49.4-22.161,49.4-49.4V50.4
				C511,23.161,488.839,1,461.6,1z M501,50.4V91H228.342l-66.667-80H461.6C483.325,11,501,28.675,501,50.4z M50.4,11h98.258
				l66.667,80H11V50.4C11,28.675,28.675,11,50.4,11z M461.6,501H50.4C28.675,501,11,483.325,11,461.6V101h490v360.6
				C501,483.325,483.325,501,461.6,501z" fill="#000000" class="color000000 svgShape"></path>
        <path d="M51 66c8.271 0 15-6.729 15-15s-6.729-15-15-15-15 6.729-15 15S42.729 66 51 66zM51 46c2.757 0 5 2.243 5 5s-2.243 5-5 5-5-2.243-5-5S48.243 46 51 46zM96 66c8.271 0 15-6.729 15-15s-6.729-15-15-15-15 6.729-15 15S87.729 66 96 66zM96 46c2.757 0 5 2.243 5 5s-2.243 5-5 5-5-2.243-5-5S93.243 46 96 46zM141 66c8.271 0 15-6.729 15-15s-6.729-15-15-15-15 6.729-15 15S132.729 66 141 66zM141 46c2.757 0 5 2.243 5 5s-2.243 5-5 5-5-2.243-5-5S138.243 46 141 46zM241 56h230c2.762 0 5-2.238 5-5s-2.238-5-5-5H241c-2.762 0-5 2.238-5 5S238.238 56 241 56zM466 136H46c-2.762 0-5 2.238-5 5v320c0 2.762 2.238 5 5 5 18.531 0 401.441 0 420 0 2.762 0 5-2.238 5-5V141C471 138.238 468.762 136 466 136zM221.97 414.955h68.061c4.279 0 7.761 3.481 7.761 7.762 0 4.279-3.481 7.761-7.761 7.761H221.97c-4.279 0-7.761-3.481-7.761-7.761C214.209 418.437 217.69 414.955 221.97 414.955zM214.209 397.194c0-4.28 3.481-7.762 7.761-7.762 33.538 0 48.395 0 68.061 0 4.279 0 7.761 3.481 7.761 7.762 0 4.279-3.481 7.761-7.761 7.761H221.97C217.69 404.955 214.209 401.474 214.209 397.194zM178.651 312.944c-32.929-58.712 10.135-131.017 76.084-131.935 49.555-.68 89.847 39.193 89.847 88.573 0 30.936-15.781 59.014-41.791 75.228-12.471 7.773-20.396 20.488-21.793 34.623h-10.855l10.235-85.256c4.751-2.45 9.21-5.656 13.187-9.633 1.953-1.952 1.953-5.118 0-7.07-1.951-1.953-5.119-1.953-7.07 0-16.816 16.813-44.174 16.813-60.99 0-1.951-1.953-5.119-1.953-7.07 0-1.953 1.952-1.953 5.118 0 7.07 3.977 3.977 8.436 7.183 13.187 9.633l10.235 85.256h-10.852c-1.382-14.166-9.239-26.839-21.607-34.506C187.789 331.531 179.441 313.959 178.651 312.944zM251.928 379.433l-9.746-81.184c9.041 2.42 18.594 2.42 27.636 0l-9.746 81.184H251.928zM240.87 456c-7.665 0-13.9-6.235-13.9-13.9v-1.622h58.061v1.622c0 7.665-6.235 13.9-13.9 13.9H240.87zM461 456H290.554c5.513-7.682 4.315-15.052 4.477-16.251 12.986-3.82 17.177-20.274 7.324-29.793 11.105-10.729 4.134-29.565-11.278-30.47.874-6.559 4.234-18.229 17.004-26.189 13.684-8.53 24.422-19.678 32.118-32.296h23.73l18.536 18.535c.938.938 2.209 1.465 3.535 1.465h20.658c2.229 8.612 10.043 15 19.342 15 11.028 0 20-8.972 20-20s-8.972-20-20-20c-9.299 0-17.113 6.388-19.342 15h-18.587l-18.536-18.535C368.598 311.526 367.326 311 366 311h-20.477c5.1-11.073 8.069-22.959 8.852-35h52.282c2.229 8.612 10.043 15 19.342 15 11.028 0 20-8.972 20-20s-8.972-20-20-20c-9.299 0-17.113 6.388-19.342 15h-52.134c-.423-11.909-2.992-23.786-7.759-35H366c1.326 0 2.598-.526 3.535-1.465L388.071 211h18.587c2.229 8.612 10.043 15 19.342 15 11.028 0 20-8.972 20-20s-8.972-20-20-20c-9.299 0-17.113 6.388-19.342 15H386c-1.326 0-2.598.526-3.535 1.465L363.929 221h-22.108c-37.712-66.407-133.436-66.731-171.563 0h-22.186l-18.536-18.535C128.598 201.526 127.326 201 126 201h-20.658c-2.229-8.612-10.043-15-19.342-15-11.028 0-20 8.972-20 20s8.972 20 20 20c9.299 0 17.113-6.388 19.342-15h18.587l18.536 18.535c.938.938 2.209 1.465 3.535 1.465h19.283c-4.806 11.244-7.361 23.118-7.773 35h-52.168c-2.229-8.612-10.043-15-19.342-15-11.028 0-20 8.972-20 20s8.972 20 20 20c9.299 0 17.113-6.388 19.342-15h52.321c.802 12.063 3.81 23.947 8.904 35H146c-1.326 0-2.598.526-3.535 1.465L123.929 331h-18.587c-2.229-8.612-10.043-15-19.342-15-11.028 0-20 8.972-20 20s8.972 20 20 20c9.299 0 17.113-6.388 19.342-15H126c1.326 0 2.598-.526 3.535-1.465L148.071 321h23.821c7.763 12.745 18.568 23.953 32.237 32.427 9.414 5.835 15.487 15.363 16.815 26.058-15.459.89-22.39 19.754-11.298 30.471-9.852 9.518-5.664 25.974 7.324 29.793.154 1.144-1.004 8.615 4.477 16.251H51V146h410V456zM416 336c0-5.514 4.486-10 10-10s10 4.486 10 10-4.486 10-10 10S416 341.514 416 336zM416 271c0-5.514 4.486-10 10-10s10 4.486 10 10-4.486 10-10 10S416 276.514 416 271zM416 206c0-5.514 4.486-10 10-10s10 4.486 10 10-4.486 10-10 10S416 211.514 416 206zM96 206c0 5.514-4.486 10-10 10s-10-4.486-10-10 4.486-10 10-10S96 200.486 96 206zM96 271c0 5.514-4.486 10-10 10s-10-4.486-10-10 4.486-10 10-10S96 265.486 96 271zM96 336c0 5.514-4.486 10-10 10s-10-4.486-10-10 4.486-10 10-10S96 330.486 96 336z" fill="#000000" class="color000000 svgShape"></path>
      </g>
    </g>
  </g>
</svg>
