<svg xmlns="http://www.w3.org/2000/svg" xml:space="preserve" viewBox="0 0 512 512" enable-background="new 0 0 512 512" id="11331566">
  <g id="_x32_6_x2C__Insurance_x2C__security_x2C__safety_x2C__backup_x2C__document_x2C__business" fill="#000000" class="color000000 svgShape">
    <g fill="#000000" class="color000000 svgShape">
      <polygon points="110.946 66.055 70.946 66.055 70.946 506.055 380.946 506.055 380.946 466.055" fill="#f5cd7e" class="color7ed7f5 svgShape"></polygon>
      <path d="M390.946,56.055v-50h-280c0,16.97,0,443.184,0,460c14.223,0,305.625,0,330,0v-410H390.946z" fill="#ffb729" class="colore17559 svgShape"></path>
      <polygon points="390.946 246.085 390.946 276.085 220.946 276.085 209.279 263.389 220.946 246.085" fill="#e6b85e" class="colorbde65e svgShape"></polygon>
      <polygon points="440.946 56.055 390.946 56.055 390.946 6.055" fill="#dca53a" class="colordc483a svgShape"></polygon>
      <path d="M340.946,77.385v40.44c0,69.66-61.031,93.499-65,97.23c-3.797-3.57-65-27.856-65-97.23v-40.44
			c17.3,0,31.33-14.03,31.33-31.33h67.34C309.616,63.355,323.646,77.385,340.946,77.385z" fill="#e6b85e" class="colorbde65e svgShape"></path>
      <path d="M320.946,93.325v24.5c0,51.874-44.286,73.196-45,73.91c-0.608-0.608-45-22.306-45-73.91v-24.5
			c12.25-5.2,22.07-15.02,27.27-27.27h35.46C298.876,78.305,308.696,88.125,320.946,93.325z" fill="#ffffff" class="colordfe8eb svgShape"></path>
      <rect width="60" height="30" x="160.946" y="246.085" fill="#ffffff" class="colordfe8eb svgShape"></rect>
      <g fill="#000000" class="color000000 svgShape">
        <path d="M445.609,54.289c-0.187-1.354-51.232-51.873-51.132-51.773c-2.76-2.778,13.428-0.907-283.531-1.46c-2.762,0-5,2.238-5,5
				v55h-35c-2.762,0-5,2.238-5,5v440c0,2.762,2.238,5,5,5h310c2.762,0,5-2.238,5-5v-35h55c2.762,0,5-2.238,5-5
				C445.409,45.36,446.682,57.123,445.609,54.289z M395.946,18.127l32.929,32.929h-32.929V18.127z M375.946,501.055h-300v-430h30
				v395c0,2.762,2.238,5,5,5h265V501.055z M115.946,461.055v-450h270v45c0,2.762,2.238,5,5,5h45v400H115.946z" fill="#000000" class="color000000 svgShape"></path>
        <path d="M389.921 405.644c-6.354 1.327-11.27.735-14.607-1.764-4.596-3.444-5.14-9.728-5.142-9.755-.3-4.692-6.34-6.399-9.059-2.589l-4.868 6.815c-3.521-2.394-6.954-4.324-10.285-5.855.207-7.801-2.071-13.91-6.801-18.206-10.813-9.82-30.172-5.17-30.992-4.968-2.677.663-4.307 3.367-3.648 6.045.657 2.678 3.362 4.316 6.044 3.664 4.159-1.014 16.201-2.511 21.886 2.673 1.849 1.686 2.972 4.101 3.364 7.218-13.263-3.256-24.443-.439-32.585 3.476-17.697 8.506-13.926 34.969 5.375 38.121 19.684 3.209 31.597-8.038 35.928-27.586 9.516 5.041 9.898 7.921 13.588 7.369 3.077-.454 3.822-3.094 5.441-4.985 4.741 8.227 14.016 13.132 28.41 10.114 2.702-.565 4.436-3.215 3.869-5.918C395.274 406.811 392.633 405.077 389.921 405.644zM310.214 420.65c-9.667-1.579-11.53-14.971-2.653-19.24 8.92-4.288 18.135-5.07 27.559-2.339C332.222 414.27 325.193 423.097 310.214 420.65zM276.981 141.59l22.5-22.5c1.953-1.952 1.953-5.118 0-7.07-1.951-1.953-5.119-1.953-7.07 0l-18.965 18.964-8.965-8.964c-1.951-1.953-5.119-1.953-7.07 0-1.953 1.952-1.953 5.118 0 7.07l12.5 12.5C271.862 143.544 275.03 143.543 276.981 141.59zM160.946 281.086h60 170c2.762 0 5-2.238 5-5v-30c0-2.762-2.238-5-5-5h-170-60c-2.762 0-5 2.238-5 5v30C155.946 278.848 158.184 281.086 160.946 281.086zM385.946 271.086h-160v-20h160V271.086zM165.946 251.086h50v20h-50V251.086zM160.946 306.086h230c2.762 0 5-2.238 5-5s-2.238-5-5-5h-230c-2.762 0-5 2.238-5 5S158.184 306.086 160.946 306.086zM160.946 331.086h230c2.762 0 5-2.238 5-5s-2.238-5-5-5h-230c-2.762 0-5 2.238-5 5S158.184 331.086 160.946 331.086zM240.946 346.055h-80c-2.762 0-5 2.238-5 5s2.238 5 5 5h80c2.762 0 5-2.238 5-5S243.707 346.055 240.946 346.055z" fill="#000000" class="color000000 svgShape"></path>
        <path d="M258.308,210.303l15.065,9.039c1.584,0.951,3.563,0.95,5.145,0l15.065-9.039c32.298-19.379,52.362-54.815,52.362-92.481
				V77.385c0-2.762-2.238-5-5-5c-14.519,0-26.33-11.812-26.33-26.33c0-2.762-2.238-5-5-5h-67.34c-2.762,0-5,2.238-5,5
				c0,14.519-11.812,26.33-26.33,26.33c-2.762,0-5,2.238-5,5v40.437C205.946,155.488,226.01,190.924,258.308,210.303z
				 M215.946,82.043c16.041-2.218,28.77-14.946,30.987-30.987h58.025c2.218,16.041,14.946,28.77,30.987,30.987v35.779
				c0,34.174-18.204,66.324-47.507,83.907l-12.493,7.495l-12.493-7.495c-29.303-17.583-47.507-49.733-47.507-83.907V82.043z" fill="#000000" class="color000000 svgShape"></path>
        <path d="M268.598,193.153l4.775,2.865c1.582,0.951,3.565,0.95,5.145,0l4.775-2.865c26.309-15.785,42.652-44.649,42.652-75.33
				V93.329c0-2.006-1.199-3.817-3.045-4.602c-10.985-4.666-19.961-13.643-24.626-24.627c-0.784-1.846-2.597-3.045-4.603-3.045
				h-35.453c-2.006,0-3.818,1.199-4.603,3.045c-4.665,10.985-13.641,19.961-24.626,24.626c-1.846,0.784-3.045,2.597-3.045,4.603
				v24.494C225.946,148.503,242.289,177.368,268.598,193.153z M235.946,96.526c10.953-5.463,20.008-14.518,25.471-25.471h29.059
				c5.463,10.953,14.517,20.008,25.471,25.471v21.297c0,27.188-14.483,52.768-37.797,66.756l-2.203,1.321l-2.203-1.321
				c-23.313-13.988-37.797-39.567-37.797-66.756V96.526z" fill="#000000" class="color000000 svgShape"></path>
      </g>
    </g>
  </g>
</svg>
