<svg xmlns="http://www.w3.org/2000/svg" xml:space="preserve" viewBox="0 0 512 512" enable-background="new 0 0 512 512" id="11331578">
  <g id="_x33_8_x2C__investment_x2C__computer_x2C__Stock_Market_x2C__candlestick_chart_x2C__business_x2C__business_and_finance" fill="#000000" class="color000000 svgShape">
    <g fill="#000000" class="color000000 svgShape">
      <g fill="#000000" class="color000000 svgShape">
        <path d="M341 438.5 258.5 451 171 438.5l3.58-1.43C202.61 425.85 221 398.7 221 368.5l32.667-15.833L291 368.5c0 30.2 18.39 57.35 46.42 68.57L341 438.5zM462.4 48.5H49.6C25.52 48.5 6 68.02 6 92.1v221.4L256 339l250-25.5V92.1C506 68.02 486.48 48.5 462.4 48.5z" fill="#575757" class="color495f66 svgShape"></path>
        <rect width="430" height="238.5" x="41" y="83.5" fill="#ffffff" class="colordfe8eb svgShape"></rect>
        <path d="M506 313.5v11.4c0 24.08-19.52 43.6-43.6 43.6-15.952 0-391.684 0-412.8 0C25.52 368.5 6 348.98 6 324.9v-11.4C26.27 313.5 473.623 313.5 506 313.5zM431 463.5H86c0-13.824 11.2-25 25-25 10.638 0 285.357 0 295 0C419.81 438.5 431 449.69 431 463.5z" fill="#464646" class="color3b4a51 svgShape"></path>
      </g>
      <path d="M421,173.5v90c-10.492,0-19.508,0-30,0v-90C401.492,173.5,410.508,173.5,421,173.5z" fill="#c7a35b" class="colorc7865b svgShape"></path>
      <path d="M361,198.5v50c-10.492,0-19.508,0-30,0v-50C341.492,198.5,350.508,198.5,361,198.5z" fill="#d4b371" class="color717ed4 svgShape"></path>
      <path d="M241,128.5v100c-10.492,0-19.508,0-30,0v-100C221.492,128.5,230.508,128.5,241,128.5z" fill="#ffb729" class="colorf6df5b svgShape"></path>
      <path d="M301,168.5v70c-10.492,0-19.508,0-30,0v-70C281.492,168.5,290.508,168.5,301,168.5z" fill="#e6b85e" class="colorbde65e svgShape"></path>
      <path d="M181,213.5v50c-10.492,0-19.508,0-30,0v-50C161.492,213.5,170.508,213.5,181,213.5z" fill="#f5cd7e" class="color7ed7f5 svgShape"></path>
      <path d="M121,163.5v85c-10.492,0-19.508,0-30,0v-85C101.492,163.5,110.508,163.5,121,163.5z" fill="#e1b359" class="colore17559 svgShape"></path>
      <path d="M361,248.5v-50c-10.492,0-19.508,0-30,0v50C341.492,248.5,350.508,248.5,361,248.5z M421,263.5v-90
			c-10.492,0-19.508,0-30,0v90C401.492,263.5,410.508,263.5,421,263.5z M121,248.5v-85c-10.492,0-19.508,0-30,0v85
			C101.492,248.5,110.508,248.5,121,248.5z M181,263.5v-50c-10.492,0-19.508,0-30,0v50C161.492,263.5,170.508,263.5,181,263.5z
			 M241,228.5v-100c-10.492,0-19.508,0-30,0v100C221.492,228.5,230.508,228.5,241,228.5z M301,238.5v-70c-10.492,0-19.508,0-30,0v70
			C281.492,238.5,290.508,238.5,301,238.5z M471,83.5v230c-8.752,0-424.471,0-430,0v-230H471z" fill="#ffffff" class="colordfe8eb svgShape"></path>
      <g fill="#000000" class="color000000 svgShape">
        <path d="M462.4,43.5H49.6C22.802,43.5,1,65.302,1,92.1V324.9c0,26.798,21.802,48.6,48.6,48.6h166.218
				c-1.87,26.241-18.365,49.034-43.099,58.927l-2.683,1.073H111c-16.542,0-30,13.458-30,30c0,2.762,2.238,5,5,5h345
				c2.762,0,5-2.238,5-5c0-16.542-13.458-30-30-30h-64.036l-2.684-1.073c-24.733-9.893-41.228-32.686-43.098-58.927H462.4
				c26.798,0,48.6-21.802,48.6-48.6V92.1C511,65.302,489.198,43.5,462.4,43.5z M49.6,53.5H462.4c21.284,0,38.6,17.315,38.6,38.6
				v216.4h-25v-225c0-2.762-2.238-5-5-5H41c-2.762,0-5,2.238-5,5v225H11V92.1C11,70.815,28.315,53.5,49.6,53.5z M466,308.5H46v-220
				h420V308.5z M425.367,458.5H91.633c2.226-8.616,10.065-15,19.367-15c9.622,0,285.462,0,295,0
				C415.302,443.5,423.142,449.884,425.367,458.5z M320.169,433.5H191.831c19.835-13.559,32.479-35.5,34.002-60h60.335
				C287.69,398,300.334,419.941,320.169,433.5z M462.4,363.5H49.6c-21.284,0-38.6-17.315-38.6-38.6v-6.4c17.349,0,472.641,0,490,0
				v6.4C501,346.185,483.685,363.5,462.4,363.5z" fill="#000000" class="color000000 svgShape"></path>
        <path d="M91 253.5h10v15c0 2.762 2.238 5 5 5s5-2.238 5-5v-15h10c2.762 0 5-2.238 5-5v-85c0-2.762-2.238-5-5-5h-10v-15c0-2.762-2.238-5-5-5s-5 2.238-5 5v15H91c-2.762 0-5 2.238-5 5v85C86 251.262 88.238 253.5 91 253.5zM96 168.5h20v75H96V168.5zM151 268.5h10v15c0 2.762 2.238 5 5 5s5-2.238 5-5v-15h10c2.762 0 5-2.238 5-5v-50c0-2.762-2.238-5-5-5h-10v-15c0-2.762-2.238-5-5-5s-5 2.238-5 5v15h-10c-2.762 0-5 2.238-5 5v50C146 266.262 148.238 268.5 151 268.5zM156 218.5h20v40h-20V218.5zM211 233.5h10v15c0 2.762 2.238 5 5 5s5-2.238 5-5v-15h10c2.762 0 5-2.238 5-5v-100c0-2.762-2.238-5-5-5h-10v-15c0-2.762-2.238-5-5-5s-5 2.238-5 5v15h-10c-2.762 0-5 2.238-5 5v100C206 231.262 208.238 233.5 211 233.5zM216 133.5h20v90h-20V133.5zM271 243.5h10v15c0 2.762 2.238 5 5 5s5-2.238 5-5v-15h10c2.762 0 5-2.238 5-5v-70c0-2.762-2.238-5-5-5h-10v-15c0-2.762-2.238-5-5-5s-5 2.238-5 5v15h-10c-2.762 0-5 2.238-5 5v70C266 241.262 268.238 243.5 271 243.5zM276 173.5h20v60h-20V173.5zM331 253.5h10v15c0 2.762 2.238 5 5 5s5-2.238 5-5v-15h10c2.762 0 5-2.238 5-5v-50c0-2.762-2.238-5-5-5h-10v-15c0-2.762-2.238-5-5-5s-5 2.238-5 5v15h-10c-2.762 0-5 2.238-5 5v50C326 251.262 328.238 253.5 331 253.5zM336 203.5h20v40h-20V203.5zM391 268.5h10v15c0 2.762 2.238 5 5 5s5-2.238 5-5v-15h10c2.762 0 5-2.238 5-5v-90c0-2.762-2.238-5-5-5h-10v-15c0-2.762-2.238-5-5-5s-5 2.238-5 5v15h-10c-2.762 0-5 2.238-5 5v90C386 266.262 388.238 268.5 391 268.5zM396 178.5h20v80h-20V178.5zM246 416.5h20c2.762 0 5-2.238 5-5s-2.238-5-5-5h-20c-2.762 0-5 2.238-5 5S243.238 416.5 246 416.5z" fill="#000000" class="color000000 svgShape"></path>
      </g>
    </g>
  </g>
</svg>
