<svg xmlns="http://www.w3.org/2000/svg" viewBox="0 0 520 520" id="2881883">
  <path fill="#ffb729" d="M260 69.993h70v50h-70z" class="colorff884d svgShape"></path>
  <path fill="#737373" d="M260 171.99c-.032.055-16.74 31.759-37.667 68.003-20.926 36.245-43.968 78.607-44 78.663l-32.667-36.667-26-29.333L82 310.99l-49.28 53.243-.01.005-.01.005C-9.642 272.033 7.229 159.211 83.224 83.217c97.565-97.565 255.829-97.723 353.552 0 76.016 76.016 92.854 188.84 50.524 281.026l-.01-.005-.01-.005-41.949-51.91-46.331-56-25.488 46.133-31.23 20.86c-1.433-9.701-22.689-47.078-43.616-83.323-20.926-36.244-38.634-67.948-38.666-68.003zm0-51.997h70v-50h-70v50z" class="color3b6bab svgShape"></path>
  <path fill="#6e6e6e" d="m487.28 364.233.01.005.01.005c-14.347 31.221-35.639 60.462-63.58 84.69L375 386.17l-31.23-75.717 56.23-70.46 87.28 124.24zM120 239.993l56.23 70.46-25.73 75.717-54.22 62.763c-26.008-22.552-48.168-51.153-63.58-84.69l.01-.005.01-.005L120 239.993z" class="color00dc7b svgShape"></path>
  <path fill="#eab44b" d="M423.72 448.933c-93.922 81.441-233.53 81.448-327.44 0l103.69-179.59.43.25 30.1 9.73 29.5-17 29.5 18.5 30.1-11.23.43-.25 103.69 179.59z" class="colorc6ea4b svgShape"></path>
  <path fill="#000000" d="M435.585 201.57c-11.072-33.302-31.386-62.699-58.746-85.012a5 5 0 0 1 6.32-7.75c28.833 23.515 50.243 54.501 61.914 89.607a5 5 0 1 1-9.488 3.155zm-357.189 2.179a5 5 0 0 1-3.132-6.34c18.4-54.317 59.548-97.602 112.893-118.754a5 5 0 0 1 3.686 9.297c-50.611 20.067-89.65 61.133-107.107 112.666a5.001 5.001 0 0 1-6.34 3.131z" class="color00467d svgShape"></path>
  <path fill="#ffdd99" d="M260 59.993a5 5 0 0 0-5 5v117.125a5 5 0 1 0 10 0V64.993a5 5 0 0 0-5-5z" class="color99ccff svgShape"></path>
  <path fill="#ffffff" d="m260 165.363 60.03 103.98c-22.131 14.81 29.18-19.623-30.23 20.25l-29.8-20-29.8 20-30.23-20.25L260 165.363z" class="colore3f5ff svgShape"></path>
</svg>
