<svg xmlns="http://www.w3.org/2000/svg" viewBox="0 0 520 520" id="2881908">
  <path fill="#ffb729" d="M260 70h70v50h-70z" class="colorff884d svgShape"></path>
  <path fill="#737373" d="m260 165.37-83.77 145.09L120 240 32.72 364.24l-.02.01C18.13 332.52 10 297.21 10 260 10 121.93 121.93 10 260 10s250 111.93 250 250c0 37.21-8.13 72.52-22.7 104.25l-.02-.01L400 240l-56.23 70.46L260 165.37zm0-45.37h70V70h-70v50z" class="color3b6bab svgShape"></path>
  <path fill="#ffffff" d="m260 165.37 60.03 103.98-.43.25-29.8 20-29.8-20-29.8 20-29.8-20-.43-.25z" class="colore3f5ff svgShape"></path>
  <path fill="#6e6e6e" d="m487.28 364.24.02.01c-14.99 32.62-36.79 61.46-63.58 84.69l-79.95-138.48L400 240l87.28 124.24zM120 240l56.23 70.46-79.95 138.48c-26.79-23.23-48.59-52.07-63.58-84.69l.02-.01L120 240z" class="color00dc7b svgShape"></path>
  <path fill="#eab44b" d="M423.72 448.94c-93.923 81.441-233.53 81.449-327.44 0l103.69-179.59.43.25 29.8 20 29.8-20 29.8 20 29.8-20 .43-.25 103.69 179.59z" class="colorc6ea4b svgShape"></path>
  <path d="M487.284 369.24a4.992 4.992 0 0 1-4.096-2.126l-83.443-118.779-52.067 65.244a5 5 0 0 1-7.817-6.238l56.23-70.46c.982-1.232 2.492-1.902 4.061-1.879a5.004 5.004 0 0 1 3.939 2.124l87.28 124.24a5 5 0 0 1-4.087 7.874zm-454.568 0a5 5 0 0 1-4.087-7.874l87.28-124.24a5.002 5.002 0 0 1 3.938-2.124c1.562-.032 3.078.648 4.061 1.879l56.23 70.46a5 5 0 0 1-7.817 6.238l-52.067-65.244-83.442 118.779a4.993 4.993 0 0 1-4.096 2.126z" fill="#000000" class="color000000 svgShape"></path>
  <path d="M343.775 315.461a4.996 4.996 0 0 1-4.335-2.501L260 175.37l-79.44 137.59a5 5 0 0 1-8.661-5l83.77-145.09a5 5 0 0 1 8.66 0l83.77 145.09a5 5 0 0 1-4.324 7.501z" fill="#000000" class="color000000 svgShape"></path>
  <path d="M423.725 453.941a4.999 4.999 0 0 1-4.335-2.501l-79.95-138.48a4.999 4.999 0 0 1 1.83-6.83 4.999 4.999 0 0 1 6.83 1.83l79.95 138.48a5 5 0 0 1-4.325 7.501zm-327.45 0a4.999 4.999 0 0 1-4.325-7.501l79.95-138.48a4.998 4.998 0 0 1 6.83-1.83 4.999 4.999 0 0 1 1.83 6.83l-79.95 138.48a4.999 4.999 0 0 1-4.335 2.501z" fill="#000000" class="color000000 svgShape"></path>
  <path d="M260 515c-61.381 0-120.688-22.119-166.996-62.282-27.356-23.722-49.78-53.592-64.847-86.38v-.001C12.791 332.876 5 297.099 5 260c0-68.112 26.525-132.148 74.688-180.311C127.852 31.524 191.888 5 260 5s132.148 26.524 180.311 74.688C488.475 127.852 515 191.888 515 260c0 37.099-7.791 72.876-23.156 106.337-15.068 32.789-37.492 62.659-64.848 86.381C380.677 492.881 321.37 515 260 515zM37.244 362.162c14.477 31.504 36.024 60.205 62.312 83.001C144.046 483.75 201.026 505 260 505c58.964 0 115.944-21.251 160.445-59.837 26.288-22.796 47.835-51.497 62.311-83.001C497.516 330.021 505 295.648 505 260c0-135.094-109.907-245-245-245S15 124.906 15 260c0 35.648 7.484 70.021 22.244 102.162z" fill="#000000" class="color000000 svgShape"></path>
  <path d="M440.33 205.001a5 5 0 0 1-4.744-3.424c-11.072-33.302-31.386-62.699-58.746-85.012a5 5 0 0 1 6.32-7.75c28.833 23.515 50.243 54.501 61.915 89.607a5 5 0 0 1-4.745 6.579zm-360.329-.98a5 5 0 0 1-4.736-6.606c18.4-54.317 59.548-97.602 112.893-118.754a5 5 0 0 1 3.686 9.297c-50.611 20.067-89.65 61.133-107.107 112.666a5.004 5.004 0 0 1-4.736 3.397zM289.8 294.6a4.991 4.991 0 0 1-2.786-.849L260 275.621l-27.014 18.13a5 5 0 0 1-5.572 0l-29.8-20a5 5 0 0 1 5.572-8.303l27.014 18.13 27.014-18.13a5 5 0 0 1 5.572 0l27.014 18.13 27.014-18.13a5 5 0 1 1 5.572 8.303l-29.8 20a4.997 4.997 0 0 1-2.786.849zM260 175a5 5 0 0 1-5-5v-50a5 5 0 1 1 10 0v50a5 5 0 0 1-5 5z" fill="#000000" class="color000000 svgShape"></path>
  <path d="M330 125h-70a5 5 0 0 1-5-5V70a5 5 0 0 1 5-5h70a5 5 0 0 1 5 5v50a5 5 0 0 1-5 5zm-65-10h60V75h-60v40z" fill="#000000" class="color000000 svgShape"></path>
</svg>
