<svg xmlns="http://www.w3.org/2000/svg" viewBox="0 0 520 520" id="2881896">
  <path fill="#000000" d="M439.48 230c-4.37-17.46-11.389-34.501-20.749-50.091l39.259-39.258-63.64-63.64-39.258 39.259A184.343 184.343 0 0 0 315 98.331v.004a185.033 185.033 0 0 0-10-2.798V40h-90v55.536a185.075 185.075 0 0 0-10 2.802v-.008a185.844 185.844 0 0 0-40.092 17.939L125.65 77.01l-63.64 63.64 39.259 39.258A185.283 185.283 0 0 0 80.52 230H25v90h55.52a185.31 185.31 0 0 0 15.665 41.034l.006-.006a184.945 184.945 0 0 0 5.09 9.052l-39.27 39.27 63.64 63.64 39.27-39.27a183.63 183.63 0 0 0 9.05 5.092l-.003.003a184.632 184.632 0 0 0 41.034 15.664v55.52H305v-55.52a184.884 184.884 0 0 0 50.091-20.748l39.258 39.258 63.64-63.64-39.258-39.258A185.1 185.1 0 0 0 439.479 320H495v-90.001h-55.52z" class="colorffe278 svgShape"></path>
  <path fill="#ffb729" d="m315 180 7.25 20-7.25 20-28.375 4.02-28.375 4.02-26.625-4.02L205 220l-6-20 6-20 55-9.67z" class="colorc6ea4b svgShape"></path>
  <path fill="#ffd480" d="M365 240h-50v-80c27.583 0 50 22.379 50 50v30zm-160 0h-50v-30c0-27.589 22.389-50 50-50v80z" class="color8095ff svgShape"></path>
  <path fill="#ffdd99" d="M365 228.04c6.42 14.34 10 30.23 10 46.96 0 63.52-51.49 115-115 115s-115-51.48-115-115c0-16.73 3.58-32.62 10-46.96l6.25 8.04 39.29 3.92a68.744 68.744 0 0 0-9.54 35c0 38.11 30.89 69 69 69s69-30.89 69-69c0-12.77-3.49-24.73-9.54-35l39.79-3.67 5.75-8.29z" class="color99ccff svgShape"></path>
  <path fill="#ffffff" d="M319.46 240H315v-20H205v20h-4.46a68.744 68.744 0 0 0-9.54 35c0 38.11 30.89 69 69 69 6.957 0 13.668-1.04 20-2.954a68.517 68.517 0 0 0 10-3.893c23.08-11.16 39-34.795 39-62.153 0-12.77-3.49-24.73-9.54-35z" class="colore3f5ff svgShape"></path>
  <path fill="#f0e2c5" d="M245 285a5 5 0 0 0 5-5v-60h-10v60a5 5 0 0 0 5 5zm40-20a5 5 0 0 0-5 5v71.046a68.517 68.517 0 0 0 10-3.893V270a5 5 0 0 0-5-5z" class="colorc5e6f0 svgShape"></path>
  <path fill="#ffffff" d="M315 180H205V65c0-30.37 24.62-55 55-55 30.366 0 55 24.619 55 55v115z" class="colore3f5ff svgShape"></path>
  <circle cx="260" cy="115" r="25" fill="#ffb729" class="colorc6ea4b svgShape"></circle>
</svg>
