<svg xmlns="http://www.w3.org/2000/svg" viewBox="0 0 520 520" id="2881921">
  <path fill="#ffffff" d="M315 180H205V65c0-30.37 24.62-55 55-55 30.366 0 55 24.619 55 55v115z" class="colore3f5ff svgShape"></path>
  <circle cx="260" cy="115" r="25" fill="#ffb729" class="colorc6ea4b svgShape"></circle>
  <path fill="#ffb729" d="M315 180v40H205v-40z" class="colorc6ea4b svgShape"></path>
  <path fill="#ffffff" d="m245.299 219.928 69.999.338-.096 20 4.46.021a68.745 68.745 0 0 1 9.371 35.046c-.184 38.11-31.222 68.85-69.332 68.667-38.109-.184-68.85-31.222-68.666-69.332a68.729 68.729 0 0 1 9.709-34.953l4.46.021.096-20 39.999.192z" class="colore3f5ff svgShape"></path>
  <path fill="#ffd480" d="M365 240h-50v-80c27.583 0 50 22.378 50 50v30zm-160 0h-50v-30c0-27.589 22.389-50 50-50v80z" class="color8095ff svgShape"></path>
  <path fill="#ffdd99" d="M365 228.04c6.42 14.34 10 30.23 10 46.96 0 63.52-51.49 115-115 115s-115-51.48-115-115c0-16.73 3.58-32.62 10-46.96V240h45.54a68.744 68.744 0 0 0-9.54 35c0 38.11 30.89 69 69 69s69-30.89 69-69c0-12.77-3.49-24.73-9.54-35H365v-11.96z" class="color99ccff svgShape"></path>
  <path fill="#ffd278" d="M495 230v90h-55.52a184.086 184.086 0 0 1-20.76 50.08l39.27 39.27-63.64 63.64-39.27-39.27A183.59 183.59 0 0 1 305 454.48V510h-90v-55.52a183.59 183.59 0 0 1-50.08-20.76l-39.27 39.27-63.64-63.64 39.27-39.27A184.086 184.086 0 0 1 80.52 320H25v-90h55.52a184.348 184.348 0 0 1 20.76-50.08l-39.27-39.27 63.64-63.64 39.27 39.28c12.48-7.5 25.91-13.56 40.08-17.96V160c-27.583 0-50 22.378-50 50v18.04c-6.42 14.34-10 30.23-10 46.96 0 63.52 51.49 115 115 115s115-51.48 115-115c0-16.73-3.58-32.62-10-46.96V210c0-27.589-22.389-50-50-50V98.33c14.17 4.4 27.6 10.46 40.08 17.96l39.27-39.28 63.64 63.64-39.27 39.27A184.348 184.348 0 0 1 439.48 230H495z" class="colorffe278 svgShape"></path>
  <path d="M260 395c-66.168 0-120-53.832-120-120 0-17.048 3.511-33.535 10.436-49.003a5 5 0 1 1 9.128 4.085C153.218 244.258 150 259.37 150 275c0 60.654 49.346 110 110 110s110-49.346 110-110c0-15.63-3.218-30.742-9.564-44.917a5 5 0 1 1 9.128-4.085C376.489 241.465 380 257.952 380 275c0 66.168-53.832 120-120 120z" fill="#000000" class="color000000 svgShape"></path>
  <path d="M305 515h-90a5 5 0 0 1-5-5v-51.656a188.434 188.434 0 0 1-44.277-18.355l-36.537 36.537a4.997 4.997 0 0 1-7.072 0l-63.64-63.641a4.998 4.998 0 0 1 0-7.07l36.539-36.538A188.964 188.964 0 0 1 76.659 325H25a5 5 0 0 1-5-5v-90a5 5 0 0 1 5-5h51.659a189.275 189.275 0 0 1 18.354-44.275l-36.54-36.539a4.998 4.998 0 0 1 0-7.07l63.64-63.641a5.001 5.001 0 0 1 7.072 0l36.537 36.547a188.624 188.624 0 0 1 37.794-16.467 5 5 0 0 1 2.966 9.551 178.646 178.646 0 0 0-38.987 17.47 5.002 5.002 0 0 1-6.112-.75l-35.734-35.744-56.568 56.568 35.734 35.734a5 5 0 0 1 .753 6.106 179.316 179.316 0 0 0-20.197 48.723A5.001 5.001 0 0 1 80.52 235H30v80h50.52a5 5 0 0 1 4.851 3.787 179.089 179.089 0 0 0 20.196 48.72 4.998 4.998 0 0 1-.752 6.108L69.081 409.35l56.569 56.569 35.734-35.734a5.002 5.002 0 0 1 6.111-.751 178.5 178.5 0 0 0 48.716 20.196 5 5 0 0 1 3.789 4.851V505h80v-50.52a5 5 0 0 1 3.789-4.851 178.5 178.5 0 0 0 48.716-20.196 5 5 0 0 1 6.111.751l35.734 35.734 56.569-56.569-35.734-35.734a4.998 4.998 0 0 1-.751-6.108 179.026 179.026 0 0 0 20.196-48.72 5 5 0 0 1 4.851-3.787H490v-80h-50.52a5 5 0 0 1-4.851-3.786 179.329 179.329 0 0 0-20.197-48.723 4.997 4.997 0 0 1 .753-6.106l35.734-35.734-56.568-56.569-35.734 35.744a5.003 5.003 0 0 1-6.112.75 178.693 178.693 0 0 0-38.987-17.47 5 5 0 0 1 2.966-9.551 188.567 188.567 0 0 1 37.794 16.467l36.537-36.547a5 5 0 0 1 7.072 0l63.64 63.641a4.998 4.998 0 0 1 0 7.07l-36.54 36.539A189.25 189.25 0 0 1 443.341 225H495a5 5 0 0 1 5 5v90a5 5 0 0 1-5 5h-51.659a188.982 188.982 0 0 1-18.354 44.276l36.539 36.538a4.998 4.998 0 0 1 0 7.07l-63.64 63.641c-.938.939-2.209 1.465-3.536 1.465s-2.598-.526-3.536-1.465l-36.537-36.537A188.47 188.47 0 0 1 310 458.343V510a5 5 0 0 1-5 5z" fill="#000000" class="color000000 svgShape"></path>
  <path d="M260 349c-40.804 0-74-33.196-74-74a74.016 74.016 0 0 1 10.232-37.538 5 5 0 1 1 8.616 5.077A64.003 64.003 0 0 0 196 275c0 35.29 28.71 64 64 64s64-28.71 64-64a64.01 64.01 0 0 0-8.848-32.462 5.002 5.002 0 0 1 8.617-5.077A74.032 74.032 0 0 1 334 275c0 40.804-33.196 74-74 74zm55-184a5 5 0 0 1-5-5V65c0-13.345-5.202-25.9-14.647-35.355C285.91 20.201 273.354 15 260 15c-27.57 0-50 22.43-50 50v95a5 5 0 1 1-10 0V65c0-33.084 26.916-60 60-60 16.025 0 31.092 6.241 42.426 17.575C313.759 33.92 320 48.986 320 65v95a5 5 0 0 1-5 5zm0 60H205a5 5 0 1 1 0-10h110a5 5 0 1 1 0 10z" fill="#000000" class="color000000 svgShape"></path>
  <path d="M365 245h-50a5 5 0 0 1-5-5v-80a5 5 0 0 1 5-5c14.685 0 28.495 5.723 38.886 16.115C364.276 181.494 370 195.305 370 210v30a5 5 0 0 1-5 5zm-45-10h40v-25c0-12.022-4.682-23.319-13.184-31.813-7.313-7.314-16.693-11.801-26.816-12.914V235zm-115 10h-50a5 5 0 0 1-5-5v-30c0-14.695 5.724-28.506 16.116-38.887C176.505 160.723 190.315 155 205 155a5 5 0 0 1 5 5v80a5 5 0 0 1-5 5zm-45-10h40v-69.727c-10.123 1.113-19.503 5.6-26.814 12.912C164.682 186.681 160 197.978 160 210v25zm85 50a5 5 0 0 1-5-5v-60a5 5 0 1 1 10 0v60a5 5 0 0 1-5 5zm15-140c-16.542 0-30-13.458-30-30s13.458-30 30-30 30 13.458 30 30-13.458 30-30 30zm0-50c-11.028 0-20 8.972-20 20s8.972 20 20 20 20-8.972 20-20-8.972-20-20-20z" fill="#000000" class="color000000 svgShape"></path>
  <path d="M315 185H205a5 5 0 1 1 0-10h110a5 5 0 1 1 0 10zm-30 159a5 5 0 0 1-5-5v-69a5 5 0 1 1 10 0v69a5 5 0 0 1-5 5z" fill="#000000" class="color000000 svgShape"></path>
</svg>
