<svg xmlns="http://www.w3.org/2000/svg" xml:space="preserve" viewBox="0 0 512 512" enable-background="new 0 0 512 512" id="11331575">
  <g id="_x33_5_x2C__marketing_x2C__network_x2C__Social_Marketing_x2C__business_x2C__seo_x2C__multimedia" fill="#000000" class="color000000 svgShape">
    <g fill="#000000" class="color000000 svgShape">
      <path d="M474.52,134.45l-96.97-96.97C341.57,17.43,300.12,6,256,6s-85.57,11.43-121.55,31.48l-96.97,96.97
			c-41.973,75.321-42.022,167.691,0,243.1l96.97,96.97C170.43,494.57,211.88,506,256,506s85.57-11.43,121.55-31.48l96.97-96.97
			C494.57,341.57,506,300.12,506,256S494.57,170.43,474.52,134.45z" fill="#ffffff" class="colordfe8eb svgShape"></path>
      <circle cx="436" cy="76" r="70" fill="#d4b371" class="color717ed4 svgShape"></circle>
      <path d="M436,366c-56.194,0-88.753,62.651-58.45,108.52C390.07,493.49,411.57,506,436,506
			c38.66,0,70-31.34,70-70C506,397.223,474.53,366,436,366z" fill="#d4b371" class="color717ed4 svgShape"></path>
      <path d="M476,52.8v36.4c0,6.52-5.28,11.8-11.8,11.8h-34.45L411,116v-15h-3.2c-6.52,0-11.8-5.28-11.8-11.8
			V52.8c0-6.52,5.28-11.8,11.8-11.8h56.4C470.72,41,476,46.28,476,52.8z" fill="#e6b85e" class="colorbde65e svgShape"></path>
      <rect width="20" height="35" x="401" y="421" fill="#f5cd7e" class="color7ed7f5 svgShape"></rect>
      <path d="M471,432.27v17.46c0,6.23-5.04,11.27-11.27,11.27H421c0-17.104,0-38.034,0-55h1.7
			c8.98,0,16.43,6.47,17.99,15h19.04C465.96,421,471,426.04,471,432.27z" fill="#f6e9cf" class="colorf6decf svgShape"></path>
      <path d="M37.48 377.55C18.51 390.07 6 411.57 6 436c0 38.66 31.34 70 70 70 38.777 0 70-31.47 70-70C146 379.806 83.35 347.247 37.48 377.55zM134.45 37.48C121.93 18.51 100.43 6 76 6 37.34 6 6 37.34 6 76c0 38.777 31.47 70 70 70C132.194 146 164.753 83.349 134.45 37.48z" fill="#d4b371" class="color717ed4 svgShape"></path>
      <path d="M143.6,282.94l14.9,12.56l1.44,17.3l-11.72,6.41c-7.27,3.98-16.38,1.31-20.36-5.96l-1.93-3.53
			c-3.98-7.27-1.31-16.39,5.95-20.36L143.6,282.94z" fill="#575757" class="color495f66 svgShape"></path>
      <polygon points="238.63 326.63 249.52 346.54 229.63 357.43 218.73 350 218.73 337.52" fill="#e1b359" class="colore17559 svgShape"></polygon>
      <path d="M335.87 197.13c9.6 17.54 4.57 39.15-10.99 50.8L297 215.5l-9.84-36.51C305.36 172.17 326.27 179.58 335.87 197.13zM229.63 357.43l13.61 24.87-24.88 13.62-40.3-73.64 6.44-14.447 18.44.827c1.525 2.787-7.371-13.475 26.68 48.77H229.63z" fill="#575757" class="color495f66 svgShape"></path>
      <polygon points="237.58 147.47 180.22 243.51 183.75 281 212.89 303.22 324.7 306.69 293.58 228.5" fill="#e1b359" class="colore17559 svgShape"></polygon>
      <path d="m180.22 243.51 32.67 59.71c-45.699 25.003.964-.528-44.78 24.5-3.5-6.394-31.438-57.432-32.67-59.7L180.22 243.51zM349.58 293.07l-24.88 13.62-87.12-159.22 24.87-13.62C267.413 142.92 344.587 283.945 349.58 293.07z" fill="#ffb729" class="colorf6df5b svgShape"></path>
      <g fill="#000000" class="color000000 svgShape">
        <path d="m360.429 182.924 14.927-8.168c2.422-1.326 3.312-4.364 1.986-6.787-1.325-2.421-4.364-3.311-6.787-1.986l-14.927 8.168c-2.422 1.326-3.312 4.364-1.986 6.787C354.961 183.346 357.991 184.255 360.429 182.924zM331.564 160.09c1.688 0 3.335-.855 4.276-2.402l8.843-14.537c1.436-2.359.687-5.436-1.673-6.87-2.36-1.435-5.435-.686-6.87 1.673l-8.843 14.537C325.264 155.833 327.699 160.09 331.564 160.09zM296.933 153.012c2.709 0 4.935-2.164 4.997-4.886l.389-17.012c.063-2.792-2.179-5.114-5.001-5.114-2.709 0-4.935 2.164-4.997 4.886l-.389 17.012C291.868 150.689 294.11 153.012 296.933 153.012zM380.949 258.154c1.436-2.359.687-5.436-1.673-6.87l-14.537-8.843c-2.359-1.435-5.434-.686-6.87 1.673-1.436 2.359-.687 5.436 1.673 6.87l14.537 8.843C376.455 261.272 379.524 260.497 380.949 258.154zM364.219 211.96c-.063 2.761 2.124 5.05 4.885 5.113l17.012.39c2.716.068 5.049-2.088 5.113-4.885.063-2.761-2.124-5.05-4.885-5.113l-17.012-.39C366.59 207.047 364.283 209.199 364.219 211.96z" fill="#000000" class="color000000 svgShape"></path>
        <path d="M340.258,194.727c-9.916-18.122-31.173-26.969-50.784-21.716c-6.817-12.49-14.335-26.29-22.633-41.557
				c-1.325-2.421-4.363-3.311-6.787-1.986c-26.366,14.429-25.775,13.769-26.771,15.437l-56.661,94.875l-43.586,23.852
				c-2.422,1.325-3.312,4.363-1.985,6.786l5.768,10.54c-4.178,2.929-13.71,4.949-16.928,15.941
				c-2.96,10.12,2.901,16.921,3.586,18.756c5.315,9.712,17.511,13.218,27.146,7.943l7.334-4.014l5.769,10.542
				c1.315,2.405,4.344,3.32,6.786,1.986l5.565-3.045l37.896,69.253c1.333,2.434,4.38,3.304,6.787,1.985l24.879-13.614
				c2.421-1.323,3.311-4.365,1.985-6.786l-11.214-20.492l15.517-8.491c2.422-1.325,3.312-4.363,1.986-6.786l-10.891-19.902
				c-1.326-2.421-4.364-3.31-6.787-1.986l-15.517,8.491l-10.991-20.085l4.372-2.392c118.628,3.658,110.837,3.541,111.944,3.236
				c0.861-0.238-0.779,0.577,25.943-14.034c1.163-0.637,2.025-1.71,2.398-2.982c0.729-2.494,2.145,0.481-23.139-45.341
				C346.179,235.445,350.159,212.818,340.258,194.727z M331.486,199.527c7.281,13.306,4.896,29.771-5.23,40.503l-31.703-57.934
				C309.054,179.356,324.205,186.223,331.486,199.527z M145.82,314.825c-4.837,2.646-10.926,0.864-13.572-3.972
				c-0.908-2.22-4.361-5.678-2.761-11.147c1.736-5.932,7.023-6.65,12.13-9.977l11.537,21.082L145.82,314.825z M236.647,333.419
				l6.091,11.13l-11.13,6.091l-6.091-11.13L236.647,333.419z M237.386,157.536c9.576,17.5,69.14,126.35,78.735,143.884
				l-100.217-3.109l-29.929-54.691L237.386,157.536z M170.096,320.938l-27.874-50.936l36.009-19.706
				c3.503,6.402,23.685,43.281,27.874,50.937C146.436,333.886,192.468,308.695,170.096,320.938z M236.45,380.318l-16.106,8.814
				l-35.496-64.868l16.105-8.813C227.54,364.038,223.587,356.812,236.45,380.318z M326.691,299.902l-82.329-150.449l16.106-8.813
				c8.78,16.044,74.771,136.638,82.329,150.449L326.691,299.902z" fill="#000000" class="color000000 svgShape"></path>
        <path d="M481.025,376.06c39.98-74.822,39.919-165.412,0-240.121C499.215,122.242,511,100.473,511,76c0-41.355-33.645-75-75-75
				c-24.473,0-46.242,11.786-59.94,29.976C339.324,11.354,297.915,1,256,1s-83.324,10.354-120.06,29.976
				C122.242,12.786,100.473,1,76,1C34.645,1,1,34.645,1,76c0,24.473,11.785,46.242,29.975,59.94
				c-39.98,74.822-39.919,165.412,0,240.121C12.785,389.758,1,411.527,1,436c0,41.355,33.645,75,75,75
				c24.473,0,46.242-11.785,59.94-29.975c74.822,39.98,165.412,39.919,240.121,0C389.758,499.215,411.527,511,436,511
				c41.355,0,75-33.645,75-75C511,411.527,499.215,389.758,481.025,376.06z M436,11c35.841,0,65,29.159,65,65s-29.159,65-65,65
				s-65-29.159-65-65S400.159,11,436,11z M11,76c0-35.841,29.159-65,65-65s65,29.159,65,65s-29.159,65-65,65S11,111.841,11,76z
				 M76,501c-35.841,0-65-29.159-65-65s29.159-65,65-65s65,29.159,65,65S111.841,501,76,501z M141.422,472.611
				C147.51,461.774,151,449.29,151,436c0-57.22-61.872-93.366-111.611-65.422c-37.859-71.473-37.802-157.788,0-229.156
				C50.226,147.51,62.71,151,76,151c57.218,0,93.368-61.872,65.422-111.61C176.521,20.806,216.019,11,256,11
				s79.479,9.806,114.578,28.39C342.672,89.058,378.712,151,436,151c13.29,0,25.774-3.49,36.611-9.578
				c37.859,71.473,37.802,157.788,0,229.156C422.938,342.671,361,378.714,361,436c0,13.29,3.49,25.774,9.578,36.611
				C299.105,510.47,212.79,510.413,141.422,472.611z M436,501c-35.841,0-65-29.159-65-65s29.159-65,65-65s65,29.159,65,65
				S471.841,501,436,501z" fill="#000000" class="color000000 svgShape"></path>
        <path d="M406,105.904V116c0,4.188,4.86,6.518,8.123,3.904L431.504,106H464.2c9.264,0,16.8-7.536,16.8-16.8V52.8
				c0-9.264-7.536-16.8-16.8-16.8h-56.4c-9.264,0-16.8,7.536-16.8,16.8v36.4C391,97.855,397.579,105.004,406,105.904z M401,52.8
				c0-3.749,3.051-6.8,6.8-6.8h56.4c3.749,0,6.8,3.051,6.8,6.8v36.4c0,3.749-3.051,6.8-6.8,6.8h-34.45
				c-2.976,0-3.464,1.771-13.75,9.597V101c0-2.762-2.238-5-5-5h-3.2c-3.749,0-6.8-3.051-6.8-6.8V52.8z" fill="#000000" class="color000000 svgShape"></path>
        <path d="M416 76h40c2.762 0 5-2.238 5-5s-2.238-5-5-5h-40c-2.762 0-5 2.238-5 5S413.238 76 416 76zM107.819 44.181c-1.951-1.953-5.119-1.953-7.07 0l-56.568 56.568c-1.953 1.952-1.953 5.118 0 7.07 1.951 1.953 5.119 1.953 7.07 0l56.568-56.568C109.772 49.299 109.772 46.133 107.819 44.181zM86.607 86.607c-5.849 5.848-5.849 15.364 0 21.212 5.848 5.85 15.366 5.848 21.212 0 5.849-5.848 5.849-15.364 0-21.212C101.972 80.758 92.455 80.759 86.607 86.607zM100.749 100.749c-1.949 1.948-5.122 1.95-7.071 0s-1.949-5.121 0-7.071c1.949-1.949 5.122-1.949 7.071 0C102.698 95.628 102.698 98.799 100.749 100.749zM65.393 65.393c5.849-5.848 5.849-15.364 0-21.212-5.846-5.848-15.362-5.85-21.212 0-5.849 5.848-5.849 15.364 0 21.212C50.029 71.242 59.546 71.241 65.393 65.393zM51.251 51.251c1.949-1.949 5.122-1.949 7.071 0 1.949 1.95 1.949 5.121 0 7.071-1.95 1.95-5.123 1.948-7.071 0C49.302 56.372 49.302 53.201 51.251 51.251zM106 416h-5.901l.804-4.02c.541-2.708-1.215-5.342-3.923-5.884-2.711-.533-5.342 1.215-5.884 3.923L89.901 416H70.099l.804-4.02c.541-2.708-1.215-5.342-3.923-5.884-2.707-.533-5.342 1.215-5.884 3.923L59.901 416H51c-2.762 0-5 2.238-5 5s2.238 5 5 5h6.901l-4 20H46c-2.762 0-5 2.238-5 5s2.238 5 5 5h5.901l-.804 4.02c-.541 2.708 1.215 5.342 3.923 5.884 2.744.542 5.348-1.244 5.884-3.923l1.196-5.98h19.801l-.804 4.02c-.541 2.708 1.215 5.342 3.923 5.884 2.744.542 5.348-1.244 5.884-3.923l1.196-5.98H101c2.762 0 5-2.238 5-5s-2.238-5-5-5h-6.901l4-20H106c2.762 0 5-2.238 5-5S108.762 416 106 416zM83.901 446H64.099l4-20h19.801L83.901 446zM459.733 416h-15.269c-3.378-8.896-11.956-15-21.765-15H421c-2.762 0-5 2.238-5 5v10h-15c-2.762 0-5 2.238-5 5v35c0 2.762 2.238 5 5 5h15c0 2.762 2.238 5 5 5h38.733c8.97 0 16.267-7.297 16.267-16.267v-17.467C476 423.297 468.703 416 459.733 416zM406 451v-25h10v25H406zM466 449.733c0 3.455-2.812 6.267-6.267 6.267H426c0-9.52 0-29.712 0-44.586 4.929 1.261 8.82 5.285 9.769 10.483.434 2.376 2.504 4.103 4.919 4.103h19.046c3.455 0 6.267 2.812 6.267 6.267V449.733z" fill="#000000" class="color000000 svgShape"></path>
      </g>
    </g>
  </g>
</svg>
