<svg xmlns="http://www.w3.org/2000/svg" viewBox="0 0 520 520" id="2881881">
  <path fill="#ffb729" d="M498.305 15 392.028 183.997 260.825 337.31l-55.135 12.72-55.135 12.72 12.725-55.13 12.725-55.13L324.43 123.33z" class="color8095ff svgShape"></path>
  <path fill="#000000" d="m498.305 15-118.74 441.05-118.74-118.74zM498.305 15l-322.3 237.49-118.74-118.74z" class="color99ccff svgShape"></path>
  <path fill="#ffffff" d="M46.695 355a4.998 4.998 0 0 1-3.536-8.535l75-75a5 5 0 1 1 7.071 7.07l-75 75A4.98 4.98 0 0 1 46.695 355zm50 150a4.998 4.998 0 0 1-3.536-8.535l105-105a5 5 0 1 1 7.071 7.07l-105 105A4.98 4.98 0 0 1 96.695 505zm-70-20a4.998 4.998 0 0 1-3.536-8.535l75-75a5 5 0 1 1 7.071 7.07l-75 75A4.98 4.98 0 0 1 26.695 485zm185 0a4.998 4.998 0 0 1-3.536-8.535l65-65a5 5 0 1 1 7.071 7.07l-65 65a4.98 4.98 0 0 1-3.535 1.465z" class="colore3f5ff svgShape"></path>
</svg>
