<svg xmlns="http://www.w3.org/2000/svg" viewBox="0 0 520 520" id="2881906">
  <path fill="#ffb729" d="m495.805 17.5-237.48 322.31-110.27 25.44 25.45-110.26z" class="color8095ff svgShape"></path>
  <path fill="#ffffff" d="m495.805 17.5-118.74 441.05-118.74-118.74zM495.805 17.5l-322.3 237.49-118.74-118.74z" class="color99ccff svgShape"></path>
  <path d="M377.066 463.55a5 5 0 0 1-3.536-1.465L256.749 345.306l-107.57 24.816a4.998 4.998 0 0 1-5.996-5.997l24.827-107.559L51.229 139.785a5 5 0 0 1 2.236-8.363l441.04-118.75a5.002 5.002 0 0 1 6.127 6.128l-118.74 441.05a4.998 4.998 0 0 1-4.826 3.7zM258.325 334.81a5 5 0 0 1 3.536 1.465l112.625 112.624L488.719 24.586 64.416 138.83l112.625 112.625a5 5 0 0 1 1.336 4.66L154.726 358.58l102.475-23.642c.373-.086.75-.128 1.124-.128z" fill="#000000" class="color000000 svgShape"></path>
  <path d="M258.321 344.81a5 5 0 0 1-4.022-7.966L472.205 41.1 176.471 259.015a4.998 4.998 0 0 1-6.991-1.06 5 5 0 0 1 1.06-6.991l322.3-237.49a5.001 5.001 0 0 1 6.991 6.991L262.35 342.776a4.992 4.992 0 0 1-4.029 2.034zM44.195 357.5a4.998 4.998 0 0 1-3.536-8.535l75-75a5 5 0 1 1 7.071 7.07l-75 75a4.98 4.98 0 0 1-3.535 1.465zm50 150a4.998 4.998 0 0 1-3.536-8.535l105-105a5 5 0 1 1 7.071 7.07l-105 105a4.98 4.98 0 0 1-3.535 1.465zm-70-20a4.998 4.998 0 0 1-3.536-8.535l75-75a5 5 0 1 1 7.071 7.07l-75 75a4.98 4.98 0 0 1-3.535 1.465zm185 0a4.998 4.998 0 0 1-3.536-8.535l65-65a5 5 0 1 1 7.071 7.07l-65 65a4.98 4.98 0 0 1-3.535 1.465z" fill="#000000" class="color000000 svgShape"></path>
</svg>
