<svg xmlns="http://www.w3.org/2000/svg" viewBox="0 0 520 520" id="2881917">
  <path fill="#ffb729" d="M370 27.75v94.51c0 9.8-7.95 17.74-17.75 17.74h-184.5c-9.8 0-17.75-7.94-17.75-17.74V27.75c0-9.8 7.95-17.75 17.75-17.75h184.5c9.8 0 17.75 7.95 17.75 17.75z" class="colorc6ea4b svgShape"></path>
  <path fill="#424242" d="m375.41 421.45-14.01 52.08c-6.78 21.7-26.88 36.47-49.61 36.47H208.21c-22.73 0-42.83-14.77-49.61-36.47l-14.01-52.08c10-.065 220.82-.003 230.82 0z" class="color5c3629 svgShape"></path>
  <path fill="#8e6e2e" d="m400 330-24.59 91.45c-10-.003-220.82-.064-230.82 0L120 330h280z" class="color8e572e svgShape"></path>
  <circle cx="260" cy="420" r="40" fill="#ffffff" class="color99ccff svgShape"></circle>
  <path fill="#c19b4f" d="M415 280c13.81 0 25 11.2 25 25 0 13.798-11.178 25-25 25H105c-13.81 0-25-11.19-25-25 0-13.802 11.199-25 25-25h310z" class="colorc17d4f svgShape"></path>
  <path fill="#6e6e6e" d="M260 272.98c0-34.78 28.19-62.98 62.97-62.98h33.28v7.03c0 34.78-28.19 62.97-62.97 62.97H260v-7.02z" class="color00dc7b svgShape"></path>
  <path fill="#ffb729" d="M260 272.98V280h-33.28c-34.78 0-62.97-28.19-62.97-62.97V210h33.28c34.78 0 62.97 28.2 62.97 62.98z" class="colorc6ea4b svgShape"></path>
  <path fill="#6e6e6e" d="M330 64.26v21.49c-7.87 0-14.25 6.38-14.25 14.25h-111.5c0-7.87-6.38-14.25-14.25-14.25V64.26c7.87 0 14.25-6.38 14.25-14.26h111.5c0 7.88 6.38 14.26 14.25 14.26z" class="color00dc7b svgShape"></path>
  <path d="M120 335h-15c-16.542 0-30-13.458-30-30 0-8.011 3.12-15.541 8.785-21.206C89.441 278.125 96.977 275 105 275h121.72a5 5 0 1 1 0 10H105a19.846 19.846 0 0 0-14.141 5.861A19.868 19.868 0 0 0 85 305c0 11.028 8.972 20 20 20h15a5 5 0 1 1 0 10zm295 0h-15a5 5 0 1 1 0-10h15c5.346 0 10.369-2.08 14.145-5.855C432.919 315.361 435 310.337 435 305c0-11.028-8.972-20-20-20H293.28a5 5 0 1 1 0-10H415c16.542 0 30 13.458 30 30 0 8.005-3.118 15.538-8.781 21.212C430.551 331.88 423.017 335 415 335z" fill="#000000" class="color000000 svgShape"></path>
  <path d="M311.79 515H208.21c-25.057 0-46.912-16.066-54.382-39.978a4.63 4.63 0 0 1-.056-.192l-38.601-143.531a5 5 0 0 1 4.828-6.298h280a5 5 0 0 1 4.828 6.298l-24.59 91.45v.001l-14.01 52.08a4.22 4.22 0 0 1-.056.192C358.702 498.934 336.847 515 311.79 515zm-148.388-42.868C169.589 491.795 187.583 505 208.21 505h103.58c20.626 0 38.621-13.205 44.808-32.868l13.984-51.98L393.478 335H126.522l36.88 137.132zM352.25 145h-184.5c-12.544 0-22.75-10.201-22.75-22.74V27.75C145 15.206 155.206 5 167.75 5h184.5C364.794 5 375 15.206 375 27.75v94.51c0 12.539-10.206 22.74-22.75 22.74zM167.75 15C160.72 15 155 20.72 155 27.75v94.51c0 7.025 5.72 12.74 12.75 12.74h184.5c7.03 0 12.75-5.715 12.75-12.74V27.75c0-7.03-5.72-12.75-12.75-12.75h-184.5z" fill="#000000" class="color000000 svgShape"></path>
  <path d="M315.75 105h-111.5a5 5 0 0 1-5-5c0-5.101-4.149-9.25-9.25-9.25a5 5 0 0 1-5-5V64.26a5 5 0 0 1 5-5c5.101 0 9.25-4.154 9.25-9.26a5 5 0 0 1 5-5h111.5a5 5 0 0 1 5 5c0 5.105 4.149 9.26 9.25 9.26a5 5 0 0 1 5 5v21.49a5 5 0 0 1-5 5c-5.101 0-9.25 4.149-9.25 9.25a5 5 0 0 1-5 5zM208.592 95h102.816A19.325 19.325 0 0 1 325 81.408V68.601c-6.604-1.778-11.815-6.992-13.592-13.601H208.592c-1.777 6.608-6.988 11.822-13.592 13.601v12.808A19.322 19.322 0 0 1 208.592 95zM260 277.98a5 5 0 0 1-5-5V140a5 5 0 1 1 10 0v132.98a5 5 0 0 1-5 5z" fill="#000000" class="color000000 svgShape"></path>
  <path d="M260 285h-33.28c-37.479 0-67.97-30.491-67.97-67.97V210a5 5 0 0 1 5-5h33.28c37.479 0 67.97 30.496 67.97 67.98a4.984 4.984 0 0 1-1.439 3.51A5 5 0 0 1 260 285zm-91.25-70v2.03c0 31.965 26.005 57.97 57.97 57.97h28.705a4.982 4.982 0 0 1-.425-2.02c0-31.971-26.005-57.98-57.97-57.98h-28.28z" fill="#000000" class="color000000 svgShape"></path>
  <path d="M293.28 285H260a5 5 0 0 1-5-5v-7.02c0-37.484 30.491-67.98 67.97-67.98h33.28a5 5 0 0 1 5 5v7.03c0 37.479-30.491 67.97-67.97 67.97zM265 275h28.28c31.965 0 57.97-26.005 57.97-57.97V215h-28.28c-31.965 0-57.97 26.01-57.97 57.98V275zm-5 190c-24.813 0-45-20.186-45-45s20.187-45 45-45 45 20.186 45 45-20.187 45-45 45zm0-80c-19.299 0-35 15.701-35 35s15.701 35 35 35 35-15.701 35-35-15.701-35-35-35z" fill="#000000" class="color000000 svgShape"></path>
  <path d="M370 425h-70a5 5 0 1 1 0-10h70a5 5 0 1 1 0 10zm-150 0h-70a5 5 0 1 1 0-10h70a5 5 0 1 1 0 10z" fill="#000000" class="color000000 svgShape"></path>
</svg>
