<svg xmlns="http://www.w3.org/2000/svg" viewBox="0 0 520 520" id="2881892">
  <path fill="#8e6e2e" d="m400 330-24.59 91.45c-5-.002-60.205 12.388-115.41 12.38-55.205-.008-110.41-12.412-115.41-12.38L120 330l140-11.17L400 330z" class="color8e572e svgShape"></path>
  <path fill="#515151" d="M260 277.98a5 5 0 0 1-5-5V140a5 5 0 1 1 10 0v132.98a5 5 0 0 1-5 5z" class="color00a27b svgShape"></path>
  <path fill="#ffb729" d="M370 27.75v94.51c0 9.8-7.95 17.74-17.75 17.74h-184.5c-9.8 0-17.75-7.94-17.75-17.74V27.75c0-9.8 7.95-17.75 17.75-17.75h184.5c9.8 0 17.75 7.95 17.75 17.75z" class="colorc6ea4b svgShape"></path>
  <path fill="#000000" d="m375.41 421.45-14.01 52.08c-6.78 21.7-26.88 36.47-49.61 36.47H208.21c-22.73 0-42.83-14.77-49.61-36.47l-14.01-52.08c10-.065 220.82-.003 230.82 0z" class="color5c3629 svgShape"></path>
  <circle cx="260" cy="420" r="40" fill="#ffffff" class="color99ccff svgShape"></circle>
  <path fill="#c19b4f" d="M415 280c13.81 0 25 11.2 25 25 0 13.798-11.178 25-25 25H105c-13.81 0-25-11.19-25-25 0-13.802 11.199-25 25-25h310z" class="colorc17d4f svgShape"></path>
  <path fill="#6e6e6e" d="M260 272.98c0-34.78 28.19-62.98 62.97-62.98h33.28v7.03c0 34.78-28.19 62.97-62.97 62.97H260v-7.02z" class="color00dc7b svgShape"></path>
  <path fill="#ffb729" d="M260 272.98V280h-33.28c-34.78 0-62.97-28.19-62.97-62.97V210h33.28c34.78 0 62.97 28.2 62.97 62.98z" class="colorc6ea4b svgShape"></path>
  <path fill="#6e6e6e" d="M330 64.26v21.49c-7.87 0-14.25 6.38-14.25 14.25h-111.5c0-7.87-6.38-14.25-14.25-14.25V64.26c7.87 0 14.25-6.38 14.25-14.26h111.5c0 7.88 6.38 14.26 14.25 14.26z" class="color00dc7b svgShape"></path>
</svg>
