<svg xmlns="http://www.w3.org/2000/svg" xml:space="preserve" viewBox="0 0 512 512" enable-background="new 0 0 512 512" id="11331562">
  <g id="_x32_2_x2C__network_x2C__multi_channel_x2C__connections_x2C__internet_x2C__connectivity_x2C__seo_and_web" fill="#000000" class="color000000 svgShape">
    <g fill="#000000" class="color000000 svgShape">
      <path d="M361.47,71.738l-21.19-21.19c-49.248-39.398-119.325-39.388-168.56,0l-21.19,21.19
			c-39.398,49.248-39.388,119.325,0,168.56l21.19,21.19c49.248,39.398,119.325,39.388,168.56,0l21.19-21.19
			C400.868,191.05,400.858,120.973,361.47,71.738z" fill="#ffffff" class="colordfe8eb svgShape"></path>
      <path d="M362.07,262.088c-5.671,5.661-15.28,6.253-21.79-0.6c-5.28-5.89-5.09-14.96,0.57-20.62
			s14.73-5.85,20.62-0.57C368.283,246.771,367.757,256.391,362.07,262.088z" fill="#d4b371" class="color717ed4 svgShape"></path>
      <path d="M362.07,49.948c5.661,5.671,6.253,15.28-0.6,21.79c-5.89,5.28-14.96,5.09-20.62-0.57
			c-5.841-5.841-5.872-15.348,0-21.22C346.71,44.098,356.21,44.098,362.07,49.948z" fill="#ffb729" class="colorf6df5b svgShape"></path>
      <path d="M171.15,240.868c5.66,5.66,5.85,14.73,0.57,20.62c-6.473,6.813-16.093,6.287-21.79,0.6
			c-5.661-5.671-6.253-15.28,0.6-21.79C156.42,235.018,165.49,235.208,171.15,240.868z" fill="#e6b85e" class="colorbde65e svgShape"></path>
      <path d="M171.15,71.168c-5.66,5.66-14.73,5.85-20.62,0.57c-6.813-6.473-6.287-16.093-0.6-21.79
			c5.86-5.85,15.36-5.85,21.22,0C177.014,55.813,176.999,65.319,171.15,71.168z" fill="#e1b359" class="colore17559 svgShape"></path>
      <circle cx="256" cy="156.018" r="100" fill="#f5cd7e" class="color7ed7f5 svgShape"></circle>
      <path d="M371,391.018v87h130v-87C485.289,391.018,386.815,391.018,371,391.018z" fill="#ffffff" class="colordfe8eb svgShape"></path>
      <path d="M506,461.018v8.8c0,11.71-9.49,21.2-21.2,21.2h-97.6c-11.71,0-21.2-9.49-21.2-21.2v-8.8
			c15.29,0,35.859,0,50,0l5,10h30l5-10C470.14,461.018,490.643,461.018,506,461.018z" fill="#464646" class="color3b4a51 svgShape"></path>
      <path d="M191,391.018v87h130v-87C305.289,391.018,206.815,391.018,191,391.018z" fill="#ffffff" class="colordfe8eb svgShape"></path>
      <path d="M326,461.018v8.8c0,11.71-9.49,21.2-21.2,21.2h-97.6c-11.71,0-21.2-9.49-21.2-21.2v-8.8
			c15.29,0,35.859,0,50,0l5,10h30l5-10h45H326z" fill="#464646" class="color3b4a51 svgShape"></path>
      <path d="M11,391.018v87h130v-87C125.289,391.018,26.815,391.018,11,391.018z" fill="#ffffff" class="colordfe8eb svgShape"></path>
      <path d="M146,461.018v8.8c0,11.71-9.49,21.2-21.2,21.2H27.2c-11.71,0-21.2-9.49-21.2-21.2v-8.8
			c15.29,0,35.859,0,50,0l5,10h30l5-10C110.14,461.018,130.643,461.018,146,461.018z" fill="#464646" class="color3b4a51 svgShape"></path>
      <g fill="#000000" class="color000000 svgShape">
        <path d="M506,456.018v-65c0-2.762-2.238-5-5-5h-55v-40c0-2.762-2.238-5-5-5H261v-15c0-2.59,0-22.403,0-30.048
				c27.918-0.994,55.605-10.333,79.117-28.037c7.789,5.371,18.562,4.608,25.485-2.313c6.923-6.924,7.684-17.695,2.313-25.484
				c37.462-49.755,37.538-118.383,0-168.235c5.371-7.788,4.61-18.561-2.314-25.485c-6.924-6.922-17.694-7.682-25.482-2.313
				c-49.436-37.274-118.221-37.712-168.238,0c-7.789-5.37-18.559-4.607-25.484,2.314c-6.923,6.924-7.684,17.696-2.313,25.484
				c-37.457,49.748-37.538,118.365-0.015,168.214c-8.953,12.746,0.009,31.353,16.471,31.353c3.973,0,7.939-1.188,11.342-3.535
				c23.487,17.684,51.178,27.038,79.117,28.036c0,4.587,0,22.15,0,30.049v15H76c-2.762,0-5,2.238-5,5v40H11c-2.762,0-5,2.238-5,5v65
				c-2.762,0-5,2.238-5,5v8.8c0,14.447,11.753,26.2,26.2,26.2h97.6c14.447,0,26.2-11.753,26.2-26.2v-8.8c0-2.762-2.238-5-5-5v-65
				c0-2.762-2.238-5-5-5H81v-35h170v35h-60c-2.762,0-5,2.238-5,5v65c-2.762,0-5,2.238-5,5v8.8c0,14.447,11.753,26.2,26.2,26.2h97.6
				c14.447,0,26.2-11.753,26.2-26.2v-8.8c0-2.762-2.238-5-5-5v-65c0-2.762-2.238-5-5-5h-60v-35h175v35h-65c-2.762,0-5,2.238-5,5v65
				c-2.762,0-5,2.238-5,5v8.8c0,14.447,11.753,26.2,26.2,26.2h97.6c14.447,0,26.2-11.753,26.2-26.2v-8.8
				C511,458.256,508.762,456.018,506,456.018z M358.531,258.548c-3.899,3.897-10.242,3.899-14.143,0
				c-3.899-3.899-3.899-10.244,0-14.142c3.899-3.899,10.243-3.9,14.143-0.001S362.43,254.65,358.531,258.548z M358.53,53.487
				c3.899,3.899,3.899,10.244,0.001,14.143c-3.899,3.899-10.243,3.9-14.143,0.001s-3.899-10.244-0.001-14.143
				C348.288,49.587,354.631,49.589,358.53,53.487z M153.469,53.488c3.9-3.9,10.244-3.897,14.143-0.001
				c3.899,3.899,3.899,10.244,0.001,14.143c-3.9,3.9-10.243,3.898-14.143,0C149.57,63.73,149.571,57.386,153.469,53.488z
				 M151.675,78.468c17.134,8.46,35.234-9.646,26.775-26.775c46.039-34.287,109.085-34.238,155.056-0.033
				c-6.317,12.544,2.524,28.89,17.953,28.89c3.043,0,6.08-0.705,8.866-2.081c34.298,46.054,34.237,109.125,0,155.1
				c-7.477-3.692-16.793-2.446-23.009,3.767c-6.215,6.215-7.459,15.532-3.767,23.008c-46.125,34.351-109.163,34.208-155.1,0
				c8.461-17.133-9.646-35.232-26.775-26.775C117.376,187.515,117.438,124.443,151.675,78.468z M153.47,258.549
				c-3.899-3.899-3.899-10.244-0.001-14.143c3.9-3.9,10.245-3.899,14.143-0.001c3.899,3.899,3.899,10.244,0.001,14.143
				C163.712,262.448,157.368,262.447,153.47,258.549z M141,469.818c0,8.933-7.268,16.2-16.2,16.2H27.2
				c-8.933,0-16.2-7.268-16.2-16.2v-3.8h41.91l3.618,7.236c0.847,1.693,2.578,2.764,4.472,2.764h30c1.894,0,3.625-1.07,4.472-2.764
				l3.618-7.236H141V469.818z M136,456.018H96c-1.894,0-3.625,1.07-4.472,2.764l-3.618,7.236H64.09l-3.618-7.236
				c-0.847-1.693-2.578-2.764-4.472-2.764H16v-60h120V456.018z M321,469.818c0,8.933-7.268,16.2-16.2,16.2h-97.6
				c-8.933,0-16.2-7.268-16.2-16.2v-3.8h41.91l3.618,7.236c0.847,1.693,2.578,2.764,4.472,2.764h30c1.894,0,3.625-1.07,4.472-2.764
				l3.618-7.236H321V469.818z M316,456.018h-40c-1.894,0-3.625,1.07-4.472,2.764l-3.618,7.236h-23.82l-3.618-7.236
				c-0.847-1.693-2.578-2.764-4.472-2.764h-40v-60h120V456.018z M376,396.018h120v60h-40c-1.894,0-3.625,1.07-4.472,2.764
				l-3.618,7.236h-23.82l-3.618-7.236c-0.847-1.693-2.578-2.764-4.472-2.764h-40V396.018z M501,469.818
				c0,8.933-7.268,16.2-16.2,16.2h-97.6c-8.933,0-16.2-7.268-16.2-16.2v-3.8h41.91l3.618,7.236c0.847,1.693,2.578,2.764,4.472,2.764
				h30c1.894,0,3.625-1.07,4.472-2.764l3.618-7.236H501V469.818z" fill="#000000" class="color000000 svgShape"></path>
        <path d="M256 261.018c57.897 0 105-47.103 105-105s-47.103-105-105-105-105 47.103-105 105S198.103 261.018 256 261.018zM161.131 161.018h39.93c.868 37.037 11.343 68.503 26.903 85.776C190.747 235.276 163.239 201.454 161.131 161.018zM261 250.398v-89.38h39.934C299.745 206.775 282.369 245.145 261 250.398zM261 151.018v-89.38c21.369 5.253 38.745 43.623 39.934 89.38H261zM251 61.638v89.38h-39.934C212.255 105.261 229.631 66.891 251 61.638zM251 161.018v89.38c-21.369-5.253-38.745-43.623-39.934-89.38H251zM284.036 246.794c15.56-17.274 26.035-48.74 26.903-85.776h39.93C348.761 201.454 321.253 235.276 284.036 246.794zM350.869 151.018h-39.93c-.868-37.037-11.343-68.503-26.903-85.776C321.253 76.76 348.761 110.582 350.869 151.018zM227.964 65.242c-15.56 17.274-26.035 48.74-26.903 85.776h-39.93C163.239 110.582 190.747 76.76 227.964 65.242zM97.027 95.581l9.239 3.827c2.525 1.049 5.468-.133 6.532-2.706 1.057-2.551-.154-5.476-2.706-6.532l-9.239-3.827c-2.546-1.058-5.477.154-6.532 2.706C93.265 91.599 94.476 94.524 97.027 95.581zM86 161.018h10c2.762 0 5-2.238 5-5s-2.238-5-5-5H86c-2.762 0-5 2.238-5 5S83.238 161.018 86 161.018zM106.267 212.628l-9.239 3.827c-2.552 1.057-3.763 3.981-2.706 6.532 1.069 2.579 4.013 3.753 6.532 2.706l9.239-3.827c2.552-1.057 3.763-3.981 2.706-6.532C111.741 212.783 108.814 211.57 106.267 212.628zM195.563 314.991l3.827-9.239c1.057-2.551-.154-5.476-2.706-6.532-2.547-1.058-5.476.154-6.532 2.706l-3.827 9.239c-1.057 2.551.154 5.476 2.706 6.532C191.555 318.746 194.498 317.564 195.563 314.991zM315.316 299.219c-2.552 1.057-3.763 3.981-2.706 6.532l3.827 9.239c1.069 2.579 4.013 3.753 6.532 2.706 2.552-1.057 3.763-3.981 2.706-6.532l-3.827-9.239C320.791 299.374 317.863 298.161 315.316 299.219zM401.907 221.867l9.239 3.827c2.525 1.049 5.468-.133 6.532-2.706 1.057-2.551-.154-5.476-2.706-6.532l-9.239-3.827c-2.547-1.058-5.476.154-6.532 2.706C398.145 217.885 399.355 220.81 401.907 221.867zM411 156.018c0 2.762 2.238 5 5 5h10c2.762 0 5-2.238 5-5s-2.238-5-5-5h-10C413.238 151.018 411 153.256 411 156.018zM405.733 99.408l9.239-3.827c2.552-1.057 3.763-3.981 2.706-6.532-1.058-2.552-3.983-3.765-6.532-2.706l-9.239 3.827c-2.552 1.057-3.763 3.981-2.706 6.532C400.27 99.281 403.215 100.455 405.733 99.408z" fill="#000000" class="color000000 svgShape"></path>
      </g>
    </g>
  </g>
</svg>
