<svg xmlns="http://www.w3.org/2000/svg" xml:space="preserve" viewBox="0 0 512 512" enable-background="new 0 0 512 512" id="11331554">
  <g id="_x31_4_x2C__online_shop_x2C__smartphone_x2C__online_x2C__ecommerce_x2C__electronics_x2C______commerce_and_shopping" fill="#000000" class="color000000 svgShape">
    <g fill="#000000" class="color000000 svgShape">
      <path d="M359.5,6h-207C129.58,6,111,24.58,111,47.5v417c0,22.92,18.58,41.5,41.5,41.5h207
			c22.92,0,41.5-18.58,41.5-41.5v-417C401,24.58,382.42,6,359.5,6z" fill="#575757" class="color495f66 svgShape"></path>
      <path d="M366,41v55c-10.696,0-95.277,15-106,15c-26.359,0-87.567-15-114-15V41h65l10,15h70l10-15H366z" fill="#ffffff" class="colordfe8eb svgShape"></path>
      <polygon points="146 169 146 426 366 426 366 169 256 155" fill="#ffffff" class="colordfe8eb svgShape"></polygon>
      <path d="m322 126 9.5 18-9.5 25c0 12.15-9.85 22-22 22s-22-9.85-22-22l-12.5-22.5L278 126l22-10L322 126zM234 126l8 20.333L234 169c0 12.15-9.85 22-22 22s-22-9.85-22-22l-7.167-22L190 126l20.5-6.833L234 126z" fill="#f6c25b" class="colorf6df5b svgShape"></path>
      <polygon points="308 341 312 366 257.25 376.5 200 366 204 341 254.75 331.75" fill="#f6c25b" class="colorf6df5b svgShape"></polygon>
      <polygon points="312 366 316 391 196 391 200 366" fill="#c7a35b" class="colorc7865b svgShape"></polygon>
      <path d="M296,266l12,75H204l12-75C239.456,266,271.045,266,296,266z" fill="#c7a35b" class="colorc7865b svgShape"></path>
      <polygon points="234 96 242 113 234 126 190 126 182.833 112.167 190 96" fill="#ffb729" class="coloreec158 svgShape"></polygon>
      <path d="M366 126v43c0 12.15-9.85 22-22 22s-22-9.85-22-22v-43l21-10L366 126zM278 126v43c0 12.15-9.85 22-22 22s-22-9.85-22-22v-43l22-11.5L278 126zM190 126v43c0 12.15-9.85 22-22 22s-22-9.85-22-22v-43l20.5-8.25L190 126z" fill="#e1b359" class="colore17559 svgShape"></path>
      <rect width="44" height="30" x="146" y="96" fill="#dca53a" class="colordc483a svgShape"></rect>
      <polygon points="322 96 330 112.5 322 126 278 126 267 111 278 96" fill="#ffb729" class="coloreec158 svgShape"></polygon>
      <rect width="44" height="30" x="234" y="96" fill="#dca53a" class="colordc483a svgShape"></rect>
      <rect width="44" height="30" x="322" y="96" fill="#dca53a" class="colordc483a svgShape"></rect>
      <g fill="#000000" class="color000000 svgShape">
        <path d="M359.5,1h-207C126.859,1,106,21.859,106,47.5v417c0,25.641,20.859,46.5,46.5,46.5h207c25.641,0,46.5-20.859,46.5-46.5
				v-417C406,21.859,385.141,1,359.5,1z M396,464.5c0,20.126-16.374,36.5-36.5,36.5h-207c-20.126,0-36.5-16.374-36.5-36.5v-417
				c0-20.126,16.374-36.5,36.5-36.5h207c20.126,0,36.5,16.374,36.5,36.5V464.5z" fill="#000000" class="color000000 svgShape"></path>
        <path d="M366,36c-68.976,0.465-65.983-1.082-68.528,1.458c-0.511,0.51,0.041-0.241-9.147,13.542h-64.648
				c-9.636-14.453-8.651-13.121-9.475-13.812c-1.997-1.68,1.943-1.22-68.201-1.188c-2.762,0-5,2.238-5,5c0,26.007,0,101.787,0,128
				v257c0,2.762,2.238,5,5,5h220c2.762,0,5-2.238,5-5c0-19.881,0-366.153,0-385C371,38.238,368.762,36,366,36z M195,101h34v20h-34
				V101z M239,101h34v20h-34V101z M283,101h34v20h-34V101z M327,101h34v20h-34V101z M185,121h-34v-20h34V121z M151,131h34v38
				c0,9.374-7.626,17-17,17s-17-7.626-17-17V131z M195,131h34v38c0,9.374-7.626,17-17,17s-17-7.626-17-17V131z M239,131h34v38
				c0,9.374-7.626,17-17,17s-17-7.626-17-17V131z M283,131h34v38c0,9.374-7.626,17-17,17s-17-7.626-17-17V131z M327,131h34v38
				c0,9.374-7.626,17-17,17s-17-7.626-17-17V131z M208.324,46l8.516,12.773C217.767,60.164,219.328,61,221,61h70
				c1.672,0,3.233-0.836,4.16-2.227L303.676,46H361v45c-3.295,0-206.712,0-210,0V46H208.324z M151,421V189.956
				c4.645,3.775,10.562,6.044,17,6.044c9.069,0,17.101-4.499,22-11.377c10.814,15.184,33.212,15.147,44,0
				c10.814,15.184,33.212,15.147,44,0c10.814,15.184,33.212,15.147,44,0c9.064,12.726,26.899,15.169,39,5.333V421H151z" fill="#000000" class="color000000 svgShape"></path>
        <path d="M300.938 265.21c-.389-2.426-2.481-4.21-4.938-4.21h-15v-10c0-13.785-11.215-25-25-25s-25 11.215-25 25v10h-15c-2.456 0-4.549 1.784-4.938 4.21l-20 125c-.486 3.036 1.863 5.79 4.938 5.79h120c3.074 0 5.424-2.754 4.938-5.79L300.938 265.21zM208.263 346h95.473l2.4 15H205.863L208.263 346zM241 251c0-8.271 6.729-15 15-15s15 6.729 15 15v10h-30V251zM220.264 271H231v20c0 2.762 2.238 5 5 5s5-2.238 5-5v-20h30v20c0 2.762 2.238 5 5 5s5-2.238 5-5v-20h10.736l10.4 65h-92.273L220.264 271zM201.863 386l2.4-15h103.474l2.4 15H201.863zM271 461h-30c-2.762 0-5 2.238-5 5s2.238 5 5 5h30c2.762 0 5-2.238 5-5S273.762 461 271 461z" fill="#000000" class="color000000 svgShape"></path>
      </g>
    </g>
  </g>
</svg>
