<svg xmlns="http://www.w3.org/2000/svg" xml:space="preserve" viewBox="0 0 512 512" enable-background="new 0 0 512 512" id="11331579">
  <g id="_x33_9_x2C__online_marketing_x2C__Advertising_x2C__browser_x2C__campaign_x2C__marketing_x2C__technology" fill="#000000" class="color000000 svgShape">
    <g fill="#000000" class="color000000 svgShape">
      <g fill="#000000" class="color000000 svgShape">
        <g fill="#000000" class="color000000 svgShape">
          <path d="M249.5,74.5L6,96v365.6C6,486.12,25.88,506,50.4,506h411.2c24.52,0,44.4-19.88,44.4-44.4V96
					L249.5,74.5z" fill="#ffffff" class="colordfe8eb svgShape"></path>
          <rect width="420" height="320" x="46" y="141" fill="#f5cd7e" class="color7ed7f5 svgShape"></rect>
          <path d="M506,50.4V96H226l-50-35L151,6h310.6C486.12,6,506,25.88,506,50.4z" fill="#575757" class="color495f66 svgShape"></path>
          <path d="M151,6H50.4C25.88,6,6,25.88,6,50.4V96h220L151,6z" fill="#464646" class="color3b4a51 svgShape"></path>
          <circle cx="141" cy="51" r="10" fill="#e6b85e" class="colorbde65e svgShape"></circle>
          <circle cx="96" cy="51" r="10" fill="#ffb729" class="colorf6df5b svgShape"></circle>
          <circle cx="51" cy="51" r="10" fill="#e1b359" class="colore17559 svgShape"></circle>
        </g>
      </g>
      <path d="m211 309.2 8.333 15-8.333 15h-10c-8.266 0-15-6.72-15-15 0-8.28 6.72-15 15-15H211zM366 289.56c16.96 2.43 30 17.01 30 34.64 0 17.63-13.04 32.21-30 34.64L357 327 366 289.56z" fill="#575757" class="color495f66 svgShape"></path>
      <rect width="25" height="83.667" x="221" y="347.333" fill="#575757" class="color495f66 svgShape"></rect>
      <polygon points="341 244.2 348 330.333 341 404.2 256 354.2 246 326 256 294.2" fill="#e1b359" class="colore17559 svgShape"></polygon>
      <rect width="105" height="95" x="76" y="171" fill="#ffffff" class="colordfe8eb svgShape"></rect>
      <path d="M366 404.2h-25v-160h25C366 252.278 366 396.593 366 404.2zM256 294.2v60c-10.934 0-35.042 0-45 0 0-20.996 0-39.072 0-60H256z" fill="#ffb729" class="colorf6df5b svgShape"></path>
      <g fill="#000000" class="color000000 svgShape">
        <path d="M461.6,1H50.4C23.161,1,1,23.161,1,50.4V461.6C1,488.839,23.161,511,50.4,511H461.6c27.239,0,49.4-22.161,49.4-49.4V50.4
				C511,23.161,488.839,1,461.6,1z M501,50.4V91H228.342l-66.667-80H461.6C483.325,11,501,28.675,501,50.4z M50.4,11h98.258
				l66.667,80H11V50.4C11,28.675,28.675,11,50.4,11z M461.6,501H50.4C28.675,501,11,483.325,11,461.6V101h490v360.6
				C501,483.325,483.325,501,461.6,501z" fill="#000000" class="color000000 svgShape"></path>
        <path d="M51 66c8.271 0 15-6.729 15-15s-6.729-15-15-15-15 6.729-15 15S42.729 66 51 66zM51 46c2.757 0 5 2.243 5 5s-2.243 5-5 5-5-2.243-5-5S48.243 46 51 46zM96 66c8.271 0 15-6.729 15-15s-6.729-15-15-15-15 6.729-15 15S87.729 66 96 66zM96 46c2.757 0 5 2.243 5 5s-2.243 5-5 5-5-2.243-5-5S93.243 46 96 46zM141 66c8.271 0 15-6.729 15-15s-6.729-15-15-15-15 6.729-15 15S132.729 66 141 66zM141 46c2.757 0 5 2.243 5 5s-2.243 5-5 5-5-2.243-5-5S138.243 46 141 46zM241 56h230c2.762 0 5-2.238 5-5s-2.238-5-5-5H241c-2.762 0-5 2.238-5 5S238.238 56 241 56zM466 136H46c-2.762 0-5 2.238-5 5v320c0 2.762 2.238 5 5 5h420c2.762 0 5-2.238 5-5V141C471 138.238 468.762 136 466 136zM461 456H51V146h410V456z" fill="#000000" class="color000000 svgShape"></path>
        <path d="M201 344.2h5v10c0 2.762 2.238 5 5 5h5V431c0 2.762 2.238 5 5 5h25c2.762 0 5-2.238 5-5v-71.8h3.639c87.947 51.384 83.777 50.071 86.48 50H366c2.762 0 5-2.238 5-5v-41.282c17.374-4.495 30-20.424 30-38.718 0-18.295-12.626-34.224-30-38.719V244.2c0-2.762-2.238-5-5-5-25.597.18-25.523-.491-27.535.69l-83.826 49.31H211c-2.762 0-5 2.238-5 5v10h-5c-11.028 0-20 8.972-20 20S189.972 344.2 201 344.2zM241 426h-15v-66.8h15V426zM391 324.2c0 12.83-8.275 24.115-20 28.282v-56.564C382.725 300.084 391 311.369 391 324.2zM361 399.2h-15v-150h15C361 265.445 361 383.748 361 399.2zM336 395.458l-75-44.117V297.06l75-44.117V395.458zM216 299.2h35v50c-7.304 0-27.694 0-35 0C216 331.539 216 316.864 216 299.2zM201 314.2h5v20h-5c-5.514 0-10-4.486-10-10S195.486 314.2 201 314.2zM416 319.2c0 2.762 2.238 5 5 5h15c2.762 0 5-2.238 5-5s-2.238-5-5-5h-15C418.238 314.2 416 316.438 416 319.2zM412.962 294.2l12.99-7.5c2.392-1.381 3.211-4.438 1.83-6.83-1.38-2.392-4.439-3.214-6.83-1.83l-12.99 7.5c-2.392 1.381-3.211 4.438-1.83 6.83C407.506 294.751 410.562 295.588 412.962 294.2z" fill="#000000" class="color000000 svgShape"></path>
        <path d="M386.665 274.739c1.729 0 3.409-.896 4.335-2.501l7.5-12.99c1.381-2.392.562-5.449-1.83-6.83-2.394-1.384-5.45-.562-6.83 1.83l-7.5 12.99C380.404 270.591 382.861 274.739 386.665 274.739zM399.66 371.161c-1.381-2.392-4.438-3.214-6.83-1.83-2.392 1.381-3.211 4.438-1.83 6.83l7.5 12.991c1.374 2.381 4.43 3.217 6.83 1.83 2.392-1.381 3.211-4.438 1.83-6.83L399.66 371.161zM430.952 353.04l-12.99-7.5c-2.394-1.384-5.45-.561-6.83 1.83-1.381 2.392-.562 5.449 1.83 6.83l12.99 7.5c2.38 1.376 5.443.572 6.83-1.83C434.163 357.479 433.344 354.421 430.952 353.04zM76 271h105c2.762 0 5-2.238 5-5v-95c0-2.762-2.238-5-5-5H76c-2.762 0-5 2.238-5 5v95C71 268.762 73.238 271 76 271zM81 176h95v85H81V176zM206 176h75c2.762 0 5-2.238 5-5s-2.238-5-5-5h-75c-2.762 0-5 2.238-5 5S203.238 176 206 176zM206 201h75c2.762 0 5-2.238 5-5s-2.238-5-5-5h-75c-2.762 0-5 2.238-5 5S203.238 201 206 201zM206 226h75c2.762 0 5-2.238 5-5s-2.238-5-5-5h-75c-2.762 0-5 2.238-5 5S203.238 226 206 226zM206 251h35c2.762 0 5-2.238 5-5s-2.238-5-5-5h-35c-2.762 0-5 2.238-5 5S203.238 251 206 251z" fill="#000000" class="color000000 svgShape"></path>
      </g>
    </g>
  </g>
</svg>
