<svg xmlns="http://www.w3.org/2000/svg" xml:space="preserve" viewBox="0 0 512 512" enable-background="new 0 0 512 512" id="11331555">
  <g id="_x31_5_x2C__payment_x2C__digital_x2C__Banking_System_x2C__online_x2C__diversification_x2C__business_and_finance" fill="#000000" class="color000000 svgShape">
    <g fill="#000000" class="color000000 svgShape">
      <path d="M341 438.5 258.5 451 171 438.5l3.58-1.43C202.61 425.85 221 398.7 221 368.5l32.667-15.833L291 368.5c0 30.2 18.39 57.35 46.42 68.57L341 438.5zM462.4 48.5H49.6C25.52 48.5 6 68.02 6 92.1v221.4L256 339l250-25.5V92.1C506 68.02 486.48 48.5 462.4 48.5z" fill="#575757" class="color495f66 svgShape"></path>
      <rect width="430" height="238.5" x="41" y="83.5" fill="#ffffff" class="colordfe8eb svgShape"></rect>
      <path d="M506 313.5v11.4c0 24.08-19.52 43.6-43.6 43.6-15.952 0-391.684 0-412.8 0C25.52 368.5 6 348.98 6 324.9v-11.4C42.848 313.5 488.142 313.5 506 313.5zM431 463.5H86c0-13.824 11.2-25 25-25 7.176 0 293.942 0 295 0C419.81 438.5 431 449.69 431 463.5z" fill="#464646" class="color3b4a51 svgShape"></path>
      <circle cx="426" cy="143.5" r="15" fill="#e1b359" class="colore17559 svgShape"></circle>
      <circle cx="86" cy="143.5" r="15" fill="#e1b359" class="colore17559 svgShape"></circle>
      <circle cx="426" cy="198.5" r="15" fill="#e6b85e" class="colorbde65e svgShape"></circle>
      <circle cx="86" cy="198.5" r="15" fill="#e6b85e" class="colorbde65e svgShape"></circle>
      <circle cx="426" cy="253.5" r="15" fill="#f6c25b" class="colorf6df5b svgShape"></circle>
      <circle cx="86" cy="253.5" r="15" fill="#f6c25b" class="colorf6df5b svgShape"></circle>
      <path d="M256,113.5c46.94,0,85,38.06,85,85s-38.06,85-85,85s-85-38.06-85-85S209.06,113.5,256,113.5z" fill="#f6c25b" class="colorf6df5b svgShape"></path>
      <circle cx="256" cy="198.5" r="65" fill="#ffb729" class="coloreec158 svgShape"></circle>
      <g fill="#000000" class="color000000 svgShape">
        <path d="M336 128.5h36.91l8.618 17.236c.847 1.693 2.578 2.764 4.472 2.764h20.658c2.229 8.612 10.043 15 19.342 15 11.028 0 20-8.972 20-20s-8.972-20-20-20c-9.299 0-17.113 6.388-19.342 15H389.09l-8.618-17.236c-.847-1.693-2.578-2.764-4.472-2.764h-40c-2.762 0-5 2.238-5 5S333.238 128.5 336 128.5zM426 133.5c5.514 0 10 4.486 10 10s-4.486 10-10 10-10-4.486-10-10S420.486 133.5 426 133.5zM426 178.5c-9.299 0-17.113 6.388-19.342 15H371c-2.762 0-5 2.238-5 5s2.238 5 5 5h35.658c2.229 8.612 10.043 15 19.342 15 11.028 0 20-8.972 20-20S437.028 178.5 426 178.5zM426 208.5c-5.514 0-10-4.486-10-10s4.486-10 10-10 10 4.486 10 10S431.514 208.5 426 208.5zM426 233.5c-9.299 0-17.113 6.388-19.342 15H386c-1.894 0-3.625 1.07-4.472 2.764L372.91 268.5H336c-2.762 0-5 2.238-5 5s2.238 5 5 5h40c1.894 0 3.625-1.07 4.472-2.764l8.618-17.236h17.568c2.229 8.612 10.043 15 19.342 15 11.028 0 20-8.972 20-20S437.028 233.5 426 233.5zM426 263.5c-5.514 0-10-4.486-10-10s4.486-10 10-10 10 4.486 10 10S431.514 263.5 426 263.5zM86 163.5c9.299 0 17.113-6.388 19.342-15H126c1.894 0 3.625-1.07 4.472-2.764l8.618-17.236H176c2.762 0 5-2.238 5-5s-2.238-5-5-5h-40c-1.894 0-3.625 1.07-4.472 2.764L122.91 138.5h-17.568c-2.229-8.612-10.043-15-19.342-15-11.028 0-20 8.972-20 20S74.972 163.5 86 163.5zM86 133.5c5.514 0 10 4.486 10 10s-4.486 10-10 10-10-4.486-10-10S80.486 133.5 86 133.5zM86 218.5c9.299 0 17.113-6.388 19.342-15H141c2.762 0 5-2.238 5-5s-2.238-5-5-5h-35.658c-2.229-8.612-10.043-15-19.342-15-11.028 0-20 8.972-20 20S74.972 218.5 86 218.5zM86 188.5c5.514 0 10 4.486 10 10s-4.486 10-10 10-10-4.486-10-10S80.486 188.5 86 188.5zM86 273.5c9.299 0 17.113-6.388 19.342-15h17.568l8.618 17.236c.847 1.693 2.578 2.764 4.472 2.764h40c2.762 0 5-2.238 5-5s-2.238-5-5-5h-36.91l-8.618-17.236c-.847-1.693-2.578-2.764-4.472-2.764h-20.658c-2.229-8.612-10.043-15-19.342-15-11.028 0-20 8.972-20 20S74.972 273.5 86 273.5zM86 243.5c5.514 0 10 4.486 10 10s-4.486 10-10 10-10-4.486-10-10S80.486 243.5 86 243.5zM256 288.5c49.626 0 90-40.374 90-90s-40.374-90-90-90-90 40.374-90 90S206.374 288.5 256 288.5zM256 118.5c44.112 0 80 35.888 80 80s-35.888 80-80 80-80-35.888-80-80S211.888 118.5 256 118.5z" fill="#000000" class="color000000 svgShape"></path>
        <path d="M256,268.5c38.598,0,70-31.402,70-70s-31.402-70-70-70s-70,31.402-70,70S217.402,268.5,256,268.5z M256,138.5
				c33.084,0,60,26.916,60,60s-26.916,60-60,60s-60-26.916-60-60S222.916,138.5,256,138.5z" fill="#000000" class="color000000 svgShape"></path>
        <path d="M236,228.5c-2.762,0-5,2.238-5,5s2.238,5,5,5h15v5c0,2.762,2.238,5,5,5s5-2.238,5-5v-5.142
				c11.234-1.248,20-10.797,20-22.358s-8.766-21.11-20-22.358V168.5h15c2.762,0,5-2.238,5-5s-2.238-5-5-5h-15v-5
				c0-2.762-2.238-5-5-5s-5,2.238-5,5v5.142c-11.234,1.248-20,10.797-20,22.358s8.766,21.11,20,22.358V228.5H236z M271,216
				c0,6.037-4.301,11.087-10,12.248v-24.496C266.699,204.913,271,209.963,271,216z M241,181c0-6.037,4.301-11.087,10-12.248v24.496
				C245.301,192.087,241,187.037,241,181z" fill="#000000" class="color000000 svgShape"></path>
        <path d="M462.4,43.5H49.6C22.802,43.5,1,65.302,1,92.1V324.9c0,26.798,21.802,48.6,48.6,48.6h166.218
				c-1.87,26.241-18.365,49.034-43.099,58.927l-2.683,1.073H111c-16.542,0-30,13.458-30,30c0,2.762,2.238,5,5,5h345
				c2.762,0,5-2.238,5-5c0-16.542-13.458-30-30-30h-64.036l-2.684-1.073c-24.733-9.893-41.228-32.686-43.098-58.927H462.4
				c26.798,0,48.6-21.802,48.6-48.6V92.1C511,65.302,489.198,43.5,462.4,43.5z M49.6,53.5H462.4c21.284,0,38.6,17.315,38.6,38.6
				v216.4h-25v-225c0-2.762-2.238-5-5-5H41c-2.762,0-5,2.238-5,5v225H11V92.1C11,70.815,28.315,53.5,49.6,53.5z M466,308.5H46v-220
				h420V308.5z M425.367,458.5H91.633c2.226-8.616,10.065-15,19.367-15h59.89c0.003,0,0.006,0,0.009,0H406
				C415.302,443.5,423.142,449.884,425.367,458.5z M320.169,433.5H191.831c19.835-13.559,32.479-35.5,34.002-60h60.335
				C287.69,398,300.334,419.941,320.169,433.5z M462.4,363.5H49.6c-21.284,0-38.6-17.315-38.6-38.6v-6.4c17.349,0,472.641,0,490,0
				v6.4C501,346.185,483.685,363.5,462.4,363.5z" fill="#000000" class="color000000 svgShape"></path>
        <path d="M246,413.5h20c2.762,0,5-2.238,5-5s-2.238-5-5-5h-20c-2.762,0-5,2.238-5,5S243.238,413.5,246,413.5z" fill="#000000" class="color000000 svgShape"></path>
      </g>
    </g>
  </g>
</svg>
