<svg xmlns="http://www.w3.org/2000/svg" viewBox="0 0 520 520" id="2881919">
  <path fill="#737373" d="M500 440c0 33.079-26.793 60-60 60H80c-33.14 0-60-26.86-60-60h480z" class="color3b6bab svgShape"></path>
  <path fill="#ffffff" d="M50 440V178.67C50 162.84 62.83 150 78.67 150h362.66c15.84 0 28.67 12.84 28.67 28.67V440H50z" class="colore3f5ff svgShape"></path>
  <path fill="#ffb729" d="m400 338.86-17.15 16.72 4.05 23.59-21.19-11.14-21.19 11.14 4.04-23.59-17.14-16.72 23.69-3.44 10.6-21.47 10.6 21.47z" class="colorffb454 svgShape"></path>
  <path fill="#ffd480" d="M330 90H190l70-70z" class="color8095ff svgShape"></path>
  <path fill="#ffb729" d="m293.69 338.86-17.14 16.72 4.05 23.59-21.2-11.14-21.19 11.14 4.05-23.59-17.15-16.72 23.7-3.44 10.59-21.47 10.6 21.47z" class="colorffb454 svgShape"></path>
  <path fill="#ffdd99" d="M290 150v100h-60V90h60z" class="color99ccff svgShape"></path>
  <path fill="#ffb729" d="m194.29 338.86-17.14 16.72 4.04 23.59L160 368.03l-21.19 11.14 4.04-23.59-17.14-16.72 23.69-3.44 10.6-21.47 10.6 21.47z" class="colorffb454 svgShape"></path>
  <path d="M330 95h-40a5 5 0 1 1 0-10h27.929L260 27.071 202.071 85H230a5 5 0 1 1 0 10h-40a5 5 0 0 1-3.536-8.535l70-70a5 5 0 0 1 7.071 0l70 70A5 5 0 0 1 330 95zM50 445a5 5 0 0 1-5-5V178.67C45 160.105 60.104 145 78.67 145H230a5 5 0 1 1 0 10H78.67C65.618 155 55 165.618 55 178.67V440a5 5 0 0 1-5 5zm420 0a5 5 0 0 1-5-5V178.67c0-13.052-10.618-23.67-23.67-23.67H290a5 5 0 1 1 0-10h151.33c18.565 0 33.67 15.105 33.67 33.67V440a5 5 0 0 1-5 5z" fill="#000000" class="color000000 svgShape"></path>
  <path d="M440 505H80c-35.841 0-65-29.159-65-65a5 5 0 0 1 5-5h70a5 5 0 1 1 0 10H25.225c2.533 27.994 26.132 50 54.775 50h360c14.696 0 28.509-5.72 38.895-16.105 9.198-9.207 14.736-21.094 15.883-33.895H430a5 5 0 1 1 0-10h70a5 5 0 0 1 5 5c0 17.355-6.759 33.679-19.033 45.964C473.691 498.24 457.367 505 440 505z" fill="#000000" class="color000000 svgShape"></path>
  <path d="M430 445H90a5 5 0 0 1-5-5V190a5 5 0 0 1 5-5h60a5 5 0 1 1 0 10H95v240h330V195h-65a5 5 0 1 1 0-10h70a5 5 0 0 1 5 5v250a5 5 0 0 1-5 5z" fill="#000000" class="color000000 svgShape"></path>
  <path d="M290 255h-60a5 5 0 0 1-5-5V90a5 5 0 0 1 5-5h60a5 5 0 0 1 5 5v160a5 5 0 0 1-5 5zm-55-10h50V95h-50v150zm-53.811 139.17a4.986 4.986 0 0 1-2.326-.574L160 373.679l-18.863 9.917a5.002 5.002 0 0 1-7.255-5.27l3.597-21.001-15.26-14.886a5.001 5.001 0 0 1 2.772-8.527l21.089-3.063 9.437-19.113a5 5 0 0 1 8.966 0l9.437 19.113 21.089 3.063a5 5 0 0 1 2.772 8.527l-15.26 14.886 3.597 21.001a5.002 5.002 0 0 1-4.929 5.844zM160 363.03a5 5 0 0 1 2.327.574l12.225 6.427-2.331-13.607a5 5 0 0 1 1.437-4.423l9.891-9.648-13.668-1.984a5.001 5.001 0 0 1-3.765-2.734L160 325.244l-6.117 12.39a4.997 4.997 0 0 1-3.765 2.734l-13.668 1.984 9.891 9.648a4.999 4.999 0 0 1 1.437 4.423l-2.331 13.607 12.225-6.427a5.03 5.03 0 0 1 2.328-.573zm78.21 21.14a4.998 4.998 0 0 1-4.928-5.846l3.605-20.999-15.267-14.885a5 5 0 0 1 2.772-8.528l21.098-3.063 9.426-19.111a5 5 0 0 1 4.483-2.788h.001a4.999 4.999 0 0 1 4.483 2.786l9.436 19.113 21.089 3.063a5 5 0 0 1 2.772 8.527l-15.259 14.885 3.605 21a5.001 5.001 0 0 1-7.254 5.272l-18.874-9.917-18.864 9.917a4.985 4.985 0 0 1-2.324.574zm21.19-21.14c.799 0 1.598.191 2.326.574l12.232 6.427-2.336-13.605a5 5 0 0 1 1.436-4.425l9.891-9.648-13.668-1.984a5.001 5.001 0 0 1-3.765-2.734l-6.115-12.385-6.107 12.383a4.999 4.999 0 0 1-3.766 2.736l-13.673 1.984L245.75 352a4.999 4.999 0 0 1 1.438 4.426l-2.335 13.603 12.221-6.425a5.002 5.002 0 0 1 2.326-.574zm127.499 21.14a4.986 4.986 0 0 1-2.326-.574l-18.863-9.917-18.863 9.917a5.002 5.002 0 0 1-7.255-5.27l3.597-21.001-15.26-14.886a5.001 5.001 0 0 1 2.772-8.527l21.089-3.063 9.437-19.113a5 5 0 0 1 8.966 0l9.437 19.113 21.089 3.063a5 5 0 0 1 2.772 8.528l-15.268 14.885 3.605 20.999a5.001 5.001 0 0 1-4.929 5.846zm-44.738-41.817 9.891 9.648a4.999 4.999 0 0 1 1.437 4.423l-2.331 13.607 12.226-6.427a4.998 4.998 0 0 1 4.653 0l12.221 6.425-2.335-13.603a4.997 4.997 0 0 1 1.438-4.426l9.896-9.647-13.664-1.984a5.001 5.001 0 0 1-3.765-2.734l-6.117-12.39-6.117 12.39a4.997 4.997 0 0 1-3.765 2.734l-13.668 1.984z" fill="#000000" class="color000000 svgShape"></path>
</svg>
