<svg xmlns="http://www.w3.org/2000/svg" viewBox="0 0 520 520" id="2881890">
  <circle cx="260" cy="260" r="240" fill="#ffb729" class="colorff884d svgShape"></circle>
  <path fill="#ffffff" d="M260 70c104.93 0 190 85.07 190 190 0 104.94-85.07 190-190 190S70 364.94 70 260c0-104.93 85.07-190 190-190z" class="colore3f5ff svgShape"></path>
  <path fill="#000000" d="m327.51 165-27.843 30.663L262.7 219.01 223 195.663 192.49 165h135.02z" class="color6666ff svgShape"></path>
  <path fill="#ffdd99" d="m327.51 165 48.6 54.01-64.81 6.653-48.6-6.653L327.51 165zm-64.81 54.01-54 6.653-64.81-6.653 48.6-54.01 70.21 54.01z" class="color99ccff svgShape"></path>
  <path fill="#f0e2c5" d="M310 365H210a5 5 0 1 1 0-10h100a5 5 0 1 1 0 10z" class="colorc5e6f0 svgShape"></path>
  <path fill="#ffd480" d="M311.3 219.01 292 287.005l-31.67 67.755-.165-.195-.165-.195-32.667-67.365L208.7 219.01h102.6z" class="color8095ff svgShape"></path>
  <path fill="#000000" d="M376.11 219.01 260.54 355l-.105-.12-.105-.12 50.97-135.75h64.81zm-167.41 0L260 354.37 143.89 219.01h64.81z" class="color6666ff svgShape"></path>
</svg>
