<svg xmlns="http://www.w3.org/2000/svg" viewBox="0 0 520 520" id="2881894">
  <path fill="#ffffff" d="M50 440V178.67c0-7.916 3.208-15.084 8.397-20.273A28.576 28.576 0 0 1 78.67 150h362.66c15.832 0 28.67 12.831 28.67 28.67V440c-6.977 0-108.408 18.33-209.999 18.33C161.52 458.33 62.889 440 50 440z" class="colore3f5ff svgShape"></path>
  <path fill="#ffb729" d="m400 338.86-17.15 16.72 4.05 23.59-21.19-11.14-21.19 11.14 4.04-23.59-17.14-16.72 23.69-3.44 10.6-21.47 10.6 21.47zM293.69 338.86l-17.14 16.72 4.05 23.59-21.2-11.14-21.19 11.14 4.05-23.59-17.15-16.72 23.7-3.44 10.59-21.47 10.6 21.47z" class="colorffb454 svgShape"></path>
  <path fill="#ffdd99" d="M290 250h-60V90l30-17.67L290 90v160z" class="color99ccff svgShape"></path>
  <path fill="#ffb729" d="m194.29 338.86-17.14 16.72 4.04 23.59L160 368.03l-21.19 11.14 4.04-23.59-17.14-16.72 23.69-3.44 10.6-21.47 10.6 21.47z" class="colorffb454 svgShape"></path>
  <path fill="#f0e2c5" d="M360 195h65v263.33h10V190a5 5 0 0 0-5-5h-70a5 5 0 1 0 0 10zM95 458.33V195h55a5 5 0 1 0 0-10H90a5 5 0 0 0-5 5v268.33h10z" class="colorc5e6f0 svgShape"></path>
  <path fill="#000000" d="M500 440c0 33.079-26.793 60-60 60H80c-33.14 0-60-26.86-60-60h480z" class="color3b6bab svgShape"></path>
  <path fill="#ffd480" d="M330 90H190l70-70 70 70z" class="color8095ff svgShape"></path>
</svg>
