<svg xmlns="http://www.w3.org/2000/svg" viewBox="0 0 520 520" id="2881915">
  <circle cx="260" cy="260" r="240" fill="#ffb729" class="colorff884d svgShape"></circle>
  <path fill="#ffffff" d="M260 70c104.93 0 190 85.07 190 190 0 104.94-85.07 190-190 190S70 364.94 70 260c0-104.93 85.07-190 190-190z" class="colore3f5ff svgShape"></path>
  <path fill="#ffcc66" d="m327.51 165-64.81 54.01L192.49 165zM376.11 219.01 260.54 355l-.21-.24 50.97-135.75zM208.7 219.01 260 354.37 143.89 219.01z" class="color6666ff svgShape"></path>
  <path fill="#ffd480" d="m311.3 219.01-50.97 135.75-.33-.39-51.3-135.36h54z" class="color8095ff svgShape"></path>
  <path fill="#ffdd99" d="m327.51 165 48.6 54.01H262.7zM262.7 219.01H143.89l48.6-54.01z" class="color99ccff svgShape"></path>
  <path d="M260.54 360a5 5 0 0 1-3.765-1.71l-.59-.689-116.09-135.337a5 5 0 1 1 7.59-6.51L260.522 347.3 372.3 215.771a5 5 0 1 1 7.62 6.477l-115.57 135.99a5 5 0 0 1-3.775 1.762h-.035z" fill="#000000" class="color000000 svgShape"></path>
  <path d="M260.24 360a5 5 0 0 1-4.672-3.218l-.24-.63-51.303-135.371a4.999 4.999 0 1 1 9.35-3.543l46.842 123.597 46.401-123.583a5 5 0 0 1 9.362 3.515L264.922 356.75a5.001 5.001 0 0 1-4.667 3.249l-.015.001z" fill="#000000" class="color000000 svgShape"></path>
  <path d="M376.11 224.01H143.89a5.002 5.002 0 0 1-3.717-8.345l48.6-54.01A4.998 4.998 0 0 1 192.49 160h135.02c1.417 0 2.768.602 3.717 1.655l48.6 54.01a4.998 4.998 0 0 1 .85 5.379 4.998 4.998 0 0 1-4.567 2.966zm-220.994-10h209.769L325.283 170H194.717l-39.601 44.01z" fill="#000000" class="color000000 svgShape"></path>
  <path d="M262.7 224.01a4.993 4.993 0 0 1-3.048-1.037l-70.21-54.01a5 5 0 1 1 6.098-7.926l67.036 51.568 61.733-51.446a5 5 0 0 1 6.402 7.682l-64.81 54.01a4.993 4.993 0 0 1-3.201 1.159z" fill="#000000" class="color000000 svgShape"></path>
  <path d="M260 505c-65.442 0-126.968-25.484-173.242-71.758C40.484 386.968 15 325.442 15 260c0-65.439 25.484-126.963 71.758-173.238C133.033 40.485 194.559 15 260 15s126.967 25.485 173.242 71.762C479.516 133.037 505 194.561 505 260c0 65.442-25.484 126.968-71.758 173.242C386.968 479.516 325.442 505 260 505zm0-480C130.42 25 25 130.421 25 260s105.42 235 235 235 235-105.421 235-235S389.58 25 260 25z" fill="#000000" class="color000000 svgShape"></path>
  <path d="M260 455c-107.523 0-195-87.477-195-195S152.477 65 260 65s195 87.477 195 195-87.477 195-195 195zm0-380C157.991 75 75 157.99 75 260s82.991 185 185 185 185-82.99 185-185S362.009 75 260 75z" fill="#000000" class="color000000 svgShape"></path>
  <path d="M310 365H210a5 5 0 1 1 0-10h100a5 5 0 1 1 0 10z" fill="#000000" class="color000000 svgShape"></path>
</svg>
