<svg xmlns="http://www.w3.org/2000/svg" xml:space="preserve" viewBox="0 0 512 512" enable-background="new 0 0 512 512" id="11331561">
  <g id="_x32_1_x2C__product_x2C__online_x2C__packaging_x2C__business_x2C__cardboard_x2C__shipping" fill="#000000" class="color000000 svgShape">
    <g fill="#000000" class="color000000 svgShape">
      <circle cx="431" cy="138.5" r="15" fill="#e1b359" class="colore17559 svgShape"></circle>
      <circle cx="431" cy="198.5" r="15" fill="#ffb729" class="colorf6df5b svgShape"></circle>
      <circle cx="431" cy="258.5" r="15" fill="#e6b85e" class="colorbde65e svgShape"></circle>
      <path d="M341 438.5 258.5 451 171 438.5l3.58-1.43C202.61 425.85 221 398.7 221 368.5l32.667-15.833L291 368.5c0 30.2 18.39 57.35 46.42 68.57L341 438.5zM462.4 48.5H49.6C25.52 48.5 6 68.02 6 92.1v221.4L256 339l250-25.5V92.1C506 68.02 486.48 48.5 462.4 48.5z" fill="#575757" class="color495f66 svgShape"></path>
      <rect width="430" height="238.5" x="41" y="83.5" fill="#ffffff" class="colordfe8eb svgShape"></rect>
      <path d="M506 313.5v11.4c0 24.08-19.52 43.6-43.6 43.6-20.751 0-396.847 0-412.8 0C25.52 368.5 6 348.98 6 324.9v-11.4C42.848 313.5 488.142 313.5 506 313.5zM431 463.5H86c0-13.824 11.2-25 25-25 7.176 0 293.942 0 295 0C419.81 438.5 431 449.69 431 463.5z" fill="#464646" class="color3b4a51 svgShape"></path>
      <polygon points="288 166.93 256 194.93 242.25 246.5 256 293.5 336.64 248.7 336.64 150.13" fill="#c7a35b" class="colorc7865b svgShape"></polygon>
      <polygon points="306.4 166.93 306.4 222.94 297.33 220.89 286.24 234.14 286.24 178.13 290.375 167.75" fill="#f8e6c2" class="colorf8e4c2 svgShape"></polygon>
      <polygon points="256 194.93 256 293.5 175.36 248.7 175.36 150.13 225.76 166.93" fill="#b38b3c" class="colorb36d3c svgShape"></polygon>
      <circle cx="81" cy="138.5" r="15" fill="#e1b359" class="colore17559 svgShape"></circle>
      <circle cx="432" cy="138.5" r="15" fill="#e1b359" class="colore17559 svgShape"></circle>
      <circle cx="432" cy="198.5" r="15" fill="#ffb729" class="colorf6df5b svgShape"></circle>
      <circle cx="432" cy="258.5" r="15" fill="#e6b85e" class="colorbde65e svgShape"></circle>
      <circle cx="81" cy="198.5" r="15" fill="#ffb729" class="colorf6df5b svgShape"></circle>
      <circle cx="81" cy="258.5" r="15" fill="#e6b85e" class="colorbde65e svgShape"></circle>
      <path d="M336.64,150.13l-30.24,16.8l-43.9-18.68l-36.74-26.12l30.24-16.8
			C256.1,105.386,336.74,150.18,336.64,150.13z" fill="#997734" class="color995e34 svgShape"></path>
      <polygon points="286.24 178.13 256 194.93 175.36 150.13 205.6 133.33 248.375 150.13" fill="#997734" class="color995e34 svgShape"></polygon>
      <polygon points="306.4 166.93 286.24 178.13 205.6 133.33 225.76 122.13" fill="#f2d8a5" class="colorf2d1a5 svgShape"></polygon>
      <g fill="#000000" class="color000000 svgShape">
        <path d="M462.4,43.5H49.6C22.802,43.5,1,65.302,1,92.1V324.9c0,26.798,21.802,48.6,48.6,48.6h166.218
				c-1.87,26.241-18.365,49.034-43.099,58.927l-2.683,1.073H111c-16.542,0-30,13.458-30,30c0,2.762,2.238,5,5,5h345
				c2.762,0,5-2.238,5-5c0-16.542-13.458-30-30-30h-64.036l-2.683-1.073c-24.733-9.893-41.228-32.686-43.098-58.927H462.4
				c26.798,0,48.6-21.802,48.6-48.6V92.1C511,65.302,489.198,43.5,462.4,43.5z M49.6,53.5H462.4c21.284,0,38.6,17.315,38.6,38.6
				v216.4h-25v-225c0-2.762-2.238-5-5-5H41c-2.762,0-5,2.238-5,5v225H11V92.1C11,70.815,28.315,53.5,49.6,53.5z M466,308.5H46v-220
				h420V308.5z M425.367,458.5H91.633c2.226-8.616,10.065-15,19.367-15c9.622,0,285.462,0,295,0
				C415.302,443.5,423.142,449.884,425.367,458.5z M320.169,433.5H191.831c19.835-13.559,32.479-35.5,34.002-60h60.335
				C287.69,398,300.334,419.941,320.169,433.5z M462.4,363.5H49.6c-21.284,0-38.6-17.315-38.6-38.6v-6.4c17.349,0,472.641,0,490,0
				v6.4C501,346.185,483.685,363.5,462.4,363.5z" fill="#000000" class="color000000 svgShape"></path>
        <path d="M246 413.5h20c2.762 0 5-2.238 5-5s-2.238-5-5-5h-20c-2.762 0-5 2.238-5 5S243.238 413.5 246 413.5zM366 123.5h20v15c0 2.762 2.238 5 5 5h20.658c2.229 8.612 10.043 15 19.342 15 11.028 0 20-8.972 20-20s-8.972-20-20-20c-9.299 0-17.113 6.388-19.342 15H396v-15c0-2.762-2.238-5-5-5h-25c-2.762 0-5 2.238-5 5S363.238 123.5 366 123.5zM431 128.5c5.514 0 10 4.486 10 10s-4.486 10-10 10-10-4.486-10-10S425.486 128.5 431 128.5zM431 178.5c-9.299 0-17.113 6.388-19.342 15H381c-2.762 0-5 2.238-5 5s2.238 5 5 5h30.658c2.229 8.612 10.043 15 19.342 15 11.028 0 20-8.972 20-20S442.028 178.5 431 178.5zM431 208.5c-5.514 0-10-4.486-10-10s4.486-10 10-10 10 4.486 10 10S436.514 208.5 431 208.5zM366 283.5h25c2.762 0 5-2.238 5-5v-15h15.658c2.229 8.612 10.043 15 19.342 15 11.028 0 20-8.972 20-20s-8.972-20-20-20c-9.299 0-17.113 6.388-19.342 15H391c-2.762 0-5 2.238-5 5v15h-20c-2.762 0-5 2.238-5 5S363.238 283.5 366 283.5zM431 248.5c5.514 0 10 4.486 10 10s-4.486 10-10 10-10-4.486-10-10S425.486 248.5 431 248.5zM81 158.5c9.299 0 17.113-6.388 19.342-15H121c2.762 0 5-2.238 5-5v-15h20c2.762 0 5-2.238 5-5s-2.238-5-5-5h-25c-2.762 0-5 2.238-5 5v15h-15.658c-2.229-8.612-10.043-15-19.342-15-11.028 0-20 8.972-20 20S69.972 158.5 81 158.5zM81 128.5c5.514 0 10 4.486 10 10s-4.486 10-10 10-10-4.486-10-10S75.486 128.5 81 128.5zM81 218.5c9.299 0 17.113-6.388 19.342-15H131c2.762 0 5-2.238 5-5s-2.238-5-5-5h-30.658c-2.229-8.612-10.043-15-19.342-15-11.028 0-20 8.972-20 20S69.972 218.5 81 218.5zM81 188.5c5.514 0 10 4.486 10 10s-4.486 10-10 10-10-4.486-10-10S75.486 188.5 81 188.5zM81 278.5c9.299 0 17.113-6.388 19.342-15H116v15c0 2.762 2.238 5 5 5h25c2.762 0 5-2.238 5-5s-2.238-5-5-5h-20v-15c0-2.762-2.238-5-5-5h-20.658c-2.229-8.612-10.043-15-19.342-15-11.028 0-20 8.972-20 20S69.972 278.5 81 278.5zM81 248.5c5.514 0 10 4.486 10 10s-4.486 10-10 10-10-4.486-10-10S75.486 248.5 81 248.5zM172.927 253.068c85.197 47.314 81.393 45.756 83.858 45.365 2.303-.37 1.991-1.034 82.289-45.365 1.587-.882 2.571-2.556 2.571-4.371-.014-99.358.015-98.625-.035-99.084-.168-1.662-1.156-3.079-2.536-3.85l-80.645-44.806c-1.51-.84-3.348-.839-4.857-.001l-80.645 44.807c-1.612.91-2.571 2.607-2.571 4.369v98.565C170.355 250.513 171.34 252.187 172.927 253.068zM205.598 139.051l70.349 39.082L256 189.214l-70.347-39.082L205.598 139.051zM225.758 127.85l70.349 39.083-9.865 5.48-70.349-39.082L225.758 127.85zM301.403 216.682l-2.975-.671c-4.158-.929-5.851 3.173-7.187 4.361v-39.297l10.161-5.645V216.682zM180.355 158.63 251 197.877v87.125l-70.645-39.247V158.63zM331.645 245.755 261 285.002v-87.125l20.242-11.246c.02 51.307-.417 48.553.978 50.452 1.927 2.628 5.802 2.714 7.856.262l9.129-10.907c5.547 1.046 7.986 2.665 10.67.085.889-.861 1.528-2.179 1.528-3.588v-53.06l20.241-11.245V245.755zM256 111.047l70.347 39.086-19.944 11.08-70.35-39.083L256 111.047z" fill="#000000" class="color000000 svgShape"></path>
      </g>
    </g>
  </g>
</svg>
