<svg xmlns="http://www.w3.org/2000/svg" xml:space="preserve" viewBox="0 0 512 512" enable-background="new 0 0 512 512" id="11331560">
  <g id="_x32_0_x2C__Profits_x2C__income_x2C__money_bag_x2C__coins_x2C__currency_x2C__professions_and_jobs" fill="#000000" class="color000000 svgShape">
    <g fill="#000000" class="color000000 svgShape">
      <path d="M444.55,439.73l-38.71-214.37l-6.6-21.67l-0.01-0.01c-15.07-34.4-49.36-57.68-88.31-57.68
			l-34.4-10.5L242.11,146c-46.66,0-86.63,33.4-94.92,79.31l-22.77,126.11l8.83,58.37L294.19,506h94.98
			C424.25,506,450.78,474.25,444.55,439.73z" fill="#c7a35b" class="colorc7865b svgShape"></path>
      <path d="M280.45,409.79L134,396l-6,75l152.45-13.1c6.23,0,11.27-5.05,11.27-11.27v-25.57
			C291.72,414.84,286.68,409.79,280.45,409.79z" fill="#ffb729" class="coloreec158 svgShape"></path>
      <path d="M294.19 457.9c-6.322 0-159.169 0-163.92 0l-16.46 40.89v.01c1.63 4.21 5.72 7.2 10.51 7.2 9.212 0 154.672 0 169.87 0 6.23 0 11.27-5.04 11.27-11.27v-25.56C305.46 462.94 300.42 457.9 294.19 457.9zM294.19 361.69H121.48l13.83 48.1c7.929 0 151.931 0 158.88 0 6.23 0 11.27-5.04 11.27-11.27v-25.56C305.46 366.73 300.42 361.69 294.19 361.69z" fill="#f6c25b" class="colorf6df5b svgShape"></path>
      <path d="M505.46,111v52.03c0,2.77-1.12,5.27-2.93,7.07c-6.273,6.273-17.07,1.806-17.07-7.07v-17.29
			l-79.62,79.62l-74.65,74.65l-60.59-60.59l-72.8,72.8l-14.15-14.14l86.95-86.95l60.59,60.6
			c1.732-1.732,140.489-140.489,140.73-140.73h-18.49c-5.52,0-10-4.48-10-10s4.48-10,10-10H505.46z" fill="#ffffff" class="colordfe8eb svgShape"></path>
      <path d="M332.4,26h-11.92l-23.605,90.5l34.625-5.32c25.028-60.929,21.729-52.898,22.03-53.63
			C359.72,42.51,348.66,26,332.4,26z" fill="#b38b3c" class="colorb36d3c svgShape"></path>
      <g fill="#000000" class="color000000 svgShape">
        <path d="M199.526,57.589c-0.002-0.005-0.004-0.01-0.006-0.015c0.002,0.005,0.004,0.01,0.007,0.017
				c0.004,0.009,0.005,0.012,0.005,0.012c0.238,0.579,2.646,6.443,22.008,53.576l35.397,5.32L232.55,26h-11.91
				c-16.26,0-27.32,16.51-21.13,31.55c0.001,0.004,0.005,0.011,0.009,0.021C199.521,57.578,199.524,57.584,199.526,57.589z" fill="#b38b3c" class="colorb36d3c svgShape"></path>
      </g>
      <path d="M260.31,6h32.42c19.515,0,33.445,18.714,28.13,37.3L301.52,111l-25,10.75l-25-10.75l-19.35-67.7
			C226.84,24.661,240.837,6,260.31,6z" fill="#c7a35b" class="colorc7865b svgShape"></path>
      <path d="M346.52,128.5c0,9.648-7.84,17.5-17.5,17.5c-12.607,0-92.472,0-105,0c-9.67,0-17.5-7.84-17.5-17.5
			c0-9.667,7.839-17.5,17.5-17.5c26.115,0,85.226,0,105,0C338.643,111,346.52,118.802,346.52,128.5z" fill="#997734" class="color995e34 svgShape"></path>
      <path d="M145.31,409.79c-1.37-18.48-6.37-35.15-13.83-48.1c-8.438-14.717-21.951-27.49-39.05-27.49H64.95
			c-0.123,15.324-1.253,156.024-1.38,171.8h28.86c31.344,0,53.26-41.617,53.26-85.9C145.69,416.61,145.56,413.17,145.31,409.79z" fill="#e6bd6b" class="colore6986b svgShape"></path>
      <path d="M64.95,334.25c-0.57-0.04-1.14-0.05-1.72-0.05c-37.55,0-64.763,62.596-48.67,120.8l0.09-0.05
			l13.82,30.21l-0.01,0.02C37.79,498.15,49.95,506,63.23,506c0.11,0,0.23,0,0.34-0.01c29.25-0.29,52.92-38.63,52.92-85.89
			C116.49,373.59,93.57,335.71,64.95,334.25z" fill="#f6c25b" class="colorf6df5b svgShape"></path>
      <path d="M78.69,373.12c-4.89-7.9-10.82-12.8-15.46-12.8c-4.64,0-10.57,4.9-15.46,12.8
			c-12.052,19.432-15.563,52.155-6.87,78.82l7.16,15.61c4.84,7.62,10.63,12.34,15.17,12.34c4.64,0,10.57-4.91,15.46-12.81
			C94.217,442.066,94.287,398.268,78.69,373.12z" fill="#ffb729" class="coloreec158 svgShape"></path>
      <path d="M50.8,458.09c3.15,1.72,3.15,6.24,0,7.97c-0.103,0.056-6.117,3.34-5.75,3.14
			c-11.25,6.136-9.201,18.318-16.58,15.96c-4.537-1.37-4.139-10.664-13.82-15.96l-5.75-3.14c-3.15-1.73-3.15-6.25,0-7.97
			c0.103-0.056,6.117-3.34,5.75-3.14c7.293-4.011,8.847-10.211,11.21-13.83c1.73-3.15,6.25-3.15,7.97,0
			c2.702,4.59,4.497,10.203,11.22,13.83L50.8,458.09z" fill="#e6bd6b" class="colore6986b svgShape"></path>
      <g fill="#000000" class="color000000 svgShape">
        <path d="M505.465,106h-52.034c-8.271,0-15,6.729-15,15s6.729,15,15,15h6.413l-59.166,59.165
				c-12.326-23.444-33.199-40.825-57.767-48.987c13.342-10.508,10.702-31.312-4.733-38.222l19.974-48.504
				C365.702,41.109,352.179,21,332.398,21h-8.505c-5.336-11.606-17.025-20-31.162-20h-32.425c-14.144,0-25.828,8.396-31.161,20
				h-8.507c-19.764,0-33.312,20.09-25.753,38.454l19.973,48.503c-15.43,6.907-18.075,27.703-4.741,38.215
				c-34.447,11.434-61.093,40.87-67.844,78.249l-21.006,116.342c-8.224-7.276-17.932-11.561-28.833-11.561
				c-6.459,0.005-26.865-0.021-27.751,0.027c-43.238-1.63-69.967,65.081-55.948,123.199c-0.759,0.398-1.51,0.81-2.237,1.274
				c-3.062,1.675-4.963,4.882-4.963,8.37c0,3.489,1.901,6.696,4.963,8.371l5.749,3.145c7.849,4.292,7.214,12.456,12.992,15.614
				C34.637,501.782,47.742,511,63.572,511h28.862c6.912,0,13.612-1.824,19.88-5.319c3.034,3.306,7.38,5.319,12.005,5.319
				c14.785,0,247.355,0,264.854,0c38.157,0,67.088-34.538,60.301-72.158l-38.268-211.923c18.36-18.385,41.085-41.082,69.257-69.113
				v5.228c0,8.271,6.729,14.999,15,14.999s15-6.729,15-14.999V111C510.465,108.238,508.227,106,505.465,106z M332.398,31
				c12.793,0,21.32,12.953,16.507,24.646L328.17,106h-20.023l17.523-61.331c1.323-4.632,1.622-9.254,1.072-13.669H332.398z
				 M260.307,11h32.425c16.129,0,27.752,15.427,23.324,30.921L297.747,106H255.29l-18.308-64.079
				c-1.479-5.175-1.086-10.521,0.256-14.208C240.366,18.202,249.286,11,260.307,11z M220.639,31h5.657
				c-0.551,4.415-0.252,9.038,1.071,13.669L244.89,106h-20.023l-20.734-50.354C199.271,43.84,207.962,31,220.639,31z M224.019,141
				c-6.893,0-12.5-5.607-12.5-12.5s5.607-12.5,12.5-12.5c26.115,0,85.226,0,105,0c6.893,0,12.5,5.607,12.5,12.5
				s-5.607,12.5-12.5,12.5C316.251,141,236.536,141,224.019,141z M150.568,414.793H280.45c3.458,0,6.271,2.813,6.271,6.27v25.564
				c0,3.457-2.813,6.27-6.271,6.27H146.923C149.967,440.525,151.111,427.529,150.568,414.793z M149.79,404.793
				c-1.549-13.69-5.041-26.777-10.202-38.104h154.606c3.458,0,6.271,2.813,6.271,6.27v25.564c0,3.457-2.813,6.27-6.271,6.27
				C284.219,404.793,176.633,404.793,149.79,404.793z M17.046,464.814l-5.013-2.741l5.014-2.741
				c8.708-4.767,10.794-12.082,12.8-15.072c1.946,2.903,4.035,10.275,12.802,15.072l5.012,2.741
				c-2.875,1.928-10.274,4.027-15.072,12.801l-2.741,5.012C27.9,476.983,25.814,469.609,17.046,464.814z M53.194,453.702
				c-5.24-2.935-6.226-3.239-7.943-4.6c-7.621-24.74-4.442-55.281,6.768-73.346c4.709-7.605,9.375-10.44,11.21-10.44
				s6.502,2.835,11.214,10.445c14.586,23.507,14.545,65.24-0.003,88.685c-4.709,7.606-9.376,10.441-11.211,10.441
				c-1.392,0-4.491-1.688-7.999-5.937C59.706,464.682,59.031,456.894,53.194,453.702z M36.696,487.489
				c3.591-3.734,3.721-9.396,9.871-13.362c5.288,6.884,11.211,10.76,16.661,10.76c6.557,0,13.742-5.532,19.71-15.173
				c16.562-26.687,16.564-72.532,0.003-99.222c-5.972-9.646-13.156-15.177-19.713-15.177c-17.213,0-36.406,36.399-31.317,78.691
				c-3.896-0.846-8.246,0.715-10.435,4.717c-3.083,5.577-3.112,5.824-3.97,7.084C6.419,390.976,33.356,335.85,64.979,339.202
				c24.182,1.872,46.507,34.789,46.507,80.898c0,45.487-21.958,78.776-46.118,80.899c-1.586,0.023-2.003-0.059-2.791,0.1
				C53.829,500.993,44.896,496.751,36.696,487.489z M89.97,339.202c1.077,0.326,19.705-3.285,35.874,22.794
				c19.814,31.958,19.817,84.248,0,116.21C109.597,504.41,91.176,500.639,89.982,501C132.201,467.217,131.698,372.564,89.97,339.202
				z M120.672,499.808c10.968-9.426,18.692-23.404,23.323-36.911c26.457,0,132.637,0,150.2,0c3.458,0,6.271,2.813,6.271,6.27v25.564
				c0,3.457-2.813,6.27-6.271,6.27C294.089,501.001,122.729,501.286,120.672,499.808z M439.634,440.618
				C445.305,472.04,421.164,501,389.175,501h-79.97c2.148-5.123,0.896-7.695,1.26-31.834c0-8.551-6.636-15.568-15.028-16.207
				c0.826-1.947,1.283-4.087,1.283-6.333c-0.379-24.79,0.892-26.768-1.283-31.897c8.391-0.639,15.028-7.655,15.028-16.207v-25.564
				c0-8.971-7.299-16.27-16.271-16.27H134.312c-1.433-2.35-2.949-4.584-4.549-6.69l22.353-123.801
				C159.982,182.625,197.833,151,242.114,151h68.811c35.175,0,67.118,20.145,82.312,51.607l-62.047,62.047l-57.058-57.056
				c-1.951-1.953-5.119-1.953-7.07,0l-86.944,86.943c-1.95,1.948-1.955,5.117,0,7.07l14.143,14.143
				c0.938,0.938,2.209,1.465,3.535,1.465c3.906,0,0.681,0.639,72.802-70.731l57.058,57.058c0.938,0.938,2.209,1.465,3.535,1.465
				c3.105,0-1.847,3.968,71.412-69.469L439.634,440.618z M500.465,163.034c0,2.757-2.243,4.999-5,4.999s-5-2.242-5-4.999v-17.299
				c0-4.444-5.394-6.681-8.535-3.535l-150.74,150.738l-57.058-57.058c-1.948-1.95-5.117-1.955-7.07,0l-69.267,69.267l-7.071-7.071
				l79.873-79.872l57.058,57.056c1.951,1.953,5.119,1.953,7.07,0l68.141-68.141c0,0,0,0,0,0l72.584-72.583
				c3.136-3.134,0.922-8.535-3.535-8.535h-18.484c-2.757,0-5-2.243-5-5s2.243-5,5-5h47.034V163.034z" fill="#000000" class="color000000 svgShape"></path>
      </g>
    </g>
  </g>
</svg>
