<svg xmlns="http://www.w3.org/2000/svg" xml:space="preserve" viewBox="0 0 512 512" enable-background="new 0 0 512 512" id="11331583">
  <g id="_x34_3_x2C__protection_x2C__Encrypted_x2C__protection_x2C__security_x2C__business_and_finance_x2C__shield" fill="#000000" class="color000000 svgShape">
    <g fill="#000000" class="color000000 svgShape">
      <path d="M380.99,8.563H131.01c4.09,39.92-27.23,69.62-67.36,69.62
			c17.395,164.701,16.128,168.269,21.73,195.38c7.197,35.183,20.124,69.024,38.11,100c48.64,83.846,113.801,114.788,132.51,130
			c19.029-15.472,138.832-74.611,170.62-230c4.49-21.729,5.353-36.973,6.31-45l15.42-150.38
			C408.22,78.183,376.9,48.483,380.99,8.563z" fill="#e6b85e" class="colorbde65e svgShape"></path>
      <path d="M375.82,80.943c-10.97-12.15-18.6-21.77-22.4-37.38H158.58c-3.8,15.61-11.43,25.23-22.4,37.38
			c-10.97,12.15-24.73,21.23-39.87,26.6l13.85,135.01c9.07,88.43,56.28,168.03,129.53,218.39l16.31,11.21l16.31-11.21
			c73.25-50.36,120.46-129.96,129.53-218.39l13.85-135.01C400.55,102.173,386.79,93.093,375.82,80.943z" fill="#ffffff" class="colordfe8eb svgShape"></path>
      <circle cx="491" cy="393.563" r="15" fill="#f5cd7e" class="color7ed7f5 svgShape"></circle>
      <circle cx="21" cy="393.563" r="15" fill="#f5cd7e" class="color7ed7f5 svgShape"></circle>
      <circle cx="491" cy="338.563" r="15" fill="#e6b85e" class="colorbde65e svgShape"></circle>
      <circle cx="21" cy="338.563" r="15" fill="#e6b85e" class="colorbde65e svgShape"></circle>
      <circle cx="471" cy="273.563" r="15" fill="#ffb729" class="colorf6df5b svgShape"></circle>
      <circle cx="41" cy="273.563" r="15" fill="#ffb729" class="colorf6df5b svgShape"></circle>
      <circle cx="491" cy="208.563" r="15" fill="#e1b359" class="colore17559 svgShape"></circle>
      <circle cx="21" cy="208.563" r="15" fill="#e1b359" class="colore17559 svgShape"></circle>
      <path d="M306,153.563v40h-20v-40c0-8.28-3.36-15.78-8.79-21.21c-18.735-18.735-51.21-5.594-51.21,21.21v40
			h-20v-40c0-44.582,54.081-66.619,85.35-35.35C300.4,127.263,306,139.763,306,153.563z" fill="#575757" class="color495f66 svgShape"></path>
      <path d="M326,183.563v30l-70,12.5l-70-12.5v-30C217.17,183.563,298.186,183.563,326,183.563z" fill="#ffb729" class="colorf6df5b svgShape"></path>
      <path d="M186,213.563h140c0,22.208,0,49.154,0,71.3c0,15.85-12.85,28.7-28.7,28.7h-82.6
			c-15.85,0-28.7-12.85-28.7-28.7C186,263.135,186,235.464,186,213.563z" fill="#575757" class="color495f66 svgShape"></path>
      <circle cx="256" cy="258.563" r="15" fill="#464646" class="color3b4a51 svgShape"></circle>
      <g fill="#000000" class="color000000 svgShape">
        <path d="M428.929,323.563l18.536,18.535c0.938,0.938,2.209,1.465,3.535,1.465h20.658c2.229,8.612,10.043,15,19.342,15
				c11.028,0,20-8.972,20-20s-8.972-20-20-20c-9.299,0-17.113,6.388-19.342,15h-18.587l-18.536-18.535
				c-2.391-2.394-4.794-1.101-13.45-1.465c3.812-11.441,7.021-23.123,9.603-35h20.97c2.229,8.612,10.043,15,19.342,15
				c11.028,0,20-8.972,20-20s-8.972-20-20-20c-9.299,0-17.113,6.388-19.342,15h-18.949c3.3-17.743,4.149-30.075,4.73-35.031
				c3.511,0.095,5.372,0.292,7.096-1.434l18.536-18.535h8.587c2.229,8.612,10.043,15,19.342,15c11.028,0,20-8.972,20-20
				s-8.972-20-20-20c-9.299,0-17.113,6.388-19.342,15c-9.435,0.375-11.786-0.945-14.193,1.465l-18.536,18.535h-0.467L453.32,78.689
				c0.302-2.944-2.01-5.51-4.974-5.51c-36.813,0-66.199-26.873-62.381-64.106c0.145-1.407-0.314-2.81-1.262-3.86
				c-2.84-3.145,10.898-1.021-253.696-1.649c-2.96,0-5.276,2.561-4.974,5.51c3.815,37.208-25.539,64.106-62.381,64.106
				c-2.96,0-5.276,2.561-4.974,5.51l14.859,144.874h-0.467l-18.536-18.535c-2.406-2.408-4.772-1.091-14.193-1.465
				c-2.229-8.612-10.043-15-19.342-15c-11.028,0-20,8.972-20,20s8.972,20,20,20c9.299,0,17.113-6.388,19.342-15h8.587l18.536,18.535
				c1.725,1.727,3.585,1.529,7.096,1.434c0.566,4.828,1.422,17.249,4.73,35.031H60.342c-2.229-8.612-10.043-15-19.342-15
				c-11.028,0-20,8.972-20,20s8.972,20,20,20c9.299,0,17.113-6.388,19.342-15h20.97c2.582,11.877,5.791,23.559,9.603,35
				c-8.609,0.362-11.057-0.931-13.45,1.465l-18.536,18.535H40.342c-2.229-8.612-10.043-15-19.342-15c-11.028,0-20,8.972-20,20
				s8.972,20,20,20c9.299,0,17.113-6.388,19.342-15H61c1.326,0,2.598-0.526,3.535-1.465l18.536-18.535h11.355
				c5.718,15.514,12.556,30.552,20.451,45H81c-1.326,0-2.598,0.526-3.535,1.465l-18.536,18.535H40.342
				c-2.229-8.612-10.043-15-19.342-15c-11.028,0-20,8.972-20,20s8.972,20,20,20c9.299,0,17.113-6.388,19.342-15H61
				c1.326,0,2.598-0.526,3.535-1.465l18.536-18.535h37.489c48.998,82.818,113.806,113.891,132.607,129.12
				c1.707,1.174,3.961,1.173,5.666,0c18.719-15.161,83.534-46.177,132.607-129.12h37.489l18.536,18.535
				c0.938,0.938,2.209,1.465,3.535,1.465h20.658c2.229,8.612,10.043,15,19.342,15c11.028,0,20-8.972,20-20s-8.972-20-20-20
				c-9.299,0-17.113,6.388-19.342,15h-18.587l-18.536-18.535c-0.938-0.938-2.209-1.465-3.535-1.465h-33.877
				c7.895-14.448,14.733-29.486,20.451-45H428.929z M491,328.563c5.514,0,10,4.486,10,10s-4.486,10-10,10s-10-4.486-10-10
				S485.486,328.563,491,328.563z M471,263.563c5.514,0,10,4.486,10,10s-4.486,10-10,10s-10-4.486-10-10
				S465.486,263.563,471,263.563z M491,198.563c5.514,0,10,4.486,10,10s-4.486,10-10,10s-10-4.486-10-10
				S485.486,198.563,491,198.563z M21,218.563c-5.514,0-10-4.486-10-10s4.486-10,10-10s10,4.486,10,10S26.514,218.563,21,218.563z
				 M41,283.563c-5.514,0-10-4.486-10-10s4.486-10,10-10s10,4.486,10,10S46.514,283.563,41,283.563z M21,348.563
				c-5.514,0-10-4.486-10-10s4.486-10,10-10s10,4.486,10,10S26.514,348.563,21,348.563z M21,403.563c-5.514,0-10-4.486-10-10
				s4.486-10,10-10s10,4.486,10,10S26.514,403.563,21,403.563z M491,383.563c5.514,0,10,4.486,10,10s-4.486,10-10,10
				s-10-4.486-10-10S485.486,383.563,491,383.563z M256,497.496c-13.562-12.064-109.385-57.59-153.286-180.407
				c-19.093-61.462-13.425-43.728-33.54-234.091c38.588-2.544,68.18-31.088,67.164-69.435h239.324
				c-1.016,38.351,28.581,66.891,67.164,69.435c-18.153,171.791-14.303,151.7-21.117,189.678
				C390.508,424.764,272.807,483.802,256,497.496z" fill="#000000" class="color000000 svgShape"></path>
        <path d="M420.664,108.055c0.235-2.293-1.128-4.45-3.301-5.222c-29.333-10.413-53.61-37.982-59.084-60.454
				c-0.546-2.24-2.553-3.816-4.858-3.816H158.578c-2.306,0-4.313,1.576-4.858,3.816c-5.459,22.411-29.674,50.014-59.084,60.454
				c-2.173,0.771-3.536,2.929-3.301,5.222l13.848,135.01c9.22,89.893,57.214,170.808,131.676,222l16.309,11.212
				c1.707,1.174,3.961,1.172,5.666,0l16.31-11.213c74.461-51.191,122.455-132.107,131.674-221.999L420.664,108.055z M256,466.09
				l-13.476-9.265c-72.041-49.527-118.474-127.812-127.395-214.779l-13.455-131.181c29.898-11.931,54.055-40.016,60.728-62.302
				h187.194c6.671,22.281,30.831,50.371,60.727,62.302l-13.454,131.181C380.958,397.18,260.039,461.894,256,466.09z" fill="#000000" class="color000000 svgShape"></path>
        <path d="M326,178.563h-15v-25c0-30.327-24.673-55-55-55s-55,24.673-55,55v25h-15c-2.762,0-5,2.238-5,5v101.3
				c0,18.582,15.118,33.7,33.7,33.7h82.6c18.582,0,33.7-15.118,33.7-33.7v-101.3C331,180.802,328.762,178.563,326,178.563z
				 M211,153.563c0-24.813,20.187-45,45-45s45,20.187,45,45v25h-10v-25c0-19.299-15.701-35-35-35s-35,15.701-35,35v25h-10V153.563z
				 M281,178.563h-50v-25c0-13.785,11.215-25,25-25s25,11.215,25,25V178.563z M321,188.563v20H191v-20
				C211.769,188.563,304.235,188.563,321,188.563z M297.3,308.563h-82.6c-13.068,0-23.7-10.632-23.7-23.7v-16.3h15
				c2.762,0,5-2.238,5-5s-2.238-5-5-5h-15v-15h15c2.762,0,5-2.238,5-5s-2.238-5-5-5h-15v-15h130v15h-15c-2.762,0-5,2.238-5,5
				s2.238,5,5,5h15v15h-15c-2.762,0-5,2.238-5,5s2.238,5,5,5h15v16.3C321,297.931,310.368,308.563,297.3,308.563z" fill="#000000" class="color000000 svgShape"></path>
        <path d="M256,238.563c-11.028,0-20,8.972-20,20c0,9.299,6.388,17.113,15,19.342v5.658c0,2.762,2.238,5,5,5s5-2.238,5-5v-5.658
				c8.612-2.229,15-10.042,15-19.342C276,247.535,267.028,238.563,256,238.563z M256,268.563c-5.514,0-10-4.486-10-10
				c0-5.514,4.486-10,10-10s10,4.486,10,10C266,264.077,261.514,268.563,256,268.563z" fill="#000000" class="color000000 svgShape"></path>
      </g>
    </g>
  </g>
</svg>
