<svg xmlns="http://www.w3.org/2000/svg" xml:space="preserve" viewBox="0 0 512 512" enable-background="new 0 0 512 512" id="11331563">
  <g id="_x32_3_x2C__segmentation_x2C__marketing_x2C__Target_Audience_x2C__personalization_x2C__target_x2C__business_x2C__seo_and_web" fill="#000000" class="color000000 svgShape">
    <g fill="#000000" class="color000000 svgShape">
      <circle cx="256" cy="256" r="225" fill="#575757" class="color495f66 svgShape"></circle>
      <circle cx="256" cy="256" r="135" fill="#ffb729" class="colorf6df5b svgShape"></circle>
      <path d="M256,151c-57.989,0-105,47.011-105,105c0,28.761,11.564,54.821,30.295,73.784l148.951,0.462
			C349.247,311.245,361,284.995,361,256C361,198.011,313.989,151,256,151z" fill="#ffffff" class="colordfe8eb svgShape"></path>
      <path d="M271,283.13v-11.16h-30v11.16c0,5.4-2.63,10.31-6.8,13.34l21.8,19.405l21.8-19.405
			C273.63,293.44,271,288.53,271,283.13z" fill="#f2e0be" class="colorf2cdbe svgShape"></path>
      <path d="M285.99,225.5L255,213.25l-28.99,12.25c-0.016,0.251-0.01-0.961-0.01,20.5
			c0,23.224,25.29,37.457,45,25.97c8.97-5.18,15-14.87,15-25.97C286,224.539,286.006,225.749,285.99,225.5z" fill="#f6e9cf" class="colorf6decf svgShape"></path>
      <path d="M285.99,225.5c-5.76,1.181-12.034,0.308-17.49-2.85c-7.717,4.467-17.271,4.473-25,0
			c-5.461,3.161-11.739,4.029-17.49,2.85c0.42-26.385,32.542-39.368,51.2-20.71C282.53,210.11,285.86,217.42,285.99,225.5z" fill="#575757" class="color495f66 svgShape"></path>
      <path d="m256 385.5 21.8 31.5L256 441c-102.17 0-185-82.83-185-185l26-16.5 29.5 16.5C126.5 327.52 184.48 385.5 256 385.5zM441 256l-28.5 17-27-17c0-71.52-57.98-129.5-129.5-129.5l-20-28.167L256 71C358.17 71 441 153.83 441 256z" fill="#e1b359" class="colore17559 svgShape"></path>
      <path d="M256 71v55.5c-71.52 0-129.5 57.98-129.5 129.5H71C71 153.83 153.83 71 256 71zM441 256c0 102.17-82.83 185-185 185v-55.5c71.52 0 129.5-57.98 129.5-129.5H441z" fill="#dca53a" class="colordc483a svgShape"></path>
      <path d="M256,361c-28.636,0-55.265-11.535-74.7-31.22c1.64-11.68,10.21-21.41,21.91-24.33
			c24.245-6.425,26.583-5.787,30.99-8.98L256,311l21.8-14.53c4.412,3.197,6.907,2.598,30.99,8.98c11.7,2.92,20.27,12.65,21.91,24.33
			C311.289,349.441,284.671,361,256,361z" fill="#f5cd7e" class="color7ed7f5 svgShape"></path>
      <g fill="#000000" class="color000000 svgShape">
        <path d="M256,66C151.233,66,66,151.233,66,256s85.233,190,190,190s190-85.233,190-190S360.767,66,256,66z M435.927,251h-45.53
				C387.818,180.805,331.195,124.182,261,121.603v-45.53C356.288,78.685,433.315,155.712,435.927,251z M256,380.5
				c-68.649,0-124.5-55.851-124.5-124.5S187.351,131.5,256,131.5S380.5,187.351,380.5,256S324.649,380.5,256,380.5z M251,76.073
				v45.53C180.805,124.182,124.182,180.805,121.603,251h-45.53C78.685,155.712,155.712,78.685,251,76.073z M76.073,261h45.53
				c2.579,70.195,59.203,126.818,129.397,129.397v45.53C155.712,433.315,78.685,356.288,76.073,261z M261,435.927v-45.53
				c70.195-2.579,126.818-59.203,129.397-129.397h45.53C433.315,356.288,356.288,433.315,261,435.927z" fill="#000000" class="color000000 svgShape"></path>
        <path d="M366,256c0-60.654-49.346-110-110-110s-110,49.346-110,110c0,60.625,49.327,110,110,110C316.461,366,366,316.845,366,256
				z M256,156c55.141,0,100,44.859,100,100c0,24.221-8.658,46.456-23.038,63.779c-4.223-9.43-12.545-16.581-22.958-19.179
				l-25.304-6.331c-5.123-1.277-8.7-5.857-8.7-11.139v-8.432c9.059-6.332,15-16.832,15-28.698
				c-0.004-8.968,0.009-18.786-0.012-20.463C290.988,207.405,275.803,191,256,191c-19.747,0-34.988,16.326-34.988,34.537
				c-0.02,1.587-0.008,13.226-0.012,20.463c0,11.866,5.941,22.365,15,28.698v8.432c0,5.281-3.577,9.861-8.704,11.14l-25.297,6.329
				c-10.416,2.599-18.738,9.751-22.961,19.18C164.658,302.456,156,280.221,156,256C156,200.859,200.859,156,256,156z M231,230.98
				c4.185-0.003,8.465-0.857,12.5-2.706c7.811,3.58,17.189,3.58,25,0c4.035,1.85,8.316,2.704,12.5,2.706V246
				c0,13.785-11.215,25-25,25s-25-11.215-25-25V230.98z M231.507,220.975C233.84,209.59,243.935,201,256,201
				s22.16,8.59,24.493,19.975c-3.246-0.085-6.53-0.94-9.488-2.652C266.517,215.726,265.104,221,256,221
				c-9.088,0-10.527-5.269-15.005-2.677C238.036,220.036,234.752,220.89,231.507,220.975z M246,279.537
				c6.53,1.951,13.465,1.953,20,0c0.226,1.915-1.164,8.857,4.029,16.104L256,304.991l-14.03-9.351
				C247.171,288.384,245.77,281.481,246,279.537z M216,347.642V336c0-2.762-2.238-5-5-5s-5,2.238-5,5v6.576
				c-7.003-4.06-13.47-8.946-19.269-14.523c2.128-8.704,8.843-15.544,17.693-17.753c25.426-6.532,25.88-6.087,29.615-7.93
				l19.188,12.79c1.687,1.124,3.872,1.116,5.547,0l19.188-12.789c3.745,1.847,4.122,1.38,29.618,7.931
				c8.848,2.208,15.562,9.048,17.69,17.752c-5.799,5.577-12.266,10.462-19.269,14.523V336c0-2.762-2.238-5-5-5s-5,2.238-5,5v11.642
				C270.574,358.782,241.467,358.8,216,347.642z" fill="#000000" class="color000000 svgShape"></path>
        <path d="M256,326c-2.762,0-5,2.238-5,5v5c0,2.762,2.238,5,5,5s5-2.238,5-5v-5C261,328.238,258.762,326,256,326z" fill="#000000" class="color000000 svgShape"></path>
        <path d="M506,251h-20.063C483.315,127.846,384.137,28.684,261,26.063V6c0-2.762-2.238-5-5-5s-5,2.238-5,5v20.063
				C127.846,28.685,28.684,127.863,26.063,251H6c-2.762,0-5,2.238-5,5s2.238,5,5,5h20.063
				C28.685,384.154,127.863,483.316,251,485.937V506c0,2.762,2.238,5,5,5s5-2.238,5-5v-20.063
				C384.154,483.315,483.316,384.137,485.937,261H506c2.762,0,5-2.238,5-5S508.762,251,506,251z M256,476
				c-121.309,0-220-98.691-220-220S134.691,36,256,36s220,98.691,220,220S377.309,476,256,476z" fill="#000000" class="color000000 svgShape"></path>
      </g>
    </g>
  </g>
</svg>
