<svg xmlns="http://www.w3.org/2000/svg" xml:space="preserve" viewBox="0 0 512 512" enable-background="new 0 0 512 512" id="11331585">
  <g id="_x34_5_x2C__shipping_x2C__delivery_x2C__delivery_truck_x2C__fast_delivery_x2C__vehicle_x2C__transport" fill="#000000" class="color000000 svgShape">
    <g fill="#000000" class="color000000 svgShape">
      <path d="M159.333,186L21.5,198.5H21v185c14.006,0,269.108,0,284.5,0l12.5-65l-12.5-75v-39.08L159.333,186z" fill="#ffffff" class="colordfe8eb svgShape"></path>
      <polygon points="140.6 168.5 21 168.5 21 198.5 21.5 198.5 160.55 198.5" fill="#f2e6ce" class="colorcee0f2 svgShape"></polygon>
      <g fill="#000000" class="color000000 svgShape">
        <polygon points="202.67 293.5 178.19 293.5 164.375 309.5 148.81 293.5 124.33 293.5 110.5 339 124.33 383.5 202.67 383.5 212.25 335" fill="#b38b3c" class="colorb36d3c svgShape"></polygon>
        <polygon points="256.52 293.5 242.75 303.875 227.15 293.5 202.67 293.5 202.67 383.5 281 383.5 281 293.5" fill="#c7a35b" class="colorc7865b svgShape"></polygon>
        <polygon points="99.85 293.5 85.165 304.5 70.48 293.5 46 293.5 46 383.5 124.33 383.5 124.33 293.5" fill="#c7a35b" class="colorc7865b svgShape"></polygon>
      </g>
      <path d="M231,13.5c60.75,0,110,49.25,110,110c0,32.01-13.67,60.83-35.5,80.92
			c-55.114,50.81-144.136,32.651-174.9-35.92C98.228,96.463,150.764,13.5,231,13.5z" fill="#f5cd7e" class="color7ed7f5 svgShape"></path>
      <circle cx="231" cy="123.5" r="15" fill="#575757" class="color495f66 svgShape"></circle>
      <polygon points="99.85 293.5 99.85 328.5 85.17 318.5 70.48 328.5 70.48 293.5" fill="#f8e6c2" class="colorf8e4c2 svgShape"></polygon>
      <polygon points="178.19 293.5 178.19 328.5 163.5 318.5 148.81 328.5 148.81 293.5" fill="#f2d8a5" class="colorf2d1a5 svgShape"></polygon>
      <polygon points="256.52 293.5 256.52 328.5 241.83 318.5 227.15 328.5 227.15 293.5" fill="#f8e6c2" class="colorf8e4c2 svgShape"></polygon>
      <path d="M460.5,353.5c-7.65,0-38.416,0-45,0l-23.75-25l24.06-30l0.19-35l-51.5-7.5
			c-6.823,0.867,23.171-2.945-59,7.5v110c-23.269,0-262.273,0-274,0l-10.5,20c0,10.195,0,44.788,0,55.01
			c0.354-0.022-14.588-0.01,469.5-0.01c0-22.698,0-52.26,0-75L460.5,353.5z" fill="#f6c25b" class="colorf6df5b svgShape"></path>
      <path d="M428.07,246.43c6.265,6.265,1.824,17.07-7.07,17.07c-32.571,0-79.279,0-115.5,0v-20H421
			C423.76,243.5,426.26,244.62,428.07,246.43z" fill="#ffb729" class="coloreec158 svgShape"></path>
      <polygon points="415.81 298.5 415.5 353.5 361 353.5 348.667 328.5 361 298.5" fill="#ffffff" class="colordfe8eb svgShape"></polygon>
      <path d="M31.5,373.5c5.52,0,10,4.48,10,10c0,5.52-4.48,10-10,10c-5.568,0-10.487,0-16,0v-20
			C22.815,373.5,26.476,373.5,31.5,373.5z" fill="#e1b359" class="colore17559 svgShape"></path>
      <rect width="30.5" height="55" x="330.5" y="298.5" fill="#575757" class="color495f66 svgShape"></rect>
      <path d="M470.5,353.5c11.05,0,20,8.95,20,20h-30v-20H470.5z" fill="#e1b359" class="colore17559 svgShape"></path>
      <path d="M490.5,438.5c-53.861-0.001-469.219-0.007-469.5,0.01c-8.053,0.266-14.5,6.89-14.5,14.99
			c0,8.28,6.72,15,15,15c16.268,0,445.787,0,469,0c8.267,0,15-6.719,15-15C505.5,445.22,498.78,438.5,490.5,438.5z" fill="#ffffff" class="colordfe8eb svgShape"></path>
      <path d="M162.93 438.5c10.302 28.933-11.164 60-42.43 60-31.309 0-52.72-31.101-42.43-60 6.17-17.48 22.84-30 42.43-30S156.76 421.02 162.93 438.5zM457.93 468.5c-6.17 17.48-22.84 30-42.43 30-24.931 0-45-20.239-45-45 0-24.734 20.041-45 45-45C446.771 408.5 468.232 439.568 457.93 468.5z" fill="#575757" class="color495f66 svgShape"></path>
      <circle cx="415.5" cy="453.5" r="15" fill="#ffffff" class="colordfe8eb svgShape"></circle>
      <circle cx="120.5" cy="453.5" r="15" fill="#ffffff" class="colordfe8eb svgShape"></circle>
      <g fill="#000000" class="color000000 svgShape">
        <path d="M495.5,434.106V373.5c0-13.785-11.215-25-25-25c-14.542,0-32.497,0-49.972,0c0.088-15.87,0.353-63.64,0.444-80H421
				c8.271,0,15-6.729,15-15s-6.729-15-15-15H310.5v-31.983c22.024-21.099,35.5-50.628,35.5-83.017c0-63.753-51.921-115-115-115
				c-80.137,0-135.628,80.284-107.82,155H21c-2.762,0-5,2.238-5,5v200h-0.5c-2.762,0-5,2.238-5,5v20c0,2.762,2.238,5,5,5H16v35.784
				c-8.389,2.396-14.5,10.11-14.5,19.216c0,11.028,8.972,20,20,20h53.187c7.731,17.641,25.351,30,45.813,30s38.081-12.359,45.813-30
				h203.375c7.731,17.641,25.351,30,45.813,30s38.081-12.359,45.813-30H490.5c5.348,0,10.37-2.085,14.128-5.857
				C515.89,456.424,509.915,437.684,495.5,434.106z M482.772,364.901c0.816,1.164,1.333,2.134,1.853,3.599H465.5v-10
				C470.089,358.522,477.53,357.439,482.772,364.901z M366,348.5v-45h44.777l-0.25,45H366z M335.5,348.5v-45H356v45H335.5z
				 M311,248.5h110c2.757,0,5,2.243,5,5s-2.243,5-5,5c0.15-0.042-21.434-0.175-110,0V248.5z M300.5,368.5H286v-75
				c0-2.762-2.238-5-5-5c-166.674,0-65.977,0-235,0c-2.762,0-5,2.238-5,5v75c-8.671,0-6.597,0-15,0v-165h122.472
				c40.68,41.954,105.867,46.686,152.028,11.558C300.5,233.354,300.5,350.349,300.5,368.5z M129.333,368.5v-70h14.479v30
				c0,4.01,4.503,6.392,7.813,4.133l11.874-8.084l11.874,8.084c3.311,2.259,7.813-0.123,7.813-4.133v-30h14.479v70H129.333z
				 M51,368.5v-70H65.48v30c0,4.01,4.503,6.392,7.813,4.133l11.874-8.084l11.874,8.084c3.311,2.259,7.813-0.123,7.813-4.133v-30
				h14.479v70H51z M36.5,383.5c0,2.757-2.243,5-5,5h-11v-10c3.157,0,7.647,0,11,0C34.257,378.5,36.5,380.743,36.5,383.5z
				 M75.48,298.5h19.375v20.547l-6.874-4.68c-1.697-1.156-3.93-1.156-5.627,0l-6.874,4.68V298.5z M153.813,298.5h19.375v20.547
				l-6.874-4.68c-1.697-1.156-3.93-1.156-5.627,0l-6.874,4.68V298.5z M207.667,298.5h14.479v30c0,4.01,4.503,6.392,7.813,4.133
				l11.874-8.084l11.874,8.084c3.311,2.259,7.813-0.123,7.813-4.133v-30H276v70h-68.333V298.5z M232.146,298.5h19.375v20.547
				l-6.874-4.68c-1.697-1.156-3.93-1.156-5.627,0l-6.874,4.68V298.5z M174.245,35.198l4.925,8.53c1.374,2.381,4.43,3.217,6.83,1.83
				c2.392-1.381,3.211-4.438,1.83-6.83l-4.932-8.543c13.024-6.741,27.63-10.834,43.102-11.563V28.5c0,2.762,2.238,5,5,5s5-2.238,5-5
				v-9.878c15.472,0.729,30.078,4.821,43.102,11.563l-4.932,8.543c-1.381,2.392-0.562,5.449,1.83,6.83
				c2.396,1.385,5.454,0.555,6.83-1.83l4.925-8.53c12.627,8.144,23.403,18.92,31.547,31.547l-8.53,4.925
				c-2.392,1.381-3.211,4.438-1.83,6.83c1.374,2.381,4.43,3.217,6.83,1.83l8.543-4.932c6.741,13.024,10.834,27.63,11.563,43.102H326
				c-2.762,0-5,2.238-5,5s2.238,5,5,5h9.878c-0.729,15.472-4.822,30.078-11.563,43.102l-8.543-4.932
				c-2.394-1.384-5.45-0.561-6.83,1.83c-1.381,2.392-0.562,5.449,1.83,6.83l8.53,4.925c-8.144,12.627-18.92,23.403-31.547,31.547
				l-4.925-8.53c-1.38-2.393-4.438-3.214-6.83-1.83c-2.392,1.381-3.211,4.438-1.83,6.83l4.932,8.543
				c-13.024,6.741-27.63,10.834-43.102,11.563V218.5c0-2.762-2.238-5-5-5s-5,2.238-5,5v9.878
				c-15.472-0.729-30.078-4.821-43.102-11.563l4.932-8.543c1.381-2.392,0.562-5.449-1.83-6.83c-2.393-1.384-5.451-0.563-6.83,1.83
				l-4.925,8.53c-12.627-8.144-23.403-18.92-31.547-31.547l8.53-4.925c2.392-1.381,3.211-4.438,1.83-6.83
				c-1.38-2.393-4.439-3.214-6.83-1.83l-8.543,4.932c-6.741-13.024-10.834-27.63-11.563-43.102H136c2.762,0,5-2.238,5-5
				s-2.238-5-5-5h-9.878c0.729-15.472,4.822-30.078,11.563-43.102l8.543,4.932c2.38,1.376,5.443,0.572,6.83-1.83
				c1.381-2.392,0.562-5.449-1.83-6.83l-8.53-4.925C150.842,54.118,161.618,43.342,174.245,35.198z M127.451,173.5
				c3.488,7.195,7.613,13.813,12.375,20H26v-20H127.451z M31.5,398.5c10.26,0,17.615-10.176,14.125-20
				c149.271,0,110.606,0,259.875,0c2.762,0,5-2.238,5-5v-105h100.472l-0.139,25H330.5c-2.762,0-5,2.238-5,5v55c0,2.762,2.238,5,5,5
				c15.037,0,109.908,0,125,0v15c0,2.762,2.238,5,5,5h25v55h-24.187c-7.731-17.641-25.351-30-45.813-30s-38.081,12.359-45.813,30
				H166.313c-7.731-17.641-25.351-30-45.813-30s-38.081,12.359-45.813,30H26v-35H31.5z M21.5,463.5c-5.514,0-10-4.486-10-10
				c0-5.481,4.452-10,10-10h50.006c-1.297,6.367-1.385,13.202,0,20H21.5z M120.5,493.5c-22.056,0-40-17.944-40-40s17.944-40,40-40
				s40,17.944,40,40S142.556,493.5,120.5,493.5z M169.494,463.5c1.297-6.367,1.385-13.202,0-20h197.012
				c-1.297,6.367-1.385,13.202,0,20H169.494z M415.5,493.5c-22.056,0-40-17.944-40-40s17.944-40,40-40s40,17.944,40,40
				S437.556,493.5,415.5,493.5z M497.557,460.571c-1.881,1.889-4.387,2.929-7.057,2.929h-26.006c1.297-6.367,1.385-13.202,0-20
				H490.5C499.402,443.5,503.84,454.314,497.557,460.571z" fill="#000000" class="color000000 svgShape"></path>
        <path d="M415.5 433.5c-11.028 0-20 8.972-20 20s8.972 20 20 20 20-8.972 20-20S426.529 433.5 415.5 433.5zM415.5 463.5c-5.514 0-10-4.486-10-10s4.486-10 10-10 10 4.486 10 10S421.014 463.5 415.5 463.5zM120.5 433.5c-11.028 0-20 8.972-20 20s8.972 20 20 20 20-8.972 20-20S131.529 433.5 120.5 433.5zM120.5 463.5c-5.514 0-10-4.486-10-10s4.486-10 10-10 10 4.486 10 10S126.014 463.5 120.5 463.5zM325.5 398.5h15c2.762 0 5-2.238 5-5s-2.238-5-5-5h-15c-2.762 0-5 2.238-5 5S322.739 398.5 325.5 398.5zM161 128.5h50.658c2.229 8.612 10.043 15 19.342 15 11.028 0 20-8.972 20-20 0-9.299-6.388-17.113-15-19.342V53.5c0-2.762-2.238-5-5-5s-5 2.238-5 5v50.658c-7.011 1.814-12.527 7.331-14.342 14.342H161c-2.762 0-5 2.238-5 5S158.239 128.5 161 128.5zM231 113.5c5.514 0 10 4.486 10 10s-4.486 10-10 10-10-4.486-10-10S225.487 113.5 231 113.5zM36 48.5h85c2.762 0 5-2.238 5-5s-2.238-5-5-5H36c-2.762 0-5 2.238-5 5S33.239 48.5 36 48.5zM16 73.5h55c2.762 0 5-2.238 5-5s-2.238-5-5-5H16c-2.762 0-5 2.238-5 5S13.239 73.5 16 73.5zM111 93.5c0-2.762-2.238-5-5-5H36c-2.762 0-5 2.238-5 5s2.238 5 5 5h70C108.762 98.5 111 96.262 111 93.5zM21 113.5c-2.762 0-5 2.238-5 5s2.238 5 5 5h25c2.762 0 5-2.238 5-5s-2.238-5-5-5H21zM66 113.5c-2.762 0-5 2.238-5 5s2.238 5 5 5h10c2.762 0 5-2.238 5-5s-2.238-5-5-5H66z" fill="#000000" class="color000000 svgShape"></path>
      </g>
    </g>
  </g>
</svg>
