<svg xmlns="http://www.w3.org/2000/svg" xml:space="preserve" viewBox="0 0 512 512" enable-background="new 0 0 512 512" id="11331557">
  <g id="_x31_7_x2C__shopping_cart_x2C__sale_x2C__supermarket_x2C__store_x2C__purchase_x2C__business" fill="#000000" class="color000000 svgShape">
    <g fill="#000000" class="color000000 svgShape">
      <path d="M470.56,148.5c-18.45,0-324.028,0-337.42,0v42.833L164.333,286l33.437,46.13L327,346.333
			l141.33-14.203c9.71-47.302,20.695-100.865,30.55-148.91C502.56,165.29,488.86,148.5,470.56,148.5z" fill="#ffffff" class="colordfe8eb svgShape"></path>
      <path d="M391 433.5c16.57 0 30 13.43 30 30s-13.43 30-30 30-30-13.43-30-30S374.43 433.5 391 433.5zM401 463.5c0-5.52-4.48-10-10-10s-10 4.48-10 10 4.48 10 10 10S401 469.02 401 463.5zM201 433.5c16.57 0 30 13.43 30 30s-13.43 30-30 30-30-13.43-30-30S184.43 433.5 201 433.5zM211 463.5c0-5.52-4.48-10-10-10s-10 4.48-10 10 4.48 10 10 10S211 469.02 211 463.5z" fill="#575757" class="color495f66 svgShape"></path>
      <path d="M197.77,332.13L187,344.5l-14.98-12.37l-66.83-198.12H56v-20h65
			C126.273,128.99,197.666,331.833,197.77,332.13z" fill="#f2dcb1" class="colorb1c7f2 svgShape"></path>
      <path d="M506,347.13v1.37c0,8.28-6.72,15-15,15H166c-5.52,0-10.52,2.24-14.14,5.86
			c-12.487,12.487-3.735,34.14,14.14,34.14h260c8.266,0,15,6.72,15,15c0,8.28-6.72,15-15,15c-13.612,0-250.59,0-259.32,0
			c-14,0-26.66-5.67-35.84-14.84c-31.679-31.713-9.347-86.53,35.84-86.53h5.34c113.608,0,203.997,0,318.98,0
			C499.28,332.13,506,338.85,506,347.13z" fill="#f2e6ce" class="colorcee0f2 svgShape"></path>
      <circle cx="386" cy="33.5" r="15" fill="#e6b85e" class="colorbde65e svgShape"></circle>
      <circle cx="326" cy="33.5" r="15" fill="#ffb729" class="colorf6df5b svgShape"></circle>
      <circle cx="266" cy="33.5" r="15" fill="#e1b359" class="colore17559 svgShape"></circle>
      <path d="M66,139.01H21c-8.249,0-15-6.689-15-15c0-8.28,6.72-15,15-15h45C66,117.886,66,130.128,66,139.01z" fill="#e1b359" class="colore17559 svgShape"></path>
      <g fill="#000000" class="color000000 svgShape">
        <path d="M246 128.5c2.762 0 5-2.238 5-5v-45h15c2.762 0 5-2.238 5-5V52.842c8.612-2.229 15-10.043 15-19.342 0-11.028-8.972-20-20-20s-20 8.972-20 20c0 9.299 6.388 17.113 15 19.342V68.5h-15c-2.762 0-5 2.238-5 5v50C241 126.262 243.238 128.5 246 128.5zM256 33.5c0-5.514 4.486-10 10-10s10 4.486 10 10-4.486 10-10 10S256 39.014 256 33.5zM321 52.842V108.5c0 2.762 2.238 5 5 5s5-2.238 5-5V52.842c8.612-2.229 15-10.043 15-19.342 0-11.028-8.972-20-20-20s-20 8.972-20 20C306 42.799 312.388 50.613 321 52.842zM326 23.5c5.514 0 10 4.486 10 10s-4.486 10-10 10-10-4.486-10-10S320.486 23.5 326 23.5zM381 52.842V73.5c0 2.762 2.238 5 5 5h15v45c0 2.762 2.238 5 5 5s5-2.238 5-5v-50c0-2.762-2.238-5-5-5h-15V52.842c8.612-2.229 15-10.043 15-19.342 0-11.028-8.972-20-20-20s-20 8.972-20 20C366 42.799 372.388 50.613 381 52.842zM386 23.5c5.514 0 10 4.486 10 10s-4.486 10-10 10-10-4.486-10-10S380.486 23.5 386 23.5z" fill="#000000" class="color000000 svgShape"></path>
        <path d="M491,327.131h-16.54c3.886-18.944,26.027-126.87,29.317-142.906c4.305-20.969-11.689-40.725-33.218-40.725H136.679
				l-10.962-31.146c-0.705-2.001-2.596-3.34-4.717-3.34H71c0-2.762-2.238-5-5-5H21c-11.028,0-20,8.972-20,20s8.972,20,20,20h45
				c2.762,0,5-2.238,5-5h30.599l63.47,188.158C135.111,328.032,111,352.653,111,382.815c0,30.704,24.98,55.685,55.685,55.685h9.854
				c-22.415,21.937-6.652,60,24.461,60c31.113,0,46.876-38.063,24.461-60h141.077c-22.415,21.937-6.652,60,24.461,60
				c31.113,0,46.876-38.063,24.461-60H426c11.028,0,20-8.972,20-20s-8.972-20-20-20H166c-8.271,0-15-6.729-15-15s6.729-15,15-15h325
				c11.028,0,20-8.972,20-20v-1.369C511,336.103,502.028,327.131,491,327.131z M421,327.131V288.5h51.176l-7.925,38.631H421z
				 M201.308,327.131L187.712,288.5H231v38.631H201.308z M474.228,278.5H421v-75h68.615L474.228,278.5z M411,278.5h-80v-75h80V278.5
				z M331,193.5v-40h80v40H331z M321,193.5h-80v-40h80V193.5z M321,203.5v75h-80v-75H321z M231,278.5h-46.808l-26.396-75H231V278.5z
				 M241,288.5h80v38.631h-80V288.5z M331,288.5h80v38.631h-80V288.5z M493.981,182.215l-2.315,11.285H421v-40h49.56
				C485.654,153.5,497.034,167.347,493.981,182.215z M231,153.5v40h-76.724l-14.078-40H231z M21,134.014c-5.514,0-10-4.486-10-10
				s4.486-10,10-10h40v20H21z M105.188,129.014H71v-10h46.459l73.247,208.117h-15.099l-65.682-194.715
				C109.24,130.383,107.334,129.014,105.188,129.014z M226,463.5c0,13.785-11.215,25-25,25s-25-11.215-25-25s11.215-25,25-25
				S226,449.715,226,463.5z M416,463.5c0,13.785-11.215,25-25,25s-25-11.215-25-25s11.215-25,25-25S416,449.715,416,463.5z
				 M501,348.5c0,5.514-4.486,10-10,10H166c-13.785,0-25,11.215-25,25s11.215,25,25,25h260c5.514,0,10,4.486,10,10s-4.486,10-10,10
				H166.685c-25.19,0-45.685-20.494-45.685-45.685s20.494-45.685,45.685-45.685c18.769,0,308.33,0,324.315,0c5.514,0,10,4.486,10,10
				V348.5z" fill="#000000" class="color000000 svgShape"></path>
        <path d="M201 478.5c8.271 0 15-6.729 15-15s-6.729-15-15-15-15 6.729-15 15S192.729 478.5 201 478.5zM201 458.5c2.757 0 5 2.243 5 5s-2.243 5-5 5-5-2.243-5-5S198.243 458.5 201 458.5zM391 478.5c8.271 0 15-6.729 15-15s-6.729-15-15-15-15 6.729-15 15S382.729 478.5 391 478.5zM391 458.5c2.757 0 5 2.243 5 5s-2.243 5-5 5-5-2.243-5-5S388.243 458.5 391 458.5z" fill="#000000" class="color000000 svgShape"></path>
      </g>
    </g>
  </g>
</svg>
