<svg xmlns="http://www.w3.org/2000/svg" xml:space="preserve" viewBox="0 0 512 512" enable-background="new 0 0 512 512" id="11331543">
  <g id="_x30_3_x2C__skyline_x2C__building_x2C__digital_economy_x2C__smart_technology_x2C__satelite_x2C__smart_technology" fill="#000000" class="color000000 svgShape">
    <g fill="#000000" class="color000000 svgShape">
      <path d="M143.5,173.251v41.67h-20v-29.189C130.56,183.306,137.35,179.159,143.5,173.251z" fill="#ffffff" class="colordfe8eb svgShape"></path>
      <path d="M188.5,209.711c-21.45,0-88.534,0-110,0v295h30l23.5-9.96l26.5,9.96h30l19.5-147.5L188.5,209.711z" fill="#ffb729" class="colorf6df5b svgShape"></path>
      <path d="M288.5,92.251v43.67h-20v-30.59C275.56,102.788,282.35,98.442,288.5,92.251z" fill="#ffffff" class="colordfe8eb svgShape"></path>
      <path d="M188.5,129.711v60l26.5,150.29l-26.5,124.71v40h120l60-240v-135
			C331.727,129.711,225.195,129.711,188.5,129.711z" fill="#f5cd7e" class="color7ed7f5 svgShape"></path>
      <path d="M308.5,264.711v240c13.529,0,109.178,0,125,0v-240C417.684,264.711,322.068,264.711,308.5,264.711z
			" fill="#ffffff" class="colordfe8eb svgShape"></path>
      <g fill="#000000" class="color000000 svgShape">
        <path d="M383.5 424.711h25c0-11.738 0-43.302 0-55h-25C383.5 381.414 383.5 412.976 383.5 424.711zM383.5 289.711c0 11.702 0 43.265 0 55h25c0-11.738 0-43.302 0-55H383.5zM333.5 424.711h25c0-11.738 0-43.302 0-55h-25C333.5 381.414 333.5 412.976 333.5 424.711zM333.5 344.711h25c0-11.738 0-43.302 0-55h-25C333.5 301.414 333.5 332.976 333.5 344.711z" fill="#f5cd7e" class="color7ed7f5 svgShape"></path>
      </g>
      <path d="M227.63,103.861l80.02-80.01c12.505,26.159,4.473,57.701-19.15,74.6v0.01
			C270.856,111.171,247.419,113.323,227.63,103.861z" fill="#575757" class="color495f66 svgShape"></path>
      <path d="M307.65,23.851l-80.02,80.01c-5.99-2.85-11.6-6.76-16.56-11.72
			c0.788-0.788,84.687-84.677,84.86-84.85C300.89,12.251,304.8,17.861,307.65,23.851z" fill="#464646" class="color3b4a51 svgShape"></path>
      <polygon points="278.5 354.711 278.5 409.711 235.667 421.668 188.5 409.711 188.5 354.711 230 337.335" fill="#f2e6ce" class="colorcee0f2 svgShape"></polygon>
      <polygon points="278.5 244.711 278.5 299.711 233.5 313.251 188.5 299.711 188.5 244.711 229 227.251" fill="#f2e6ce" class="colorcee0f2 svgShape"></polygon>
      <path d="M82.63,183.861l32.87-46.36l47.15-33.65c12.505,26.159,4.473,57.701-19.15,74.6v0.01
			C125.856,191.171,102.419,193.323,82.63,183.861z" fill="#575757" class="color495f66 svgShape"></path>
      <path d="M162.65,103.851l-80.02,80.01c-5.99-2.85-11.6-6.76-16.56-11.72
			c0.788-0.788,84.687-84.677,84.86-84.85C155.89,92.251,159.8,97.861,162.65,103.851z" fill="#464646" class="color3b4a51 svgShape"></path>
      <rect width="50" height="70" x="108.5" y="434.711" fill="#c7a35b" class="colorc7865b svgShape"></rect>
      <rect width="90" height="55" x="188.5" y="299.711" fill="#ffffff" class="colordfe8eb svgShape"></rect>
      <path d="M278.5,189.711v55h-90c0-11.702,0-43.265,0-55H278.5z" fill="#ffffff" class="colordfe8eb svgShape"></path>
      <rect width="90" height="55" x="188.5" y="409.711" fill="#ffffff" class="colordfe8eb svgShape"></rect>
      <g fill="#000000" class="color000000 svgShape">
        <path d="M458.5,499.714h-20v-235c0-2.762-2.238-5-5-5h-60V129.715c0-2.761-2.238-5-5-5h-75V100.93
				c2.064-1.615,4.063-3.354,5.962-5.253c19.887-19.887,24.161-49.559,12.837-73.66c-0.047-0.12-0.115-0.232-0.172-0.349
				c-3.093-6.48-7.305-12.556-12.665-17.915c-1.564-1.564-3.429-1.443-3.535-1.464c-3.072,0-1.102-1.044-42.368,40.414
				l-11.423-11.423c-1.951-1.952-5.119-1.952-7.07,0c-1.953,1.953-1.953,5.119,0,7.071l11.434,11.434
				c-10.446,10.468-23.237,23.231-38.961,38.821c-1.95,1.949-1.955,5.117,0,7.071c5.366,5.366,11.448,9.582,17.937,12.676
				c0.108,0.052,0.212,0.116,0.323,0.159c11.831,5.56,25.001,7.354,37.702,5.392v10.81h-75c-2.762,0-5,2.239-5,5v60v15h-35V180.93
				c2.064-1.615,4.063-3.354,5.962-5.253c19.887-19.887,24.161-49.559,12.837-73.66c-0.047-0.12-0.115-0.232-0.172-0.349
				c-3.093-6.48-7.305-12.556-12.665-17.915c-1.888-1.888-5.047-2.023-7.07,0c-15.589,15.724-28.353,28.515-38.822,38.962
				l-11.434-11.435c-1.951-1.952-5.119-1.952-7.07,0c-1.953,1.953-1.953,5.119,0,7.071l11.422,11.423
				c-41.518,41.326-40.414,39.294-40.414,42.368c0,1.326,0.526,2.598,1.465,3.536c5.256,5.256,11.203,9.405,17.543,12.481
				c0.221,0.133,0.455,0.248,0.701,0.346c11.836,5.566,25.012,7.363,37.719,5.401v10.81h-40c-2.762,0-5,2.239-5,5v290h-20
				c-2.762,0-5,2.238-5,5s2.238,5,5,5h25h30h50h30h120h60h65h25c2.762,0,5-2.238,5-5S461.262,499.714,458.5,499.714z
				 M295.768,14.519c2.208,2.648,4.125,5.458,5.758,8.385l-74.837,74.836c-2.927-1.633-5.737-3.549-8.385-5.758L295.768,14.519z
				 M236.547,102.022l69.261-69.26c6.133,19.029,1.665,40.761-13.416,55.844C277.308,103.688,255.576,108.155,236.547,102.022z
				 M273.5,111.534c3.419-1.1,6.767-2.477,10-4.156v17.337h-10V111.534z M273.5,349.714h-80v-45h80V349.714z M193.5,359.714h80v45
				h-80V359.714z M273.5,294.714h-80v-44.999h80V294.714z M193.5,414.714h80v45h-80V414.714z M273.5,239.715h-80v-30v-15h80V239.715
				z M150.768,94.519c2.208,2.648,4.125,5.458,5.758,8.385L81.688,177.74c-2.927-1.633-5.737-3.549-8.384-5.758L150.768,94.519z
				 M91.547,182.023l69.261-69.261c6.133,19.029,1.665,40.761-13.416,55.844C132.308,183.688,110.576,188.155,91.547,182.023z
				 M128.5,191.534c3.419-1.1,6.767-2.477,10-4.156v17.337h-10V191.534z M83.5,214.715h40h20h40v30v54.999v55v55v55v35h-20v-65
				c0-2.762-2.238-5-5-5h-50c-2.762,0-5,2.238-5,5v65h-20V214.715z M113.5,499.714v-60h40v60H113.5z M193.5,469.714h85
				c2.762,0,5-2.238,5-5v-55v-55v-55v-54.999v-55c0-2.761-2.238-5-5-5h-85v-50h75h20h75v124.999h-55c-2.762,0-5,2.238-5,5v235h-110
				V469.714z M368.5,499.714h-55v-230h115v230H368.5z" fill="#000000" class="color000000 svgShape"></path>
        <path d="M103.5 399.714h60c2.762 0 5-2.238 5-5s-2.238-5-5-5h-60c-2.762 0-5 2.238-5 5S100.738 399.714 103.5 399.714zM103.5 369.714h60c2.762 0 5-2.238 5-5s-2.238-5-5-5h-60c-2.762 0-5 2.238-5 5S100.738 369.714 103.5 369.714zM103.5 339.714h60c2.762 0 5-2.238 5-5s-2.238-5-5-5h-60c-2.762 0-5 2.238-5 5S100.738 339.714 103.5 339.714zM103.5 309.714h60c2.762 0 5-2.238 5-5s-2.238-5-5-5h-60c-2.762 0-5 2.238-5 5S100.738 309.714 103.5 309.714zM103.5 279.714h60c2.762 0 5-2.238 5-5s-2.238-5-5-5h-60c-2.762 0-5 2.238-5 5S100.738 279.714 103.5 279.714zM103.5 249.715h60c2.762 0 5-2.239 5-5s-2.238-5-5-5h-60c-2.762 0-5 2.239-5 5S100.738 249.715 103.5 249.715zM358.5 284.714h-25c-2.762 0-5 2.238-5 5v55c0 2.762 2.238 5 5 5h25c2.762 0 5-2.238 5-5v-55C363.5 286.953 361.262 284.714 358.5 284.714zM353.5 294.714v25h-15v-25H353.5zM338.5 339.714v-10h15v10H338.5zM408.5 284.714h-25c-2.762 0-5 2.238-5 5v55c0 2.762 2.238 5 5 5h25c2.762 0 5-2.238 5-5v-55C413.5 286.953 411.262 284.714 408.5 284.714zM403.5 294.714v25h-15v-25H403.5zM388.5 339.714v-10h15v10H388.5zM358.5 364.714h-25c-2.762 0-5 2.238-5 5v55c0 2.762 2.238 5 5 5h25c2.762 0 5-2.238 5-5v-55C363.5 366.953 361.262 364.714 358.5 364.714zM353.5 374.714v25h-15v-25H353.5zM338.5 419.714v-10h15v10H338.5zM408.5 364.714h-25c-2.762 0-5 2.238-5 5v55c0 2.762 2.238 5 5 5h25c2.762 0 5-2.238 5-5v-55C413.5 366.953 411.262 364.714 408.5 364.714zM403.5 374.714v25h-15v-25H403.5zM388.5 419.714v-10h15v10H388.5z" fill="#000000" class="color000000 svgShape"></path>
      </g>
    </g>
  </g>
</svg>
