<svg xmlns="http://www.w3.org/2000/svg" viewBox="0 0 520 520" id="2881897">
  <path fill="#ffb729" d="M473.119 39.519c25.924 94.386-12.729 215.984-100.92 284.52-.69-20.37-8.81-40.53-24.36-56.08l-95.8 95.8-103.17-103.17 95.8-95.8c-15.55-15.55-35.71-23.67-56.08-24.36C257.03 52.36 378.587 13.547 473.119 39.519z" class="colorff884d svgShape"></path>
  <circle cx="355.204" cy="157.424" r="52.107" fill="#ffffff" class="color99ccff svgShape"></circle>
  <path fill="#ffc34d" d="m347.839 385.869-73.69 73.69-22.11-95.8 95.8-95.8c32.553 32.554 32.564 85.346 0 117.91zm-103.17-221.08-95.8 95.8-95.8-22.1 73.69-73.7c32.559-32.559 85.354-32.556 117.91 0z" class="colorff4d4d svgShape"></path>
  <path d="M372.191 329.042a4.976 4.976 0 0 1-3.533-1.462 4.992 4.992 0 0 1-.005-7.065l.01-.01a4.97 4.97 0 0 1 .468-.413 261.551 261.551 0 0 0 24.225-21.36c66.602-66.603 97.478-171.084 75.679-255.128-84.052-21.806-188.537 9.068-255.14 75.682a259.664 259.664 0 0 0-21.357 24.213 5.007 5.007 0 0 1-7.489.472 4.995 4.995 0 0 1-.327-6.711 269.667 269.667 0 0 1 22.103-25.045c34.38-34.386 78.121-60.021 126.491-74.134 48.681-14.205 97.482-15.374 141.128-3.382a4.999 4.999 0 0 1 3.497 3.497c11.987 43.641 10.815 92.439-3.389 141.119-14.113 48.37-39.746 92.109-74.127 126.49a271.403 271.403 0 0 1-25.105 22.143 5.011 5.011 0 0 1-3.129 1.094zm-120.152 39.717a4.984 4.984 0 0 1-3.536-1.465l-103.171-103.17a5 5 0 1 1 7.071-7.07l103.17 103.17a4.998 4.998 0 0 1 0 7.07 4.976 4.976 0 0 1-3.534 1.465z" fill="#000000" class="color000000 svgShape"></path>
  <path d="M274.148 464.559a5.001 5.001 0 0 1-4.872-3.876l-22.11-95.8a4.998 4.998 0 0 1 1.337-4.659l95.8-95.8a5 5 0 0 1 7.071 0c15.886 15.886 25.056 36.989 25.821 59.425.043 1.023.064 2.047.064 3.07 0 23.602-9.192 45.794-25.884 62.484l-73.69 73.69a5 5 0 0 1-3.537 1.466zm-16.614-99.223 19.458 84.31 67.311-67.311c14.803-14.803 22.956-34.482 22.956-55.414 0-.891-.018-1.781-.056-2.672l-.001-.039c-.618-18.23-7.492-35.468-19.474-49.066l-90.194 90.192zm-108.665-99.747c-.374 0-.751-.042-1.124-.128l-95.8-22.101a4.998 4.998 0 0 1-2.411-8.407l73.69-73.699c16.692-16.692 38.884-25.886 62.486-25.886a73.2 73.2 0 0 1 3.071.064c22.436.765 43.538 9.934 59.425 25.821a4.998 4.998 0 0 1 0 7.07l-95.8 95.8a5.002 5.002 0 0 1-3.537 1.466zm-85.886-29.944 84.309 19.449 90.194-90.193c-13.599-11.982-30.837-18.857-49.066-19.475l-.04-.001a64.323 64.323 0 0 0-2.671-.057c-20.931 0-40.611 8.152-55.414 22.956l-67.312 67.321zm292.221-21.142c-14.624 0-29.247-5.566-40.381-16.699-10.787-10.786-16.727-25.127-16.727-40.38 0-15.254 5.94-29.595 16.727-40.381 22.265-22.266 58.494-22.266 80.761 0 10.787 10.786 16.727 25.127 16.727 40.381 0 15.253-5.94 29.594-16.727 40.38-11.133 11.133-25.756 16.699-40.38 16.699zm0-104.164c-12.064 0-24.125 4.591-33.31 13.774-8.898 8.898-13.798 20.729-13.798 33.311s4.9 24.411 13.798 33.31c18.367 18.365 48.253 18.365 66.619 0 8.898-8.898 13.798-20.728 13.798-33.31s-4.9-24.412-13.798-33.311c-9.182-9.181-21.247-13.774-33.309-13.774zM97.279 376.129a4.998 4.998 0 0 1-3.535-8.536l81.07-81.061a5.002 5.002 0 0 1 7.071.001 4.998 4.998 0 0 1-.001 7.071l-81.07 81.061a4.984 4.984 0 0 1-3.535 1.464zm-58.42 117.38a4.998 4.998 0 0 1-3.536-8.535l124.75-124.75a5 5 0 1 1 7.071 7.07l-124.75 124.75a4.98 4.98 0 0 1-3.535 1.465zm86.8-27.85a4.998 4.998 0 0 1-3.536-8.535l74.79-74.79a5 5 0 1 1 7.071 7.07l-74.79 74.79a4.986 4.986 0 0 1-3.535 1.465z" fill="#000000" class="color000000 svgShape"></path>
</svg>
