<svg xmlns="http://www.w3.org/2000/svg" xml:space="preserve" viewBox="0 0 512 512" enable-background="new 0 0 512 512" id="11331576">
  <g id="_x33_6_x2C__startup_x2C__business_x2C__money_x2C__marketing_x2C__rocket_x2C__launch" fill="#000000" class="color000000 svgShape">
    <g fill="#000000" class="color000000 svgShape">
      <path d="M406.516 175.303c18.22 18.23 18.22 47.78 0 66.01l-35.71 35.7c16.87-16.86 16.87-44.21 0-61.07l-3.82-3.82 10.26-28.63 27.92-9.54L406.516 175.303zM313.546 82.343l-10.55 27.65-27.62 10.52-3.82-3.82c-16.86-16.87-44.21-16.87-61.07 0l35.7-35.7c18.23-18.23 47.79-18.23 66.01 0l1.35 1.34V82.343z" fill="#e1b359" class="colore17559 svgShape"></path>
      <path d="M435.706,9.683c-36.49,4.47-70.51,21.01-96.61,47.11l-25.54,25.55h-0.01l-7.63,7.63l34.08,54.02
			l57.53,37.59c43.771-43.771,30.65-30.65,33.18-33.18c26.22-26.22,42.79-60.43,47.17-97.11L435.706,9.683z" fill="#f5cd7e" class="color7ed7f5 svgShape"></path>
      <path d="M429.086,365.993l-209.59-19l-13,106.5l222.59-17.5c9.06,0,16.4-7.34,16.4-16.4v-37.2
			C445.486,373.333,438.146,365.993,429.086,365.993z" fill="#ffb729" class="coloreec158 svgShape"></path>
      <path d="M449.086 435.993c-9.207 0-233.639 0-240.757 0l-21.733 59.52c2.37 6.13 8.32 10.48 15.29 10.48h247.2c9.06 0 16.4-7.34 16.4-16.4v-37.2C465.486 443.333 458.146 435.993 449.086 435.993zM449.086 295.993h-246.78l20.12 70c11.338 0 216.688 0 226.66 0 9.06 0 16.4-7.34 16.4-16.4v-37.2C465.486 303.333 458.146 295.993 449.086 295.993z" fill="#f6c25b" class="colorf6df5b svgShape"></path>
      <path d="M305.916,89.973c-4.72,4.72-33.318,33.318-38.17,38.17c9.433,9.433,81.314,81.314,91.61,91.61
			c4.854-4.854,33.452-33.452,38.17-38.17L305.916,89.973z" fill="#575757" class="color495f66 svgShape"></path>
      <path d="M424.246,63.253c14.76,14.76,14.76,38.68,0,53.44c-14.75,14.76-38.68,14.76-53.44,0
			c-14.76-14.76-14.76-38.68,0-53.44C385.566,48.493,409.496,48.493,424.246,63.253z" fill="#f6c25b" class="colorf6df5b svgShape"></path>
      <path d="m317.776 140.013 29.71 29.7c-8.664 32.588-41.677 53.987-76.25 46.55C263.839 181.878 284.988 148.757 317.776 140.013zM481.506 5.993c-2.969 38.109-2.947 39.69-3.63 45.3-24.207 2.955-44.794-17.399-42.17-41.61C442.283 8.884 442.848 9.018 481.506 5.993z" fill="#e1b359" class="colore17559 svgShape"></path>
      <path d="M212.306,295.993c-14.15-24.6-34.37-40-56.82-40h-40c-0.093,11.627-1.901,237.597-2,250h42
			C223.623,505.993,257.549,374.597,212.306,295.993z" fill="#e6bd6b" class="colore6986b svgShape"></path>
      <path d="M115.486,256.053c-0.83-0.04-1.66-0.06-2.5-0.06c-55.078,0-94.031,91.846-70.83,175.78l0.13-0.07
			l20.11,43.99c12.558,17.472,29.834,30.3,51.09,30.3c42.57-0.44,77-56.23,77-125C190.486,313.303,157.126,258.183,115.486,256.053z
			" fill="#f6c25b" class="colorf6df5b svgShape"></path>
      <path d="M135.486,312.634c-7.12-11.5-15.75-18.64-22.5-18.64s-15.38,7.14-22.5,18.64
			c-17.793,28.673-22.457,76.469-10,114.69l10.43,22.72c7.04,11.09,15.46,17.95,22.07,17.95c6.75,0,15.38-7.14,22.5-18.64
			C158.13,412.863,158.142,349.143,135.486,312.634z" fill="#ffb729" class="coloreec158 svgShape"></path>
      <path d="M94.896,436.273c4.58,2.51,4.58,9.09,0,11.59c-0.104,0.057-8.924,4.883-8.37,4.58
			c-10.586,5.784-12.886,14.85-16.32,20.11c-2.501,4.572-9.076,4.617-11.6,0l-4.57-8.36c-5.774-10.568-14.831-12.88-20.11-16.33
			c-4.59-2.5-4.59-9.08,0-11.59c9.309-4.865,15.625-8.111,20.11-16.32l4.57-8.37c2.51-4.58,9.09-4.58,11.6,0
			c4.13,7.017,6.39,14.658,16.32,20.12L94.896,436.273z" fill="#e6bd6b" class="colore6986b svgShape"></path>
      <circle cx="397.526" cy="89.973" r="16.193" fill="#ffffff" class="colordfe8eb svgShape"></circle>
      <g fill="#000000" class="color000000 svgShape">
        <path d="M481.124,1.008c-38.507,3.013-39.436,2.917-45.831,3.693c-0.063,0.005-0.123,0.015-0.185,0.022
				c-37.573,4.602-72.678,21.663-99.549,48.534l-22.08,22.08c-20.308-18.049-51.369-17.344-70.826,2.116l-35.704,35.703
				c-1.953,1.952-1.953,5.118,0,7.07c0.244,0.244,0.507,0.458,0.784,0.641c1.94,1.282,4.579,1.068,6.286-0.641
				c14.89-14.888,39.114-14.89,54.006,0l0.282,0.282l-4.1,4.1c-1.953,1.952-1.953,5.118,0,7.07l21.28,21.28
				c-16.224,16.045-24.422,39.81-19.14,64.355c0.413,1.922,1.914,3.423,3.836,3.836c22.827,4.914,47.061-1.665,64.355-19.14
				l21.281,21.281c1.951,1.953,5.119,1.953,7.07,0l4.111-4.111c16.193,16.559,14.313,40.256,0.27,54.298
				c-1.953,1.952-1.953,5.118-0.001,7.07c1.946,1.946,5.113,1.961,7.071,0l35.704-35.703c19.415-19.415,20.114-50.556,2.115-70.825
				l22.081-22.081c27.022-27.022,44.12-62.373,48.606-100.187c1.621-17.393-0.285,4.85,3.644-45.378
				C486.727,3.343,484.206,0.779,481.124,1.008z M476.074,11.426c-2.733,35.304-2.41,31.661-2.734,35.145
				c-17.993,0.059-32.641-14.45-32.85-32.372C443.901,13.872,442.636,14.014,476.074,11.426z M234.765,99.483l14.959-14.958
				c15.335-15.335,39.934-16.466,56.669-2.099c-14.488,14.488-28.155,28.155-31.014,31.014
				C275.144,113.299,260.148,96.186,234.765,99.483z M275.519,211.981c-4.759-29.871,13.347-57.583,40.821-66.34l25.519,25.519
				C333.051,198.797,305.21,216.717,275.519,211.981z M359.356,212.687l-18.299-18.298c3.595-4.87,6.542-10.189,8.761-15.815
				c5.042,2.074,9.281-4.317,5.438-8.157c-0.1-0.1-4.333-4.334-4.232-4.233c-3.112-3.112-30.419-30.419-33.939-33.939
				c-3.848-3.852-10.234,0.408-8.154,5.444c-5.7,2.245-11.008,5.197-15.821,8.753l-18.295-18.296l31.101-31.102l84.542,84.543
				l-27.001,27.001c0,0,0,0,0,0s0,0,0,0L359.356,212.687z M402.976,237.778l-14.93,14.929c1.855-14.457-2.389-28.839-13.972-40.597
				l30.998-30.998C419.18,197.467,418.489,222.263,402.976,237.778z M427.173,144.871l-29.645,29.644l-84.542-84.543l29.644-29.644
				c23.903-23.903,54.731-39.551,87.898-44.853c0.859,22.434,19.031,40.493,41.563,41.072
				C466.855,89.877,451.177,120.866,427.173,144.871z" fill="#000000" class="color000000 svgShape"></path>
        <path d="m313.832 227.674-43.333 43.333c-1.953 1.952-1.953 5.118 0 7.07 1.951 1.953 5.119 1.953 7.07 0l43.333-43.333c1.953-1.952 1.953-5.118 0-7.07C318.951 225.721 315.783 225.721 313.832 227.674zM314.302 269.812c1.279 0 2.56-.488 3.535-1.465l25.968-25.968c1.953-1.952 1.953-5.118 0-7.07-1.951-1.953-5.119-1.953-7.07 0l-25.968 25.968C307.601 264.441 309.896 269.812 314.302 269.812zM216.923 209.502c1.951 1.953 5.119 1.953 7.07 0l35.833-35.833c1.953-1.952 1.953-5.118 0-7.07-1.951-1.953-5.119-1.953-7.07 0l-35.833 35.833C214.969 204.384 214.969 207.55 216.923 209.502zM175.189 225.698c3.946 0 .322.947 77.003-74.933 1.953-1.952 1.953-5.118 0-7.07-1.951-1.953-5.119-1.953-7.07 0l-73.468 73.468C168.488 220.328 170.782 225.698 175.189 225.698zM382.542 74.985c-8.286 8.283-8.284 21.694 0 29.975 8.264 8.266 21.71 8.262 29.974.001v-.001c8.265-8.264 8.265-21.71 0-29.975C404.252 66.723 390.805 66.723 382.542 74.985zM405.445 97.888c-4.365 4.363-11.468 4.365-15.833 0-4.376-4.376-4.375-11.455 0-15.832 4.365-4.364 11.466-4.366 15.833 0C409.82 86.431 409.819 93.514 405.445 97.888z" fill="#000000" class="color000000 svgShape"></path>
        <path d="M367.272 59.717c-16.684 16.683-16.684 43.828 0 60.511 16.723 16.725 43.79 16.722 60.512.001 16.725-16.725 16.722-43.79.001-60.512C411.06 42.992 383.993 42.994 367.272 59.717zM420.714 113.156C420.714 113.157 420.714 113.157 420.714 113.156c-12.816 12.816-33.555 12.814-46.371.001-12.784-12.784-12.784-33.586 0-46.37 12.817-12.815 33.556-12.814 46.371.001C433.528 79.603 433.528 100.342 420.714 113.156zM449.085 290.993H215.139c-13.546-22.324-33.964-40-59.655-40-8.69.003-39.356-.013-40.171.017-61.024-2.659-100.332 93.561-78.993 178.23-1.675.859-3.302 1.684-4.798 2.646-8.04 4.397-8.04 15.971 0 20.368 5.669 3.647 13.213 5.354 18.125 14.335 4.174 6.747 4.308 10.201 8.701 12.04 15.747 21.899 35.832 32.804 55.888 32.363h41.248c10.253 0 20.186-2.884 29.44-8.394 3.992 5.171 10.252 8.394 16.961 8.394h247.2c11.8 0 21.399-9.601 21.399-21.4v-37.199c0-11.8-9.6-21.4-21.399-21.4h-1.922c2.092-3.305 3.321-7.208 3.321-11.4v-37.199c0-4.192-1.229-8.095-3.321-11.4h1.922c11.8 0 21.399-9.601 21.399-21.4v-37.199C470.484 300.594 460.884 290.993 449.085 290.993zM44.686 448.057l-8.365-4.575c-1.121-.614-1.121-2.208 0-2.821l8.099-4.43c12.329-6.532 15.273-17.245 18.576-22.246.615-1.125 2.213-1.112 2.82 0l4.575 8.366c6.676 12.207 17.014 14.949 22.101 18.31 1.121.614 1.121 2.208 0 2.821l-8.366 4.575c-12.207 6.676-14.949 17.014-18.31 22.101-.615 1.125-2.213 1.112-2.82 0C59.65 465.092 56.892 454.731 44.686 448.057zM97.292 431.887c-7.286-4.12-9.406-4.799-12.44-7.363C73.283 387.7 78.01 342.22 94.735 315.265c6.922-11.18 14.312-16.271 18.249-16.271 11.415 0 34.5 31.813 34.5 82 0 50.187-23.085 82-34.5 82-3.368 0-8.999-3.538-14.838-11.285C105.298 446.975 105.028 436.118 97.292 431.887zM70.471 477.973c2.005-.856 3.542-1.96 4.12-3.017 3.644-5.665 5.352-13.212 14.335-18.126l.414-.226c7.502 10.333 16.14 16.389 23.645 16.389 8.606 0 18.606-7.854 26.748-21.003 23.646-38.101 23.649-103.89.003-141.989-8.145-13.154-18.145-21.008-26.751-21.008s-18.606 7.854-26.748 21.003c-14.972 24.126-20.963 60.729-16.072 94.664-5.315-3.009-12.645-1.501-15.941 4.525-4.03 6.883-4.944 10.307-9.036 14.22-18.313-78.55 17.69-162.413 67.797-162.413 39.977 0 72.5 53.832 72.5 120C185.484 478.608 118.307 535.592 70.471 477.973zM172.034 289.969c-7.953-12.826-17.196-22.477-27.091-28.976h10.541c20.45 0 38.947 14.092 52.14 36.71.513 1.402 20.36 30.722 20.36 83.29 0 64.257-31.588 120-72.5 120h-10.521C199.188 465.37 212.196 354.745 172.034 289.969zM460.484 452.394v37.199c0 6.286-5.113 11.4-11.399 11.4h-247.2c-3.415 0-6.611-1.569-8.744-4.112 17.135-13.782 28.82-35.164 35.631-55.888 11.145 0 211.102 0 220.313 0C455.371 440.993 460.484 446.108 460.484 452.394zM440.484 382.394v37.199c0 6.286-5.114 11.4-11.399 11.4H231.718c4.727-18.009 7.043-38.24 6.005-60h191.362C435.37 370.993 440.484 376.108 440.484 382.394zM460.484 349.593c0 6.286-5.113 11.4-11.399 11.4-8.629 0-201.283 0-212.071 0-2.124-21.942-7.739-42.502-16.394-60h228.466c6.286 0 11.399 5.114 11.399 11.4V349.593z" fill="#000000" class="color000000 svgShape"></path>
      </g>
    </g>
  </g>
</svg>
