<svg xmlns="http://www.w3.org/2000/svg" viewBox="0 0 520 520" id="2881872">
  <path fill="#000000" d="M99.824 373.585a4.998 4.998 0 0 1-3.535-8.536l81.07-81.061a5.002 5.002 0 0 1 7.071.001 4.998 4.998 0 0 1-.001 7.071l-81.07 81.061a4.989 4.989 0 0 1-3.535 1.464zm-58.42 117.38a4.998 4.998 0 0 1-3.536-8.535l124.75-124.75a5 5 0 1 1 7.071 7.07L44.94 489.5a4.988 4.988 0 0 1-3.536 1.465zm86.8-27.851a4.998 4.998 0 0 1-3.536-8.535l74.79-74.79a5 5 0 1 1 7.071 7.07l-74.79 74.79a4.98 4.98 0 0 1-3.535 1.465z" class="color99ccff svgShape"></path>
  <path fill="#ffb729" d="M475.664 36.974c25.924 94.386-12.728 215.984-100.92 284.52-.69-20.37-6.56-23.42-22.11-38.97l-98.05 78.69-103.17-103.17 79.22-91.53c-15.55-15.55-19.13-27.94-39.5-28.63 68.442-88.069 189.998-126.882 284.53-100.91z" class="colorff884d svgShape"></path>
  <circle cx="357.749" cy="154.879" r="52.107" fill="#ffffff" class="colore3f5ff svgShape"></circle>
  <path fill="#ffc34d" d="m350.384 383.324-73.69 73.69-22.11-95.8 95.8-95.8c32.554 32.554 32.564 85.347 0 117.91zm-103.17-221.08-95.8 95.8-95.8-22.1 73.69-73.7c32.56-32.559 85.354-32.556 117.91 0z" class="colorff4d4d svgShape"></path>
</svg>
