<svg xmlns="http://www.w3.org/2000/svg" xml:space="preserve" viewBox="0 0 512 512" enable-background="new 0 0 512 512" id="11331571">
  <g id="_x33_1_x2C__technology_x2C__data_integration_x2C__gear_x2C__settings_x2C__digital_transformation_x2C__connection" fill="#000000" class="color000000 svgShape">
    <g fill="#000000" class="color000000 svgShape">
      <circle cx="491" cy="256" r="15" fill="#ffffff" class="colorbde65e svgShape"></circle>
      <circle cx="491" cy="321" r="15" fill="#ffb729" class="colorf6df5b svgShape"></circle>
      <circle cx="491" cy="191" r="15" fill="#ffb729" class="colorf6df5b svgShape"></circle>
      <circle cx="421" cy="361" r="15" fill="#e1b359" class="colore17559 svgShape"></circle>
      <circle cx="421" cy="151" r="15" fill="#e1b359" class="colore17559 svgShape"></circle>
      <circle cx="166" cy="256" r="25" fill="#575757" class="color495f66 svgShape"></circle>
      <path d="M278.3,321.51l-38.88-22.68L160,337.667l-73-64.333l49.25-91.833l103.17,31.67l38.88-22.68
			c-2.02-3.46-4.19-6.82-6.52-10.07l17.96-26.95l-21.21-21.21l-26.95,17.96c-15.8-11.31-34.25-19.16-54.23-22.46L181,96h-30
			l-6.35,31.76c-19.98,3.3-38.43,11.15-54.23,22.46l-26.95-17.96l-21.21,21.21l17.96,26.95c-11.31,15.8-19.16,34.25-22.46,54.23
			L6,241v30l31.76,6.35c3.3,19.98,11.15,38.43,22.46,54.23l-17.96,26.95l21.21,21.21l26.95-17.96
			c15.8,11.31,34.25,19.16,54.23,22.46L151,416h30l6.35-31.76c19.98-3.3,38.43-11.15,54.23-22.46l26.95,17.96l21.21-21.21
			l-17.96-26.95C274.11,328.33,276.28,324.97,278.3,321.51z" fill="#575757" class="color495f66 svgShape"></path>
      <path d="M239.42,213.17l-21.59,12.59C207.43,207.96,188.11,196,166,196c-33.14,0-60,26.86-60,60
			s26.86,60,60,60c22.11,0,41.43-11.96,51.83-29.76l21.59,12.59C224.69,324.05,197.32,341,166,341c-46.94,0-85-38.06-85-85
			s38.06-85,85-85C197.32,171,224.69,187.95,239.42,213.17z" fill="#464646" class="color3b4a51 svgShape"></path>
      <g fill="#000000" class="color000000 svgShape">
        <path d="M421,341c-9.299,0-17.113,6.388-19.342,15h-54.307c-10.616-6.192-127.515-74.541-128.878-74.719
				c-1.686-0.218-3.32,0.451-4.365,1.619C212.944,284.199,198.893,311,166,311c-30.327,0-55-24.673-55-55s24.673-55,55-55
				c19.473,0,37.678,10.453,47.51,27.278c0,0,0,0.001,0.001,0.001c0.104,0.097,1.67,2.829,4.917,2.441
				c1.575-0.172-6.981,4.552,128.924-74.72h54.307c2.229,8.612,10.043,15,19.342,15c11.028,0,20-8.972,20-20s-8.972-20-20-20
				c-9.299,0-17.113,6.388-19.342,15H346c-2.062,0,2.59-2.309-65.965,37.736c-0.722-1.14-1.455-2.271-2.205-3.378l16.071-24.116
				c1.321-1.982,1.06-4.623-0.626-6.308l-21.21-21.21c-1.683-1.684-4.322-1.947-6.308-0.626l-24.117,16.072
				c-15.055-10.19-32.229-17.304-50.056-20.733l-5.682-28.418C185.436,92.683,183.384,91,181,91h-30
				c-2.384,0-4.436,1.683-4.903,4.02l-5.682,28.418c-17.827,3.43-35.001,10.543-50.056,20.733l-24.117-16.072
				c-1.983-1.321-4.624-1.06-6.308,0.626l-21.21,21.21c-1.686,1.685-1.947,4.325-0.626,6.308l16.072,24.117
				c-10.19,15.055-17.304,32.229-20.733,50.056L5.02,236.097C2.683,236.564,1,238.616,1,241v30c0,2.384,1.683,4.436,4.02,4.903
				l28.418,5.682c3.43,17.827,10.543,35.001,20.733,50.056l-16.072,24.117c-1.321,1.982-1.06,4.623,0.626,6.308l21.21,21.21
				c1.684,1.686,4.324,1.949,6.308,0.626l24.117-16.072c15.055,10.19,32.229,17.304,50.056,20.733l5.682,28.418
				c0.468,2.337,2.52,4.02,4.903,4.02h30c2.384,0,4.436-1.683,4.903-4.02l5.682-28.418c17.827-3.43,35.001-10.543,50.056-20.733
				l24.117,16.072c1.983,1.321,4.624,1.06,6.308-0.626l21.21-21.21c1.686-1.685,1.947-4.325,0.626-6.308l-16.071-24.116
				c0.75-1.107,1.482-2.238,2.205-3.378C348.594,368.311,343.938,366,346,366h55.658c2.229,8.612,10.043,15,19.342,15
				c11.028,0,20-8.972,20-20S432.028,341,421,341z M421,141c5.514,0,10,4.486,10,10s-4.486,10-10,10s-10-4.486-10-10
				S415.486,141,421,141z M166,191c-35.841,0-65,29.159-65,65s29.159,65,65,65c21.343,0,41.389-10.628,53.456-28.031
				c4.489,2.61,8.825,5.131,12.996,7.558C217.68,322.524,192.659,336,166,336c-44.112,0-80-35.888-80-80s35.888-80,80-80
				c26.659,0,51.68,13.476,66.452,35.473c-4.171,2.427-8.507,4.948-12.996,7.558C207.389,201.628,187.343,191,166,191z
				 M267.619,334.353l15.688,23.54l-15.414,15.414l-23.54-15.688c-1.729-1.15-3.991-1.113-5.683,0.096
				c-15.424,11.04-33.452,18.507-52.135,21.592c-2.053,0.34-3.681,1.913-4.089,3.953L176.9,411H155.1l-5.546-27.74
				c-0.408-2.04-2.036-3.613-4.089-3.953c-18.683-3.085-36.711-10.552-52.135-21.592c-1.69-1.209-3.954-1.246-5.683-0.096
				l-23.54,15.688l-15.414-15.414l15.688-23.54c1.152-1.729,1.114-3.992-0.096-5.683c-11.04-15.424-18.507-33.452-21.592-52.135
				c-0.339-2.053-1.913-3.681-3.953-4.089L11,266.9V245.1l27.74-5.546c2.04-0.408,3.614-2.036,3.953-4.089
				c3.085-18.683,10.552-36.711,21.592-52.135c1.21-1.69,1.248-3.953,0.096-5.683l-15.688-23.54l15.414-15.414l23.54,15.688
				c1.731,1.152,3.992,1.115,5.683-0.096c15.424-11.04,33.452-18.507,52.135-21.592c2.053-0.34,3.681-1.913,4.089-3.953L155.1,101
				H176.9l5.546,27.74c0.408,2.04,2.036,3.613,4.089,3.953c18.683,3.085,36.711,10.552,52.135,21.592
				c1.691,1.211,3.955,1.248,5.683,0.096l23.54-15.688l15.414,15.414l-15.688,23.54c-1.153,1.73-1.114,3.995,0.098,5.686
				c1.261,1.759,2.487,3.584,3.676,5.449c-8.949,5.223-18.999,11.083-30.288,17.654C224.534,181.379,196.205,166,166,166
				c-49.626,0-90,40.374-90,90s40.374,90,90,90c30.205,0,58.534-15.379,75.105-40.437c11.288,6.572,21.339,12.431,30.288,17.655
				c-1.189,1.865-2.415,3.691-3.676,5.449C266.505,330.357,266.466,332.622,267.619,334.353z M421,371c-5.514,0-10-4.486-10-10
				s4.486-10,10-10s10,4.486,10,10S426.514,371,421,371z" fill="#000000" class="color000000 svgShape"></path>
        <path d="M381 186c-1.519 0-2.955.69-3.904 1.877L358.597 211H306c-2.762 0-5 2.238-5 5s2.238 5 5 5h55c1.519 0 2.955-.69 3.904-1.877L383.403 196h88.255c2.229 8.612 10.043 15 19.342 15 11.028 0 20-8.972 20-20s-8.972-20-20-20c-9.299 0-17.113 6.388-19.342 15H381zM491 181c5.514 0 10 4.486 10 10s-4.486 10-10 10-10-4.486-10-10S485.486 181 491 181zM491 301c-9.299 0-17.113 6.388-19.342 15h-88.255l-18.499-23.123C363.955 291.69 362.519 291 361 291h-55c-2.762 0-5 2.238-5 5s2.238 5 5 5h52.597l18.499 23.123C378.045 325.31 379.481 326 381 326h90.658c2.229 8.612 10.043 15 19.342 15 11.028 0 20-8.972 20-20S502.028 301 491 301zM491 331c-5.514 0-10-4.486-10-10s4.486-10 10-10 10 4.486 10 10S496.514 331 491 331zM491 236c-9.299 0-17.113 6.388-19.342 15H381c-2.762 0-5 2.238-5 5s2.238 5 5 5h90.658c2.229 8.612 10.043 15 19.342 15 11.028 0 20-8.972 20-20S502.028 236 491 236zM491 266c-5.514 0-10-4.486-10-10s4.486-10 10-10 10 4.486 10 10S496.514 266 491 266zM336 236h-70c-2.762 0-5 2.238-5 5s2.238 5 5 5h70c2.762 0 5-2.238 5-5S338.762 236 336 236zM336 266h-70c-2.762 0-5 2.238-5 5s2.238 5 5 5h70c2.762 0 5-2.238 5-5S338.762 266 336 266zM136 256c0 16.542 13.458 30 30 30s30-13.458 30-30-13.458-30-30-30S136 239.458 136 256zM186 256c0 11.028-8.972 20-20 20s-20-8.972-20-20 8.972-20 20-20S186 244.972 186 256z" fill="#000000" class="color000000 svgShape"></path>
      </g>
    </g>
  </g>
</svg>
