<svg xmlns="http://www.w3.org/2000/svg" xml:space="preserve" viewBox="0 0 512 512" enable-background="new 0 0 512 512" id="11331545">
  <g id="_x30_5_x2C__USB_x2C__storage_x2C__Usb_Flash_Drive_x2C__flash_disk_x2C__technology_x2C__digital" fill="#000000" class="color000000 svgShape">
    <g fill="#000000" class="color000000 svgShape">
      <rect width="130" height="120.25" x="191" y="6" fill="#ffffff" class="colordfe8eb svgShape"></rect>
      <path d="M336,121v26.75H176V121C196.182,121,315.836,121,336,121z" fill="#f2e6ce" class="colorcee0f2 svgShape"></path>
      <polygon points="346 176 346 211 259.5 232 166 211 166 176 256 158.5" fill="#f6c25b" class="colorf6df5b svgShape"></polygon>
      <circle cx="463.7" cy="448.5" r="25" fill="#f6c25b" class="colorf6df5b svgShape"></circle>
      <circle cx="433.7" cy="337.25" r="25" fill="#e6b85e" class="colorbde65e svgShape"></circle>
      <circle cx="463.7" cy="226" r="25" fill="#e1b359" class="colore17559 svgShape"></circle>
      <circle cx="48.3" cy="226" r="25" fill="#e1b359" class="colore17559 svgShape"></circle>
      <circle cx="78.3" cy="337.25" r="25" fill="#e6b85e" class="colorbde65e svgShape"></circle>
      <circle cx="48.3" cy="448.5" r="25" fill="#f6c25b" class="colorf6df5b svgShape"></circle>
      <path d="M166,211c0,22.17,0,201.482,0,227.6c0,17.89,14.51,32.4,32.4,32.4c16.5,0,101.344,0,115.2,0
			c17.89,0,32.4-14.51,32.4-32.4V426c0-31.793,0-183.56,0-215H166z" fill="#d4b371" class="color717ed4 svgShape"></path>
      <rect width="20" height="35" x="216" y="46" fill="#ffb729" class="coloreec158 svgShape"></rect>
      <rect width="20" height="35" x="276" y="46" fill="#ffb729" class="coloreec158 svgShape"></rect>
      <path d="M346,141v35H166v-35C203.507,141,305.13,141,346,141z" fill="#d4b371" class="color717ed4 svgShape"></path>
      <path d="M306,482.4c0,13.03-10.57,23.6-23.6,23.6h-52.8c-13.03,0-23.6-10.57-23.6-23.6
			c0-15.764,0-105.505,0-131.4c0-44.582,54.081-66.619,85.35-35.35C300.4,324.7,306,337.2,306,351
			C306,375.219,306,473.565,306,482.4z" fill="#f6c25b" class="colorf6df5b svgShape"></path>
      <circle cx="256" cy="351" r="24.667" fill="#ffb729" class="coloreec158 svgShape"></circle>
      <g fill="#000000" class="color000000 svgShape">
        <path d="M236 41h-20c-2.762 0-5 2.239-5 5v35c0 2.761 2.238 5 5 5h20c2.762 0 5-2.239 5-5V46C241 43.239 238.762 41 236 41zM231 76h-10V51h10V76zM296 41h-20c-2.762 0-5 2.239-5 5v35c0 2.761 2.238 5 5 5h20c2.762 0 5-2.239 5-5V46C301 43.239 298.762 41 296 41zM291 76h-10V51h10V76zM256 321c-16.542 0-30 13.458-30 30s13.458 30 30 30 30-13.458 30-30S272.542 321 256 321zM256 371c-11.028 0-20-8.972-20-20s8.972-20 20-20 20 8.972 20 20S267.028 371 256 371z" fill="#000000" class="color000000 svgShape"></path>
        <path d="M463.7,418.5c-14.838,0-27.187,10.831-29.575,25h-37.176l-8.68-19.53c-0.803-1.806-2.594-2.97-4.569-2.97H351v-78.75
				h53.125c2.388,14.169,14.738,25,29.575,25c16.542,0,30-13.458,30-30s-13.458-30-30-30c-14.838,0-27.187,10.831-29.575,25H351
				V253.5h32.7c1.976,0,3.767-1.164,4.569-2.969l8.68-19.531h37.176c2.388,14.169,14.738,25,29.575,25c16.542,0,30-13.458,30-30
				s-13.458-30-30-30c-14.838,0-27.187,10.831-29.575,25H393.7c-1.976,0-3.767,1.164-4.569,2.969l-8.68,19.531H351V141
				c0-2.761-2.238-5-5-5h-5v-15c0-2.761-2.238-5-5-5h-10V6c0-2.761-2.238-5-5-5H191c-2.762,0-5,2.239-5,5v110h-10
				c-2.762,0-5,2.239-5,5v15h-5c-2.762,0-5,2.239-5,5v102.5h-29.451l-8.68-19.531c-0.803-1.806-2.594-2.969-4.569-2.969H77.875
				c-2.388-14.169-14.738-25-29.575-25c-16.542,0-30,13.458-30,30s13.458,30,30,30c14.838,0,27.187-10.831,29.575-25h37.176
				l8.68,19.531c0.803,1.805,2.594,2.969,4.569,2.969H161v78.75h-53.125c-2.388-14.169-14.738-25-29.575-25
				c-16.542,0-30,13.458-30,30s13.458,30,30,30c14.838,0,27.187-10.831,29.575-25H161V421h-32.7c-1.976,0-3.767,1.164-4.569,2.97
				l-8.68,19.53H77.875c-2.388-14.169-14.738-25-29.575-25c-16.542,0-30,13.458-30,30s13.458,30,30,30
				c14.838,0,27.187-10.831,29.575-25H118.3c1.976,0,3.767-1.164,4.569-2.97l8.68-19.53H161v7.6c0,20.623,16.777,37.4,37.4,37.4h2.6
				v6.4c0,15.77,12.83,28.6,28.6,28.6H282.4c15.77,0,28.6-12.83,28.6-28.6V476h2.6c20.623,0,37.4-16.777,37.4-37.4V431h29.451
				l8.68,19.53c0.803,1.806,2.594,2.97,4.569,2.97h40.425c2.388,14.169,14.738,25,29.575,25c16.542,0,30-13.458,30-30
				S480.242,418.5,463.7,418.5z M433.7,317.25c11.028,0,20,8.972,20,20s-8.972,20-20,20s-20-8.972-20-20
				S422.672,317.25,433.7,317.25z M463.7,206c11.028,0,20,8.972,20,20s-8.972,20-20,20s-20-8.972-20-20S452.672,206,463.7,206z
				 M48.3,246c-11.028,0-20-8.972-20-20s8.972-20,20-20s20,8.972,20,20S59.328,246,48.3,246z M78.3,357.25c-11.028,0-20-8.972-20-20
				s8.972-20,20-20s20,8.972,20,20S89.328,357.25,78.3,357.25z M48.3,468.5c-11.028,0-20-8.972-20-20s8.972-20,20-20s20,8.972,20,20
				S59.328,468.5,48.3,468.5z M171,181h170v25H171V181z M196,11h120v105H196V11z M181,126h10h130h10v10H181V126z M176,146h160h5v25
				H171v-25H176z M301,482.4c0,10.256-8.344,18.6-18.6,18.6H229.6c-10.256,0-18.6-8.344-18.6-18.6V351c0-24.813,20.187-45,45-45
				s45,20.187,45,45V482.4z M341,438.6c0,15.108-12.292,27.4-27.4,27.4H311V351c0-30.327-24.673-55-55-55s-55,24.673-55,55v115h-2.6
				c-15.108,0-27.4-12.292-27.4-27.4V216h170V438.6z M463.7,468.5c-11.028,0-20-8.972-20-20s8.972-20,20-20s20,8.972,20,20
				S474.729,468.5,463.7,468.5z" fill="#000000" class="color000000 svgShape"></path>
      </g>
    </g>
  </g>
</svg>
